{"metadata": {"schema_version": "0.2", "title": "None", "source_filename": "baseline46.mid", "source_format": "midi"}, "resolution": 12, "tempos": [{"time": 0, "qpm": 100.0}], "tracks": [{"program": 0, "is_drum": false, "name": "track", "notes": [{"time": 0, "pitch": 15, "duration": 24, "velocity": 100}, {"time": 0, "pitch": 19, "duration": 24, "velocity": 100}, {"time": 0, "pitch": 22, "duration": 24, "velocity": 100}, {"time": 24, "pitch": 32, "duration": 24, "velocity": 100}, {"time": 24, "pitch": 35, "duration": 24, "velocity": 100}, {"time": 24, "pitch": 39, "duration": 24, "velocity": 100}, {"time": 48, "pitch": 74, "duration": 24, "velocity": 100}, {"time": 48, "pitch": 77, "duration": 24, "velocity": 100}, {"time": 48, "pitch": 81, "duration": 24, "velocity": 100}, {"time": 72, "pitch": 44, "duration": 24, "velocity": 100}, {"time": 72, "pitch": 48, "duration": 24, "velocity": 100}, {"time": 72, "pitch": 51, "duration": 24, "velocity": 100}, {"time": 96, "pitch": 98, "duration": 24, "velocity": 100}, {"time": 96, "pitch": 101, "duration": 24, "velocity": 100}, {"time": 96, "pitch": 105, "duration": 24, "velocity": 100}, {"time": 120, "pitch": 16, "duration": 24, "velocity": 100}, {"time": 120, "pitch": 19, "duration": 24, "velocity": 100}, {"time": 120, "pitch": 23, "duration": 24, "velocity": 100}, {"time": 144, "pitch": 102, "duration": 24, "velocity": 100}, {"time": 144, "pitch": 106, "duration": 24, "velocity": 100}, {"time": 144, "pitch": 109, "duration": 24, "velocity": 100}, {"time": 168, "pitch": 76, "duration": 24, "velocity": 100}, {"time": 168, "pitch": 80, "duration": 24, "velocity": 100}, {"time": 168, "pitch": 83, "duration": 24, "velocity": 100}, {"time": 192, "pitch": 35, "duration": 48, "velocity": 100}, {"time": 192, "pitch": 38, "duration": 48, "velocity": 100}, {"time": 192, "pitch": 42, "duration": 48, "velocity": 100}, {"time": 240, "pitch": 33, "duration": 24, "velocity": 100}, {"time": 240, "pitch": 37, "duration": 24, "velocity": 100}, {"time": 240, "pitch": 40, "duration": 24, "velocity": 100}, {"time": 264, "pitch": 72, "duration": 48, "velocity": 100}, {"time": 264, "pitch": 76, "duration": 48, "velocity": 100}, {"time": 264, "pitch": 79, "duration": 48, "velocity": 100}, {"time": 312, "pitch": 22, "duration": 24, "velocity": 100}, {"time": 312, "pitch": 26, "duration": 24, "velocity": 100}, {"time": 312, "pitch": 29, "duration": 24, "velocity": 100}, {"time": 336, "pitch": 107, "duration": 24, "velocity": 100}, {"time": 336, "pitch": 111, "duration": 24, "velocity": 100}, {"time": 336, "pitch": 114, "duration": 24, "velocity": 100}, {"time": 360, "pitch": 87, "duration": 48, "velocity": 100}, {"time": 360, "pitch": 91, "duration": 48, "velocity": 100}, {"time": 360, "pitch": 94, "duration": 48, "velocity": 100}, {"time": 408, "pitch": 43, "duration": 48, "velocity": 100}, {"time": 408, "pitch": 46, "duration": 48, "velocity": 100}, {"time": 408, "pitch": 50, "duration": 48, "velocity": 100}, {"time": 456, "pitch": 80, "duration": 48, "velocity": 100}, {"time": 456, "pitch": 83, "duration": 48, "velocity": 100}, {"time": 456, "pitch": 87, "duration": 48, "velocity": 100}, {"time": 504, "pitch": 104, "duration": 48, "velocity": 100}, {"time": 504, "pitch": 107, "duration": 48, "velocity": 100}, {"time": 504, "pitch": 111, "duration": 48, "velocity": 100}, {"time": 552, "pitch": 38, "duration": 48, "velocity": 100}, {"time": 552, "pitch": 41, "duration": 48, "velocity": 100}, {"time": 552, "pitch": 45, "duration": 48, "velocity": 100}, {"time": 600, "pitch": 73, "duration": 48, "velocity": 100}, {"time": 600, "pitch": 77, "duration": 48, "velocity": 100}, {"time": 600, "pitch": 80, "duration": 48, "velocity": 100}, {"time": 648, "pitch": 101, "duration": 24, "velocity": 100}, {"time": 648, "pitch": 105, "duration": 24, "velocity": 100}, {"time": 648, "pitch": 108, "duration": 24, "velocity": 100}, {"time": 672, "pitch": 42, "duration": 48, "velocity": 100}, {"time": 672, "pitch": 46, "duration": 48, "velocity": 100}, {"time": 672, "pitch": 49, "duration": 48, "velocity": 100}, {"time": 720, "pitch": 49, "duration": 24, "velocity": 100}, {"time": 720, "pitch": 52, "duration": 24, "velocity": 100}, {"time": 720, "pitch": 56, "duration": 24, "velocity": 100}, {"time": 744, "pitch": 123, "duration": 24, "velocity": 100}, {"time": 744, "pitch": 127, "duration": 24, "velocity": 100}, {"time": 768, "pitch": 107, "duration": 24, "velocity": 100}, {"time": 768, "pitch": 111, "duration": 24, "velocity": 100}, {"time": 768, "pitch": 114, "duration": 24, "velocity": 100}, {"time": 792, "pitch": 106, "duration": 48, "velocity": 100}, {"time": 792, "pitch": 109, "duration": 48, "velocity": 100}, {"time": 792, "pitch": 113, "duration": 48, "velocity": 100}, {"time": 840, "pitch": 75, "duration": 48, "velocity": 100}, {"time": 840, "pitch": 78, "duration": 48, "velocity": 100}, {"time": 840, "pitch": 82, "duration": 48, "velocity": 100}, {"time": 888, "pitch": 107, "duration": 48, "velocity": 100}, {"time": 888, "pitch": 111, "duration": 48, "velocity": 100}, {"time": 888, "pitch": 114, "duration": 48, "velocity": 100}, {"time": 936, "pitch": 1, "duration": 48, "velocity": 100}, {"time": 936, "pitch": 5, "duration": 48, "velocity": 100}, {"time": 936, "pitch": 8, "duration": 48, "velocity": 100}, {"time": 984, "pitch": 98, "duration": 24, "velocity": 100}, {"time": 984, "pitch": 102, "duration": 24, "velocity": 100}, {"time": 984, "pitch": 105, "duration": 24, "velocity": 100}, {"time": 1008, "pitch": 33, "duration": 24, "velocity": 100}, {"time": 1008, "pitch": 37, "duration": 24, "velocity": 100}, {"time": 1008, "pitch": 40, "duration": 24, "velocity": 100}, {"time": 1032, "pitch": 67, "duration": 48, "velocity": 100}, {"time": 1032, "pitch": 70, "duration": 48, "velocity": 100}, {"time": 1032, "pitch": 74, "duration": 48, "velocity": 100}, {"time": 1080, "pitch": 112, "duration": 24, "velocity": 100}, {"time": 1080, "pitch": 115, "duration": 24, "velocity": 100}, {"time": 1080, "pitch": 119, "duration": 24, "velocity": 100}, {"time": 1104, "pitch": 67, "duration": 48, "velocity": 100}, {"time": 1104, "pitch": 71, "duration": 48, "velocity": 100}, {"time": 1104, "pitch": 74, "duration": 48, "velocity": 100}, {"time": 1152, "pitch": 115, "duration": 24, "velocity": 100}, {"time": 1152, "pitch": 118, "duration": 24, "velocity": 100}, {"time": 1152, "pitch": 122, "duration": 24, "velocity": 100}, {"time": 1176, "pitch": 24, "duration": 24, "velocity": 100}, {"time": 1176, "pitch": 28, "duration": 24, "velocity": 100}, {"time": 1176, "pitch": 31, "duration": 24, "velocity": 100}, {"time": 1200, "pitch": 51, "duration": 24, "velocity": 100}, {"time": 1200, "pitch": 54, "duration": 24, "velocity": 100}, {"time": 1200, "pitch": 58, "duration": 24, "velocity": 100}, {"time": 1224, "pitch": 36, "duration": 24, "velocity": 100}, {"time": 1224, "pitch": 39, "duration": 24, "velocity": 100}, {"time": 1224, "pitch": 43, "duration": 24, "velocity": 100}, {"time": 1248, "pitch": 126, "duration": 24, "velocity": 100}, {"time": 1272, "pitch": 125, "duration": 48, "velocity": 100}, {"time": 1320, "pitch": 51, "duration": 48, "velocity": 100}, {"time": 1320, "pitch": 55, "duration": 48, "velocity": 100}, {"time": 1320, "pitch": 58, "duration": 48, "velocity": 100}, {"time": 1368, "pitch": 63, "duration": 24, "velocity": 100}, {"time": 1368, "pitch": 67, "duration": 24, "velocity": 100}, {"time": 1368, "pitch": 70, "duration": 24, "velocity": 100}, {"time": 1392, "pitch": 86, "duration": 24, "velocity": 100}, {"time": 1392, "pitch": 89, "duration": 24, "velocity": 100}, {"time": 1392, "pitch": 93, "duration": 24, "velocity": 100}, {"time": 1416, "pitch": 70, "duration": 48, "velocity": 100}, {"time": 1416, "pitch": 73, "duration": 48, "velocity": 100}, {"time": 1416, "pitch": 77, "duration": 48, "velocity": 100}, {"time": 1464, "pitch": 70, "duration": 48, "velocity": 100}, {"time": 1464, "pitch": 73, "duration": 48, "velocity": 100}, {"time": 1464, "pitch": 77, "duration": 48, "velocity": 100}, {"time": 1512, "pitch": 80, "duration": 24, "velocity": 100}, {"time": 1512, "pitch": 83, "duration": 24, "velocity": 100}, {"time": 1512, "pitch": 87, "duration": 24, "velocity": 100}]}]}