{"metadata": {"schema_version": "0.2", "title": "None", "source_filename": "baseline7.mid", "source_format": "midi"}, "resolution": 12, "tempos": [{"time": 0, "qpm": 100.0}], "tracks": [{"program": 0, "is_drum": false, "name": "track", "notes": [{"time": 0, "pitch": 15, "duration": 48, "velocity": 100}, {"time": 0, "pitch": 19, "duration": 48, "velocity": 100}, {"time": 0, "pitch": 22, "duration": 48, "velocity": 100}, {"time": 48, "pitch": 52, "duration": 48, "velocity": 100}, {"time": 48, "pitch": 56, "duration": 48, "velocity": 100}, {"time": 48, "pitch": 59, "duration": 48, "velocity": 100}, {"time": 96, "pitch": 76, "duration": 24, "velocity": 100}, {"time": 96, "pitch": 80, "duration": 24, "velocity": 100}, {"time": 96, "pitch": 83, "duration": 24, "velocity": 100}, {"time": 120, "pitch": 118, "duration": 24, "velocity": 100}, {"time": 120, "pitch": 122, "duration": 24, "velocity": 100}, {"time": 120, "pitch": 125, "duration": 24, "velocity": 100}, {"time": 144, "pitch": 34, "duration": 24, "velocity": 100}, {"time": 144, "pitch": 38, "duration": 24, "velocity": 100}, {"time": 144, "pitch": 41, "duration": 24, "velocity": 100}, {"time": 168, "pitch": 42, "duration": 48, "velocity": 100}, {"time": 168, "pitch": 46, "duration": 48, "velocity": 100}, {"time": 168, "pitch": 49, "duration": 48, "velocity": 100}, {"time": 216, "pitch": 68, "duration": 24, "velocity": 100}, {"time": 216, "pitch": 72, "duration": 24, "velocity": 100}, {"time": 216, "pitch": 75, "duration": 24, "velocity": 100}, {"time": 240, "pitch": 127, "duration": 24, "velocity": 100}, {"time": 264, "pitch": 100, "duration": 24, "velocity": 100}, {"time": 264, "pitch": 103, "duration": 24, "velocity": 100}, {"time": 264, "pitch": 107, "duration": 24, "velocity": 100}, {"time": 288, "pitch": 115, "duration": 48, "velocity": 100}, {"time": 288, "pitch": 119, "duration": 48, "velocity": 100}, {"time": 288, "pitch": 122, "duration": 48, "velocity": 100}, {"time": 336, "pitch": 12, "duration": 48, "velocity": 100}, {"time": 336, "pitch": 15, "duration": 48, "velocity": 100}, {"time": 336, "pitch": 19, "duration": 48, "velocity": 100}, {"time": 384, "pitch": 57, "duration": 24, "velocity": 100}, {"time": 384, "pitch": 60, "duration": 24, "velocity": 100}, {"time": 384, "pitch": 64, "duration": 24, "velocity": 100}, {"time": 408, "pitch": 66, "duration": 24, "velocity": 100}, {"time": 408, "pitch": 69, "duration": 24, "velocity": 100}, {"time": 408, "pitch": 73, "duration": 24, "velocity": 100}, {"time": 432, "pitch": 64, "duration": 48, "velocity": 100}, {"time": 432, "pitch": 67, "duration": 48, "velocity": 100}, {"time": 432, "pitch": 71, "duration": 48, "velocity": 100}, {"time": 480, "pitch": 125, "duration": 48, "velocity": 100}, {"time": 528, "pitch": 56, "duration": 24, "velocity": 100}, {"time": 528, "pitch": 60, "duration": 24, "velocity": 100}, {"time": 528, "pitch": 63, "duration": 24, "velocity": 100}, {"time": 552, "pitch": 20, "duration": 48, "velocity": 100}, {"time": 552, "pitch": 23, "duration": 48, "velocity": 100}, {"time": 552, "pitch": 27, "duration": 48, "velocity": 100}, {"time": 600, "pitch": 87, "duration": 24, "velocity": 100}, {"time": 600, "pitch": 90, "duration": 24, "velocity": 100}, {"time": 600, "pitch": 94, "duration": 24, "velocity": 100}, {"time": 624, "pitch": 27, "duration": 24, "velocity": 100}, {"time": 624, "pitch": 30, "duration": 24, "velocity": 100}, {"time": 624, "pitch": 34, "duration": 24, "velocity": 100}, {"time": 648, "pitch": 82, "duration": 48, "velocity": 100}, {"time": 648, "pitch": 86, "duration": 48, "velocity": 100}, {"time": 648, "pitch": 89, "duration": 48, "velocity": 100}, {"time": 696, "pitch": 111, "duration": 48, "velocity": 100}, {"time": 696, "pitch": 114, "duration": 48, "velocity": 100}, {"time": 696, "pitch": 118, "duration": 48, "velocity": 100}, {"time": 744, "pitch": 3, "duration": 48, "velocity": 100}, {"time": 744, "pitch": 7, "duration": 48, "velocity": 100}, {"time": 744, "pitch": 10, "duration": 48, "velocity": 100}, {"time": 792, "pitch": 51, "duration": 48, "velocity": 100}, {"time": 792, "pitch": 55, "duration": 48, "velocity": 100}, {"time": 792, "pitch": 58, "duration": 48, "velocity": 100}, {"time": 840, "pitch": 3, "duration": 48, "velocity": 100}, {"time": 840, "pitch": 7, "duration": 48, "velocity": 100}, {"time": 840, "pitch": 10, "duration": 48, "velocity": 100}, {"time": 888, "pitch": 127, "duration": 24, "velocity": 100}, {"time": 912, "pitch": 117, "duration": 24, "velocity": 100}, {"time": 912, "pitch": 121, "duration": 24, "velocity": 100}, {"time": 912, "pitch": 124, "duration": 24, "velocity": 100}, {"time": 936, "pitch": 95, "duration": 48, "velocity": 100}, {"time": 936, "pitch": 99, "duration": 48, "velocity": 100}, {"time": 936, "pitch": 102, "duration": 48, "velocity": 100}, {"time": 984, "pitch": 90, "duration": 48, "velocity": 100}, {"time": 984, "pitch": 94, "duration": 48, "velocity": 100}, {"time": 984, "pitch": 97, "duration": 48, "velocity": 100}, {"time": 1032, "pitch": 42, "duration": 48, "velocity": 100}, {"time": 1032, "pitch": 45, "duration": 48, "velocity": 100}, {"time": 1032, "pitch": 49, "duration": 48, "velocity": 100}, {"time": 1080, "pitch": 34, "duration": 48, "velocity": 100}, {"time": 1080, "pitch": 37, "duration": 48, "velocity": 100}, {"time": 1080, "pitch": 41, "duration": 48, "velocity": 100}, {"time": 1128, "pitch": 26, "duration": 24, "velocity": 100}, {"time": 1128, "pitch": 30, "duration": 24, "velocity": 100}, {"time": 1128, "pitch": 33, "duration": 24, "velocity": 100}, {"time": 1152, "pitch": 17, "duration": 24, "velocity": 100}, {"time": 1152, "pitch": 20, "duration": 24, "velocity": 100}, {"time": 1152, "pitch": 24, "duration": 24, "velocity": 100}, {"time": 1176, "pitch": 93, "duration": 48, "velocity": 100}, {"time": 1176, "pitch": 97, "duration": 48, "velocity": 100}, {"time": 1176, "pitch": 100, "duration": 48, "velocity": 100}, {"time": 1224, "pitch": 45, "duration": 24, "velocity": 100}, {"time": 1224, "pitch": 48, "duration": 24, "velocity": 100}, {"time": 1224, "pitch": 52, "duration": 24, "velocity": 100}, {"time": 1248, "pitch": 56, "duration": 24, "velocity": 100}, {"time": 1248, "pitch": 60, "duration": 24, "velocity": 100}, {"time": 1248, "pitch": 63, "duration": 24, "velocity": 100}, {"time": 1272, "pitch": 48, "duration": 48, "velocity": 100}, {"time": 1272, "pitch": 51, "duration": 48, "velocity": 100}, {"time": 1272, "pitch": 55, "duration": 48, "velocity": 100}, {"time": 1320, "pitch": 51, "duration": 24, "velocity": 100}, {"time": 1320, "pitch": 55, "duration": 24, "velocity": 100}, {"time": 1320, "pitch": 58, "duration": 24, "velocity": 100}, {"time": 1344, "pitch": 24, "duration": 48, "velocity": 100}, {"time": 1344, "pitch": 28, "duration": 48, "velocity": 100}, {"time": 1344, "pitch": 31, "duration": 48, "velocity": 100}, {"time": 1392, "pitch": 78, "duration": 24, "velocity": 100}, {"time": 1392, "pitch": 81, "duration": 24, "velocity": 100}, {"time": 1392, "pitch": 85, "duration": 24, "velocity": 100}, {"time": 1416, "pitch": 97, "duration": 24, "velocity": 100}, {"time": 1416, "pitch": 101, "duration": 24, "velocity": 100}, {"time": 1416, "pitch": 104, "duration": 24, "velocity": 100}, {"time": 1440, "pitch": 49, "duration": 24, "velocity": 100}, {"time": 1440, "pitch": 53, "duration": 24, "velocity": 100}, {"time": 1440, "pitch": 56, "duration": 24, "velocity": 100}, {"time": 1464, "pitch": 24, "duration": 48, "velocity": 100}, {"time": 1464, "pitch": 27, "duration": 48, "velocity": 100}, {"time": 1464, "pitch": 31, "duration": 48, "velocity": 100}, {"time": 1512, "pitch": 97, "duration": 24, "velocity": 100}, {"time": 1512, "pitch": 100, "duration": 24, "velocity": 100}, {"time": 1512, "pitch": 104, "duration": 24, "velocity": 100}]}]}