{"metadata": {"schema_version": "0.2", "title": "None", "source_filename": "baseline39.mid", "source_format": "midi"}, "resolution": 12, "tempos": [{"time": 0, "qpm": 100.0}], "tracks": [{"program": 0, "is_drum": false, "name": "track", "notes": [{"time": 0, "pitch": 8, "duration": 48, "velocity": 100}, {"time": 0, "pitch": 11, "duration": 48, "velocity": 100}, {"time": 0, "pitch": 15, "duration": 48, "velocity": 100}, {"time": 48, "pitch": 122, "duration": 24, "velocity": 100}, {"time": 48, "pitch": 126, "duration": 24, "velocity": 100}, {"time": 72, "pitch": 95, "duration": 24, "velocity": 100}, {"time": 72, "pitch": 98, "duration": 24, "velocity": 100}, {"time": 72, "pitch": 102, "duration": 24, "velocity": 100}, {"time": 96, "pitch": 57, "duration": 24, "velocity": 100}, {"time": 96, "pitch": 60, "duration": 24, "velocity": 100}, {"time": 96, "pitch": 64, "duration": 24, "velocity": 100}, {"time": 120, "pitch": 40, "duration": 48, "velocity": 100}, {"time": 120, "pitch": 44, "duration": 48, "velocity": 100}, {"time": 120, "pitch": 47, "duration": 48, "velocity": 100}, {"time": 168, "pitch": 124, "duration": 48, "velocity": 100}, {"time": 216, "pitch": 21, "duration": 24, "velocity": 100}, {"time": 216, "pitch": 25, "duration": 24, "velocity": 100}, {"time": 216, "pitch": 28, "duration": 24, "velocity": 100}, {"time": 240, "pitch": 93, "duration": 48, "velocity": 100}, {"time": 240, "pitch": 96, "duration": 48, "velocity": 100}, {"time": 240, "pitch": 100, "duration": 48, "velocity": 100}, {"time": 288, "pitch": 102, "duration": 48, "velocity": 100}, {"time": 288, "pitch": 105, "duration": 48, "velocity": 100}, {"time": 288, "pitch": 109, "duration": 48, "velocity": 100}, {"time": 336, "pitch": 94, "duration": 48, "velocity": 100}, {"time": 336, "pitch": 98, "duration": 48, "velocity": 100}, {"time": 336, "pitch": 101, "duration": 48, "velocity": 100}, {"time": 384, "pitch": 84, "duration": 24, "velocity": 100}, {"time": 384, "pitch": 88, "duration": 24, "velocity": 100}, {"time": 384, "pitch": 91, "duration": 24, "velocity": 100}, {"time": 408, "pitch": 56, "duration": 24, "velocity": 100}, {"time": 408, "pitch": 60, "duration": 24, "velocity": 100}, {"time": 408, "pitch": 63, "duration": 24, "velocity": 100}, {"time": 432, "pitch": 59, "duration": 24, "velocity": 100}, {"time": 432, "pitch": 62, "duration": 24, "velocity": 100}, {"time": 432, "pitch": 66, "duration": 24, "velocity": 100}, {"time": 456, "pitch": 62, "duration": 24, "velocity": 100}, {"time": 456, "pitch": 65, "duration": 24, "velocity": 100}, {"time": 456, "pitch": 69, "duration": 24, "velocity": 100}, {"time": 480, "pitch": 123, "duration": 48, "velocity": 100}, {"time": 480, "pitch": 126, "duration": 48, "velocity": 100}, {"time": 528, "pitch": 122, "duration": 24, "velocity": 100}, {"time": 528, "pitch": 125, "duration": 24, "velocity": 100}, {"time": 552, "pitch": 14, "duration": 48, "velocity": 100}, {"time": 552, "pitch": 17, "duration": 48, "velocity": 100}, {"time": 552, "pitch": 21, "duration": 48, "velocity": 100}, {"time": 600, "pitch": 14, "duration": 24, "velocity": 100}, {"time": 600, "pitch": 17, "duration": 24, "velocity": 100}, {"time": 600, "pitch": 21, "duration": 24, "velocity": 100}, {"time": 624, "pitch": 51, "duration": 48, "velocity": 100}, {"time": 624, "pitch": 55, "duration": 48, "velocity": 100}, {"time": 624, "pitch": 58, "duration": 48, "velocity": 100}, {"time": 672, "pitch": 102, "duration": 24, "velocity": 100}, {"time": 672, "pitch": 106, "duration": 24, "velocity": 100}, {"time": 672, "pitch": 109, "duration": 24, "velocity": 100}, {"time": 696, "pitch": 98, "duration": 24, "velocity": 100}, {"time": 696, "pitch": 101, "duration": 24, "velocity": 100}, {"time": 696, "pitch": 105, "duration": 24, "velocity": 100}, {"time": 720, "pitch": 86, "duration": 48, "velocity": 100}, {"time": 720, "pitch": 90, "duration": 48, "velocity": 100}, {"time": 720, "pitch": 93, "duration": 48, "velocity": 100}, {"time": 768, "pitch": 98, "duration": 48, "velocity": 100}, {"time": 768, "pitch": 102, "duration": 48, "velocity": 100}, {"time": 768, "pitch": 105, "duration": 48, "velocity": 100}, {"time": 816, "pitch": 90, "duration": 48, "velocity": 100}, {"time": 816, "pitch": 94, "duration": 48, "velocity": 100}, {"time": 816, "pitch": 97, "duration": 48, "velocity": 100}, {"time": 864, "pitch": 28, "duration": 24, "velocity": 100}, {"time": 864, "pitch": 32, "duration": 24, "velocity": 100}, {"time": 864, "pitch": 35, "duration": 24, "velocity": 100}, {"time": 888, "pitch": 100, "duration": 48, "velocity": 100}, {"time": 888, "pitch": 103, "duration": 48, "velocity": 100}, {"time": 888, "pitch": 107, "duration": 48, "velocity": 100}, {"time": 936, "pitch": 78, "duration": 24, "velocity": 100}, {"time": 936, "pitch": 82, "duration": 24, "velocity": 100}, {"time": 936, "pitch": 85, "duration": 24, "velocity": 100}, {"time": 960, "pitch": 59, "duration": 48, "velocity": 100}, {"time": 960, "pitch": 62, "duration": 48, "velocity": 100}, {"time": 960, "pitch": 66, "duration": 48, "velocity": 100}, {"time": 1008, "pitch": 127, "duration": 24, "velocity": 100}, {"time": 1032, "pitch": 126, "duration": 48, "velocity": 100}, {"time": 1080, "pitch": 20, "duration": 24, "velocity": 100}, {"time": 1080, "pitch": 24, "duration": 24, "velocity": 100}, {"time": 1080, "pitch": 27, "duration": 24, "velocity": 100}, {"time": 1104, "pitch": 85, "duration": 24, "velocity": 100}, {"time": 1104, "pitch": 89, "duration": 24, "velocity": 100}, {"time": 1104, "pitch": 92, "duration": 24, "velocity": 100}, {"time": 1128, "pitch": 105, "duration": 24, "velocity": 100}, {"time": 1128, "pitch": 109, "duration": 24, "velocity": 100}, {"time": 1128, "pitch": 112, "duration": 24, "velocity": 100}, {"time": 1152, "pitch": 90, "duration": 24, "velocity": 100}, {"time": 1152, "pitch": 93, "duration": 24, "velocity": 100}, {"time": 1152, "pitch": 97, "duration": 24, "velocity": 100}, {"time": 1176, "pitch": 89, "duration": 48, "velocity": 100}, {"time": 1176, "pitch": 93, "duration": 48, "velocity": 100}, {"time": 1176, "pitch": 96, "duration": 48, "velocity": 100}, {"time": 1224, "pitch": 116, "duration": 48, "velocity": 100}, {"time": 1224, "pitch": 120, "duration": 48, "velocity": 100}, {"time": 1224, "pitch": 123, "duration": 48, "velocity": 100}, {"time": 1272, "pitch": 18, "duration": 48, "velocity": 100}, {"time": 1272, "pitch": 21, "duration": 48, "velocity": 100}, {"time": 1272, "pitch": 25, "duration": 48, "velocity": 100}, {"time": 1320, "pitch": 99, "duration": 24, "velocity": 100}, {"time": 1320, "pitch": 102, "duration": 24, "velocity": 100}, {"time": 1320, "pitch": 106, "duration": 24, "velocity": 100}, {"time": 1344, "pitch": 24, "duration": 24, "velocity": 100}, {"time": 1344, "pitch": 28, "duration": 24, "velocity": 100}, {"time": 1344, "pitch": 31, "duration": 24, "velocity": 100}, {"time": 1368, "pitch": 59, "duration": 24, "velocity": 100}, {"time": 1368, "pitch": 62, "duration": 24, "velocity": 100}, {"time": 1368, "pitch": 66, "duration": 24, "velocity": 100}, {"time": 1392, "pitch": 69, "duration": 48, "velocity": 100}, {"time": 1392, "pitch": 73, "duration": 48, "velocity": 100}, {"time": 1392, "pitch": 76, "duration": 48, "velocity": 100}, {"time": 1440, "pitch": 105, "duration": 24, "velocity": 100}, {"time": 1440, "pitch": 109, "duration": 24, "velocity": 100}, {"time": 1440, "pitch": 112, "duration": 24, "velocity": 100}, {"time": 1464, "pitch": 2, "duration": 48, "velocity": 100}, {"time": 1464, "pitch": 5, "duration": 48, "velocity": 100}, {"time": 1464, "pitch": 9, "duration": 48, "velocity": 100}, {"time": 1512, "pitch": 5, "duration": 24, "velocity": 100}, {"time": 1512, "pitch": 8, "duration": 24, "velocity": 100}, {"time": 1512, "pitch": 12, "duration": 24, "velocity": 100}]}]}