{"metadata": {"schema_version": "0.2", "title": "None", "source_filename": "baseline31.mid", "source_format": "midi"}, "resolution": 12, "tempos": [{"time": 0, "qpm": 100.0}], "tracks": [{"program": 0, "is_drum": false, "name": "track", "notes": [{"time": 0, "pitch": 0, "duration": 24, "velocity": 100}, {"time": 0, "pitch": 3, "duration": 24, "velocity": 100}, {"time": 0, "pitch": 7, "duration": 24, "velocity": 100}, {"time": 24, "pitch": 42, "duration": 24, "velocity": 100}, {"time": 24, "pitch": 46, "duration": 24, "velocity": 100}, {"time": 24, "pitch": 49, "duration": 24, "velocity": 100}, {"time": 48, "pitch": 88, "duration": 24, "velocity": 100}, {"time": 48, "pitch": 92, "duration": 24, "velocity": 100}, {"time": 48, "pitch": 95, "duration": 24, "velocity": 100}, {"time": 72, "pitch": 44, "duration": 48, "velocity": 100}, {"time": 72, "pitch": 47, "duration": 48, "velocity": 100}, {"time": 72, "pitch": 51, "duration": 48, "velocity": 100}, {"time": 120, "pitch": 97, "duration": 48, "velocity": 100}, {"time": 120, "pitch": 101, "duration": 48, "velocity": 100}, {"time": 120, "pitch": 104, "duration": 48, "velocity": 100}, {"time": 168, "pitch": 10, "duration": 48, "velocity": 100}, {"time": 168, "pitch": 13, "duration": 48, "velocity": 100}, {"time": 168, "pitch": 17, "duration": 48, "velocity": 100}, {"time": 216, "pitch": 65, "duration": 24, "velocity": 100}, {"time": 216, "pitch": 69, "duration": 24, "velocity": 100}, {"time": 216, "pitch": 72, "duration": 24, "velocity": 100}, {"time": 240, "pitch": 74, "duration": 24, "velocity": 100}, {"time": 240, "pitch": 78, "duration": 24, "velocity": 100}, {"time": 240, "pitch": 81, "duration": 24, "velocity": 100}, {"time": 264, "pitch": 6, "duration": 48, "velocity": 100}, {"time": 264, "pitch": 9, "duration": 48, "velocity": 100}, {"time": 264, "pitch": 13, "duration": 48, "velocity": 100}, {"time": 312, "pitch": 86, "duration": 48, "velocity": 100}, {"time": 312, "pitch": 89, "duration": 48, "velocity": 100}, {"time": 312, "pitch": 93, "duration": 48, "velocity": 100}, {"time": 360, "pitch": 26, "duration": 48, "velocity": 100}, {"time": 360, "pitch": 30, "duration": 48, "velocity": 100}, {"time": 360, "pitch": 33, "duration": 48, "velocity": 100}, {"time": 408, "pitch": 13, "duration": 48, "velocity": 100}, {"time": 408, "pitch": 16, "duration": 48, "velocity": 100}, {"time": 408, "pitch": 20, "duration": 48, "velocity": 100}, {"time": 456, "pitch": 29, "duration": 48, "velocity": 100}, {"time": 456, "pitch": 33, "duration": 48, "velocity": 100}, {"time": 456, "pitch": 36, "duration": 48, "velocity": 100}, {"time": 504, "pitch": 37, "duration": 48, "velocity": 100}, {"time": 504, "pitch": 41, "duration": 48, "velocity": 100}, {"time": 504, "pitch": 44, "duration": 48, "velocity": 100}, {"time": 552, "pitch": 5, "duration": 48, "velocity": 100}, {"time": 552, "pitch": 8, "duration": 48, "velocity": 100}, {"time": 552, "pitch": 12, "duration": 48, "velocity": 100}, {"time": 600, "pitch": 56, "duration": 24, "velocity": 100}, {"time": 600, "pitch": 60, "duration": 24, "velocity": 100}, {"time": 600, "pitch": 63, "duration": 24, "velocity": 100}, {"time": 624, "pitch": 77, "duration": 24, "velocity": 100}, {"time": 624, "pitch": 81, "duration": 24, "velocity": 100}, {"time": 624, "pitch": 84, "duration": 24, "velocity": 100}, {"time": 648, "pitch": 21, "duration": 24, "velocity": 100}, {"time": 648, "pitch": 25, "duration": 24, "velocity": 100}, {"time": 648, "pitch": 28, "duration": 24, "velocity": 100}, {"time": 672, "pitch": 15, "duration": 48, "velocity": 100}, {"time": 672, "pitch": 19, "duration": 48, "velocity": 100}, {"time": 672, "pitch": 22, "duration": 48, "velocity": 100}, {"time": 720, "pitch": 0, "duration": 48, "velocity": 100}, {"time": 720, "pitch": 3, "duration": 48, "velocity": 100}, {"time": 720, "pitch": 7, "duration": 48, "velocity": 100}, {"time": 768, "pitch": 41, "duration": 48, "velocity": 100}, {"time": 768, "pitch": 45, "duration": 48, "velocity": 100}, {"time": 768, "pitch": 48, "duration": 48, "velocity": 100}, {"time": 816, "pitch": 53, "duration": 48, "velocity": 100}, {"time": 816, "pitch": 57, "duration": 48, "velocity": 100}, {"time": 816, "pitch": 60, "duration": 48, "velocity": 100}, {"time": 864, "pitch": 34, "duration": 24, "velocity": 100}, {"time": 864, "pitch": 38, "duration": 24, "velocity": 100}, {"time": 864, "pitch": 41, "duration": 24, "velocity": 100}, {"time": 888, "pitch": 50, "duration": 24, "velocity": 100}, {"time": 888, "pitch": 54, "duration": 24, "velocity": 100}, {"time": 888, "pitch": 57, "duration": 24, "velocity": 100}, {"time": 912, "pitch": 126, "duration": 24, "velocity": 100}, {"time": 936, "pitch": 23, "duration": 24, "velocity": 100}, {"time": 936, "pitch": 27, "duration": 24, "velocity": 100}, {"time": 936, "pitch": 30, "duration": 24, "velocity": 100}, {"time": 960, "pitch": 8, "duration": 24, "velocity": 100}, {"time": 960, "pitch": 12, "duration": 24, "velocity": 100}, {"time": 960, "pitch": 15, "duration": 24, "velocity": 100}, {"time": 984, "pitch": 6, "duration": 48, "velocity": 100}, {"time": 984, "pitch": 9, "duration": 48, "velocity": 100}, {"time": 984, "pitch": 13, "duration": 48, "velocity": 100}, {"time": 1032, "pitch": 100, "duration": 48, "velocity": 100}, {"time": 1032, "pitch": 104, "duration": 48, "velocity": 100}, {"time": 1032, "pitch": 107, "duration": 48, "velocity": 100}, {"time": 1080, "pitch": 56, "duration": 48, "velocity": 100}, {"time": 1080, "pitch": 59, "duration": 48, "velocity": 100}, {"time": 1080, "pitch": 63, "duration": 48, "velocity": 100}, {"time": 1128, "pitch": 121, "duration": 48, "velocity": 100}, {"time": 1128, "pitch": 125, "duration": 48, "velocity": 100}, {"time": 1176, "pitch": 11, "duration": 24, "velocity": 100}, {"time": 1176, "pitch": 14, "duration": 24, "velocity": 100}, {"time": 1176, "pitch": 18, "duration": 24, "velocity": 100}, {"time": 1200, "pitch": 12, "duration": 48, "velocity": 100}, {"time": 1200, "pitch": 15, "duration": 48, "velocity": 100}, {"time": 1200, "pitch": 19, "duration": 48, "velocity": 100}, {"time": 1248, "pitch": 74, "duration": 24, "velocity": 100}, {"time": 1248, "pitch": 77, "duration": 24, "velocity": 100}, {"time": 1248, "pitch": 81, "duration": 24, "velocity": 100}, {"time": 1272, "pitch": 65, "duration": 48, "velocity": 100}, {"time": 1272, "pitch": 69, "duration": 48, "velocity": 100}, {"time": 1272, "pitch": 72, "duration": 48, "velocity": 100}, {"time": 1320, "pitch": 40, "duration": 48, "velocity": 100}, {"time": 1320, "pitch": 44, "duration": 48, "velocity": 100}, {"time": 1320, "pitch": 47, "duration": 48, "velocity": 100}, {"time": 1368, "pitch": 115, "duration": 24, "velocity": 100}, {"time": 1368, "pitch": 119, "duration": 24, "velocity": 100}, {"time": 1368, "pitch": 122, "duration": 24, "velocity": 100}, {"time": 1392, "pitch": 65, "duration": 24, "velocity": 100}, {"time": 1392, "pitch": 69, "duration": 24, "velocity": 100}, {"time": 1392, "pitch": 72, "duration": 24, "velocity": 100}, {"time": 1416, "pitch": 22, "duration": 48, "velocity": 100}, {"time": 1416, "pitch": 25, "duration": 48, "velocity": 100}, {"time": 1416, "pitch": 29, "duration": 48, "velocity": 100}, {"time": 1464, "pitch": 5, "duration": 48, "velocity": 100}, {"time": 1464, "pitch": 9, "duration": 48, "velocity": 100}, {"time": 1464, "pitch": 12, "duration": 48, "velocity": 100}, {"time": 1512, "pitch": 9, "duration": 24, "velocity": 100}, {"time": 1512, "pitch": 13, "duration": 24, "velocity": 100}, {"time": 1512, "pitch": 16, "duration": 24, "velocity": 100}]}]}