{"metadata": {"schema_version": "0.2", "title": "None", "source_filename": "baseline13.mid", "source_format": "midi"}, "resolution": 12, "tempos": [{"time": 0, "qpm": 100.0}], "tracks": [{"program": 0, "is_drum": false, "name": "track", "notes": [{"time": 0, "pitch": 6, "duration": 24, "velocity": 100}, {"time": 0, "pitch": 10, "duration": 24, "velocity": 100}, {"time": 0, "pitch": 13, "duration": 24, "velocity": 100}, {"time": 24, "pitch": 113, "duration": 24, "velocity": 100}, {"time": 24, "pitch": 116, "duration": 24, "velocity": 100}, {"time": 24, "pitch": 120, "duration": 24, "velocity": 100}, {"time": 48, "pitch": 79, "duration": 24, "velocity": 100}, {"time": 48, "pitch": 82, "duration": 24, "velocity": 100}, {"time": 48, "pitch": 86, "duration": 24, "velocity": 100}, {"time": 72, "pitch": 126, "duration": 24, "velocity": 100}, {"time": 96, "pitch": 75, "duration": 24, "velocity": 100}, {"time": 96, "pitch": 79, "duration": 24, "velocity": 100}, {"time": 96, "pitch": 82, "duration": 24, "velocity": 100}, {"time": 120, "pitch": 36, "duration": 48, "velocity": 100}, {"time": 120, "pitch": 39, "duration": 48, "velocity": 100}, {"time": 120, "pitch": 43, "duration": 48, "velocity": 100}, {"time": 168, "pitch": 23, "duration": 24, "velocity": 100}, {"time": 168, "pitch": 27, "duration": 24, "velocity": 100}, {"time": 168, "pitch": 30, "duration": 24, "velocity": 100}, {"time": 192, "pitch": 30, "duration": 48, "velocity": 100}, {"time": 192, "pitch": 33, "duration": 48, "velocity": 100}, {"time": 192, "pitch": 37, "duration": 48, "velocity": 100}, {"time": 240, "pitch": 61, "duration": 48, "velocity": 100}, {"time": 240, "pitch": 65, "duration": 48, "velocity": 100}, {"time": 240, "pitch": 68, "duration": 48, "velocity": 100}, {"time": 288, "pitch": 41, "duration": 48, "velocity": 100}, {"time": 288, "pitch": 45, "duration": 48, "velocity": 100}, {"time": 288, "pitch": 48, "duration": 48, "velocity": 100}, {"time": 336, "pitch": 27, "duration": 48, "velocity": 100}, {"time": 336, "pitch": 30, "duration": 48, "velocity": 100}, {"time": 336, "pitch": 34, "duration": 48, "velocity": 100}, {"time": 384, "pitch": 91, "duration": 24, "velocity": 100}, {"time": 384, "pitch": 95, "duration": 24, "velocity": 100}, {"time": 384, "pitch": 98, "duration": 24, "velocity": 100}, {"time": 408, "pitch": 51, "duration": 24, "velocity": 100}, {"time": 408, "pitch": 55, "duration": 24, "velocity": 100}, {"time": 408, "pitch": 58, "duration": 24, "velocity": 100}, {"time": 432, "pitch": 23, "duration": 24, "velocity": 100}, {"time": 432, "pitch": 26, "duration": 24, "velocity": 100}, {"time": 432, "pitch": 30, "duration": 24, "velocity": 100}, {"time": 456, "pitch": 66, "duration": 24, "velocity": 100}, {"time": 456, "pitch": 69, "duration": 24, "velocity": 100}, {"time": 456, "pitch": 73, "duration": 24, "velocity": 100}, {"time": 480, "pitch": 108, "duration": 24, "velocity": 100}, {"time": 480, "pitch": 112, "duration": 24, "velocity": 100}, {"time": 480, "pitch": 115, "duration": 24, "velocity": 100}, {"time": 504, "pitch": 127, "duration": 48, "velocity": 100}, {"time": 552, "pitch": 37, "duration": 24, "velocity": 100}, {"time": 552, "pitch": 41, "duration": 24, "velocity": 100}, {"time": 552, "pitch": 44, "duration": 24, "velocity": 100}, {"time": 576, "pitch": 22, "duration": 24, "velocity": 100}, {"time": 576, "pitch": 25, "duration": 24, "velocity": 100}, {"time": 576, "pitch": 29, "duration": 24, "velocity": 100}, {"time": 600, "pitch": 59, "duration": 48, "velocity": 100}, {"time": 600, "pitch": 62, "duration": 48, "velocity": 100}, {"time": 600, "pitch": 66, "duration": 48, "velocity": 100}, {"time": 648, "pitch": 59, "duration": 24, "velocity": 100}, {"time": 648, "pitch": 62, "duration": 24, "velocity": 100}, {"time": 648, "pitch": 66, "duration": 24, "velocity": 100}, {"time": 672, "pitch": 12, "duration": 48, "velocity": 100}, {"time": 672, "pitch": 15, "duration": 48, "velocity": 100}, {"time": 672, "pitch": 19, "duration": 48, "velocity": 100}, {"time": 720, "pitch": 34, "duration": 48, "velocity": 100}, {"time": 720, "pitch": 37, "duration": 48, "velocity": 100}, {"time": 720, "pitch": 41, "duration": 48, "velocity": 100}, {"time": 768, "pitch": 112, "duration": 24, "velocity": 100}, {"time": 768, "pitch": 116, "duration": 24, "velocity": 100}, {"time": 768, "pitch": 119, "duration": 24, "velocity": 100}, {"time": 792, "pitch": 66, "duration": 48, "velocity": 100}, {"time": 792, "pitch": 69, "duration": 48, "velocity": 100}, {"time": 792, "pitch": 73, "duration": 48, "velocity": 100}, {"time": 840, "pitch": 78, "duration": 24, "velocity": 100}, {"time": 840, "pitch": 81, "duration": 24, "velocity": 100}, {"time": 840, "pitch": 85, "duration": 24, "velocity": 100}, {"time": 864, "pitch": 44, "duration": 48, "velocity": 100}, {"time": 864, "pitch": 48, "duration": 48, "velocity": 100}, {"time": 864, "pitch": 51, "duration": 48, "velocity": 100}, {"time": 912, "pitch": 90, "duration": 24, "velocity": 100}, {"time": 912, "pitch": 93, "duration": 24, "velocity": 100}, {"time": 912, "pitch": 97, "duration": 24, "velocity": 100}, {"time": 936, "pitch": 30, "duration": 48, "velocity": 100}, {"time": 936, "pitch": 34, "duration": 48, "velocity": 100}, {"time": 936, "pitch": 37, "duration": 48, "velocity": 100}, {"time": 984, "pitch": 75, "duration": 48, "velocity": 100}, {"time": 984, "pitch": 79, "duration": 48, "velocity": 100}, {"time": 984, "pitch": 82, "duration": 48, "velocity": 100}, {"time": 1032, "pitch": 104, "duration": 24, "velocity": 100}, {"time": 1032, "pitch": 107, "duration": 24, "velocity": 100}, {"time": 1032, "pitch": 111, "duration": 24, "velocity": 100}, {"time": 1056, "pitch": 30, "duration": 24, "velocity": 100}, {"time": 1056, "pitch": 34, "duration": 24, "velocity": 100}, {"time": 1056, "pitch": 37, "duration": 24, "velocity": 100}, {"time": 1080, "pitch": 123, "duration": 24, "velocity": 100}, {"time": 1080, "pitch": 127, "duration": 24, "velocity": 100}, {"time": 1104, "pitch": 88, "duration": 48, "velocity": 100}, {"time": 1104, "pitch": 92, "duration": 48, "velocity": 100}, {"time": 1104, "pitch": 95, "duration": 48, "velocity": 100}, {"time": 1152, "pitch": 79, "duration": 48, "velocity": 100}, {"time": 1152, "pitch": 83, "duration": 48, "velocity": 100}, {"time": 1152, "pitch": 86, "duration": 48, "velocity": 100}, {"time": 1200, "pitch": 28, "duration": 24, "velocity": 100}, {"time": 1200, "pitch": 32, "duration": 24, "velocity": 100}, {"time": 1200, "pitch": 35, "duration": 24, "velocity": 100}, {"time": 1224, "pitch": 83, "duration": 24, "velocity": 100}, {"time": 1224, "pitch": 87, "duration": 24, "velocity": 100}, {"time": 1224, "pitch": 90, "duration": 24, "velocity": 100}, {"time": 1248, "pitch": 74, "duration": 24, "velocity": 100}, {"time": 1248, "pitch": 78, "duration": 24, "velocity": 100}, {"time": 1248, "pitch": 81, "duration": 24, "velocity": 100}, {"time": 1272, "pitch": 91, "duration": 24, "velocity": 100}, {"time": 1272, "pitch": 95, "duration": 24, "velocity": 100}, {"time": 1272, "pitch": 98, "duration": 24, "velocity": 100}, {"time": 1296, "pitch": 79, "duration": 24, "velocity": 100}, {"time": 1296, "pitch": 82, "duration": 24, "velocity": 100}, {"time": 1296, "pitch": 86, "duration": 24, "velocity": 100}, {"time": 1320, "pitch": 58, "duration": 24, "velocity": 100}, {"time": 1320, "pitch": 61, "duration": 24, "velocity": 100}, {"time": 1320, "pitch": 65, "duration": 24, "velocity": 100}, {"time": 1344, "pitch": 48, "duration": 24, "velocity": 100}, {"time": 1344, "pitch": 52, "duration": 24, "velocity": 100}, {"time": 1344, "pitch": 55, "duration": 24, "velocity": 100}, {"time": 1368, "pitch": 127, "duration": 24, "velocity": 100}, {"time": 1392, "pitch": 102, "duration": 48, "velocity": 100}, {"time": 1392, "pitch": 106, "duration": 48, "velocity": 100}, {"time": 1392, "pitch": 109, "duration": 48, "velocity": 100}, {"time": 1440, "pitch": 104, "duration": 48, "velocity": 100}, {"time": 1440, "pitch": 108, "duration": 48, "velocity": 100}, {"time": 1440, "pitch": 111, "duration": 48, "velocity": 100}, {"time": 1488, "pitch": 122, "duration": 24, "velocity": 100}, {"time": 1488, "pitch": 126, "duration": 24, "velocity": 100}, {"time": 1512, "pitch": 114, "duration": 24, "velocity": 100}, {"time": 1512, "pitch": 117, "duration": 24, "velocity": 100}, {"time": 1512, "pitch": 121, "duration": 24, "velocity": 100}]}]}