{"metadata": {"schema_version": "0.2", "title": "None", "source_filename": "baseline4.mid", "source_format": "midi"}, "resolution": 12, "tempos": [{"time": 0, "qpm": 100.0}], "tracks": [{"program": 0, "is_drum": false, "name": "track", "notes": [{"time": 0, "pitch": 16, "duration": 24, "velocity": 100}, {"time": 0, "pitch": 20, "duration": 24, "velocity": 100}, {"time": 0, "pitch": 23, "duration": 24, "velocity": 100}, {"time": 24, "pitch": 22, "duration": 48, "velocity": 100}, {"time": 24, "pitch": 26, "duration": 48, "velocity": 100}, {"time": 24, "pitch": 29, "duration": 48, "velocity": 100}, {"time": 72, "pitch": 73, "duration": 48, "velocity": 100}, {"time": 72, "pitch": 76, "duration": 48, "velocity": 100}, {"time": 72, "pitch": 80, "duration": 48, "velocity": 100}, {"time": 120, "pitch": 38, "duration": 48, "velocity": 100}, {"time": 120, "pitch": 41, "duration": 48, "velocity": 100}, {"time": 120, "pitch": 45, "duration": 48, "velocity": 100}, {"time": 168, "pitch": 72, "duration": 24, "velocity": 100}, {"time": 168, "pitch": 75, "duration": 24, "velocity": 100}, {"time": 168, "pitch": 79, "duration": 24, "velocity": 100}, {"time": 192, "pitch": 106, "duration": 48, "velocity": 100}, {"time": 192, "pitch": 110, "duration": 48, "velocity": 100}, {"time": 192, "pitch": 113, "duration": 48, "velocity": 100}, {"time": 240, "pitch": 4, "duration": 24, "velocity": 100}, {"time": 240, "pitch": 8, "duration": 24, "velocity": 100}, {"time": 240, "pitch": 11, "duration": 24, "velocity": 100}, {"time": 264, "pitch": 18, "duration": 24, "velocity": 100}, {"time": 264, "pitch": 21, "duration": 24, "velocity": 100}, {"time": 264, "pitch": 25, "duration": 24, "velocity": 100}, {"time": 288, "pitch": 1, "duration": 24, "velocity": 100}, {"time": 288, "pitch": 5, "duration": 24, "velocity": 100}, {"time": 288, "pitch": 8, "duration": 24, "velocity": 100}, {"time": 312, "pitch": 49, "duration": 24, "velocity": 100}, {"time": 312, "pitch": 53, "duration": 24, "velocity": 100}, {"time": 312, "pitch": 56, "duration": 24, "velocity": 100}, {"time": 336, "pitch": 52, "duration": 24, "velocity": 100}, {"time": 336, "pitch": 55, "duration": 24, "velocity": 100}, {"time": 336, "pitch": 59, "duration": 24, "velocity": 100}, {"time": 360, "pitch": 34, "duration": 24, "velocity": 100}, {"time": 360, "pitch": 37, "duration": 24, "velocity": 100}, {"time": 360, "pitch": 41, "duration": 24, "velocity": 100}, {"time": 384, "pitch": 81, "duration": 48, "velocity": 100}, {"time": 384, "pitch": 84, "duration": 48, "velocity": 100}, {"time": 384, "pitch": 88, "duration": 48, "velocity": 100}, {"time": 432, "pitch": 63, "duration": 48, "velocity": 100}, {"time": 432, "pitch": 66, "duration": 48, "velocity": 100}, {"time": 432, "pitch": 70, "duration": 48, "velocity": 100}, {"time": 480, "pitch": 112, "duration": 48, "velocity": 100}, {"time": 480, "pitch": 116, "duration": 48, "velocity": 100}, {"time": 480, "pitch": 119, "duration": 48, "velocity": 100}, {"time": 528, "pitch": 99, "duration": 48, "velocity": 100}, {"time": 528, "pitch": 102, "duration": 48, "velocity": 100}, {"time": 528, "pitch": 106, "duration": 48, "velocity": 100}, {"time": 576, "pitch": 127, "duration": 48, "velocity": 100}, {"time": 624, "pitch": 86, "duration": 24, "velocity": 100}, {"time": 624, "pitch": 89, "duration": 24, "velocity": 100}, {"time": 624, "pitch": 93, "duration": 24, "velocity": 100}, {"time": 648, "pitch": 57, "duration": 48, "velocity": 100}, {"time": 648, "pitch": 61, "duration": 48, "velocity": 100}, {"time": 648, "pitch": 64, "duration": 48, "velocity": 100}, {"time": 696, "pitch": 19, "duration": 24, "velocity": 100}, {"time": 696, "pitch": 23, "duration": 24, "velocity": 100}, {"time": 696, "pitch": 26, "duration": 24, "velocity": 100}, {"time": 720, "pitch": 2, "duration": 24, "velocity": 100}, {"time": 720, "pitch": 6, "duration": 24, "velocity": 100}, {"time": 720, "pitch": 9, "duration": 24, "velocity": 100}, {"time": 744, "pitch": 3, "duration": 48, "velocity": 100}, {"time": 744, "pitch": 6, "duration": 48, "velocity": 100}, {"time": 744, "pitch": 10, "duration": 48, "velocity": 100}, {"time": 792, "pitch": 16, "duration": 24, "velocity": 100}, {"time": 792, "pitch": 19, "duration": 24, "velocity": 100}, {"time": 792, "pitch": 23, "duration": 24, "velocity": 100}, {"time": 816, "pitch": 120, "duration": 24, "velocity": 100}, {"time": 816, "pitch": 123, "duration": 24, "velocity": 100}, {"time": 816, "pitch": 127, "duration": 24, "velocity": 100}, {"time": 840, "pitch": 93, "duration": 24, "velocity": 100}, {"time": 840, "pitch": 96, "duration": 24, "velocity": 100}, {"time": 840, "pitch": 100, "duration": 24, "velocity": 100}, {"time": 864, "pitch": 90, "duration": 48, "velocity": 100}, {"time": 864, "pitch": 94, "duration": 48, "velocity": 100}, {"time": 864, "pitch": 97, "duration": 48, "velocity": 100}, {"time": 912, "pitch": 7, "duration": 24, "velocity": 100}, {"time": 912, "pitch": 11, "duration": 24, "velocity": 100}, {"time": 912, "pitch": 14, "duration": 24, "velocity": 100}, {"time": 936, "pitch": 63, "duration": 24, "velocity": 100}, {"time": 936, "pitch": 67, "duration": 24, "velocity": 100}, {"time": 936, "pitch": 70, "duration": 24, "velocity": 100}, {"time": 960, "pitch": 124, "duration": 48, "velocity": 100}, {"time": 1008, "pitch": 87, "duration": 48, "velocity": 100}, {"time": 1008, "pitch": 91, "duration": 48, "velocity": 100}, {"time": 1008, "pitch": 94, "duration": 48, "velocity": 100}, {"time": 1056, "pitch": 109, "duration": 48, "velocity": 100}, {"time": 1056, "pitch": 112, "duration": 48, "velocity": 100}, {"time": 1056, "pitch": 116, "duration": 48, "velocity": 100}, {"time": 1104, "pitch": 70, "duration": 48, "velocity": 100}, {"time": 1104, "pitch": 74, "duration": 48, "velocity": 100}, {"time": 1104, "pitch": 77, "duration": 48, "velocity": 100}, {"time": 1152, "pitch": 39, "duration": 48, "velocity": 100}, {"time": 1152, "pitch": 42, "duration": 48, "velocity": 100}, {"time": 1152, "pitch": 46, "duration": 48, "velocity": 100}, {"time": 1200, "pitch": 58, "duration": 48, "velocity": 100}, {"time": 1200, "pitch": 61, "duration": 48, "velocity": 100}, {"time": 1200, "pitch": 65, "duration": 48, "velocity": 100}, {"time": 1248, "pitch": 115, "duration": 24, "velocity": 100}, {"time": 1248, "pitch": 119, "duration": 24, "velocity": 100}, {"time": 1248, "pitch": 122, "duration": 24, "velocity": 100}, {"time": 1272, "pitch": 125, "duration": 24, "velocity": 100}, {"time": 1296, "pitch": 100, "duration": 24, "velocity": 100}, {"time": 1296, "pitch": 103, "duration": 24, "velocity": 100}, {"time": 1296, "pitch": 107, "duration": 24, "velocity": 100}, {"time": 1320, "pitch": 70, "duration": 24, "velocity": 100}, {"time": 1320, "pitch": 74, "duration": 24, "velocity": 100}, {"time": 1320, "pitch": 77, "duration": 24, "velocity": 100}, {"time": 1344, "pitch": 82, "duration": 48, "velocity": 100}, {"time": 1344, "pitch": 85, "duration": 48, "velocity": 100}, {"time": 1344, "pitch": 89, "duration": 48, "velocity": 100}, {"time": 1392, "pitch": 69, "duration": 48, "velocity": 100}, {"time": 1392, "pitch": 73, "duration": 48, "velocity": 100}, {"time": 1392, "pitch": 76, "duration": 48, "velocity": 100}, {"time": 1440, "pitch": 82, "duration": 24, "velocity": 100}, {"time": 1440, "pitch": 85, "duration": 24, "velocity": 100}, {"time": 1440, "pitch": 89, "duration": 24, "velocity": 100}, {"time": 1464, "pitch": 67, "duration": 48, "velocity": 100}, {"time": 1464, "pitch": 71, "duration": 48, "velocity": 100}, {"time": 1464, "pitch": 74, "duration": 48, "velocity": 100}, {"time": 1512, "pitch": 22, "duration": 24, "velocity": 100}, {"time": 1512, "pitch": 26, "duration": 24, "velocity": 100}, {"time": 1512, "pitch": 29, "duration": 24, "velocity": 100}]}]}