{"metadata": {"schema_version": "0.2", "title": "None", "source_filename": "baseline44.mid", "source_format": "midi"}, "resolution": 12, "tempos": [{"time": 0, "qpm": 100.0}], "tracks": [{"program": 0, "is_drum": false, "name": "track", "notes": [{"time": 0, "pitch": 116, "duration": 24, "velocity": 100}, {"time": 0, "pitch": 119, "duration": 24, "velocity": 100}, {"time": 0, "pitch": 123, "duration": 24, "velocity": 100}, {"time": 24, "pitch": 107, "duration": 24, "velocity": 100}, {"time": 24, "pitch": 110, "duration": 24, "velocity": 100}, {"time": 24, "pitch": 114, "duration": 24, "velocity": 100}, {"time": 48, "pitch": 127, "duration": 24, "velocity": 100}, {"time": 72, "pitch": 98, "duration": 48, "velocity": 100}, {"time": 72, "pitch": 102, "duration": 48, "velocity": 100}, {"time": 72, "pitch": 105, "duration": 48, "velocity": 100}, {"time": 120, "pitch": 41, "duration": 48, "velocity": 100}, {"time": 120, "pitch": 44, "duration": 48, "velocity": 100}, {"time": 120, "pitch": 48, "duration": 48, "velocity": 100}, {"time": 168, "pitch": 90, "duration": 48, "velocity": 100}, {"time": 168, "pitch": 94, "duration": 48, "velocity": 100}, {"time": 168, "pitch": 97, "duration": 48, "velocity": 100}, {"time": 216, "pitch": 52, "duration": 24, "velocity": 100}, {"time": 216, "pitch": 55, "duration": 24, "velocity": 100}, {"time": 216, "pitch": 59, "duration": 24, "velocity": 100}, {"time": 240, "pitch": 7, "duration": 48, "velocity": 100}, {"time": 240, "pitch": 10, "duration": 48, "velocity": 100}, {"time": 240, "pitch": 14, "duration": 48, "velocity": 100}, {"time": 288, "pitch": 51, "duration": 48, "velocity": 100}, {"time": 288, "pitch": 55, "duration": 48, "velocity": 100}, {"time": 288, "pitch": 58, "duration": 48, "velocity": 100}, {"time": 336, "pitch": 79, "duration": 24, "velocity": 100}, {"time": 336, "pitch": 83, "duration": 24, "velocity": 100}, {"time": 336, "pitch": 86, "duration": 24, "velocity": 100}, {"time": 360, "pitch": 5, "duration": 48, "velocity": 100}, {"time": 360, "pitch": 8, "duration": 48, "velocity": 100}, {"time": 360, "pitch": 12, "duration": 48, "velocity": 100}, {"time": 408, "pitch": 123, "duration": 48, "velocity": 100}, {"time": 408, "pitch": 127, "duration": 48, "velocity": 100}, {"time": 456, "pitch": 58, "duration": 48, "velocity": 100}, {"time": 456, "pitch": 62, "duration": 48, "velocity": 100}, {"time": 456, "pitch": 65, "duration": 48, "velocity": 100}, {"time": 504, "pitch": 115, "duration": 24, "velocity": 100}, {"time": 504, "pitch": 119, "duration": 24, "velocity": 100}, {"time": 504, "pitch": 122, "duration": 24, "velocity": 100}, {"time": 528, "pitch": 91, "duration": 48, "velocity": 100}, {"time": 528, "pitch": 95, "duration": 48, "velocity": 100}, {"time": 528, "pitch": 98, "duration": 48, "velocity": 100}, {"time": 576, "pitch": 18, "duration": 24, "velocity": 100}, {"time": 576, "pitch": 22, "duration": 24, "velocity": 100}, {"time": 576, "pitch": 25, "duration": 24, "velocity": 100}, {"time": 600, "pitch": 9, "duration": 48, "velocity": 100}, {"time": 600, "pitch": 13, "duration": 48, "velocity": 100}, {"time": 600, "pitch": 16, "duration": 48, "velocity": 100}, {"time": 648, "pitch": 46, "duration": 24, "velocity": 100}, {"time": 648, "pitch": 50, "duration": 24, "velocity": 100}, {"time": 648, "pitch": 53, "duration": 24, "velocity": 100}, {"time": 672, "pitch": 36, "duration": 48, "velocity": 100}, {"time": 672, "pitch": 39, "duration": 48, "velocity": 100}, {"time": 672, "pitch": 43, "duration": 48, "velocity": 100}, {"time": 720, "pitch": 73, "duration": 48, "velocity": 100}, {"time": 720, "pitch": 76, "duration": 48, "velocity": 100}, {"time": 720, "pitch": 80, "duration": 48, "velocity": 100}, {"time": 768, "pitch": 13, "duration": 48, "velocity": 100}, {"time": 768, "pitch": 16, "duration": 48, "velocity": 100}, {"time": 768, "pitch": 20, "duration": 48, "velocity": 100}, {"time": 816, "pitch": 57, "duration": 24, "velocity": 100}, {"time": 816, "pitch": 61, "duration": 24, "velocity": 100}, {"time": 816, "pitch": 64, "duration": 24, "velocity": 100}, {"time": 840, "pitch": 76, "duration": 24, "velocity": 100}, {"time": 840, "pitch": 80, "duration": 24, "velocity": 100}, {"time": 840, "pitch": 83, "duration": 24, "velocity": 100}, {"time": 864, "pitch": 92, "duration": 48, "velocity": 100}, {"time": 864, "pitch": 96, "duration": 48, "velocity": 100}, {"time": 864, "pitch": 99, "duration": 48, "velocity": 100}, {"time": 912, "pitch": 41, "duration": 24, "velocity": 100}, {"time": 912, "pitch": 45, "duration": 24, "velocity": 100}, {"time": 912, "pitch": 48, "duration": 24, "velocity": 100}, {"time": 936, "pitch": 8, "duration": 48, "velocity": 100}, {"time": 936, "pitch": 11, "duration": 48, "velocity": 100}, {"time": 936, "pitch": 15, "duration": 48, "velocity": 100}, {"time": 984, "pitch": 48, "duration": 48, "velocity": 100}, {"time": 984, "pitch": 51, "duration": 48, "velocity": 100}, {"time": 984, "pitch": 55, "duration": 48, "velocity": 100}, {"time": 1032, "pitch": 117, "duration": 24, "velocity": 100}, {"time": 1032, "pitch": 121, "duration": 24, "velocity": 100}, {"time": 1032, "pitch": 124, "duration": 24, "velocity": 100}, {"time": 1056, "pitch": 107, "duration": 24, "velocity": 100}, {"time": 1056, "pitch": 111, "duration": 24, "velocity": 100}, {"time": 1056, "pitch": 114, "duration": 24, "velocity": 100}, {"time": 1080, "pitch": 72, "duration": 48, "velocity": 100}, {"time": 1080, "pitch": 75, "duration": 48, "velocity": 100}, {"time": 1080, "pitch": 79, "duration": 48, "velocity": 100}, {"time": 1128, "pitch": 98, "duration": 48, "velocity": 100}, {"time": 1128, "pitch": 102, "duration": 48, "velocity": 100}, {"time": 1128, "pitch": 105, "duration": 48, "velocity": 100}, {"time": 1176, "pitch": 121, "duration": 24, "velocity": 100}, {"time": 1176, "pitch": 124, "duration": 24, "velocity": 100}, {"time": 1200, "pitch": 78, "duration": 24, "velocity": 100}, {"time": 1200, "pitch": 82, "duration": 24, "velocity": 100}, {"time": 1200, "pitch": 85, "duration": 24, "velocity": 100}, {"time": 1224, "pitch": 8, "duration": 24, "velocity": 100}, {"time": 1224, "pitch": 11, "duration": 24, "velocity": 100}, {"time": 1224, "pitch": 15, "duration": 24, "velocity": 100}, {"time": 1248, "pitch": 28, "duration": 48, "velocity": 100}, {"time": 1248, "pitch": 31, "duration": 48, "velocity": 100}, {"time": 1248, "pitch": 35, "duration": 48, "velocity": 100}, {"time": 1296, "pitch": 118, "duration": 48, "velocity": 100}, {"time": 1296, "pitch": 122, "duration": 48, "velocity": 100}, {"time": 1296, "pitch": 125, "duration": 48, "velocity": 100}, {"time": 1344, "pitch": 35, "duration": 24, "velocity": 100}, {"time": 1344, "pitch": 39, "duration": 24, "velocity": 100}, {"time": 1344, "pitch": 42, "duration": 24, "velocity": 100}, {"time": 1368, "pitch": 46, "duration": 48, "velocity": 100}, {"time": 1368, "pitch": 49, "duration": 48, "velocity": 100}, {"time": 1368, "pitch": 53, "duration": 48, "velocity": 100}, {"time": 1416, "pitch": 71, "duration": 24, "velocity": 100}, {"time": 1416, "pitch": 74, "duration": 24, "velocity": 100}, {"time": 1416, "pitch": 78, "duration": 24, "velocity": 100}, {"time": 1440, "pitch": 92, "duration": 24, "velocity": 100}, {"time": 1440, "pitch": 95, "duration": 24, "velocity": 100}, {"time": 1440, "pitch": 99, "duration": 24, "velocity": 100}, {"time": 1464, "pitch": 27, "duration": 24, "velocity": 100}, {"time": 1464, "pitch": 31, "duration": 24, "velocity": 100}, {"time": 1464, "pitch": 34, "duration": 24, "velocity": 100}, {"time": 1488, "pitch": 81, "duration": 48, "velocity": 100}, {"time": 1488, "pitch": 85, "duration": 48, "velocity": 100}, {"time": 1488, "pitch": 88, "duration": 48, "velocity": 100}]}]}