{"metadata": {"schema_version": "0.2", "title": "None", "source_filename": "baseline47.mid", "source_format": "midi"}, "resolution": 12, "tempos": [{"time": 0, "qpm": 100.0}], "tracks": [{"program": 0, "is_drum": false, "name": "track", "notes": [{"time": 0, "pitch": 6, "duration": 48, "velocity": 100}, {"time": 0, "pitch": 10, "duration": 48, "velocity": 100}, {"time": 0, "pitch": 13, "duration": 48, "velocity": 100}, {"time": 48, "pitch": 119, "duration": 48, "velocity": 100}, {"time": 48, "pitch": 122, "duration": 48, "velocity": 100}, {"time": 48, "pitch": 126, "duration": 48, "velocity": 100}, {"time": 96, "pitch": 84, "duration": 24, "velocity": 100}, {"time": 96, "pitch": 87, "duration": 24, "velocity": 100}, {"time": 96, "pitch": 91, "duration": 24, "velocity": 100}, {"time": 120, "pitch": 64, "duration": 24, "velocity": 100}, {"time": 120, "pitch": 67, "duration": 24, "velocity": 100}, {"time": 120, "pitch": 71, "duration": 24, "velocity": 100}, {"time": 144, "pitch": 123, "duration": 24, "velocity": 100}, {"time": 144, "pitch": 127, "duration": 24, "velocity": 100}, {"time": 168, "pitch": 86, "duration": 48, "velocity": 100}, {"time": 168, "pitch": 89, "duration": 48, "velocity": 100}, {"time": 168, "pitch": 93, "duration": 48, "velocity": 100}, {"time": 216, "pitch": 40, "duration": 24, "velocity": 100}, {"time": 216, "pitch": 44, "duration": 24, "velocity": 100}, {"time": 216, "pitch": 47, "duration": 24, "velocity": 100}, {"time": 240, "pitch": 8, "duration": 48, "velocity": 100}, {"time": 240, "pitch": 12, "duration": 48, "velocity": 100}, {"time": 240, "pitch": 15, "duration": 48, "velocity": 100}, {"time": 288, "pitch": 125, "duration": 48, "velocity": 100}, {"time": 336, "pitch": 47, "duration": 24, "velocity": 100}, {"time": 336, "pitch": 50, "duration": 24, "velocity": 100}, {"time": 336, "pitch": 54, "duration": 24, "velocity": 100}, {"time": 360, "pitch": 72, "duration": 24, "velocity": 100}, {"time": 360, "pitch": 75, "duration": 24, "velocity": 100}, {"time": 360, "pitch": 79, "duration": 24, "velocity": 100}, {"time": 384, "pitch": 71, "duration": 48, "velocity": 100}, {"time": 384, "pitch": 75, "duration": 48, "velocity": 100}, {"time": 384, "pitch": 78, "duration": 48, "velocity": 100}, {"time": 432, "pitch": 8, "duration": 48, "velocity": 100}, {"time": 432, "pitch": 12, "duration": 48, "velocity": 100}, {"time": 432, "pitch": 15, "duration": 48, "velocity": 100}, {"time": 480, "pitch": 117, "duration": 48, "velocity": 100}, {"time": 480, "pitch": 120, "duration": 48, "velocity": 100}, {"time": 480, "pitch": 124, "duration": 48, "velocity": 100}, {"time": 528, "pitch": 18, "duration": 48, "velocity": 100}, {"time": 528, "pitch": 22, "duration": 48, "velocity": 100}, {"time": 528, "pitch": 25, "duration": 48, "velocity": 100}, {"time": 576, "pitch": 51, "duration": 24, "velocity": 100}, {"time": 576, "pitch": 55, "duration": 24, "velocity": 100}, {"time": 576, "pitch": 58, "duration": 24, "velocity": 100}, {"time": 600, "pitch": 34, "duration": 24, "velocity": 100}, {"time": 600, "pitch": 37, "duration": 24, "velocity": 100}, {"time": 600, "pitch": 41, "duration": 24, "velocity": 100}, {"time": 624, "pitch": 64, "duration": 24, "velocity": 100}, {"time": 624, "pitch": 68, "duration": 24, "velocity": 100}, {"time": 624, "pitch": 71, "duration": 24, "velocity": 100}, {"time": 648, "pitch": 36, "duration": 48, "velocity": 100}, {"time": 648, "pitch": 40, "duration": 48, "velocity": 100}, {"time": 648, "pitch": 43, "duration": 48, "velocity": 100}, {"time": 696, "pitch": 20, "duration": 24, "velocity": 100}, {"time": 696, "pitch": 24, "duration": 24, "velocity": 100}, {"time": 696, "pitch": 27, "duration": 24, "velocity": 100}, {"time": 720, "pitch": 107, "duration": 48, "velocity": 100}, {"time": 720, "pitch": 111, "duration": 48, "velocity": 100}, {"time": 720, "pitch": 114, "duration": 48, "velocity": 100}, {"time": 768, "pitch": 36, "duration": 48, "velocity": 100}, {"time": 768, "pitch": 40, "duration": 48, "velocity": 100}, {"time": 768, "pitch": 43, "duration": 48, "velocity": 100}, {"time": 816, "pitch": 77, "duration": 48, "velocity": 100}, {"time": 816, "pitch": 80, "duration": 48, "velocity": 100}, {"time": 816, "pitch": 84, "duration": 48, "velocity": 100}, {"time": 864, "pitch": 45, "duration": 24, "velocity": 100}, {"time": 864, "pitch": 48, "duration": 24, "velocity": 100}, {"time": 864, "pitch": 52, "duration": 24, "velocity": 100}, {"time": 888, "pitch": 12, "duration": 24, "velocity": 100}, {"time": 888, "pitch": 15, "duration": 24, "velocity": 100}, {"time": 888, "pitch": 19, "duration": 24, "velocity": 100}, {"time": 912, "pitch": 68, "duration": 48, "velocity": 100}, {"time": 912, "pitch": 71, "duration": 48, "velocity": 100}, {"time": 912, "pitch": 75, "duration": 48, "velocity": 100}, {"time": 960, "pitch": 106, "duration": 24, "velocity": 100}, {"time": 960, "pitch": 109, "duration": 24, "velocity": 100}, {"time": 960, "pitch": 113, "duration": 24, "velocity": 100}, {"time": 984, "pitch": 73, "duration": 24, "velocity": 100}, {"time": 984, "pitch": 76, "duration": 24, "velocity": 100}, {"time": 984, "pitch": 80, "duration": 24, "velocity": 100}, {"time": 1008, "pitch": 95, "duration": 24, "velocity": 100}, {"time": 1008, "pitch": 99, "duration": 24, "velocity": 100}, {"time": 1008, "pitch": 102, "duration": 24, "velocity": 100}, {"time": 1032, "pitch": 110, "duration": 48, "velocity": 100}, {"time": 1032, "pitch": 113, "duration": 48, "velocity": 100}, {"time": 1032, "pitch": 117, "duration": 48, "velocity": 100}, {"time": 1080, "pitch": 82, "duration": 24, "velocity": 100}, {"time": 1080, "pitch": 85, "duration": 24, "velocity": 100}, {"time": 1080, "pitch": 89, "duration": 24, "velocity": 100}, {"time": 1104, "pitch": 1, "duration": 24, "velocity": 100}, {"time": 1104, "pitch": 5, "duration": 24, "velocity": 100}, {"time": 1104, "pitch": 8, "duration": 24, "velocity": 100}, {"time": 1128, "pitch": 108, "duration": 24, "velocity": 100}, {"time": 1128, "pitch": 112, "duration": 24, "velocity": 100}, {"time": 1128, "pitch": 115, "duration": 24, "velocity": 100}, {"time": 1152, "pitch": 79, "duration": 48, "velocity": 100}, {"time": 1152, "pitch": 82, "duration": 48, "velocity": 100}, {"time": 1152, "pitch": 86, "duration": 48, "velocity": 100}, {"time": 1200, "pitch": 48, "duration": 24, "velocity": 100}, {"time": 1200, "pitch": 52, "duration": 24, "velocity": 100}, {"time": 1200, "pitch": 55, "duration": 24, "velocity": 100}, {"time": 1224, "pitch": 7, "duration": 48, "velocity": 100}, {"time": 1224, "pitch": 10, "duration": 48, "velocity": 100}, {"time": 1224, "pitch": 14, "duration": 48, "velocity": 100}, {"time": 1272, "pitch": 49, "duration": 24, "velocity": 100}, {"time": 1272, "pitch": 52, "duration": 24, "velocity": 100}, {"time": 1272, "pitch": 56, "duration": 24, "velocity": 100}, {"time": 1296, "pitch": 40, "duration": 48, "velocity": 100}, {"time": 1296, "pitch": 43, "duration": 48, "velocity": 100}, {"time": 1296, "pitch": 47, "duration": 48, "velocity": 100}, {"time": 1344, "pitch": 117, "duration": 24, "velocity": 100}, {"time": 1344, "pitch": 121, "duration": 24, "velocity": 100}, {"time": 1344, "pitch": 124, "duration": 24, "velocity": 100}, {"time": 1368, "pitch": 66, "duration": 48, "velocity": 100}, {"time": 1368, "pitch": 70, "duration": 48, "velocity": 100}, {"time": 1368, "pitch": 73, "duration": 48, "velocity": 100}, {"time": 1416, "pitch": 92, "duration": 24, "velocity": 100}, {"time": 1416, "pitch": 96, "duration": 24, "velocity": 100}, {"time": 1416, "pitch": 99, "duration": 24, "velocity": 100}, {"time": 1440, "pitch": 29, "duration": 48, "velocity": 100}, {"time": 1440, "pitch": 32, "duration": 48, "velocity": 100}, {"time": 1440, "pitch": 36, "duration": 48, "velocity": 100}, {"time": 1488, "pitch": 10, "duration": 24, "velocity": 100}, {"time": 1488, "pitch": 13, "duration": 24, "velocity": 100}, {"time": 1488, "pitch": 17, "duration": 24, "velocity": 100}, {"time": 1512, "pitch": 56, "duration": 24, "velocity": 100}, {"time": 1512, "pitch": 59, "duration": 24, "velocity": 100}, {"time": 1512, "pitch": 63, "duration": 24, "velocity": 100}]}]}