{"metadata": {"schema_version": "0.2", "title": "None", "source_filename": "baseline36.mid", "source_format": "midi"}, "resolution": 12, "tempos": [{"time": 0, "qpm": 100.0}], "tracks": [{"program": 0, "is_drum": false, "name": "track", "notes": [{"time": 0, "pitch": 119, "duration": 48, "velocity": 100}, {"time": 0, "pitch": 122, "duration": 48, "velocity": 100}, {"time": 0, "pitch": 126, "duration": 48, "velocity": 100}, {"time": 48, "pitch": 39, "duration": 24, "velocity": 100}, {"time": 48, "pitch": 42, "duration": 24, "velocity": 100}, {"time": 48, "pitch": 46, "duration": 24, "velocity": 100}, {"time": 72, "pitch": 11, "duration": 24, "velocity": 100}, {"time": 72, "pitch": 14, "duration": 24, "velocity": 100}, {"time": 72, "pitch": 18, "duration": 24, "velocity": 100}, {"time": 96, "pitch": 108, "duration": 24, "velocity": 100}, {"time": 96, "pitch": 112, "duration": 24, "velocity": 100}, {"time": 96, "pitch": 115, "duration": 24, "velocity": 100}, {"time": 120, "pitch": 107, "duration": 48, "velocity": 100}, {"time": 120, "pitch": 111, "duration": 48, "velocity": 100}, {"time": 120, "pitch": 114, "duration": 48, "velocity": 100}, {"time": 168, "pitch": 19, "duration": 24, "velocity": 100}, {"time": 168, "pitch": 22, "duration": 24, "velocity": 100}, {"time": 168, "pitch": 26, "duration": 24, "velocity": 100}, {"time": 192, "pitch": 55, "duration": 48, "velocity": 100}, {"time": 192, "pitch": 58, "duration": 48, "velocity": 100}, {"time": 192, "pitch": 62, "duration": 48, "velocity": 100}, {"time": 240, "pitch": 97, "duration": 24, "velocity": 100}, {"time": 240, "pitch": 100, "duration": 24, "velocity": 100}, {"time": 240, "pitch": 104, "duration": 24, "velocity": 100}, {"time": 264, "pitch": 108, "duration": 24, "velocity": 100}, {"time": 264, "pitch": 112, "duration": 24, "velocity": 100}, {"time": 264, "pitch": 115, "duration": 24, "velocity": 100}, {"time": 288, "pitch": 40, "duration": 48, "velocity": 100}, {"time": 288, "pitch": 44, "duration": 48, "velocity": 100}, {"time": 288, "pitch": 47, "duration": 48, "velocity": 100}, {"time": 336, "pitch": 58, "duration": 24, "velocity": 100}, {"time": 336, "pitch": 62, "duration": 24, "velocity": 100}, {"time": 336, "pitch": 65, "duration": 24, "velocity": 100}, {"time": 360, "pitch": 42, "duration": 48, "velocity": 100}, {"time": 360, "pitch": 45, "duration": 48, "velocity": 100}, {"time": 360, "pitch": 49, "duration": 48, "velocity": 100}, {"time": 408, "pitch": 114, "duration": 48, "velocity": 100}, {"time": 408, "pitch": 118, "duration": 48, "velocity": 100}, {"time": 408, "pitch": 121, "duration": 48, "velocity": 100}, {"time": 456, "pitch": 115, "duration": 48, "velocity": 100}, {"time": 456, "pitch": 118, "duration": 48, "velocity": 100}, {"time": 456, "pitch": 122, "duration": 48, "velocity": 100}, {"time": 504, "pitch": 41, "duration": 24, "velocity": 100}, {"time": 504, "pitch": 45, "duration": 24, "velocity": 100}, {"time": 504, "pitch": 48, "duration": 24, "velocity": 100}, {"time": 528, "pitch": 127, "duration": 24, "velocity": 100}, {"time": 552, "pitch": 101, "duration": 24, "velocity": 100}, {"time": 552, "pitch": 105, "duration": 24, "velocity": 100}, {"time": 552, "pitch": 108, "duration": 24, "velocity": 100}, {"time": 576, "pitch": 93, "duration": 24, "velocity": 100}, {"time": 576, "pitch": 97, "duration": 24, "velocity": 100}, {"time": 576, "pitch": 100, "duration": 24, "velocity": 100}, {"time": 600, "pitch": 12, "duration": 48, "velocity": 100}, {"time": 600, "pitch": 15, "duration": 48, "velocity": 100}, {"time": 600, "pitch": 19, "duration": 48, "velocity": 100}, {"time": 648, "pitch": 97, "duration": 24, "velocity": 100}, {"time": 648, "pitch": 101, "duration": 24, "velocity": 100}, {"time": 648, "pitch": 104, "duration": 24, "velocity": 100}, {"time": 672, "pitch": 29, "duration": 24, "velocity": 100}, {"time": 672, "pitch": 33, "duration": 24, "velocity": 100}, {"time": 672, "pitch": 36, "duration": 24, "velocity": 100}, {"time": 696, "pitch": 13, "duration": 48, "velocity": 100}, {"time": 696, "pitch": 16, "duration": 48, "velocity": 100}, {"time": 696, "pitch": 20, "duration": 48, "velocity": 100}, {"time": 744, "pitch": 70, "duration": 24, "velocity": 100}, {"time": 744, "pitch": 74, "duration": 24, "velocity": 100}, {"time": 744, "pitch": 77, "duration": 24, "velocity": 100}, {"time": 768, "pitch": 104, "duration": 48, "velocity": 100}, {"time": 768, "pitch": 108, "duration": 48, "velocity": 100}, {"time": 768, "pitch": 111, "duration": 48, "velocity": 100}, {"time": 816, "pitch": 56, "duration": 48, "velocity": 100}, {"time": 816, "pitch": 60, "duration": 48, "velocity": 100}, {"time": 816, "pitch": 63, "duration": 48, "velocity": 100}, {"time": 864, "pitch": 77, "duration": 24, "velocity": 100}, {"time": 864, "pitch": 80, "duration": 24, "velocity": 100}, {"time": 864, "pitch": 84, "duration": 24, "velocity": 100}, {"time": 888, "pitch": 75, "duration": 24, "velocity": 100}, {"time": 888, "pitch": 78, "duration": 24, "velocity": 100}, {"time": 888, "pitch": 82, "duration": 24, "velocity": 100}, {"time": 912, "pitch": 80, "duration": 24, "velocity": 100}, {"time": 912, "pitch": 83, "duration": 24, "velocity": 100}, {"time": 912, "pitch": 87, "duration": 24, "velocity": 100}, {"time": 936, "pitch": 118, "duration": 48, "velocity": 100}, {"time": 936, "pitch": 122, "duration": 48, "velocity": 100}, {"time": 936, "pitch": 125, "duration": 48, "velocity": 100}, {"time": 984, "pitch": 46, "duration": 48, "velocity": 100}, {"time": 984, "pitch": 49, "duration": 48, "velocity": 100}, {"time": 984, "pitch": 53, "duration": 48, "velocity": 100}, {"time": 1032, "pitch": 42, "duration": 48, "velocity": 100}, {"time": 1032, "pitch": 45, "duration": 48, "velocity": 100}, {"time": 1032, "pitch": 49, "duration": 48, "velocity": 100}, {"time": 1080, "pitch": 36, "duration": 48, "velocity": 100}, {"time": 1080, "pitch": 40, "duration": 48, "velocity": 100}, {"time": 1080, "pitch": 43, "duration": 48, "velocity": 100}, {"time": 1128, "pitch": 63, "duration": 48, "velocity": 100}, {"time": 1128, "pitch": 66, "duration": 48, "velocity": 100}, {"time": 1128, "pitch": 70, "duration": 48, "velocity": 100}, {"time": 1176, "pitch": 106, "duration": 24, "velocity": 100}, {"time": 1176, "pitch": 109, "duration": 24, "velocity": 100}, {"time": 1176, "pitch": 113, "duration": 24, "velocity": 100}, {"time": 1200, "pitch": 108, "duration": 24, "velocity": 100}, {"time": 1200, "pitch": 111, "duration": 24, "velocity": 100}, {"time": 1200, "pitch": 115, "duration": 24, "velocity": 100}, {"time": 1224, "pitch": 52, "duration": 24, "velocity": 100}, {"time": 1224, "pitch": 56, "duration": 24, "velocity": 100}, {"time": 1224, "pitch": 59, "duration": 24, "velocity": 100}, {"time": 1248, "pitch": 101, "duration": 24, "velocity": 100}, {"time": 1248, "pitch": 105, "duration": 24, "velocity": 100}, {"time": 1248, "pitch": 108, "duration": 24, "velocity": 100}, {"time": 1272, "pitch": 20, "duration": 48, "velocity": 100}, {"time": 1272, "pitch": 23, "duration": 48, "velocity": 100}, {"time": 1272, "pitch": 27, "duration": 48, "velocity": 100}, {"time": 1320, "pitch": 82, "duration": 24, "velocity": 100}, {"time": 1320, "pitch": 86, "duration": 24, "velocity": 100}, {"time": 1320, "pitch": 89, "duration": 24, "velocity": 100}, {"time": 1344, "pitch": 82, "duration": 48, "velocity": 100}, {"time": 1344, "pitch": 85, "duration": 48, "velocity": 100}, {"time": 1344, "pitch": 89, "duration": 48, "velocity": 100}, {"time": 1392, "pitch": 120, "duration": 24, "velocity": 100}, {"time": 1392, "pitch": 124, "duration": 24, "velocity": 100}, {"time": 1392, "pitch": 127, "duration": 24, "velocity": 100}, {"time": 1416, "pitch": 38, "duration": 24, "velocity": 100}, {"time": 1416, "pitch": 42, "duration": 24, "velocity": 100}, {"time": 1416, "pitch": 45, "duration": 24, "velocity": 100}, {"time": 1440, "pitch": 24, "duration": 24, "velocity": 100}, {"time": 1440, "pitch": 28, "duration": 24, "velocity": 100}, {"time": 1440, "pitch": 31, "duration": 24, "velocity": 100}, {"time": 1464, "pitch": 55, "duration": 48, "velocity": 100}, {"time": 1464, "pitch": 58, "duration": 48, "velocity": 100}, {"time": 1464, "pitch": 62, "duration": 48, "velocity": 100}, {"time": 1512, "pitch": 112, "duration": 24, "velocity": 100}, {"time": 1512, "pitch": 116, "duration": 24, "velocity": 100}, {"time": 1512, "pitch": 119, "duration": 24, "velocity": 100}]}]}