{"metadata": {"schema_version": "0.2", "title": "None", "source_filename": "baseline10.mid", "source_format": "midi"}, "resolution": 12, "tempos": [{"time": 0, "qpm": 100.0}], "tracks": [{"program": 0, "is_drum": false, "name": "track", "notes": [{"time": 0, "pitch": 78, "duration": 48, "velocity": 100}, {"time": 0, "pitch": 82, "duration": 48, "velocity": 100}, {"time": 0, "pitch": 85, "duration": 48, "velocity": 100}, {"time": 48, "pitch": 98, "duration": 48, "velocity": 100}, {"time": 48, "pitch": 102, "duration": 48, "velocity": 100}, {"time": 48, "pitch": 105, "duration": 48, "velocity": 100}, {"time": 96, "pitch": 79, "duration": 48, "velocity": 100}, {"time": 96, "pitch": 82, "duration": 48, "velocity": 100}, {"time": 96, "pitch": 86, "duration": 48, "velocity": 100}, {"time": 144, "pitch": 70, "duration": 24, "velocity": 100}, {"time": 144, "pitch": 74, "duration": 24, "velocity": 100}, {"time": 144, "pitch": 77, "duration": 24, "velocity": 100}, {"time": 168, "pitch": 80, "duration": 48, "velocity": 100}, {"time": 168, "pitch": 84, "duration": 48, "velocity": 100}, {"time": 168, "pitch": 87, "duration": 48, "velocity": 100}, {"time": 216, "pitch": 125, "duration": 24, "velocity": 100}, {"time": 240, "pitch": 46, "duration": 48, "velocity": 100}, {"time": 240, "pitch": 50, "duration": 48, "velocity": 100}, {"time": 240, "pitch": 53, "duration": 48, "velocity": 100}, {"time": 288, "pitch": 23, "duration": 48, "velocity": 100}, {"time": 288, "pitch": 26, "duration": 48, "velocity": 100}, {"time": 288, "pitch": 30, "duration": 48, "velocity": 100}, {"time": 336, "pitch": 17, "duration": 48, "velocity": 100}, {"time": 336, "pitch": 20, "duration": 48, "velocity": 100}, {"time": 336, "pitch": 24, "duration": 48, "velocity": 100}, {"time": 384, "pitch": 0, "duration": 48, "velocity": 100}, {"time": 384, "pitch": 3, "duration": 48, "velocity": 100}, {"time": 384, "pitch": 7, "duration": 48, "velocity": 100}, {"time": 432, "pitch": 95, "duration": 24, "velocity": 100}, {"time": 432, "pitch": 99, "duration": 24, "velocity": 100}, {"time": 432, "pitch": 102, "duration": 24, "velocity": 100}, {"time": 456, "pitch": 53, "duration": 24, "velocity": 100}, {"time": 456, "pitch": 57, "duration": 24, "velocity": 100}, {"time": 456, "pitch": 60, "duration": 24, "velocity": 100}, {"time": 480, "pitch": 112, "duration": 24, "velocity": 100}, {"time": 480, "pitch": 115, "duration": 24, "velocity": 100}, {"time": 480, "pitch": 119, "duration": 24, "velocity": 100}, {"time": 504, "pitch": 23, "duration": 24, "velocity": 100}, {"time": 504, "pitch": 27, "duration": 24, "velocity": 100}, {"time": 504, "pitch": 30, "duration": 24, "velocity": 100}, {"time": 528, "pitch": 116, "duration": 48, "velocity": 100}, {"time": 528, "pitch": 119, "duration": 48, "velocity": 100}, {"time": 528, "pitch": 123, "duration": 48, "velocity": 100}, {"time": 576, "pitch": 59, "duration": 24, "velocity": 100}, {"time": 576, "pitch": 62, "duration": 24, "velocity": 100}, {"time": 576, "pitch": 66, "duration": 24, "velocity": 100}, {"time": 600, "pitch": 59, "duration": 48, "velocity": 100}, {"time": 600, "pitch": 62, "duration": 48, "velocity": 100}, {"time": 600, "pitch": 66, "duration": 48, "velocity": 100}, {"time": 648, "pitch": 18, "duration": 48, "velocity": 100}, {"time": 648, "pitch": 21, "duration": 48, "velocity": 100}, {"time": 648, "pitch": 25, "duration": 48, "velocity": 100}, {"time": 696, "pitch": 88, "duration": 48, "velocity": 100}, {"time": 696, "pitch": 91, "duration": 48, "velocity": 100}, {"time": 696, "pitch": 95, "duration": 48, "velocity": 100}, {"time": 744, "pitch": 28, "duration": 24, "velocity": 100}, {"time": 744, "pitch": 31, "duration": 24, "velocity": 100}, {"time": 744, "pitch": 35, "duration": 24, "velocity": 100}, {"time": 768, "pitch": 82, "duration": 48, "velocity": 100}, {"time": 768, "pitch": 85, "duration": 48, "velocity": 100}, {"time": 768, "pitch": 89, "duration": 48, "velocity": 100}, {"time": 816, "pitch": 96, "duration": 24, "velocity": 100}, {"time": 816, "pitch": 99, "duration": 24, "velocity": 100}, {"time": 816, "pitch": 103, "duration": 24, "velocity": 100}, {"time": 840, "pitch": 65, "duration": 24, "velocity": 100}, {"time": 840, "pitch": 69, "duration": 24, "velocity": 100}, {"time": 840, "pitch": 72, "duration": 24, "velocity": 100}, {"time": 864, "pitch": 67, "duration": 24, "velocity": 100}, {"time": 864, "pitch": 70, "duration": 24, "velocity": 100}, {"time": 864, "pitch": 74, "duration": 24, "velocity": 100}, {"time": 888, "pitch": 42, "duration": 24, "velocity": 100}, {"time": 888, "pitch": 46, "duration": 24, "velocity": 100}, {"time": 888, "pitch": 49, "duration": 24, "velocity": 100}, {"time": 912, "pitch": 121, "duration": 24, "velocity": 100}, {"time": 912, "pitch": 125, "duration": 24, "velocity": 100}, {"time": 936, "pitch": 75, "duration": 48, "velocity": 100}, {"time": 936, "pitch": 78, "duration": 48, "velocity": 100}, {"time": 936, "pitch": 82, "duration": 48, "velocity": 100}, {"time": 984, "pitch": 35, "duration": 24, "velocity": 100}, {"time": 984, "pitch": 39, "duration": 24, "velocity": 100}, {"time": 984, "pitch": 42, "duration": 24, "velocity": 100}, {"time": 1008, "pitch": 50, "duration": 48, "velocity": 100}, {"time": 1008, "pitch": 53, "duration": 48, "velocity": 100}, {"time": 1008, "pitch": 57, "duration": 48, "velocity": 100}, {"time": 1056, "pitch": 40, "duration": 24, "velocity": 100}, {"time": 1056, "pitch": 44, "duration": 24, "velocity": 100}, {"time": 1056, "pitch": 47, "duration": 24, "velocity": 100}, {"time": 1080, "pitch": 82, "duration": 24, "velocity": 100}, {"time": 1080, "pitch": 85, "duration": 24, "velocity": 100}, {"time": 1080, "pitch": 89, "duration": 24, "velocity": 100}, {"time": 1104, "pitch": 51, "duration": 24, "velocity": 100}, {"time": 1104, "pitch": 55, "duration": 24, "velocity": 100}, {"time": 1104, "pitch": 58, "duration": 24, "velocity": 100}, {"time": 1128, "pitch": 27, "duration": 48, "velocity": 100}, {"time": 1128, "pitch": 30, "duration": 48, "velocity": 100}, {"time": 1128, "pitch": 34, "duration": 48, "velocity": 100}, {"time": 1176, "pitch": 99, "duration": 24, "velocity": 100}, {"time": 1176, "pitch": 103, "duration": 24, "velocity": 100}, {"time": 1176, "pitch": 106, "duration": 24, "velocity": 100}, {"time": 1200, "pitch": 65, "duration": 48, "velocity": 100}, {"time": 1200, "pitch": 68, "duration": 48, "velocity": 100}, {"time": 1200, "pitch": 72, "duration": 48, "velocity": 100}, {"time": 1248, "pitch": 3, "duration": 24, "velocity": 100}, {"time": 1248, "pitch": 6, "duration": 24, "velocity": 100}, {"time": 1248, "pitch": 10, "duration": 24, "velocity": 100}, {"time": 1272, "pitch": 120, "duration": 24, "velocity": 100}, {"time": 1272, "pitch": 123, "duration": 24, "velocity": 100}, {"time": 1272, "pitch": 127, "duration": 24, "velocity": 100}, {"time": 1296, "pitch": 85, "duration": 24, "velocity": 100}, {"time": 1296, "pitch": 89, "duration": 24, "velocity": 100}, {"time": 1296, "pitch": 92, "duration": 24, "velocity": 100}, {"time": 1320, "pitch": 114, "duration": 24, "velocity": 100}, {"time": 1320, "pitch": 118, "duration": 24, "velocity": 100}, {"time": 1320, "pitch": 121, "duration": 24, "velocity": 100}, {"time": 1344, "pitch": 85, "duration": 48, "velocity": 100}, {"time": 1344, "pitch": 88, "duration": 48, "velocity": 100}, {"time": 1344, "pitch": 92, "duration": 48, "velocity": 100}, {"time": 1392, "pitch": 108, "duration": 48, "velocity": 100}, {"time": 1392, "pitch": 111, "duration": 48, "velocity": 100}, {"time": 1392, "pitch": 115, "duration": 48, "velocity": 100}, {"time": 1440, "pitch": 98, "duration": 24, "velocity": 100}, {"time": 1440, "pitch": 102, "duration": 24, "velocity": 100}, {"time": 1440, "pitch": 105, "duration": 24, "velocity": 100}, {"time": 1464, "pitch": 68, "duration": 24, "velocity": 100}, {"time": 1464, "pitch": 71, "duration": 24, "velocity": 100}, {"time": 1464, "pitch": 75, "duration": 24, "velocity": 100}, {"time": 1488, "pitch": 18, "duration": 24, "velocity": 100}, {"time": 1488, "pitch": 22, "duration": 24, "velocity": 100}, {"time": 1488, "pitch": 25, "duration": 24, "velocity": 100}, {"time": 1512, "pitch": 117, "duration": 24, "velocity": 100}, {"time": 1512, "pitch": 121, "duration": 24, "velocity": 100}, {"time": 1512, "pitch": 124, "duration": 24, "velocity": 100}]}]}