{"metadata": {"schema_version": "0.2", "title": "None", "source_filename": "baseline14.mid", "source_format": "midi"}, "resolution": 12, "tempos": [{"time": 0, "qpm": 100.0}], "tracks": [{"program": 0, "is_drum": false, "name": "track", "notes": [{"time": 0, "pitch": 28, "duration": 48, "velocity": 100}, {"time": 0, "pitch": 32, "duration": 48, "velocity": 100}, {"time": 0, "pitch": 35, "duration": 48, "velocity": 100}, {"time": 48, "pitch": 62, "duration": 48, "velocity": 100}, {"time": 48, "pitch": 66, "duration": 48, "velocity": 100}, {"time": 48, "pitch": 69, "duration": 48, "velocity": 100}, {"time": 96, "pitch": 93, "duration": 48, "velocity": 100}, {"time": 96, "pitch": 97, "duration": 48, "velocity": 100}, {"time": 96, "pitch": 100, "duration": 48, "velocity": 100}, {"time": 144, "pitch": 97, "duration": 24, "velocity": 100}, {"time": 144, "pitch": 101, "duration": 24, "velocity": 100}, {"time": 144, "pitch": 104, "duration": 24, "velocity": 100}, {"time": 168, "pitch": 70, "duration": 24, "velocity": 100}, {"time": 168, "pitch": 74, "duration": 24, "velocity": 100}, {"time": 168, "pitch": 77, "duration": 24, "velocity": 100}, {"time": 192, "pitch": 87, "duration": 24, "velocity": 100}, {"time": 192, "pitch": 90, "duration": 24, "velocity": 100}, {"time": 192, "pitch": 94, "duration": 24, "velocity": 100}, {"time": 216, "pitch": 86, "duration": 48, "velocity": 100}, {"time": 216, "pitch": 89, "duration": 48, "velocity": 100}, {"time": 216, "pitch": 93, "duration": 48, "velocity": 100}, {"time": 264, "pitch": 30, "duration": 24, "velocity": 100}, {"time": 264, "pitch": 34, "duration": 24, "velocity": 100}, {"time": 264, "pitch": 37, "duration": 24, "velocity": 100}, {"time": 288, "pitch": 116, "duration": 24, "velocity": 100}, {"time": 288, "pitch": 120, "duration": 24, "velocity": 100}, {"time": 288, "pitch": 123, "duration": 24, "velocity": 100}, {"time": 312, "pitch": 69, "duration": 24, "velocity": 100}, {"time": 312, "pitch": 72, "duration": 24, "velocity": 100}, {"time": 312, "pitch": 76, "duration": 24, "velocity": 100}, {"time": 336, "pitch": 30, "duration": 48, "velocity": 100}, {"time": 336, "pitch": 33, "duration": 48, "velocity": 100}, {"time": 336, "pitch": 37, "duration": 48, "velocity": 100}, {"time": 384, "pitch": 86, "duration": 24, "velocity": 100}, {"time": 384, "pitch": 90, "duration": 24, "velocity": 100}, {"time": 384, "pitch": 93, "duration": 24, "velocity": 100}, {"time": 408, "pitch": 98, "duration": 48, "velocity": 100}, {"time": 408, "pitch": 102, "duration": 48, "velocity": 100}, {"time": 408, "pitch": 105, "duration": 48, "velocity": 100}, {"time": 456, "pitch": 60, "duration": 24, "velocity": 100}, {"time": 456, "pitch": 64, "duration": 24, "velocity": 100}, {"time": 456, "pitch": 67, "duration": 24, "velocity": 100}, {"time": 480, "pitch": 69, "duration": 24, "velocity": 100}, {"time": 480, "pitch": 72, "duration": 24, "velocity": 100}, {"time": 480, "pitch": 76, "duration": 24, "velocity": 100}, {"time": 504, "pitch": 71, "duration": 24, "velocity": 100}, {"time": 504, "pitch": 75, "duration": 24, "velocity": 100}, {"time": 504, "pitch": 78, "duration": 24, "velocity": 100}, {"time": 528, "pitch": 105, "duration": 48, "velocity": 100}, {"time": 528, "pitch": 108, "duration": 48, "velocity": 100}, {"time": 528, "pitch": 112, "duration": 48, "velocity": 100}, {"time": 576, "pitch": 33, "duration": 48, "velocity": 100}, {"time": 576, "pitch": 37, "duration": 48, "velocity": 100}, {"time": 576, "pitch": 40, "duration": 48, "velocity": 100}, {"time": 624, "pitch": 28, "duration": 24, "velocity": 100}, {"time": 624, "pitch": 31, "duration": 24, "velocity": 100}, {"time": 624, "pitch": 35, "duration": 24, "velocity": 100}, {"time": 648, "pitch": 117, "duration": 24, "velocity": 100}, {"time": 648, "pitch": 121, "duration": 24, "velocity": 100}, {"time": 648, "pitch": 124, "duration": 24, "velocity": 100}, {"time": 672, "pitch": 9, "duration": 48, "velocity": 100}, {"time": 672, "pitch": 13, "duration": 48, "velocity": 100}, {"time": 672, "pitch": 16, "duration": 48, "velocity": 100}, {"time": 720, "pitch": 58, "duration": 48, "velocity": 100}, {"time": 720, "pitch": 61, "duration": 48, "velocity": 100}, {"time": 720, "pitch": 65, "duration": 48, "velocity": 100}, {"time": 768, "pitch": 106, "duration": 48, "velocity": 100}, {"time": 768, "pitch": 110, "duration": 48, "velocity": 100}, {"time": 768, "pitch": 113, "duration": 48, "velocity": 100}, {"time": 816, "pitch": 68, "duration": 24, "velocity": 100}, {"time": 816, "pitch": 72, "duration": 24, "velocity": 100}, {"time": 816, "pitch": 75, "duration": 24, "velocity": 100}, {"time": 840, "pitch": 45, "duration": 48, "velocity": 100}, {"time": 840, "pitch": 49, "duration": 48, "velocity": 100}, {"time": 840, "pitch": 52, "duration": 48, "velocity": 100}, {"time": 888, "pitch": 104, "duration": 24, "velocity": 100}, {"time": 888, "pitch": 108, "duration": 24, "velocity": 100}, {"time": 888, "pitch": 111, "duration": 24, "velocity": 100}, {"time": 912, "pitch": 95, "duration": 48, "velocity": 100}, {"time": 912, "pitch": 98, "duration": 48, "velocity": 100}, {"time": 912, "pitch": 102, "duration": 48, "velocity": 100}, {"time": 960, "pitch": 40, "duration": 24, "velocity": 100}, {"time": 960, "pitch": 43, "duration": 24, "velocity": 100}, {"time": 960, "pitch": 47, "duration": 24, "velocity": 100}, {"time": 984, "pitch": 95, "duration": 48, "velocity": 100}, {"time": 984, "pitch": 99, "duration": 48, "velocity": 100}, {"time": 984, "pitch": 102, "duration": 48, "velocity": 100}, {"time": 1032, "pitch": 91, "duration": 24, "velocity": 100}, {"time": 1032, "pitch": 94, "duration": 24, "velocity": 100}, {"time": 1032, "pitch": 98, "duration": 24, "velocity": 100}, {"time": 1056, "pitch": 120, "duration": 24, "velocity": 100}, {"time": 1056, "pitch": 123, "duration": 24, "velocity": 100}, {"time": 1056, "pitch": 127, "duration": 24, "velocity": 100}, {"time": 1080, "pitch": 107, "duration": 24, "velocity": 100}, {"time": 1080, "pitch": 110, "duration": 24, "velocity": 100}, {"time": 1080, "pitch": 114, "duration": 24, "velocity": 100}, {"time": 1104, "pitch": 125, "duration": 24, "velocity": 100}, {"time": 1128, "pitch": 23, "duration": 48, "velocity": 100}, {"time": 1128, "pitch": 27, "duration": 48, "velocity": 100}, {"time": 1128, "pitch": 30, "duration": 48, "velocity": 100}, {"time": 1176, "pitch": 47, "duration": 48, "velocity": 100}, {"time": 1176, "pitch": 51, "duration": 48, "velocity": 100}, {"time": 1176, "pitch": 54, "duration": 48, "velocity": 100}, {"time": 1224, "pitch": 31, "duration": 48, "velocity": 100}, {"time": 1224, "pitch": 35, "duration": 48, "velocity": 100}, {"time": 1224, "pitch": 38, "duration": 48, "velocity": 100}, {"time": 1272, "pitch": 43, "duration": 24, "velocity": 100}, {"time": 1272, "pitch": 46, "duration": 24, "velocity": 100}, {"time": 1272, "pitch": 50, "duration": 24, "velocity": 100}, {"time": 1296, "pitch": 5, "duration": 48, "velocity": 100}, {"time": 1296, "pitch": 8, "duration": 48, "velocity": 100}, {"time": 1296, "pitch": 12, "duration": 48, "velocity": 100}, {"time": 1344, "pitch": 81, "duration": 24, "velocity": 100}, {"time": 1344, "pitch": 85, "duration": 24, "velocity": 100}, {"time": 1344, "pitch": 88, "duration": 24, "velocity": 100}, {"time": 1368, "pitch": 12, "duration": 24, "velocity": 100}, {"time": 1368, "pitch": 16, "duration": 24, "velocity": 100}, {"time": 1368, "pitch": 19, "duration": 24, "velocity": 100}, {"time": 1392, "pitch": 42, "duration": 24, "velocity": 100}, {"time": 1392, "pitch": 46, "duration": 24, "velocity": 100}, {"time": 1392, "pitch": 49, "duration": 24, "velocity": 100}, {"time": 1416, "pitch": 49, "duration": 48, "velocity": 100}, {"time": 1416, "pitch": 52, "duration": 48, "velocity": 100}, {"time": 1416, "pitch": 56, "duration": 48, "velocity": 100}, {"time": 1464, "pitch": 127, "duration": 48, "velocity": 100}, {"time": 1512, "pitch": 100, "duration": 24, "velocity": 100}, {"time": 1512, "pitch": 104, "duration": 24, "velocity": 100}, {"time": 1512, "pitch": 107, "duration": 24, "velocity": 100}]}]}