{"metadata": {"schema_version": "0.2", "title": "None", "source_filename": "baseline12.mid", "source_format": "midi"}, "resolution": 12, "tempos": [{"time": 0, "qpm": 100.0}], "tracks": [{"program": 0, "is_drum": false, "name": "track", "notes": [{"time": 0, "pitch": 70, "duration": 24, "velocity": 100}, {"time": 0, "pitch": 74, "duration": 24, "velocity": 100}, {"time": 0, "pitch": 77, "duration": 24, "velocity": 100}, {"time": 24, "pitch": 5, "duration": 24, "velocity": 100}, {"time": 24, "pitch": 9, "duration": 24, "velocity": 100}, {"time": 24, "pitch": 12, "duration": 24, "velocity": 100}, {"time": 48, "pitch": 98, "duration": 24, "velocity": 100}, {"time": 48, "pitch": 101, "duration": 24, "velocity": 100}, {"time": 48, "pitch": 105, "duration": 24, "velocity": 100}, {"time": 72, "pitch": 66, "duration": 24, "velocity": 100}, {"time": 72, "pitch": 69, "duration": 24, "velocity": 100}, {"time": 72, "pitch": 73, "duration": 24, "velocity": 100}, {"time": 96, "pitch": 16, "duration": 24, "velocity": 100}, {"time": 96, "pitch": 19, "duration": 24, "velocity": 100}, {"time": 96, "pitch": 23, "duration": 24, "velocity": 100}, {"time": 120, "pitch": 112, "duration": 24, "velocity": 100}, {"time": 120, "pitch": 116, "duration": 24, "velocity": 100}, {"time": 120, "pitch": 119, "duration": 24, "velocity": 100}, {"time": 144, "pitch": 3, "duration": 48, "velocity": 100}, {"time": 144, "pitch": 7, "duration": 48, "velocity": 100}, {"time": 144, "pitch": 10, "duration": 48, "velocity": 100}, {"time": 192, "pitch": 77, "duration": 48, "velocity": 100}, {"time": 192, "pitch": 81, "duration": 48, "velocity": 100}, {"time": 192, "pitch": 84, "duration": 48, "velocity": 100}, {"time": 240, "pitch": 68, "duration": 48, "velocity": 100}, {"time": 240, "pitch": 72, "duration": 48, "velocity": 100}, {"time": 240, "pitch": 75, "duration": 48, "velocity": 100}, {"time": 288, "pitch": 3, "duration": 24, "velocity": 100}, {"time": 288, "pitch": 6, "duration": 24, "velocity": 100}, {"time": 288, "pitch": 10, "duration": 24, "velocity": 100}, {"time": 312, "pitch": 105, "duration": 24, "velocity": 100}, {"time": 312, "pitch": 108, "duration": 24, "velocity": 100}, {"time": 312, "pitch": 112, "duration": 24, "velocity": 100}, {"time": 336, "pitch": 55, "duration": 24, "velocity": 100}, {"time": 336, "pitch": 59, "duration": 24, "velocity": 100}, {"time": 336, "pitch": 62, "duration": 24, "velocity": 100}, {"time": 360, "pitch": 70, "duration": 48, "velocity": 100}, {"time": 360, "pitch": 73, "duration": 48, "velocity": 100}, {"time": 360, "pitch": 77, "duration": 48, "velocity": 100}, {"time": 408, "pitch": 13, "duration": 24, "velocity": 100}, {"time": 408, "pitch": 16, "duration": 24, "velocity": 100}, {"time": 408, "pitch": 20, "duration": 24, "velocity": 100}, {"time": 432, "pitch": 33, "duration": 24, "velocity": 100}, {"time": 432, "pitch": 36, "duration": 24, "velocity": 100}, {"time": 432, "pitch": 40, "duration": 24, "velocity": 100}, {"time": 456, "pitch": 49, "duration": 48, "velocity": 100}, {"time": 456, "pitch": 53, "duration": 48, "velocity": 100}, {"time": 456, "pitch": 56, "duration": 48, "velocity": 100}, {"time": 504, "pitch": 74, "duration": 48, "velocity": 100}, {"time": 504, "pitch": 77, "duration": 48, "velocity": 100}, {"time": 504, "pitch": 81, "duration": 48, "velocity": 100}, {"time": 552, "pitch": 58, "duration": 48, "velocity": 100}, {"time": 552, "pitch": 61, "duration": 48, "velocity": 100}, {"time": 552, "pitch": 65, "duration": 48, "velocity": 100}, {"time": 600, "pitch": 75, "duration": 48, "velocity": 100}, {"time": 600, "pitch": 78, "duration": 48, "velocity": 100}, {"time": 600, "pitch": 82, "duration": 48, "velocity": 100}, {"time": 648, "pitch": 83, "duration": 24, "velocity": 100}, {"time": 648, "pitch": 87, "duration": 24, "velocity": 100}, {"time": 648, "pitch": 90, "duration": 24, "velocity": 100}, {"time": 672, "pitch": 117, "duration": 48, "velocity": 100}, {"time": 672, "pitch": 121, "duration": 48, "velocity": 100}, {"time": 672, "pitch": 124, "duration": 48, "velocity": 100}, {"time": 720, "pitch": 108, "duration": 48, "velocity": 100}, {"time": 720, "pitch": 111, "duration": 48, "velocity": 100}, {"time": 720, "pitch": 115, "duration": 48, "velocity": 100}, {"time": 768, "pitch": 5, "duration": 24, "velocity": 100}, {"time": 768, "pitch": 9, "duration": 24, "velocity": 100}, {"time": 768, "pitch": 12, "duration": 24, "velocity": 100}, {"time": 792, "pitch": 112, "duration": 24, "velocity": 100}, {"time": 792, "pitch": 115, "duration": 24, "velocity": 100}, {"time": 792, "pitch": 119, "duration": 24, "velocity": 100}, {"time": 816, "pitch": 62, "duration": 48, "velocity": 100}, {"time": 816, "pitch": 66, "duration": 48, "velocity": 100}, {"time": 816, "pitch": 69, "duration": 48, "velocity": 100}, {"time": 864, "pitch": 53, "duration": 24, "velocity": 100}, {"time": 864, "pitch": 56, "duration": 24, "velocity": 100}, {"time": 864, "pitch": 60, "duration": 24, "velocity": 100}, {"time": 888, "pitch": 92, "duration": 48, "velocity": 100}, {"time": 888, "pitch": 96, "duration": 48, "velocity": 100}, {"time": 888, "pitch": 99, "duration": 48, "velocity": 100}, {"time": 936, "pitch": 119, "duration": 24, "velocity": 100}, {"time": 936, "pitch": 123, "duration": 24, "velocity": 100}, {"time": 936, "pitch": 126, "duration": 24, "velocity": 100}, {"time": 960, "pitch": 82, "duration": 48, "velocity": 100}, {"time": 960, "pitch": 85, "duration": 48, "velocity": 100}, {"time": 960, "pitch": 89, "duration": 48, "velocity": 100}, {"time": 1008, "pitch": 43, "duration": 24, "velocity": 100}, {"time": 1008, "pitch": 46, "duration": 24, "velocity": 100}, {"time": 1008, "pitch": 50, "duration": 24, "velocity": 100}, {"time": 1032, "pitch": 17, "duration": 48, "velocity": 100}, {"time": 1032, "pitch": 20, "duration": 48, "velocity": 100}, {"time": 1032, "pitch": 24, "duration": 48, "velocity": 100}, {"time": 1080, "pitch": 55, "duration": 48, "velocity": 100}, {"time": 1080, "pitch": 59, "duration": 48, "velocity": 100}, {"time": 1080, "pitch": 62, "duration": 48, "velocity": 100}, {"time": 1128, "pitch": 89, "duration": 24, "velocity": 100}, {"time": 1128, "pitch": 92, "duration": 24, "velocity": 100}, {"time": 1128, "pitch": 96, "duration": 24, "velocity": 100}, {"time": 1152, "pitch": 101, "duration": 24, "velocity": 100}, {"time": 1152, "pitch": 105, "duration": 24, "velocity": 100}, {"time": 1152, "pitch": 108, "duration": 24, "velocity": 100}, {"time": 1176, "pitch": 73, "duration": 24, "velocity": 100}, {"time": 1176, "pitch": 76, "duration": 24, "velocity": 100}, {"time": 1176, "pitch": 80, "duration": 24, "velocity": 100}, {"time": 1200, "pitch": 4, "duration": 48, "velocity": 100}, {"time": 1200, "pitch": 8, "duration": 48, "velocity": 100}, {"time": 1200, "pitch": 11, "duration": 48, "velocity": 100}, {"time": 1248, "pitch": 14, "duration": 24, "velocity": 100}, {"time": 1248, "pitch": 17, "duration": 24, "velocity": 100}, {"time": 1248, "pitch": 21, "duration": 24, "velocity": 100}, {"time": 1272, "pitch": 57, "duration": 48, "velocity": 100}, {"time": 1272, "pitch": 61, "duration": 48, "velocity": 100}, {"time": 1272, "pitch": 64, "duration": 48, "velocity": 100}, {"time": 1320, "pitch": 7, "duration": 48, "velocity": 100}, {"time": 1320, "pitch": 11, "duration": 48, "velocity": 100}, {"time": 1320, "pitch": 14, "duration": 48, "velocity": 100}, {"time": 1368, "pitch": 46, "duration": 48, "velocity": 100}, {"time": 1368, "pitch": 49, "duration": 48, "velocity": 100}, {"time": 1368, "pitch": 53, "duration": 48, "velocity": 100}, {"time": 1416, "pitch": 35, "duration": 24, "velocity": 100}, {"time": 1416, "pitch": 39, "duration": 24, "velocity": 100}, {"time": 1416, "pitch": 42, "duration": 24, "velocity": 100}, {"time": 1440, "pitch": 5, "duration": 24, "velocity": 100}, {"time": 1440, "pitch": 8, "duration": 24, "velocity": 100}, {"time": 1440, "pitch": 12, "duration": 24, "velocity": 100}, {"time": 1464, "pitch": 7, "duration": 24, "velocity": 100}, {"time": 1464, "pitch": 11, "duration": 24, "velocity": 100}, {"time": 1464, "pitch": 14, "duration": 24, "velocity": 100}, {"time": 1488, "pitch": 116, "duration": 48, "velocity": 100}, {"time": 1488, "pitch": 120, "duration": 48, "velocity": 100}, {"time": 1488, "pitch": 123, "duration": 48, "velocity": 100}]}]}