{"metadata": {"schema_version": "0.2", "title": "None", "source_filename": "baseline23.mid", "source_format": "midi"}, "resolution": 12, "tempos": [{"time": 0, "qpm": 100.0}], "tracks": [{"program": 0, "is_drum": false, "name": "track", "notes": [{"time": 0, "pitch": 45, "duration": 48, "velocity": 100}, {"time": 0, "pitch": 48, "duration": 48, "velocity": 100}, {"time": 0, "pitch": 52, "duration": 48, "velocity": 100}, {"time": 48, "pitch": 67, "duration": 24, "velocity": 100}, {"time": 48, "pitch": 70, "duration": 24, "velocity": 100}, {"time": 48, "pitch": 74, "duration": 24, "velocity": 100}, {"time": 72, "pitch": 93, "duration": 48, "velocity": 100}, {"time": 72, "pitch": 97, "duration": 48, "velocity": 100}, {"time": 72, "pitch": 100, "duration": 48, "velocity": 100}, {"time": 120, "pitch": 68, "duration": 24, "velocity": 100}, {"time": 120, "pitch": 71, "duration": 24, "velocity": 100}, {"time": 120, "pitch": 75, "duration": 24, "velocity": 100}, {"time": 144, "pitch": 121, "duration": 24, "velocity": 100}, {"time": 144, "pitch": 125, "duration": 24, "velocity": 100}, {"time": 168, "pitch": 98, "duration": 24, "velocity": 100}, {"time": 168, "pitch": 102, "duration": 24, "velocity": 100}, {"time": 168, "pitch": 105, "duration": 24, "velocity": 100}, {"time": 192, "pitch": 105, "duration": 24, "velocity": 100}, {"time": 192, "pitch": 108, "duration": 24, "velocity": 100}, {"time": 192, "pitch": 112, "duration": 24, "velocity": 100}, {"time": 216, "pitch": 111, "duration": 24, "velocity": 100}, {"time": 216, "pitch": 114, "duration": 24, "velocity": 100}, {"time": 216, "pitch": 118, "duration": 24, "velocity": 100}, {"time": 240, "pitch": 35, "duration": 24, "velocity": 100}, {"time": 240, "pitch": 38, "duration": 24, "velocity": 100}, {"time": 240, "pitch": 42, "duration": 24, "velocity": 100}, {"time": 264, "pitch": 52, "duration": 24, "velocity": 100}, {"time": 264, "pitch": 55, "duration": 24, "velocity": 100}, {"time": 264, "pitch": 59, "duration": 24, "velocity": 100}, {"time": 288, "pitch": 28, "duration": 24, "velocity": 100}, {"time": 288, "pitch": 31, "duration": 24, "velocity": 100}, {"time": 288, "pitch": 35, "duration": 24, "velocity": 100}, {"time": 312, "pitch": 118, "duration": 24, "velocity": 100}, {"time": 312, "pitch": 122, "duration": 24, "velocity": 100}, {"time": 312, "pitch": 125, "duration": 24, "velocity": 100}, {"time": 336, "pitch": 54, "duration": 24, "velocity": 100}, {"time": 336, "pitch": 57, "duration": 24, "velocity": 100}, {"time": 336, "pitch": 61, "duration": 24, "velocity": 100}, {"time": 360, "pitch": 107, "duration": 24, "velocity": 100}, {"time": 360, "pitch": 110, "duration": 24, "velocity": 100}, {"time": 360, "pitch": 114, "duration": 24, "velocity": 100}, {"time": 384, "pitch": 95, "duration": 48, "velocity": 100}, {"time": 384, "pitch": 99, "duration": 48, "velocity": 100}, {"time": 384, "pitch": 102, "duration": 48, "velocity": 100}, {"time": 432, "pitch": 76, "duration": 24, "velocity": 100}, {"time": 432, "pitch": 80, "duration": 24, "velocity": 100}, {"time": 432, "pitch": 83, "duration": 24, "velocity": 100}, {"time": 456, "pitch": 2, "duration": 48, "velocity": 100}, {"time": 456, "pitch": 6, "duration": 48, "velocity": 100}, {"time": 456, "pitch": 9, "duration": 48, "velocity": 100}, {"time": 504, "pitch": 86, "duration": 24, "velocity": 100}, {"time": 504, "pitch": 90, "duration": 24, "velocity": 100}, {"time": 504, "pitch": 93, "duration": 24, "velocity": 100}, {"time": 528, "pitch": 107, "duration": 24, "velocity": 100}, {"time": 528, "pitch": 110, "duration": 24, "velocity": 100}, {"time": 528, "pitch": 114, "duration": 24, "velocity": 100}, {"time": 552, "pitch": 10, "duration": 24, "velocity": 100}, {"time": 552, "pitch": 14, "duration": 24, "velocity": 100}, {"time": 552, "pitch": 17, "duration": 24, "velocity": 100}, {"time": 576, "pitch": 24, "duration": 24, "velocity": 100}, {"time": 576, "pitch": 28, "duration": 24, "velocity": 100}, {"time": 576, "pitch": 31, "duration": 24, "velocity": 100}, {"time": 600, "pitch": 38, "duration": 48, "velocity": 100}, {"time": 600, "pitch": 41, "duration": 48, "velocity": 100}, {"time": 600, "pitch": 45, "duration": 48, "velocity": 100}, {"time": 648, "pitch": 41, "duration": 24, "velocity": 100}, {"time": 648, "pitch": 44, "duration": 24, "velocity": 100}, {"time": 648, "pitch": 48, "duration": 24, "velocity": 100}, {"time": 672, "pitch": 84, "duration": 48, "velocity": 100}, {"time": 672, "pitch": 88, "duration": 48, "velocity": 100}, {"time": 672, "pitch": 91, "duration": 48, "velocity": 100}, {"time": 720, "pitch": 22, "duration": 48, "velocity": 100}, {"time": 720, "pitch": 26, "duration": 48, "velocity": 100}, {"time": 720, "pitch": 29, "duration": 48, "velocity": 100}, {"time": 768, "pitch": 77, "duration": 24, "velocity": 100}, {"time": 768, "pitch": 81, "duration": 24, "velocity": 100}, {"time": 768, "pitch": 84, "duration": 24, "velocity": 100}, {"time": 792, "pitch": 41, "duration": 48, "velocity": 100}, {"time": 792, "pitch": 44, "duration": 48, "velocity": 100}, {"time": 792, "pitch": 48, "duration": 48, "velocity": 100}, {"time": 840, "pitch": 53, "duration": 48, "velocity": 100}, {"time": 840, "pitch": 56, "duration": 48, "velocity": 100}, {"time": 840, "pitch": 60, "duration": 48, "velocity": 100}, {"time": 888, "pitch": 123, "duration": 48, "velocity": 100}, {"time": 888, "pitch": 127, "duration": 48, "velocity": 100}, {"time": 936, "pitch": 29, "duration": 48, "velocity": 100}, {"time": 936, "pitch": 33, "duration": 48, "velocity": 100}, {"time": 936, "pitch": 36, "duration": 48, "velocity": 100}, {"time": 984, "pitch": 45, "duration": 24, "velocity": 100}, {"time": 984, "pitch": 49, "duration": 24, "velocity": 100}, {"time": 984, "pitch": 52, "duration": 24, "velocity": 100}, {"time": 1008, "pitch": 15, "duration": 48, "velocity": 100}, {"time": 1008, "pitch": 19, "duration": 48, "velocity": 100}, {"time": 1008, "pitch": 22, "duration": 48, "velocity": 100}, {"time": 1056, "pitch": 25, "duration": 24, "velocity": 100}, {"time": 1056, "pitch": 29, "duration": 24, "velocity": 100}, {"time": 1056, "pitch": 32, "duration": 24, "velocity": 100}, {"time": 1080, "pitch": 17, "duration": 48, "velocity": 100}, {"time": 1080, "pitch": 20, "duration": 48, "velocity": 100}, {"time": 1080, "pitch": 24, "duration": 48, "velocity": 100}, {"time": 1128, "pitch": 126, "duration": 24, "velocity": 100}, {"time": 1152, "pitch": 29, "duration": 48, "velocity": 100}, {"time": 1152, "pitch": 32, "duration": 48, "velocity": 100}, {"time": 1152, "pitch": 36, "duration": 48, "velocity": 100}, {"time": 1200, "pitch": 119, "duration": 24, "velocity": 100}, {"time": 1200, "pitch": 123, "duration": 24, "velocity": 100}, {"time": 1200, "pitch": 126, "duration": 24, "velocity": 100}, {"time": 1224, "pitch": 97, "duration": 48, "velocity": 100}, {"time": 1224, "pitch": 101, "duration": 48, "velocity": 100}, {"time": 1224, "pitch": 104, "duration": 48, "velocity": 100}, {"time": 1272, "pitch": 42, "duration": 48, "velocity": 100}, {"time": 1272, "pitch": 46, "duration": 48, "velocity": 100}, {"time": 1272, "pitch": 49, "duration": 48, "velocity": 100}, {"time": 1320, "pitch": 66, "duration": 48, "velocity": 100}, {"time": 1320, "pitch": 70, "duration": 48, "velocity": 100}, {"time": 1320, "pitch": 73, "duration": 48, "velocity": 100}, {"time": 1368, "pitch": 4, "duration": 48, "velocity": 100}, {"time": 1368, "pitch": 8, "duration": 48, "velocity": 100}, {"time": 1368, "pitch": 11, "duration": 48, "velocity": 100}, {"time": 1416, "pitch": 55, "duration": 24, "velocity": 100}, {"time": 1416, "pitch": 59, "duration": 24, "velocity": 100}, {"time": 1416, "pitch": 62, "duration": 24, "velocity": 100}, {"time": 1440, "pitch": 108, "duration": 24, "velocity": 100}, {"time": 1440, "pitch": 112, "duration": 24, "velocity": 100}, {"time": 1440, "pitch": 115, "duration": 24, "velocity": 100}, {"time": 1464, "pitch": 47, "duration": 24, "velocity": 100}, {"time": 1464, "pitch": 51, "duration": 24, "velocity": 100}, {"time": 1464, "pitch": 54, "duration": 24, "velocity": 100}, {"time": 1488, "pitch": 46, "duration": 48, "velocity": 100}, {"time": 1488, "pitch": 50, "duration": 48, "velocity": 100}, {"time": 1488, "pitch": 53, "duration": 48, "velocity": 100}]}]}