{"metadata": {"schema_version": "0.2", "title": "None", "source_filename": "baseline29.mid", "source_format": "midi"}, "resolution": 12, "tempos": [{"time": 0, "qpm": 100.0}], "tracks": [{"program": 0, "is_drum": false, "name": "track", "notes": [{"time": 0, "pitch": 9, "duration": 24, "velocity": 100}, {"time": 0, "pitch": 12, "duration": 24, "velocity": 100}, {"time": 0, "pitch": 16, "duration": 24, "velocity": 100}, {"time": 24, "pitch": 116, "duration": 48, "velocity": 100}, {"time": 24, "pitch": 119, "duration": 48, "velocity": 100}, {"time": 24, "pitch": 123, "duration": 48, "velocity": 100}, {"time": 72, "pitch": 53, "duration": 48, "velocity": 100}, {"time": 72, "pitch": 56, "duration": 48, "velocity": 100}, {"time": 72, "pitch": 60, "duration": 48, "velocity": 100}, {"time": 120, "pitch": 64, "duration": 24, "velocity": 100}, {"time": 120, "pitch": 67, "duration": 24, "velocity": 100}, {"time": 120, "pitch": 71, "duration": 24, "velocity": 100}, {"time": 144, "pitch": 108, "duration": 24, "velocity": 100}, {"time": 144, "pitch": 111, "duration": 24, "velocity": 100}, {"time": 144, "pitch": 115, "duration": 24, "velocity": 100}, {"time": 168, "pitch": 73, "duration": 48, "velocity": 100}, {"time": 168, "pitch": 76, "duration": 48, "velocity": 100}, {"time": 168, "pitch": 80, "duration": 48, "velocity": 100}, {"time": 216, "pitch": 10, "duration": 24, "velocity": 100}, {"time": 216, "pitch": 13, "duration": 24, "velocity": 100}, {"time": 216, "pitch": 17, "duration": 24, "velocity": 100}, {"time": 240, "pitch": 93, "duration": 24, "velocity": 100}, {"time": 240, "pitch": 97, "duration": 24, "velocity": 100}, {"time": 240, "pitch": 100, "duration": 24, "velocity": 100}, {"time": 264, "pitch": 58, "duration": 24, "velocity": 100}, {"time": 264, "pitch": 61, "duration": 24, "velocity": 100}, {"time": 264, "pitch": 65, "duration": 24, "velocity": 100}, {"time": 288, "pitch": 96, "duration": 48, "velocity": 100}, {"time": 288, "pitch": 100, "duration": 48, "velocity": 100}, {"time": 288, "pitch": 103, "duration": 48, "velocity": 100}, {"time": 336, "pitch": 4, "duration": 24, "velocity": 100}, {"time": 336, "pitch": 8, "duration": 24, "velocity": 100}, {"time": 336, "pitch": 11, "duration": 24, "velocity": 100}, {"time": 360, "pitch": 72, "duration": 48, "velocity": 100}, {"time": 360, "pitch": 75, "duration": 48, "velocity": 100}, {"time": 360, "pitch": 79, "duration": 48, "velocity": 100}, {"time": 408, "pitch": 85, "duration": 48, "velocity": 100}, {"time": 408, "pitch": 89, "duration": 48, "velocity": 100}, {"time": 408, "pitch": 92, "duration": 48, "velocity": 100}, {"time": 456, "pitch": 72, "duration": 48, "velocity": 100}, {"time": 456, "pitch": 76, "duration": 48, "velocity": 100}, {"time": 456, "pitch": 79, "duration": 48, "velocity": 100}, {"time": 504, "pitch": 14, "duration": 24, "velocity": 100}, {"time": 504, "pitch": 18, "duration": 24, "velocity": 100}, {"time": 504, "pitch": 21, "duration": 24, "velocity": 100}, {"time": 528, "pitch": 37, "duration": 24, "velocity": 100}, {"time": 528, "pitch": 41, "duration": 24, "velocity": 100}, {"time": 528, "pitch": 44, "duration": 24, "velocity": 100}, {"time": 552, "pitch": 53, "duration": 48, "velocity": 100}, {"time": 552, "pitch": 57, "duration": 48, "velocity": 100}, {"time": 552, "pitch": 60, "duration": 48, "velocity": 100}, {"time": 600, "pitch": 49, "duration": 24, "velocity": 100}, {"time": 600, "pitch": 53, "duration": 24, "velocity": 100}, {"time": 600, "pitch": 56, "duration": 24, "velocity": 100}, {"time": 624, "pitch": 5, "duration": 48, "velocity": 100}, {"time": 624, "pitch": 8, "duration": 48, "velocity": 100}, {"time": 624, "pitch": 12, "duration": 48, "velocity": 100}, {"time": 672, "pitch": 62, "duration": 24, "velocity": 100}, {"time": 672, "pitch": 65, "duration": 24, "velocity": 100}, {"time": 672, "pitch": 69, "duration": 24, "velocity": 100}, {"time": 696, "pitch": 127, "duration": 24, "velocity": 100}, {"time": 720, "pitch": 85, "duration": 48, "velocity": 100}, {"time": 720, "pitch": 88, "duration": 48, "velocity": 100}, {"time": 720, "pitch": 92, "duration": 48, "velocity": 100}, {"time": 768, "pitch": 104, "duration": 48, "velocity": 100}, {"time": 768, "pitch": 107, "duration": 48, "velocity": 100}, {"time": 768, "pitch": 111, "duration": 48, "velocity": 100}, {"time": 816, "pitch": 69, "duration": 48, "velocity": 100}, {"time": 816, "pitch": 73, "duration": 48, "velocity": 100}, {"time": 816, "pitch": 76, "duration": 48, "velocity": 100}, {"time": 864, "pitch": 125, "duration": 24, "velocity": 100}, {"time": 888, "pitch": 96, "duration": 24, "velocity": 100}, {"time": 888, "pitch": 99, "duration": 24, "velocity": 100}, {"time": 888, "pitch": 103, "duration": 24, "velocity": 100}, {"time": 912, "pitch": 27, "duration": 24, "velocity": 100}, {"time": 912, "pitch": 31, "duration": 24, "velocity": 100}, {"time": 912, "pitch": 34, "duration": 24, "velocity": 100}, {"time": 936, "pitch": 29, "duration": 24, "velocity": 100}, {"time": 936, "pitch": 33, "duration": 24, "velocity": 100}, {"time": 936, "pitch": 36, "duration": 24, "velocity": 100}, {"time": 960, "pitch": 125, "duration": 24, "velocity": 100}, {"time": 984, "pitch": 10, "duration": 48, "velocity": 100}, {"time": 984, "pitch": 14, "duration": 48, "velocity": 100}, {"time": 984, "pitch": 17, "duration": 48, "velocity": 100}, {"time": 1032, "pitch": 66, "duration": 24, "velocity": 100}, {"time": 1032, "pitch": 69, "duration": 24, "velocity": 100}, {"time": 1032, "pitch": 73, "duration": 24, "velocity": 100}, {"time": 1056, "pitch": 5, "duration": 24, "velocity": 100}, {"time": 1056, "pitch": 8, "duration": 24, "velocity": 100}, {"time": 1056, "pitch": 12, "duration": 24, "velocity": 100}, {"time": 1080, "pitch": 76, "duration": 24, "velocity": 100}, {"time": 1080, "pitch": 80, "duration": 24, "velocity": 100}, {"time": 1080, "pitch": 83, "duration": 24, "velocity": 100}, {"time": 1104, "pitch": 114, "duration": 24, "velocity": 100}, {"time": 1104, "pitch": 118, "duration": 24, "velocity": 100}, {"time": 1104, "pitch": 121, "duration": 24, "velocity": 100}, {"time": 1128, "pitch": 93, "duration": 24, "velocity": 100}, {"time": 1128, "pitch": 97, "duration": 24, "velocity": 100}, {"time": 1128, "pitch": 100, "duration": 24, "velocity": 100}, {"time": 1152, "pitch": 68, "duration": 24, "velocity": 100}, {"time": 1152, "pitch": 71, "duration": 24, "velocity": 100}, {"time": 1152, "pitch": 75, "duration": 24, "velocity": 100}, {"time": 1176, "pitch": 46, "duration": 24, "velocity": 100}, {"time": 1176, "pitch": 50, "duration": 24, "velocity": 100}, {"time": 1176, "pitch": 53, "duration": 24, "velocity": 100}, {"time": 1200, "pitch": 18, "duration": 48, "velocity": 100}, {"time": 1200, "pitch": 21, "duration": 48, "velocity": 100}, {"time": 1200, "pitch": 25, "duration": 48, "velocity": 100}, {"time": 1248, "pitch": 12, "duration": 24, "velocity": 100}, {"time": 1248, "pitch": 15, "duration": 24, "velocity": 100}, {"time": 1248, "pitch": 19, "duration": 24, "velocity": 100}, {"time": 1272, "pitch": 88, "duration": 24, "velocity": 100}, {"time": 1272, "pitch": 91, "duration": 24, "velocity": 100}, {"time": 1272, "pitch": 95, "duration": 24, "velocity": 100}, {"time": 1296, "pitch": 20, "duration": 24, "velocity": 100}, {"time": 1296, "pitch": 23, "duration": 24, "velocity": 100}, {"time": 1296, "pitch": 27, "duration": 24, "velocity": 100}, {"time": 1320, "pitch": 51, "duration": 48, "velocity": 100}, {"time": 1320, "pitch": 55, "duration": 48, "velocity": 100}, {"time": 1320, "pitch": 58, "duration": 48, "velocity": 100}, {"time": 1368, "pitch": 64, "duration": 48, "velocity": 100}, {"time": 1368, "pitch": 67, "duration": 48, "velocity": 100}, {"time": 1368, "pitch": 71, "duration": 48, "velocity": 100}, {"time": 1416, "pitch": 13, "duration": 24, "velocity": 100}, {"time": 1416, "pitch": 17, "duration": 24, "velocity": 100}, {"time": 1416, "pitch": 20, "duration": 24, "velocity": 100}, {"time": 1440, "pitch": 80, "duration": 24, "velocity": 100}, {"time": 1440, "pitch": 83, "duration": 24, "velocity": 100}, {"time": 1440, "pitch": 87, "duration": 24, "velocity": 100}, {"time": 1464, "pitch": 17, "duration": 48, "velocity": 100}, {"time": 1464, "pitch": 21, "duration": 48, "velocity": 100}, {"time": 1464, "pitch": 24, "duration": 48, "velocity": 100}, {"time": 1512, "pitch": 108, "duration": 24, "velocity": 100}, {"time": 1512, "pitch": 112, "duration": 24, "velocity": 100}, {"time": 1512, "pitch": 115, "duration": 24, "velocity": 100}]}]}