{"metadata": {"schema_version": "0.2", "title": "None", "source_filename": "baseline43.mid", "source_format": "midi"}, "resolution": 12, "tempos": [{"time": 0, "qpm": 100.0}], "tracks": [{"program": 0, "is_drum": false, "name": "track", "notes": [{"time": 0, "pitch": 61, "duration": 24, "velocity": 100}, {"time": 0, "pitch": 65, "duration": 24, "velocity": 100}, {"time": 0, "pitch": 68, "duration": 24, "velocity": 100}, {"time": 24, "pitch": 71, "duration": 48, "velocity": 100}, {"time": 24, "pitch": 75, "duration": 48, "velocity": 100}, {"time": 24, "pitch": 78, "duration": 48, "velocity": 100}, {"time": 72, "pitch": 122, "duration": 24, "velocity": 100}, {"time": 72, "pitch": 125, "duration": 24, "velocity": 100}, {"time": 96, "pitch": 71, "duration": 48, "velocity": 100}, {"time": 96, "pitch": 74, "duration": 48, "velocity": 100}, {"time": 96, "pitch": 78, "duration": 48, "velocity": 100}, {"time": 144, "pitch": 78, "duration": 24, "velocity": 100}, {"time": 144, "pitch": 81, "duration": 24, "velocity": 100}, {"time": 144, "pitch": 85, "duration": 24, "velocity": 100}, {"time": 168, "pitch": 124, "duration": 24, "velocity": 100}, {"time": 168, "pitch": 127, "duration": 24, "velocity": 100}, {"time": 192, "pitch": 104, "duration": 48, "velocity": 100}, {"time": 192, "pitch": 108, "duration": 48, "velocity": 100}, {"time": 192, "pitch": 111, "duration": 48, "velocity": 100}, {"time": 240, "pitch": 21, "duration": 24, "velocity": 100}, {"time": 240, "pitch": 25, "duration": 24, "velocity": 100}, {"time": 240, "pitch": 28, "duration": 24, "velocity": 100}, {"time": 264, "pitch": 4, "duration": 24, "velocity": 100}, {"time": 264, "pitch": 8, "duration": 24, "velocity": 100}, {"time": 264, "pitch": 11, "duration": 24, "velocity": 100}, {"time": 288, "pitch": 69, "duration": 48, "velocity": 100}, {"time": 288, "pitch": 72, "duration": 48, "velocity": 100}, {"time": 288, "pitch": 76, "duration": 48, "velocity": 100}, {"time": 336, "pitch": 4, "duration": 24, "velocity": 100}, {"time": 336, "pitch": 8, "duration": 24, "velocity": 100}, {"time": 336, "pitch": 11, "duration": 24, "velocity": 100}, {"time": 360, "pitch": 76, "duration": 24, "velocity": 100}, {"time": 360, "pitch": 79, "duration": 24, "velocity": 100}, {"time": 360, "pitch": 83, "duration": 24, "velocity": 100}, {"time": 384, "pitch": 59, "duration": 24, "velocity": 100}, {"time": 384, "pitch": 63, "duration": 24, "velocity": 100}, {"time": 384, "pitch": 66, "duration": 24, "velocity": 100}, {"time": 408, "pitch": 111, "duration": 24, "velocity": 100}, {"time": 408, "pitch": 115, "duration": 24, "velocity": 100}, {"time": 408, "pitch": 118, "duration": 24, "velocity": 100}, {"time": 432, "pitch": 90, "duration": 24, "velocity": 100}, {"time": 432, "pitch": 94, "duration": 24, "velocity": 100}, {"time": 432, "pitch": 97, "duration": 24, "velocity": 100}, {"time": 456, "pitch": 39, "duration": 48, "velocity": 100}, {"time": 456, "pitch": 43, "duration": 48, "velocity": 100}, {"time": 456, "pitch": 46, "duration": 48, "velocity": 100}, {"time": 504, "pitch": 34, "duration": 24, "velocity": 100}, {"time": 504, "pitch": 38, "duration": 24, "velocity": 100}, {"time": 504, "pitch": 41, "duration": 24, "velocity": 100}, {"time": 528, "pitch": 86, "duration": 24, "velocity": 100}, {"time": 528, "pitch": 90, "duration": 24, "velocity": 100}, {"time": 528, "pitch": 93, "duration": 24, "velocity": 100}, {"time": 552, "pitch": 100, "duration": 24, "velocity": 100}, {"time": 552, "pitch": 104, "duration": 24, "velocity": 100}, {"time": 552, "pitch": 107, "duration": 24, "velocity": 100}, {"time": 576, "pitch": 22, "duration": 24, "velocity": 100}, {"time": 576, "pitch": 26, "duration": 24, "velocity": 100}, {"time": 576, "pitch": 29, "duration": 24, "velocity": 100}, {"time": 600, "pitch": 96, "duration": 24, "velocity": 100}, {"time": 600, "pitch": 99, "duration": 24, "velocity": 100}, {"time": 600, "pitch": 103, "duration": 24, "velocity": 100}, {"time": 624, "pitch": 3, "duration": 24, "velocity": 100}, {"time": 624, "pitch": 6, "duration": 24, "velocity": 100}, {"time": 624, "pitch": 10, "duration": 24, "velocity": 100}, {"time": 648, "pitch": 104, "duration": 24, "velocity": 100}, {"time": 648, "pitch": 107, "duration": 24, "velocity": 100}, {"time": 648, "pitch": 111, "duration": 24, "velocity": 100}, {"time": 672, "pitch": 76, "duration": 48, "velocity": 100}, {"time": 672, "pitch": 79, "duration": 48, "velocity": 100}, {"time": 672, "pitch": 83, "duration": 48, "velocity": 100}, {"time": 720, "pitch": 92, "duration": 48, "velocity": 100}, {"time": 720, "pitch": 96, "duration": 48, "velocity": 100}, {"time": 720, "pitch": 99, "duration": 48, "velocity": 100}, {"time": 768, "pitch": 127, "duration": 48, "velocity": 100}, {"time": 816, "pitch": 102, "duration": 24, "velocity": 100}, {"time": 816, "pitch": 105, "duration": 24, "velocity": 100}, {"time": 816, "pitch": 109, "duration": 24, "velocity": 100}, {"time": 840, "pitch": 124, "duration": 24, "velocity": 100}, {"time": 864, "pitch": 114, "duration": 48, "velocity": 100}, {"time": 864, "pitch": 117, "duration": 48, "velocity": 100}, {"time": 864, "pitch": 121, "duration": 48, "velocity": 100}, {"time": 912, "pitch": 46, "duration": 24, "velocity": 100}, {"time": 912, "pitch": 50, "duration": 24, "velocity": 100}, {"time": 912, "pitch": 53, "duration": 24, "velocity": 100}, {"time": 936, "pitch": 0, "duration": 48, "velocity": 100}, {"time": 936, "pitch": 4, "duration": 48, "velocity": 100}, {"time": 936, "pitch": 7, "duration": 48, "velocity": 100}, {"time": 984, "pitch": 13, "duration": 24, "velocity": 100}, {"time": 984, "pitch": 17, "duration": 24, "velocity": 100}, {"time": 984, "pitch": 20, "duration": 24, "velocity": 100}, {"time": 1008, "pitch": 35, "duration": 48, "velocity": 100}, {"time": 1008, "pitch": 38, "duration": 48, "velocity": 100}, {"time": 1008, "pitch": 42, "duration": 48, "velocity": 100}, {"time": 1056, "pitch": 76, "duration": 48, "velocity": 100}, {"time": 1056, "pitch": 79, "duration": 48, "velocity": 100}, {"time": 1056, "pitch": 83, "duration": 48, "velocity": 100}, {"time": 1104, "pitch": 58, "duration": 24, "velocity": 100}, {"time": 1104, "pitch": 61, "duration": 24, "velocity": 100}, {"time": 1104, "pitch": 65, "duration": 24, "velocity": 100}, {"time": 1128, "pitch": 69, "duration": 24, "velocity": 100}, {"time": 1128, "pitch": 72, "duration": 24, "velocity": 100}, {"time": 1128, "pitch": 76, "duration": 24, "velocity": 100}, {"time": 1152, "pitch": 104, "duration": 48, "velocity": 100}, {"time": 1152, "pitch": 108, "duration": 48, "velocity": 100}, {"time": 1152, "pitch": 111, "duration": 48, "velocity": 100}, {"time": 1200, "pitch": 12, "duration": 24, "velocity": 100}, {"time": 1200, "pitch": 15, "duration": 24, "velocity": 100}, {"time": 1200, "pitch": 19, "duration": 24, "velocity": 100}, {"time": 1224, "pitch": 17, "duration": 48, "velocity": 100}, {"time": 1224, "pitch": 20, "duration": 48, "velocity": 100}, {"time": 1224, "pitch": 24, "duration": 48, "velocity": 100}, {"time": 1272, "pitch": 59, "duration": 24, "velocity": 100}, {"time": 1272, "pitch": 63, "duration": 24, "velocity": 100}, {"time": 1272, "pitch": 66, "duration": 24, "velocity": 100}, {"time": 1296, "pitch": 70, "duration": 24, "velocity": 100}, {"time": 1296, "pitch": 74, "duration": 24, "velocity": 100}, {"time": 1296, "pitch": 77, "duration": 24, "velocity": 100}, {"time": 1320, "pitch": 41, "duration": 48, "velocity": 100}, {"time": 1320, "pitch": 44, "duration": 48, "velocity": 100}, {"time": 1320, "pitch": 48, "duration": 48, "velocity": 100}, {"time": 1368, "pitch": 103, "duration": 24, "velocity": 100}, {"time": 1368, "pitch": 106, "duration": 24, "velocity": 100}, {"time": 1368, "pitch": 110, "duration": 24, "velocity": 100}, {"time": 1392, "pitch": 124, "duration": 48, "velocity": 100}, {"time": 1392, "pitch": 127, "duration": 48, "velocity": 100}, {"time": 1440, "pitch": 111, "duration": 48, "velocity": 100}, {"time": 1440, "pitch": 114, "duration": 48, "velocity": 100}, {"time": 1440, "pitch": 118, "duration": 48, "velocity": 100}, {"time": 1488, "pitch": 110, "duration": 48, "velocity": 100}, {"time": 1488, "pitch": 113, "duration": 48, "velocity": 100}, {"time": 1488, "pitch": 117, "duration": 48, "velocity": 100}]}]}