{"metadata": {"schema_version": "0.2", "title": "None", "source_filename": "baseline38.mid", "source_format": "midi"}, "resolution": 12, "tempos": [{"time": 0, "qpm": 100.0}], "tracks": [{"program": 0, "is_drum": false, "name": "track", "notes": [{"time": 0, "pitch": 100, "duration": 24, "velocity": 100}, {"time": 0, "pitch": 103, "duration": 24, "velocity": 100}, {"time": 0, "pitch": 107, "duration": 24, "velocity": 100}, {"time": 24, "pitch": 82, "duration": 48, "velocity": 100}, {"time": 24, "pitch": 86, "duration": 48, "velocity": 100}, {"time": 24, "pitch": 89, "duration": 48, "velocity": 100}, {"time": 72, "pitch": 32, "duration": 24, "velocity": 100}, {"time": 72, "pitch": 35, "duration": 24, "velocity": 100}, {"time": 72, "pitch": 39, "duration": 24, "velocity": 100}, {"time": 96, "pitch": 123, "duration": 48, "velocity": 100}, {"time": 96, "pitch": 127, "duration": 48, "velocity": 100}, {"time": 144, "pitch": 100, "duration": 24, "velocity": 100}, {"time": 144, "pitch": 104, "duration": 24, "velocity": 100}, {"time": 144, "pitch": 107, "duration": 24, "velocity": 100}, {"time": 168, "pitch": 78, "duration": 48, "velocity": 100}, {"time": 168, "pitch": 82, "duration": 48, "velocity": 100}, {"time": 168, "pitch": 85, "duration": 48, "velocity": 100}, {"time": 216, "pitch": 76, "duration": 48, "velocity": 100}, {"time": 216, "pitch": 79, "duration": 48, "velocity": 100}, {"time": 216, "pitch": 83, "duration": 48, "velocity": 100}, {"time": 264, "pitch": 6, "duration": 24, "velocity": 100}, {"time": 264, "pitch": 10, "duration": 24, "velocity": 100}, {"time": 264, "pitch": 13, "duration": 24, "velocity": 100}, {"time": 288, "pitch": 69, "duration": 48, "velocity": 100}, {"time": 288, "pitch": 72, "duration": 48, "velocity": 100}, {"time": 288, "pitch": 76, "duration": 48, "velocity": 100}, {"time": 336, "pitch": 117, "duration": 24, "velocity": 100}, {"time": 336, "pitch": 120, "duration": 24, "velocity": 100}, {"time": 336, "pitch": 124, "duration": 24, "velocity": 100}, {"time": 360, "pitch": 107, "duration": 24, "velocity": 100}, {"time": 360, "pitch": 110, "duration": 24, "velocity": 100}, {"time": 360, "pitch": 114, "duration": 24, "velocity": 100}, {"time": 384, "pitch": 22, "duration": 48, "velocity": 100}, {"time": 384, "pitch": 26, "duration": 48, "velocity": 100}, {"time": 384, "pitch": 29, "duration": 48, "velocity": 100}, {"time": 432, "pitch": 26, "duration": 24, "velocity": 100}, {"time": 432, "pitch": 29, "duration": 24, "velocity": 100}, {"time": 432, "pitch": 33, "duration": 24, "velocity": 100}, {"time": 456, "pitch": 47, "duration": 48, "velocity": 100}, {"time": 456, "pitch": 50, "duration": 48, "velocity": 100}, {"time": 456, "pitch": 54, "duration": 48, "velocity": 100}, {"time": 504, "pitch": 123, "duration": 24, "velocity": 100}, {"time": 504, "pitch": 126, "duration": 24, "velocity": 100}, {"time": 528, "pitch": 73, "duration": 24, "velocity": 100}, {"time": 528, "pitch": 76, "duration": 24, "velocity": 100}, {"time": 528, "pitch": 80, "duration": 24, "velocity": 100}, {"time": 552, "pitch": 110, "duration": 24, "velocity": 100}, {"time": 552, "pitch": 114, "duration": 24, "velocity": 100}, {"time": 552, "pitch": 117, "duration": 24, "velocity": 100}, {"time": 576, "pitch": 8, "duration": 24, "velocity": 100}, {"time": 576, "pitch": 11, "duration": 24, "velocity": 100}, {"time": 576, "pitch": 15, "duration": 24, "velocity": 100}, {"time": 600, "pitch": 48, "duration": 24, "velocity": 100}, {"time": 600, "pitch": 51, "duration": 24, "velocity": 100}, {"time": 600, "pitch": 55, "duration": 24, "velocity": 100}, {"time": 624, "pitch": 115, "duration": 48, "velocity": 100}, {"time": 624, "pitch": 119, "duration": 48, "velocity": 100}, {"time": 624, "pitch": 122, "duration": 48, "velocity": 100}, {"time": 672, "pitch": 78, "duration": 24, "velocity": 100}, {"time": 672, "pitch": 81, "duration": 24, "velocity": 100}, {"time": 672, "pitch": 85, "duration": 24, "velocity": 100}, {"time": 696, "pitch": 47, "duration": 24, "velocity": 100}, {"time": 696, "pitch": 50, "duration": 24, "velocity": 100}, {"time": 696, "pitch": 54, "duration": 24, "velocity": 100}, {"time": 720, "pitch": 122, "duration": 24, "velocity": 100}, {"time": 720, "pitch": 125, "duration": 24, "velocity": 100}, {"time": 744, "pitch": 56, "duration": 24, "velocity": 100}, {"time": 744, "pitch": 60, "duration": 24, "velocity": 100}, {"time": 744, "pitch": 63, "duration": 24, "velocity": 100}, {"time": 768, "pitch": 20, "duration": 24, "velocity": 100}, {"time": 768, "pitch": 23, "duration": 24, "velocity": 100}, {"time": 768, "pitch": 27, "duration": 24, "velocity": 100}, {"time": 792, "pitch": 98, "duration": 24, "velocity": 100}, {"time": 792, "pitch": 102, "duration": 24, "velocity": 100}, {"time": 792, "pitch": 105, "duration": 24, "velocity": 100}, {"time": 816, "pitch": 69, "duration": 24, "velocity": 100}, {"time": 816, "pitch": 72, "duration": 24, "velocity": 100}, {"time": 816, "pitch": 76, "duration": 24, "velocity": 100}, {"time": 840, "pitch": 48, "duration": 24, "velocity": 100}, {"time": 840, "pitch": 51, "duration": 24, "velocity": 100}, {"time": 840, "pitch": 55, "duration": 24, "velocity": 100}, {"time": 864, "pitch": 119, "duration": 24, "velocity": 100}, {"time": 864, "pitch": 123, "duration": 24, "velocity": 100}, {"time": 864, "pitch": 126, "duration": 24, "velocity": 100}, {"time": 888, "pitch": 44, "duration": 48, "velocity": 100}, {"time": 888, "pitch": 48, "duration": 48, "velocity": 100}, {"time": 888, "pitch": 51, "duration": 48, "velocity": 100}, {"time": 936, "pitch": 99, "duration": 48, "velocity": 100}, {"time": 936, "pitch": 102, "duration": 48, "velocity": 100}, {"time": 936, "pitch": 106, "duration": 48, "velocity": 100}, {"time": 984, "pitch": 10, "duration": 48, "velocity": 100}, {"time": 984, "pitch": 13, "duration": 48, "velocity": 100}, {"time": 984, "pitch": 17, "duration": 48, "velocity": 100}, {"time": 1032, "pitch": 109, "duration": 24, "velocity": 100}, {"time": 1032, "pitch": 113, "duration": 24, "velocity": 100}, {"time": 1032, "pitch": 116, "duration": 24, "velocity": 100}, {"time": 1056, "pitch": 108, "duration": 24, "velocity": 100}, {"time": 1056, "pitch": 112, "duration": 24, "velocity": 100}, {"time": 1056, "pitch": 115, "duration": 24, "velocity": 100}, {"time": 1080, "pitch": 30, "duration": 48, "velocity": 100}, {"time": 1080, "pitch": 33, "duration": 48, "velocity": 100}, {"time": 1080, "pitch": 37, "duration": 48, "velocity": 100}, {"time": 1128, "pitch": 37, "duration": 48, "velocity": 100}, {"time": 1128, "pitch": 40, "duration": 48, "velocity": 100}, {"time": 1128, "pitch": 44, "duration": 48, "velocity": 100}, {"time": 1176, "pitch": 68, "duration": 24, "velocity": 100}, {"time": 1176, "pitch": 72, "duration": 24, "velocity": 100}, {"time": 1176, "pitch": 75, "duration": 24, "velocity": 100}, {"time": 1200, "pitch": 69, "duration": 24, "velocity": 100}, {"time": 1200, "pitch": 73, "duration": 24, "velocity": 100}, {"time": 1200, "pitch": 76, "duration": 24, "velocity": 100}, {"time": 1224, "pitch": 58, "duration": 48, "velocity": 100}, {"time": 1224, "pitch": 62, "duration": 48, "velocity": 100}, {"time": 1224, "pitch": 65, "duration": 48, "velocity": 100}, {"time": 1272, "pitch": 116, "duration": 24, "velocity": 100}, {"time": 1272, "pitch": 120, "duration": 24, "velocity": 100}, {"time": 1272, "pitch": 123, "duration": 24, "velocity": 100}, {"time": 1296, "pitch": 77, "duration": 48, "velocity": 100}, {"time": 1296, "pitch": 81, "duration": 48, "velocity": 100}, {"time": 1296, "pitch": 84, "duration": 48, "velocity": 100}, {"time": 1344, "pitch": 109, "duration": 24, "velocity": 100}, {"time": 1344, "pitch": 113, "duration": 24, "velocity": 100}, {"time": 1344, "pitch": 116, "duration": 24, "velocity": 100}, {"time": 1368, "pitch": 76, "duration": 24, "velocity": 100}, {"time": 1368, "pitch": 79, "duration": 24, "velocity": 100}, {"time": 1368, "pitch": 83, "duration": 24, "velocity": 100}, {"time": 1392, "pitch": 94, "duration": 48, "velocity": 100}, {"time": 1392, "pitch": 97, "duration": 48, "velocity": 100}, {"time": 1392, "pitch": 101, "duration": 48, "velocity": 100}, {"time": 1440, "pitch": 28, "duration": 48, "velocity": 100}, {"time": 1440, "pitch": 32, "duration": 48, "velocity": 100}, {"time": 1440, "pitch": 35, "duration": 48, "velocity": 100}, {"time": 1488, "pitch": 28, "duration": 24, "velocity": 100}, {"time": 1488, "pitch": 32, "duration": 24, "velocity": 100}, {"time": 1488, "pitch": 35, "duration": 24, "velocity": 100}, {"time": 1512, "pitch": 101, "duration": 24, "velocity": 100}, {"time": 1512, "pitch": 105, "duration": 24, "velocity": 100}, {"time": 1512, "pitch": 108, "duration": 24, "velocity": 100}]}]}