{"metadata": {"schema_version": "0.2", "title": "None", "source_filename": "baseline24.mid", "source_format": "midi"}, "resolution": 12, "tempos": [{"time": 0, "qpm": 100.0}], "tracks": [{"program": 0, "is_drum": false, "name": "track", "notes": [{"time": 0, "pitch": 33, "duration": 48, "velocity": 100}, {"time": 0, "pitch": 37, "duration": 48, "velocity": 100}, {"time": 0, "pitch": 40, "duration": 48, "velocity": 100}, {"time": 48, "pitch": 45, "duration": 48, "velocity": 100}, {"time": 48, "pitch": 48, "duration": 48, "velocity": 100}, {"time": 48, "pitch": 52, "duration": 48, "velocity": 100}, {"time": 96, "pitch": 15, "duration": 24, "velocity": 100}, {"time": 96, "pitch": 19, "duration": 24, "velocity": 100}, {"time": 96, "pitch": 22, "duration": 24, "velocity": 100}, {"time": 120, "pitch": 107, "duration": 48, "velocity": 100}, {"time": 120, "pitch": 111, "duration": 48, "velocity": 100}, {"time": 120, "pitch": 114, "duration": 48, "velocity": 100}, {"time": 168, "pitch": 119, "duration": 48, "velocity": 100}, {"time": 168, "pitch": 122, "duration": 48, "velocity": 100}, {"time": 168, "pitch": 126, "duration": 48, "velocity": 100}, {"time": 216, "pitch": 108, "duration": 24, "velocity": 100}, {"time": 216, "pitch": 112, "duration": 24, "velocity": 100}, {"time": 216, "pitch": 115, "duration": 24, "velocity": 100}, {"time": 240, "pitch": 71, "duration": 48, "velocity": 100}, {"time": 240, "pitch": 74, "duration": 48, "velocity": 100}, {"time": 240, "pitch": 78, "duration": 48, "velocity": 100}, {"time": 288, "pitch": 5, "duration": 48, "velocity": 100}, {"time": 288, "pitch": 9, "duration": 48, "velocity": 100}, {"time": 288, "pitch": 12, "duration": 48, "velocity": 100}, {"time": 336, "pitch": 17, "duration": 48, "velocity": 100}, {"time": 336, "pitch": 21, "duration": 48, "velocity": 100}, {"time": 336, "pitch": 24, "duration": 48, "velocity": 100}, {"time": 384, "pitch": 86, "duration": 24, "velocity": 100}, {"time": 384, "pitch": 89, "duration": 24, "velocity": 100}, {"time": 384, "pitch": 93, "duration": 24, "velocity": 100}, {"time": 408, "pitch": 95, "duration": 48, "velocity": 100}, {"time": 408, "pitch": 98, "duration": 48, "velocity": 100}, {"time": 408, "pitch": 102, "duration": 48, "velocity": 100}, {"time": 456, "pitch": 28, "duration": 24, "velocity": 100}, {"time": 456, "pitch": 31, "duration": 24, "velocity": 100}, {"time": 456, "pitch": 35, "duration": 24, "velocity": 100}, {"time": 480, "pitch": 88, "duration": 48, "velocity": 100}, {"time": 480, "pitch": 92, "duration": 48, "velocity": 100}, {"time": 480, "pitch": 95, "duration": 48, "velocity": 100}, {"time": 528, "pitch": 10, "duration": 24, "velocity": 100}, {"time": 528, "pitch": 14, "duration": 24, "velocity": 100}, {"time": 528, "pitch": 17, "duration": 24, "velocity": 100}, {"time": 552, "pitch": 51, "duration": 24, "velocity": 100}, {"time": 552, "pitch": 54, "duration": 24, "velocity": 100}, {"time": 552, "pitch": 58, "duration": 24, "velocity": 100}, {"time": 576, "pitch": 69, "duration": 48, "velocity": 100}, {"time": 576, "pitch": 72, "duration": 48, "velocity": 100}, {"time": 576, "pitch": 76, "duration": 48, "velocity": 100}, {"time": 624, "pitch": 50, "duration": 24, "velocity": 100}, {"time": 624, "pitch": 53, "duration": 24, "velocity": 100}, {"time": 624, "pitch": 57, "duration": 24, "velocity": 100}, {"time": 648, "pitch": 41, "duration": 48, "velocity": 100}, {"time": 648, "pitch": 44, "duration": 48, "velocity": 100}, {"time": 648, "pitch": 48, "duration": 48, "velocity": 100}, {"time": 696, "pitch": 23, "duration": 48, "velocity": 100}, {"time": 696, "pitch": 27, "duration": 48, "velocity": 100}, {"time": 696, "pitch": 30, "duration": 48, "velocity": 100}, {"time": 744, "pitch": 56, "duration": 24, "velocity": 100}, {"time": 744, "pitch": 59, "duration": 24, "velocity": 100}, {"time": 744, "pitch": 63, "duration": 24, "velocity": 100}, {"time": 768, "pitch": 38, "duration": 48, "velocity": 100}, {"time": 768, "pitch": 41, "duration": 48, "velocity": 100}, {"time": 768, "pitch": 45, "duration": 48, "velocity": 100}, {"time": 816, "pitch": 87, "duration": 48, "velocity": 100}, {"time": 816, "pitch": 90, "duration": 48, "velocity": 100}, {"time": 816, "pitch": 94, "duration": 48, "velocity": 100}, {"time": 864, "pitch": 63, "duration": 24, "velocity": 100}, {"time": 864, "pitch": 67, "duration": 24, "velocity": 100}, {"time": 864, "pitch": 70, "duration": 24, "velocity": 100}, {"time": 888, "pitch": 37, "duration": 24, "velocity": 100}, {"time": 888, "pitch": 41, "duration": 24, "velocity": 100}, {"time": 888, "pitch": 44, "duration": 24, "velocity": 100}, {"time": 912, "pitch": 124, "duration": 24, "velocity": 100}, {"time": 912, "pitch": 127, "duration": 24, "velocity": 100}, {"time": 936, "pitch": 114, "duration": 48, "velocity": 100}, {"time": 936, "pitch": 118, "duration": 48, "velocity": 100}, {"time": 936, "pitch": 121, "duration": 48, "velocity": 100}, {"time": 984, "pitch": 50, "duration": 48, "velocity": 100}, {"time": 984, "pitch": 53, "duration": 48, "velocity": 100}, {"time": 984, "pitch": 57, "duration": 48, "velocity": 100}, {"time": 1032, "pitch": 49, "duration": 48, "velocity": 100}, {"time": 1032, "pitch": 53, "duration": 48, "velocity": 100}, {"time": 1032, "pitch": 56, "duration": 48, "velocity": 100}, {"time": 1080, "pitch": 79, "duration": 48, "velocity": 100}, {"time": 1080, "pitch": 83, "duration": 48, "velocity": 100}, {"time": 1080, "pitch": 86, "duration": 48, "velocity": 100}, {"time": 1128, "pitch": 38, "duration": 24, "velocity": 100}, {"time": 1128, "pitch": 41, "duration": 24, "velocity": 100}, {"time": 1128, "pitch": 45, "duration": 24, "velocity": 100}, {"time": 1152, "pitch": 92, "duration": 24, "velocity": 100}, {"time": 1152, "pitch": 95, "duration": 24, "velocity": 100}, {"time": 1152, "pitch": 99, "duration": 24, "velocity": 100}, {"time": 1176, "pitch": 105, "duration": 48, "velocity": 100}, {"time": 1176, "pitch": 109, "duration": 48, "velocity": 100}, {"time": 1176, "pitch": 112, "duration": 48, "velocity": 100}, {"time": 1224, "pitch": 91, "duration": 48, "velocity": 100}, {"time": 1224, "pitch": 95, "duration": 48, "velocity": 100}, {"time": 1224, "pitch": 98, "duration": 48, "velocity": 100}, {"time": 1272, "pitch": 95, "duration": 48, "velocity": 100}, {"time": 1272, "pitch": 98, "duration": 48, "velocity": 100}, {"time": 1272, "pitch": 102, "duration": 48, "velocity": 100}, {"time": 1320, "pitch": 10, "duration": 48, "velocity": 100}, {"time": 1320, "pitch": 14, "duration": 48, "velocity": 100}, {"time": 1320, "pitch": 17, "duration": 48, "velocity": 100}, {"time": 1368, "pitch": 81, "duration": 24, "velocity": 100}, {"time": 1368, "pitch": 84, "duration": 24, "velocity": 100}, {"time": 1368, "pitch": 88, "duration": 24, "velocity": 100}, {"time": 1392, "pitch": 86, "duration": 24, "velocity": 100}, {"time": 1392, "pitch": 89, "duration": 24, "velocity": 100}, {"time": 1392, "pitch": 93, "duration": 24, "velocity": 100}, {"time": 1416, "pitch": 64, "duration": 24, "velocity": 100}, {"time": 1416, "pitch": 68, "duration": 24, "velocity": 100}, {"time": 1416, "pitch": 71, "duration": 24, "velocity": 100}, {"time": 1440, "pitch": 66, "duration": 24, "velocity": 100}, {"time": 1440, "pitch": 69, "duration": 24, "velocity": 100}, {"time": 1440, "pitch": 73, "duration": 24, "velocity": 100}, {"time": 1464, "pitch": 109, "duration": 48, "velocity": 100}, {"time": 1464, "pitch": 112, "duration": 48, "velocity": 100}, {"time": 1464, "pitch": 116, "duration": 48, "velocity": 100}, {"time": 1512, "pitch": 67, "duration": 24, "velocity": 100}, {"time": 1512, "pitch": 70, "duration": 24, "velocity": 100}, {"time": 1512, "pitch": 74, "duration": 24, "velocity": 100}]}]}