{"metadata": {"schema_version": "0.2", "title": "None", "source_filename": "baseline17.mid", "source_format": "midi"}, "resolution": 12, "tempos": [{"time": 0, "qpm": 100.0}], "tracks": [{"program": 0, "is_drum": false, "name": "track", "notes": [{"time": 0, "pitch": 28, "duration": 48, "velocity": 100}, {"time": 0, "pitch": 31, "duration": 48, "velocity": 100}, {"time": 0, "pitch": 35, "duration": 48, "velocity": 100}, {"time": 48, "pitch": 65, "duration": 24, "velocity": 100}, {"time": 48, "pitch": 69, "duration": 24, "velocity": 100}, {"time": 48, "pitch": 72, "duration": 24, "velocity": 100}, {"time": 72, "pitch": 53, "duration": 24, "velocity": 100}, {"time": 72, "pitch": 57, "duration": 24, "velocity": 100}, {"time": 72, "pitch": 60, "duration": 24, "velocity": 100}, {"time": 96, "pitch": 77, "duration": 24, "velocity": 100}, {"time": 96, "pitch": 80, "duration": 24, "velocity": 100}, {"time": 96, "pitch": 84, "duration": 24, "velocity": 100}, {"time": 120, "pitch": 126, "duration": 24, "velocity": 100}, {"time": 144, "pitch": 36, "duration": 48, "velocity": 100}, {"time": 144, "pitch": 40, "duration": 48, "velocity": 100}, {"time": 144, "pitch": 43, "duration": 48, "velocity": 100}, {"time": 192, "pitch": 103, "duration": 48, "velocity": 100}, {"time": 192, "pitch": 107, "duration": 48, "velocity": 100}, {"time": 192, "pitch": 110, "duration": 48, "velocity": 100}, {"time": 240, "pitch": 38, "duration": 48, "velocity": 100}, {"time": 240, "pitch": 42, "duration": 48, "velocity": 100}, {"time": 240, "pitch": 45, "duration": 48, "velocity": 100}, {"time": 288, "pitch": 71, "duration": 48, "velocity": 100}, {"time": 288, "pitch": 75, "duration": 48, "velocity": 100}, {"time": 288, "pitch": 78, "duration": 48, "velocity": 100}, {"time": 336, "pitch": 64, "duration": 24, "velocity": 100}, {"time": 336, "pitch": 67, "duration": 24, "velocity": 100}, {"time": 336, "pitch": 71, "duration": 24, "velocity": 100}, {"time": 360, "pitch": 126, "duration": 48, "velocity": 100}, {"time": 408, "pitch": 117, "duration": 24, "velocity": 100}, {"time": 408, "pitch": 121, "duration": 24, "velocity": 100}, {"time": 408, "pitch": 124, "duration": 24, "velocity": 100}, {"time": 432, "pitch": 82, "duration": 48, "velocity": 100}, {"time": 432, "pitch": 85, "duration": 48, "velocity": 100}, {"time": 432, "pitch": 89, "duration": 48, "velocity": 100}, {"time": 480, "pitch": 127, "duration": 24, "velocity": 100}, {"time": 504, "pitch": 67, "duration": 48, "velocity": 100}, {"time": 504, "pitch": 71, "duration": 48, "velocity": 100}, {"time": 504, "pitch": 74, "duration": 48, "velocity": 100}, {"time": 552, "pitch": 50, "duration": 24, "velocity": 100}, {"time": 552, "pitch": 53, "duration": 24, "velocity": 100}, {"time": 552, "pitch": 57, "duration": 24, "velocity": 100}, {"time": 576, "pitch": 36, "duration": 24, "velocity": 100}, {"time": 576, "pitch": 40, "duration": 24, "velocity": 100}, {"time": 576, "pitch": 43, "duration": 24, "velocity": 100}, {"time": 600, "pitch": 44, "duration": 24, "velocity": 100}, {"time": 600, "pitch": 48, "duration": 24, "velocity": 100}, {"time": 600, "pitch": 51, "duration": 24, "velocity": 100}, {"time": 624, "pitch": 23, "duration": 24, "velocity": 100}, {"time": 624, "pitch": 27, "duration": 24, "velocity": 100}, {"time": 624, "pitch": 30, "duration": 24, "velocity": 100}, {"time": 648, "pitch": 108, "duration": 48, "velocity": 100}, {"time": 648, "pitch": 112, "duration": 48, "velocity": 100}, {"time": 648, "pitch": 115, "duration": 48, "velocity": 100}, {"time": 696, "pitch": 24, "duration": 48, "velocity": 100}, {"time": 696, "pitch": 28, "duration": 48, "velocity": 100}, {"time": 696, "pitch": 31, "duration": 48, "velocity": 100}, {"time": 744, "pitch": 75, "duration": 48, "velocity": 100}, {"time": 744, "pitch": 79, "duration": 48, "velocity": 100}, {"time": 744, "pitch": 82, "duration": 48, "velocity": 100}, {"time": 792, "pitch": 106, "duration": 48, "velocity": 100}, {"time": 792, "pitch": 109, "duration": 48, "velocity": 100}, {"time": 792, "pitch": 113, "duration": 48, "velocity": 100}, {"time": 840, "pitch": 90, "duration": 24, "velocity": 100}, {"time": 840, "pitch": 94, "duration": 24, "velocity": 100}, {"time": 840, "pitch": 97, "duration": 24, "velocity": 100}, {"time": 864, "pitch": 82, "duration": 24, "velocity": 100}, {"time": 864, "pitch": 86, "duration": 24, "velocity": 100}, {"time": 864, "pitch": 89, "duration": 24, "velocity": 100}, {"time": 888, "pitch": 26, "duration": 48, "velocity": 100}, {"time": 888, "pitch": 30, "duration": 48, "velocity": 100}, {"time": 888, "pitch": 33, "duration": 48, "velocity": 100}, {"time": 936, "pitch": 22, "duration": 48, "velocity": 100}, {"time": 936, "pitch": 26, "duration": 48, "velocity": 100}, {"time": 936, "pitch": 29, "duration": 48, "velocity": 100}, {"time": 984, "pitch": 48, "duration": 48, "velocity": 100}, {"time": 984, "pitch": 52, "duration": 48, "velocity": 100}, {"time": 984, "pitch": 55, "duration": 48, "velocity": 100}, {"time": 1032, "pitch": 40, "duration": 24, "velocity": 100}, {"time": 1032, "pitch": 44, "duration": 24, "velocity": 100}, {"time": 1032, "pitch": 47, "duration": 24, "velocity": 100}, {"time": 1056, "pitch": 47, "duration": 24, "velocity": 100}, {"time": 1056, "pitch": 51, "duration": 24, "velocity": 100}, {"time": 1056, "pitch": 54, "duration": 24, "velocity": 100}, {"time": 1080, "pitch": 120, "duration": 48, "velocity": 100}, {"time": 1080, "pitch": 123, "duration": 48, "velocity": 100}, {"time": 1080, "pitch": 127, "duration": 48, "velocity": 100}, {"time": 1128, "pitch": 24, "duration": 48, "velocity": 100}, {"time": 1128, "pitch": 28, "duration": 48, "velocity": 100}, {"time": 1128, "pitch": 31, "duration": 48, "velocity": 100}, {"time": 1176, "pitch": 39, "duration": 24, "velocity": 100}, {"time": 1176, "pitch": 42, "duration": 24, "velocity": 100}, {"time": 1176, "pitch": 46, "duration": 24, "velocity": 100}, {"time": 1200, "pitch": 48, "duration": 24, "velocity": 100}, {"time": 1200, "pitch": 51, "duration": 24, "velocity": 100}, {"time": 1200, "pitch": 55, "duration": 24, "velocity": 100}, {"time": 1224, "pitch": 33, "duration": 48, "velocity": 100}, {"time": 1224, "pitch": 37, "duration": 48, "velocity": 100}, {"time": 1224, "pitch": 40, "duration": 48, "velocity": 100}, {"time": 1272, "pitch": 13, "duration": 24, "velocity": 100}, {"time": 1272, "pitch": 17, "duration": 24, "velocity": 100}, {"time": 1272, "pitch": 20, "duration": 24, "velocity": 100}, {"time": 1296, "pitch": 70, "duration": 24, "velocity": 100}, {"time": 1296, "pitch": 73, "duration": 24, "velocity": 100}, {"time": 1296, "pitch": 77, "duration": 24, "velocity": 100}, {"time": 1320, "pitch": 66, "duration": 48, "velocity": 100}, {"time": 1320, "pitch": 69, "duration": 48, "velocity": 100}, {"time": 1320, "pitch": 73, "duration": 48, "velocity": 100}, {"time": 1368, "pitch": 92, "duration": 24, "velocity": 100}, {"time": 1368, "pitch": 95, "duration": 24, "velocity": 100}, {"time": 1368, "pitch": 99, "duration": 24, "velocity": 100}, {"time": 1392, "pitch": 83, "duration": 24, "velocity": 100}, {"time": 1392, "pitch": 87, "duration": 24, "velocity": 100}, {"time": 1392, "pitch": 90, "duration": 24, "velocity": 100}, {"time": 1416, "pitch": 91, "duration": 48, "velocity": 100}, {"time": 1416, "pitch": 95, "duration": 48, "velocity": 100}, {"time": 1416, "pitch": 98, "duration": 48, "velocity": 100}, {"time": 1464, "pitch": 124, "duration": 48, "velocity": 100}, {"time": 1512, "pitch": 107, "duration": 24, "velocity": 100}, {"time": 1512, "pitch": 111, "duration": 24, "velocity": 100}, {"time": 1512, "pitch": 114, "duration": 24, "velocity": 100}]}]}