{"metadata": {"schema_version": "0.2", "title": "None", "source_filename": "baseline11.mid", "source_format": "midi"}, "resolution": 12, "tempos": [{"time": 0, "qpm": 100.0}], "tracks": [{"program": 0, "is_drum": false, "name": "track", "notes": [{"time": 0, "pitch": 110, "duration": 48, "velocity": 100}, {"time": 0, "pitch": 114, "duration": 48, "velocity": 100}, {"time": 0, "pitch": 117, "duration": 48, "velocity": 100}, {"time": 48, "pitch": 109, "duration": 48, "velocity": 100}, {"time": 48, "pitch": 112, "duration": 48, "velocity": 100}, {"time": 48, "pitch": 116, "duration": 48, "velocity": 100}, {"time": 96, "pitch": 109, "duration": 48, "velocity": 100}, {"time": 96, "pitch": 113, "duration": 48, "velocity": 100}, {"time": 96, "pitch": 116, "duration": 48, "velocity": 100}, {"time": 144, "pitch": 117, "duration": 24, "velocity": 100}, {"time": 144, "pitch": 121, "duration": 24, "velocity": 100}, {"time": 144, "pitch": 124, "duration": 24, "velocity": 100}, {"time": 168, "pitch": 109, "duration": 24, "velocity": 100}, {"time": 168, "pitch": 112, "duration": 24, "velocity": 100}, {"time": 168, "pitch": 116, "duration": 24, "velocity": 100}, {"time": 192, "pitch": 91, "duration": 48, "velocity": 100}, {"time": 192, "pitch": 94, "duration": 48, "velocity": 100}, {"time": 192, "pitch": 98, "duration": 48, "velocity": 100}, {"time": 240, "pitch": 28, "duration": 48, "velocity": 100}, {"time": 240, "pitch": 31, "duration": 48, "velocity": 100}, {"time": 240, "pitch": 35, "duration": 48, "velocity": 100}, {"time": 288, "pitch": 116, "duration": 24, "velocity": 100}, {"time": 288, "pitch": 120, "duration": 24, "velocity": 100}, {"time": 288, "pitch": 123, "duration": 24, "velocity": 100}, {"time": 312, "pitch": 69, "duration": 24, "velocity": 100}, {"time": 312, "pitch": 72, "duration": 24, "velocity": 100}, {"time": 312, "pitch": 76, "duration": 24, "velocity": 100}, {"time": 336, "pitch": 43, "duration": 48, "velocity": 100}, {"time": 336, "pitch": 46, "duration": 48, "velocity": 100}, {"time": 336, "pitch": 50, "duration": 48, "velocity": 100}, {"time": 384, "pitch": 126, "duration": 24, "velocity": 100}, {"time": 408, "pitch": 20, "duration": 24, "velocity": 100}, {"time": 408, "pitch": 24, "duration": 24, "velocity": 100}, {"time": 408, "pitch": 27, "duration": 24, "velocity": 100}, {"time": 432, "pitch": 13, "duration": 48, "velocity": 100}, {"time": 432, "pitch": 17, "duration": 48, "velocity": 100}, {"time": 432, "pitch": 20, "duration": 48, "velocity": 100}, {"time": 480, "pitch": 16, "duration": 24, "velocity": 100}, {"time": 480, "pitch": 20, "duration": 24, "velocity": 100}, {"time": 480, "pitch": 23, "duration": 24, "velocity": 100}, {"time": 504, "pitch": 73, "duration": 24, "velocity": 100}, {"time": 504, "pitch": 76, "duration": 24, "velocity": 100}, {"time": 504, "pitch": 80, "duration": 24, "velocity": 100}, {"time": 528, "pitch": 23, "duration": 24, "velocity": 100}, {"time": 528, "pitch": 26, "duration": 24, "velocity": 100}, {"time": 528, "pitch": 30, "duration": 24, "velocity": 100}, {"time": 552, "pitch": 49, "duration": 48, "velocity": 100}, {"time": 552, "pitch": 52, "duration": 48, "velocity": 100}, {"time": 552, "pitch": 56, "duration": 48, "velocity": 100}, {"time": 600, "pitch": 43, "duration": 24, "velocity": 100}, {"time": 600, "pitch": 46, "duration": 24, "velocity": 100}, {"time": 600, "pitch": 50, "duration": 24, "velocity": 100}, {"time": 624, "pitch": 103, "duration": 24, "velocity": 100}, {"time": 624, "pitch": 107, "duration": 24, "velocity": 100}, {"time": 624, "pitch": 110, "duration": 24, "velocity": 100}, {"time": 648, "pitch": 99, "duration": 24, "velocity": 100}, {"time": 648, "pitch": 102, "duration": 24, "velocity": 100}, {"time": 648, "pitch": 106, "duration": 24, "velocity": 100}, {"time": 672, "pitch": 58, "duration": 48, "velocity": 100}, {"time": 672, "pitch": 61, "duration": 48, "velocity": 100}, {"time": 672, "pitch": 65, "duration": 48, "velocity": 100}, {"time": 720, "pitch": 28, "duration": 24, "velocity": 100}, {"time": 720, "pitch": 32, "duration": 24, "velocity": 100}, {"time": 720, "pitch": 35, "duration": 24, "velocity": 100}, {"time": 744, "pitch": 12, "duration": 24, "velocity": 100}, {"time": 744, "pitch": 16, "duration": 24, "velocity": 100}, {"time": 744, "pitch": 19, "duration": 24, "velocity": 100}, {"time": 768, "pitch": 41, "duration": 24, "velocity": 100}, {"time": 768, "pitch": 44, "duration": 24, "velocity": 100}, {"time": 768, "pitch": 48, "duration": 24, "velocity": 100}, {"time": 792, "pitch": 101, "duration": 48, "velocity": 100}, {"time": 792, "pitch": 104, "duration": 48, "velocity": 100}, {"time": 792, "pitch": 108, "duration": 48, "velocity": 100}, {"time": 840, "pitch": 78, "duration": 24, "velocity": 100}, {"time": 840, "pitch": 82, "duration": 24, "velocity": 100}, {"time": 840, "pitch": 85, "duration": 24, "velocity": 100}, {"time": 864, "pitch": 28, "duration": 48, "velocity": 100}, {"time": 864, "pitch": 32, "duration": 48, "velocity": 100}, {"time": 864, "pitch": 35, "duration": 48, "velocity": 100}, {"time": 912, "pitch": 90, "duration": 24, "velocity": 100}, {"time": 912, "pitch": 94, "duration": 24, "velocity": 100}, {"time": 912, "pitch": 97, "duration": 24, "velocity": 100}, {"time": 936, "pitch": 53, "duration": 24, "velocity": 100}, {"time": 936, "pitch": 56, "duration": 24, "velocity": 100}, {"time": 936, "pitch": 60, "duration": 24, "velocity": 100}, {"time": 960, "pitch": 50, "duration": 24, "velocity": 100}, {"time": 960, "pitch": 54, "duration": 24, "velocity": 100}, {"time": 960, "pitch": 57, "duration": 24, "velocity": 100}, {"time": 984, "pitch": 56, "duration": 48, "velocity": 100}, {"time": 984, "pitch": 59, "duration": 48, "velocity": 100}, {"time": 984, "pitch": 63, "duration": 48, "velocity": 100}, {"time": 1032, "pitch": 1, "duration": 48, "velocity": 100}, {"time": 1032, "pitch": 5, "duration": 48, "velocity": 100}, {"time": 1032, "pitch": 8, "duration": 48, "velocity": 100}, {"time": 1080, "pitch": 93, "duration": 48, "velocity": 100}, {"time": 1080, "pitch": 97, "duration": 48, "velocity": 100}, {"time": 1080, "pitch": 100, "duration": 48, "velocity": 100}, {"time": 1128, "pitch": 76, "duration": 48, "velocity": 100}, {"time": 1128, "pitch": 79, "duration": 48, "velocity": 100}, {"time": 1128, "pitch": 83, "duration": 48, "velocity": 100}, {"time": 1176, "pitch": 91, "duration": 24, "velocity": 100}, {"time": 1176, "pitch": 94, "duration": 24, "velocity": 100}, {"time": 1176, "pitch": 98, "duration": 24, "velocity": 100}, {"time": 1200, "pitch": 112, "duration": 48, "velocity": 100}, {"time": 1200, "pitch": 116, "duration": 48, "velocity": 100}, {"time": 1200, "pitch": 119, "duration": 48, "velocity": 100}, {"time": 1248, "pitch": 58, "duration": 48, "velocity": 100}, {"time": 1248, "pitch": 61, "duration": 48, "velocity": 100}, {"time": 1248, "pitch": 65, "duration": 48, "velocity": 100}, {"time": 1296, "pitch": 43, "duration": 48, "velocity": 100}, {"time": 1296, "pitch": 47, "duration": 48, "velocity": 100}, {"time": 1296, "pitch": 50, "duration": 48, "velocity": 100}, {"time": 1344, "pitch": 32, "duration": 48, "velocity": 100}, {"time": 1344, "pitch": 36, "duration": 48, "velocity": 100}, {"time": 1344, "pitch": 39, "duration": 48, "velocity": 100}, {"time": 1392, "pitch": 75, "duration": 48, "velocity": 100}, {"time": 1392, "pitch": 79, "duration": 48, "velocity": 100}, {"time": 1392, "pitch": 82, "duration": 48, "velocity": 100}, {"time": 1440, "pitch": 60, "duration": 48, "velocity": 100}, {"time": 1440, "pitch": 64, "duration": 48, "velocity": 100}, {"time": 1440, "pitch": 67, "duration": 48, "velocity": 100}, {"time": 1488, "pitch": 63, "duration": 24, "velocity": 100}, {"time": 1488, "pitch": 67, "duration": 24, "velocity": 100}, {"time": 1488, "pitch": 70, "duration": 24, "velocity": 100}, {"time": 1512, "pitch": 32, "duration": 24, "velocity": 100}, {"time": 1512, "pitch": 36, "duration": 24, "velocity": 100}, {"time": 1512, "pitch": 39, "duration": 24, "velocity": 100}]}]}