{"metadata": {"schema_version": "0.2", "title": "None", "source_filename": "baseline25.mid", "source_format": "midi"}, "resolution": 12, "tempos": [{"time": 0, "qpm": 100.0}], "tracks": [{"program": 0, "is_drum": false, "name": "track", "notes": [{"time": 0, "pitch": 6, "duration": 24, "velocity": 100}, {"time": 0, "pitch": 9, "duration": 24, "velocity": 100}, {"time": 0, "pitch": 13, "duration": 24, "velocity": 100}, {"time": 24, "pitch": 122, "duration": 24, "velocity": 100}, {"time": 24, "pitch": 125, "duration": 24, "velocity": 100}, {"time": 48, "pitch": 64, "duration": 24, "velocity": 100}, {"time": 48, "pitch": 67, "duration": 24, "velocity": 100}, {"time": 48, "pitch": 71, "duration": 24, "velocity": 100}, {"time": 72, "pitch": 5, "duration": 48, "velocity": 100}, {"time": 72, "pitch": 9, "duration": 48, "velocity": 100}, {"time": 72, "pitch": 12, "duration": 48, "velocity": 100}, {"time": 120, "pitch": 103, "duration": 24, "velocity": 100}, {"time": 120, "pitch": 106, "duration": 24, "velocity": 100}, {"time": 120, "pitch": 110, "duration": 24, "velocity": 100}, {"time": 144, "pitch": 52, "duration": 24, "velocity": 100}, {"time": 144, "pitch": 55, "duration": 24, "velocity": 100}, {"time": 144, "pitch": 59, "duration": 24, "velocity": 100}, {"time": 168, "pitch": 70, "duration": 48, "velocity": 100}, {"time": 168, "pitch": 74, "duration": 48, "velocity": 100}, {"time": 168, "pitch": 77, "duration": 48, "velocity": 100}, {"time": 216, "pitch": 87, "duration": 48, "velocity": 100}, {"time": 216, "pitch": 90, "duration": 48, "velocity": 100}, {"time": 216, "pitch": 94, "duration": 48, "velocity": 100}, {"time": 264, "pitch": 34, "duration": 48, "velocity": 100}, {"time": 264, "pitch": 37, "duration": 48, "velocity": 100}, {"time": 264, "pitch": 41, "duration": 48, "velocity": 100}, {"time": 312, "pitch": 56, "duration": 24, "velocity": 100}, {"time": 312, "pitch": 60, "duration": 24, "velocity": 100}, {"time": 312, "pitch": 63, "duration": 24, "velocity": 100}, {"time": 336, "pitch": 77, "duration": 48, "velocity": 100}, {"time": 336, "pitch": 80, "duration": 48, "velocity": 100}, {"time": 336, "pitch": 84, "duration": 48, "velocity": 100}, {"time": 384, "pitch": 28, "duration": 48, "velocity": 100}, {"time": 384, "pitch": 32, "duration": 48, "velocity": 100}, {"time": 384, "pitch": 35, "duration": 48, "velocity": 100}, {"time": 432, "pitch": 27, "duration": 24, "velocity": 100}, {"time": 432, "pitch": 31, "duration": 24, "velocity": 100}, {"time": 432, "pitch": 34, "duration": 24, "velocity": 100}, {"time": 456, "pitch": 12, "duration": 24, "velocity": 100}, {"time": 456, "pitch": 16, "duration": 24, "velocity": 100}, {"time": 456, "pitch": 19, "duration": 24, "velocity": 100}, {"time": 480, "pitch": 7, "duration": 48, "velocity": 100}, {"time": 480, "pitch": 11, "duration": 48, "velocity": 100}, {"time": 480, "pitch": 14, "duration": 48, "velocity": 100}, {"time": 528, "pitch": 97, "duration": 24, "velocity": 100}, {"time": 528, "pitch": 100, "duration": 24, "velocity": 100}, {"time": 528, "pitch": 104, "duration": 24, "velocity": 100}, {"time": 552, "pitch": 120, "duration": 48, "velocity": 100}, {"time": 552, "pitch": 123, "duration": 48, "velocity": 100}, {"time": 552, "pitch": 127, "duration": 48, "velocity": 100}, {"time": 600, "pitch": 76, "duration": 24, "velocity": 100}, {"time": 600, "pitch": 80, "duration": 24, "velocity": 100}, {"time": 600, "pitch": 83, "duration": 24, "velocity": 100}, {"time": 624, "pitch": 44, "duration": 48, "velocity": 100}, {"time": 624, "pitch": 48, "duration": 48, "velocity": 100}, {"time": 624, "pitch": 51, "duration": 48, "velocity": 100}, {"time": 672, "pitch": 26, "duration": 48, "velocity": 100}, {"time": 672, "pitch": 30, "duration": 48, "velocity": 100}, {"time": 672, "pitch": 33, "duration": 48, "velocity": 100}, {"time": 720, "pitch": 22, "duration": 24, "velocity": 100}, {"time": 720, "pitch": 25, "duration": 24, "velocity": 100}, {"time": 720, "pitch": 29, "duration": 24, "velocity": 100}, {"time": 744, "pitch": 14, "duration": 24, "velocity": 100}, {"time": 744, "pitch": 18, "duration": 24, "velocity": 100}, {"time": 744, "pitch": 21, "duration": 24, "velocity": 100}, {"time": 768, "pitch": 64, "duration": 24, "velocity": 100}, {"time": 768, "pitch": 67, "duration": 24, "velocity": 100}, {"time": 768, "pitch": 71, "duration": 24, "velocity": 100}, {"time": 792, "pitch": 35, "duration": 48, "velocity": 100}, {"time": 792, "pitch": 39, "duration": 48, "velocity": 100}, {"time": 792, "pitch": 42, "duration": 48, "velocity": 100}, {"time": 840, "pitch": 39, "duration": 24, "velocity": 100}, {"time": 840, "pitch": 42, "duration": 24, "velocity": 100}, {"time": 840, "pitch": 46, "duration": 24, "velocity": 100}, {"time": 864, "pitch": 30, "duration": 48, "velocity": 100}, {"time": 864, "pitch": 34, "duration": 48, "velocity": 100}, {"time": 864, "pitch": 37, "duration": 48, "velocity": 100}, {"time": 912, "pitch": 67, "duration": 48, "velocity": 100}, {"time": 912, "pitch": 70, "duration": 48, "velocity": 100}, {"time": 912, "pitch": 74, "duration": 48, "velocity": 100}, {"time": 960, "pitch": 89, "duration": 24, "velocity": 100}, {"time": 960, "pitch": 92, "duration": 24, "velocity": 100}, {"time": 960, "pitch": 96, "duration": 24, "velocity": 100}, {"time": 984, "pitch": 52, "duration": 48, "velocity": 100}, {"time": 984, "pitch": 55, "duration": 48, "velocity": 100}, {"time": 984, "pitch": 59, "duration": 48, "velocity": 100}, {"time": 1032, "pitch": 74, "duration": 48, "velocity": 100}, {"time": 1032, "pitch": 77, "duration": 48, "velocity": 100}, {"time": 1032, "pitch": 81, "duration": 48, "velocity": 100}, {"time": 1080, "pitch": 54, "duration": 48, "velocity": 100}, {"time": 1080, "pitch": 57, "duration": 48, "velocity": 100}, {"time": 1080, "pitch": 61, "duration": 48, "velocity": 100}, {"time": 1128, "pitch": 108, "duration": 48, "velocity": 100}, {"time": 1128, "pitch": 111, "duration": 48, "velocity": 100}, {"time": 1128, "pitch": 115, "duration": 48, "velocity": 100}, {"time": 1176, "pitch": 116, "duration": 48, "velocity": 100}, {"time": 1176, "pitch": 119, "duration": 48, "velocity": 100}, {"time": 1176, "pitch": 123, "duration": 48, "velocity": 100}, {"time": 1224, "pitch": 113, "duration": 48, "velocity": 100}, {"time": 1224, "pitch": 116, "duration": 48, "velocity": 100}, {"time": 1224, "pitch": 120, "duration": 48, "velocity": 100}, {"time": 1272, "pitch": 45, "duration": 48, "velocity": 100}, {"time": 1272, "pitch": 49, "duration": 48, "velocity": 100}, {"time": 1272, "pitch": 52, "duration": 48, "velocity": 100}, {"time": 1320, "pitch": 98, "duration": 48, "velocity": 100}, {"time": 1320, "pitch": 102, "duration": 48, "velocity": 100}, {"time": 1320, "pitch": 105, "duration": 48, "velocity": 100}, {"time": 1368, "pitch": 119, "duration": 48, "velocity": 100}, {"time": 1368, "pitch": 122, "duration": 48, "velocity": 100}, {"time": 1368, "pitch": 126, "duration": 48, "velocity": 100}, {"time": 1416, "pitch": 1, "duration": 48, "velocity": 100}, {"time": 1416, "pitch": 4, "duration": 48, "velocity": 100}, {"time": 1416, "pitch": 8, "duration": 48, "velocity": 100}, {"time": 1464, "pitch": 45, "duration": 24, "velocity": 100}, {"time": 1464, "pitch": 48, "duration": 24, "velocity": 100}, {"time": 1464, "pitch": 52, "duration": 24, "velocity": 100}, {"time": 1488, "pitch": 127, "duration": 48, "velocity": 100}]}]}