{"metadata": {"schema_version": "0.2", "title": "None", "source_filename": "baseline28.mid", "source_format": "midi"}, "resolution": 12, "tempos": [{"time": 0, "qpm": 100.0}], "tracks": [{"program": 0, "is_drum": false, "name": "track", "notes": [{"time": 0, "pitch": 110, "duration": 24, "velocity": 100}, {"time": 0, "pitch": 113, "duration": 24, "velocity": 100}, {"time": 0, "pitch": 117, "duration": 24, "velocity": 100}, {"time": 24, "pitch": 13, "duration": 24, "velocity": 100}, {"time": 24, "pitch": 16, "duration": 24, "velocity": 100}, {"time": 24, "pitch": 20, "duration": 24, "velocity": 100}, {"time": 48, "pitch": 95, "duration": 24, "velocity": 100}, {"time": 48, "pitch": 98, "duration": 24, "velocity": 100}, {"time": 48, "pitch": 102, "duration": 24, "velocity": 100}, {"time": 72, "pitch": 69, "duration": 48, "velocity": 100}, {"time": 72, "pitch": 72, "duration": 48, "velocity": 100}, {"time": 72, "pitch": 76, "duration": 48, "velocity": 100}, {"time": 120, "pitch": 123, "duration": 48, "velocity": 100}, {"time": 120, "pitch": 126, "duration": 48, "velocity": 100}, {"time": 168, "pitch": 50, "duration": 24, "velocity": 100}, {"time": 168, "pitch": 53, "duration": 24, "velocity": 100}, {"time": 168, "pitch": 57, "duration": 24, "velocity": 100}, {"time": 192, "pitch": 113, "duration": 48, "velocity": 100}, {"time": 192, "pitch": 117, "duration": 48, "velocity": 100}, {"time": 192, "pitch": 120, "duration": 48, "velocity": 100}, {"time": 240, "pitch": 78, "duration": 48, "velocity": 100}, {"time": 240, "pitch": 81, "duration": 48, "velocity": 100}, {"time": 240, "pitch": 85, "duration": 48, "velocity": 100}, {"time": 288, "pitch": 92, "duration": 48, "velocity": 100}, {"time": 288, "pitch": 96, "duration": 48, "velocity": 100}, {"time": 288, "pitch": 99, "duration": 48, "velocity": 100}, {"time": 336, "pitch": 101, "duration": 48, "velocity": 100}, {"time": 336, "pitch": 105, "duration": 48, "velocity": 100}, {"time": 336, "pitch": 108, "duration": 48, "velocity": 100}, {"time": 384, "pitch": 52, "duration": 48, "velocity": 100}, {"time": 384, "pitch": 55, "duration": 48, "velocity": 100}, {"time": 384, "pitch": 59, "duration": 48, "velocity": 100}, {"time": 432, "pitch": 103, "duration": 24, "velocity": 100}, {"time": 432, "pitch": 107, "duration": 24, "velocity": 100}, {"time": 432, "pitch": 110, "duration": 24, "velocity": 100}, {"time": 456, "pitch": 89, "duration": 48, "velocity": 100}, {"time": 456, "pitch": 93, "duration": 48, "velocity": 100}, {"time": 456, "pitch": 96, "duration": 48, "velocity": 100}, {"time": 504, "pitch": 85, "duration": 48, "velocity": 100}, {"time": 504, "pitch": 89, "duration": 48, "velocity": 100}, {"time": 504, "pitch": 92, "duration": 48, "velocity": 100}, {"time": 552, "pitch": 88, "duration": 48, "velocity": 100}, {"time": 552, "pitch": 92, "duration": 48, "velocity": 100}, {"time": 552, "pitch": 95, "duration": 48, "velocity": 100}, {"time": 600, "pitch": 73, "duration": 24, "velocity": 100}, {"time": 600, "pitch": 76, "duration": 24, "velocity": 100}, {"time": 600, "pitch": 80, "duration": 24, "velocity": 100}, {"time": 624, "pitch": 63, "duration": 48, "velocity": 100}, {"time": 624, "pitch": 67, "duration": 48, "velocity": 100}, {"time": 624, "pitch": 70, "duration": 48, "velocity": 100}, {"time": 672, "pitch": 27, "duration": 48, "velocity": 100}, {"time": 672, "pitch": 31, "duration": 48, "velocity": 100}, {"time": 672, "pitch": 34, "duration": 48, "velocity": 100}, {"time": 720, "pitch": 35, "duration": 48, "velocity": 100}, {"time": 720, "pitch": 38, "duration": 48, "velocity": 100}, {"time": 720, "pitch": 42, "duration": 48, "velocity": 100}, {"time": 768, "pitch": 2, "duration": 48, "velocity": 100}, {"time": 768, "pitch": 6, "duration": 48, "velocity": 100}, {"time": 768, "pitch": 9, "duration": 48, "velocity": 100}, {"time": 816, "pitch": 8, "duration": 48, "velocity": 100}, {"time": 816, "pitch": 12, "duration": 48, "velocity": 100}, {"time": 816, "pitch": 15, "duration": 48, "velocity": 100}, {"time": 864, "pitch": 119, "duration": 48, "velocity": 100}, {"time": 864, "pitch": 122, "duration": 48, "velocity": 100}, {"time": 864, "pitch": 126, "duration": 48, "velocity": 100}, {"time": 912, "pitch": 66, "duration": 24, "velocity": 100}, {"time": 912, "pitch": 69, "duration": 24, "velocity": 100}, {"time": 912, "pitch": 73, "duration": 24, "velocity": 100}, {"time": 936, "pitch": 120, "duration": 48, "velocity": 100}, {"time": 936, "pitch": 124, "duration": 48, "velocity": 100}, {"time": 936, "pitch": 127, "duration": 48, "velocity": 100}, {"time": 984, "pitch": 25, "duration": 48, "velocity": 100}, {"time": 984, "pitch": 29, "duration": 48, "velocity": 100}, {"time": 984, "pitch": 32, "duration": 48, "velocity": 100}, {"time": 1032, "pitch": 106, "duration": 48, "velocity": 100}, {"time": 1032, "pitch": 110, "duration": 48, "velocity": 100}, {"time": 1032, "pitch": 113, "duration": 48, "velocity": 100}, {"time": 1080, "pitch": 127, "duration": 48, "velocity": 100}, {"time": 1128, "pitch": 52, "duration": 24, "velocity": 100}, {"time": 1128, "pitch": 56, "duration": 24, "velocity": 100}, {"time": 1128, "pitch": 59, "duration": 24, "velocity": 100}, {"time": 1152, "pitch": 1, "duration": 24, "velocity": 100}, {"time": 1152, "pitch": 4, "duration": 24, "velocity": 100}, {"time": 1152, "pitch": 8, "duration": 24, "velocity": 100}, {"time": 1176, "pitch": 8, "duration": 48, "velocity": 100}, {"time": 1176, "pitch": 11, "duration": 48, "velocity": 100}, {"time": 1176, "pitch": 15, "duration": 48, "velocity": 100}, {"time": 1224, "pitch": 67, "duration": 48, "velocity": 100}, {"time": 1224, "pitch": 71, "duration": 48, "velocity": 100}, {"time": 1224, "pitch": 74, "duration": 48, "velocity": 100}, {"time": 1272, "pitch": 58, "duration": 48, "velocity": 100}, {"time": 1272, "pitch": 62, "duration": 48, "velocity": 100}, {"time": 1272, "pitch": 65, "duration": 48, "velocity": 100}, {"time": 1320, "pitch": 40, "duration": 48, "velocity": 100}, {"time": 1320, "pitch": 44, "duration": 48, "velocity": 100}, {"time": 1320, "pitch": 47, "duration": 48, "velocity": 100}, {"time": 1368, "pitch": 49, "duration": 24, "velocity": 100}, {"time": 1368, "pitch": 52, "duration": 24, "velocity": 100}, {"time": 1368, "pitch": 56, "duration": 24, "velocity": 100}, {"time": 1392, "pitch": 11, "duration": 24, "velocity": 100}, {"time": 1392, "pitch": 15, "duration": 24, "velocity": 100}, {"time": 1392, "pitch": 18, "duration": 24, "velocity": 100}, {"time": 1416, "pitch": 123, "duration": 24, "velocity": 100}, {"time": 1416, "pitch": 127, "duration": 24, "velocity": 100}, {"time": 1440, "pitch": 87, "duration": 48, "velocity": 100}, {"time": 1440, "pitch": 90, "duration": 48, "velocity": 100}, {"time": 1440, "pitch": 94, "duration": 48, "velocity": 100}, {"time": 1488, "pitch": 9, "duration": 48, "velocity": 100}, {"time": 1488, "pitch": 13, "duration": 48, "velocity": 100}, {"time": 1488, "pitch": 16, "duration": 48, "velocity": 100}]}]}