{"metadata": {"schema_version": "0.2", "title": "None", "source_filename": "baseline49.mid", "source_format": "midi"}, "resolution": 12, "tempos": [{"time": 0, "qpm": 100.0}], "tracks": [{"program": 0, "is_drum": false, "name": "track", "notes": [{"time": 0, "pitch": 45, "duration": 24, "velocity": 100}, {"time": 0, "pitch": 49, "duration": 24, "velocity": 100}, {"time": 0, "pitch": 52, "duration": 24, "velocity": 100}, {"time": 24, "pitch": 106, "duration": 48, "velocity": 100}, {"time": 24, "pitch": 109, "duration": 48, "velocity": 100}, {"time": 24, "pitch": 113, "duration": 48, "velocity": 100}, {"time": 72, "pitch": 25, "duration": 48, "velocity": 100}, {"time": 72, "pitch": 29, "duration": 48, "velocity": 100}, {"time": 72, "pitch": 32, "duration": 48, "velocity": 100}, {"time": 120, "pitch": 20, "duration": 48, "velocity": 100}, {"time": 120, "pitch": 23, "duration": 48, "velocity": 100}, {"time": 120, "pitch": 27, "duration": 48, "velocity": 100}, {"time": 168, "pitch": 9, "duration": 48, "velocity": 100}, {"time": 168, "pitch": 12, "duration": 48, "velocity": 100}, {"time": 168, "pitch": 16, "duration": 48, "velocity": 100}, {"time": 216, "pitch": 68, "duration": 48, "velocity": 100}, {"time": 216, "pitch": 72, "duration": 48, "velocity": 100}, {"time": 216, "pitch": 75, "duration": 48, "velocity": 100}, {"time": 264, "pitch": 105, "duration": 24, "velocity": 100}, {"time": 264, "pitch": 108, "duration": 24, "velocity": 100}, {"time": 264, "pitch": 112, "duration": 24, "velocity": 100}, {"time": 288, "pitch": 24, "duration": 48, "velocity": 100}, {"time": 288, "pitch": 28, "duration": 48, "velocity": 100}, {"time": 288, "pitch": 31, "duration": 48, "velocity": 100}, {"time": 336, "pitch": 86, "duration": 24, "velocity": 100}, {"time": 336, "pitch": 90, "duration": 24, "velocity": 100}, {"time": 336, "pitch": 93, "duration": 24, "velocity": 100}, {"time": 360, "pitch": 103, "duration": 24, "velocity": 100}, {"time": 360, "pitch": 107, "duration": 24, "velocity": 100}, {"time": 360, "pitch": 110, "duration": 24, "velocity": 100}, {"time": 384, "pitch": 109, "duration": 48, "velocity": 100}, {"time": 384, "pitch": 113, "duration": 48, "velocity": 100}, {"time": 384, "pitch": 116, "duration": 48, "velocity": 100}, {"time": 432, "pitch": 98, "duration": 48, "velocity": 100}, {"time": 432, "pitch": 102, "duration": 48, "velocity": 100}, {"time": 432, "pitch": 105, "duration": 48, "velocity": 100}, {"time": 480, "pitch": 101, "duration": 48, "velocity": 100}, {"time": 480, "pitch": 104, "duration": 48, "velocity": 100}, {"time": 480, "pitch": 108, "duration": 48, "velocity": 100}, {"time": 528, "pitch": 23, "duration": 24, "velocity": 100}, {"time": 528, "pitch": 27, "duration": 24, "velocity": 100}, {"time": 528, "pitch": 30, "duration": 24, "velocity": 100}, {"time": 552, "pitch": 62, "duration": 48, "velocity": 100}, {"time": 552, "pitch": 65, "duration": 48, "velocity": 100}, {"time": 552, "pitch": 69, "duration": 48, "velocity": 100}, {"time": 600, "pitch": 101, "duration": 24, "velocity": 100}, {"time": 600, "pitch": 105, "duration": 24, "velocity": 100}, {"time": 600, "pitch": 108, "duration": 24, "velocity": 100}, {"time": 624, "pitch": 95, "duration": 48, "velocity": 100}, {"time": 624, "pitch": 98, "duration": 48, "velocity": 100}, {"time": 624, "pitch": 102, "duration": 48, "velocity": 100}, {"time": 672, "pitch": 38, "duration": 48, "velocity": 100}, {"time": 672, "pitch": 42, "duration": 48, "velocity": 100}, {"time": 672, "pitch": 45, "duration": 48, "velocity": 100}, {"time": 720, "pitch": 46, "duration": 24, "velocity": 100}, {"time": 720, "pitch": 49, "duration": 24, "velocity": 100}, {"time": 720, "pitch": 53, "duration": 24, "velocity": 100}, {"time": 744, "pitch": 76, "duration": 24, "velocity": 100}, {"time": 744, "pitch": 79, "duration": 24, "velocity": 100}, {"time": 744, "pitch": 83, "duration": 24, "velocity": 100}, {"time": 768, "pitch": 52, "duration": 24, "velocity": 100}, {"time": 768, "pitch": 55, "duration": 24, "velocity": 100}, {"time": 768, "pitch": 59, "duration": 24, "velocity": 100}, {"time": 792, "pitch": 4, "duration": 24, "velocity": 100}, {"time": 792, "pitch": 8, "duration": 24, "velocity": 100}, {"time": 792, "pitch": 11, "duration": 24, "velocity": 100}, {"time": 816, "pitch": 106, "duration": 48, "velocity": 100}, {"time": 816, "pitch": 110, "duration": 48, "velocity": 100}, {"time": 816, "pitch": 113, "duration": 48, "velocity": 100}, {"time": 864, "pitch": 41, "duration": 48, "velocity": 100}, {"time": 864, "pitch": 44, "duration": 48, "velocity": 100}, {"time": 864, "pitch": 48, "duration": 48, "velocity": 100}, {"time": 912, "pitch": 107, "duration": 48, "velocity": 100}, {"time": 912, "pitch": 111, "duration": 48, "velocity": 100}, {"time": 912, "pitch": 114, "duration": 48, "velocity": 100}, {"time": 960, "pitch": 92, "duration": 24, "velocity": 100}, {"time": 960, "pitch": 95, "duration": 24, "velocity": 100}, {"time": 960, "pitch": 99, "duration": 24, "velocity": 100}, {"time": 984, "pitch": 105, "duration": 24, "velocity": 100}, {"time": 984, "pitch": 109, "duration": 24, "velocity": 100}, {"time": 984, "pitch": 112, "duration": 24, "velocity": 100}, {"time": 1008, "pitch": 72, "duration": 24, "velocity": 100}, {"time": 1008, "pitch": 75, "duration": 24, "velocity": 100}, {"time": 1008, "pitch": 79, "duration": 24, "velocity": 100}, {"time": 1032, "pitch": 114, "duration": 24, "velocity": 100}, {"time": 1032, "pitch": 117, "duration": 24, "velocity": 100}, {"time": 1032, "pitch": 121, "duration": 24, "velocity": 100}, {"time": 1056, "pitch": 126, "duration": 24, "velocity": 100}, {"time": 1080, "pitch": 44, "duration": 48, "velocity": 100}, {"time": 1080, "pitch": 47, "duration": 48, "velocity": 100}, {"time": 1080, "pitch": 51, "duration": 48, "velocity": 100}, {"time": 1128, "pitch": 123, "duration": 24, "velocity": 100}, {"time": 1128, "pitch": 126, "duration": 24, "velocity": 100}, {"time": 1152, "pitch": 124, "duration": 24, "velocity": 100}, {"time": 1176, "pitch": 112, "duration": 24, "velocity": 100}, {"time": 1176, "pitch": 115, "duration": 24, "velocity": 100}, {"time": 1176, "pitch": 119, "duration": 24, "velocity": 100}, {"time": 1200, "pitch": 68, "duration": 24, "velocity": 100}, {"time": 1200, "pitch": 72, "duration": 24, "velocity": 100}, {"time": 1200, "pitch": 75, "duration": 24, "velocity": 100}, {"time": 1224, "pitch": 33, "duration": 24, "velocity": 100}, {"time": 1224, "pitch": 37, "duration": 24, "velocity": 100}, {"time": 1224, "pitch": 40, "duration": 24, "velocity": 100}, {"time": 1248, "pitch": 63, "duration": 24, "velocity": 100}, {"time": 1248, "pitch": 66, "duration": 24, "velocity": 100}, {"time": 1248, "pitch": 70, "duration": 24, "velocity": 100}, {"time": 1272, "pitch": 34, "duration": 24, "velocity": 100}, {"time": 1272, "pitch": 37, "duration": 24, "velocity": 100}, {"time": 1272, "pitch": 41, "duration": 24, "velocity": 100}, {"time": 1296, "pitch": 40, "duration": 24, "velocity": 100}, {"time": 1296, "pitch": 43, "duration": 24, "velocity": 100}, {"time": 1296, "pitch": 47, "duration": 24, "velocity": 100}, {"time": 1320, "pitch": 104, "duration": 48, "velocity": 100}, {"time": 1320, "pitch": 108, "duration": 48, "velocity": 100}, {"time": 1320, "pitch": 111, "duration": 48, "velocity": 100}, {"time": 1368, "pitch": 109, "duration": 48, "velocity": 100}, {"time": 1368, "pitch": 112, "duration": 48, "velocity": 100}, {"time": 1368, "pitch": 116, "duration": 48, "velocity": 100}, {"time": 1416, "pitch": 92, "duration": 48, "velocity": 100}, {"time": 1416, "pitch": 95, "duration": 48, "velocity": 100}, {"time": 1416, "pitch": 99, "duration": 48, "velocity": 100}, {"time": 1464, "pitch": 32, "duration": 48, "velocity": 100}, {"time": 1464, "pitch": 36, "duration": 48, "velocity": 100}, {"time": 1464, "pitch": 39, "duration": 48, "velocity": 100}, {"time": 1512, "pitch": 24, "duration": 24, "velocity": 100}, {"time": 1512, "pitch": 28, "duration": 24, "velocity": 100}, {"time": 1512, "pitch": 31, "duration": 24, "velocity": 100}]}]}