{"metadata": {"schema_version": "0.2", "title": "None", "source_filename": "baseline6.mid", "source_format": "midi"}, "resolution": 12, "tempos": [{"time": 0, "qpm": 100.0}], "tracks": [{"program": 0, "is_drum": false, "name": "track", "notes": [{"time": 0, "pitch": 49, "duration": 48, "velocity": 100}, {"time": 0, "pitch": 52, "duration": 48, "velocity": 100}, {"time": 0, "pitch": 56, "duration": 48, "velocity": 100}, {"time": 48, "pitch": 4, "duration": 24, "velocity": 100}, {"time": 48, "pitch": 7, "duration": 24, "velocity": 100}, {"time": 48, "pitch": 11, "duration": 24, "velocity": 100}, {"time": 72, "pitch": 49, "duration": 24, "velocity": 100}, {"time": 72, "pitch": 52, "duration": 24, "velocity": 100}, {"time": 72, "pitch": 56, "duration": 24, "velocity": 100}, {"time": 96, "pitch": 123, "duration": 24, "velocity": 100}, {"time": 96, "pitch": 126, "duration": 24, "velocity": 100}, {"time": 120, "pitch": 92, "duration": 48, "velocity": 100}, {"time": 120, "pitch": 95, "duration": 48, "velocity": 100}, {"time": 120, "pitch": 99, "duration": 48, "velocity": 100}, {"time": 168, "pitch": 93, "duration": 24, "velocity": 100}, {"time": 168, "pitch": 96, "duration": 24, "velocity": 100}, {"time": 168, "pitch": 100, "duration": 24, "velocity": 100}, {"time": 192, "pitch": 116, "duration": 24, "velocity": 100}, {"time": 192, "pitch": 119, "duration": 24, "velocity": 100}, {"time": 192, "pitch": 123, "duration": 24, "velocity": 100}, {"time": 216, "pitch": 50, "duration": 24, "velocity": 100}, {"time": 216, "pitch": 53, "duration": 24, "velocity": 100}, {"time": 216, "pitch": 57, "duration": 24, "velocity": 100}, {"time": 240, "pitch": 75, "duration": 48, "velocity": 100}, {"time": 240, "pitch": 79, "duration": 48, "velocity": 100}, {"time": 240, "pitch": 82, "duration": 48, "velocity": 100}, {"time": 288, "pitch": 24, "duration": 24, "velocity": 100}, {"time": 288, "pitch": 28, "duration": 24, "velocity": 100}, {"time": 288, "pitch": 31, "duration": 24, "velocity": 100}, {"time": 312, "pitch": 119, "duration": 24, "velocity": 100}, {"time": 312, "pitch": 123, "duration": 24, "velocity": 100}, {"time": 312, "pitch": 126, "duration": 24, "velocity": 100}, {"time": 336, "pitch": 62, "duration": 24, "velocity": 100}, {"time": 336, "pitch": 65, "duration": 24, "velocity": 100}, {"time": 336, "pitch": 69, "duration": 24, "velocity": 100}, {"time": 360, "pitch": 104, "duration": 24, "velocity": 100}, {"time": 360, "pitch": 107, "duration": 24, "velocity": 100}, {"time": 360, "pitch": 111, "duration": 24, "velocity": 100}, {"time": 384, "pitch": 32, "duration": 48, "velocity": 100}, {"time": 384, "pitch": 35, "duration": 48, "velocity": 100}, {"time": 384, "pitch": 39, "duration": 48, "velocity": 100}, {"time": 432, "pitch": 9, "duration": 24, "velocity": 100}, {"time": 432, "pitch": 13, "duration": 24, "velocity": 100}, {"time": 432, "pitch": 16, "duration": 24, "velocity": 100}, {"time": 456, "pitch": 88, "duration": 24, "velocity": 100}, {"time": 456, "pitch": 92, "duration": 24, "velocity": 100}, {"time": 456, "pitch": 95, "duration": 24, "velocity": 100}, {"time": 480, "pitch": 3, "duration": 24, "velocity": 100}, {"time": 480, "pitch": 6, "duration": 24, "velocity": 100}, {"time": 480, "pitch": 10, "duration": 24, "velocity": 100}, {"time": 504, "pitch": 109, "duration": 24, "velocity": 100}, {"time": 504, "pitch": 113, "duration": 24, "velocity": 100}, {"time": 504, "pitch": 116, "duration": 24, "velocity": 100}, {"time": 528, "pitch": 70, "duration": 48, "velocity": 100}, {"time": 528, "pitch": 74, "duration": 48, "velocity": 100}, {"time": 528, "pitch": 77, "duration": 48, "velocity": 100}, {"time": 576, "pitch": 113, "duration": 24, "velocity": 100}, {"time": 576, "pitch": 117, "duration": 24, "velocity": 100}, {"time": 576, "pitch": 120, "duration": 24, "velocity": 100}, {"time": 600, "pitch": 93, "duration": 48, "velocity": 100}, {"time": 600, "pitch": 97, "duration": 48, "velocity": 100}, {"time": 600, "pitch": 100, "duration": 48, "velocity": 100}, {"time": 648, "pitch": 24, "duration": 24, "velocity": 100}, {"time": 648, "pitch": 28, "duration": 24, "velocity": 100}, {"time": 648, "pitch": 31, "duration": 24, "velocity": 100}, {"time": 672, "pitch": 26, "duration": 24, "velocity": 100}, {"time": 672, "pitch": 30, "duration": 24, "velocity": 100}, {"time": 672, "pitch": 33, "duration": 24, "velocity": 100}, {"time": 696, "pitch": 17, "duration": 48, "velocity": 100}, {"time": 696, "pitch": 21, "duration": 48, "velocity": 100}, {"time": 696, "pitch": 24, "duration": 48, "velocity": 100}, {"time": 744, "pitch": 51, "duration": 48, "velocity": 100}, {"time": 744, "pitch": 54, "duration": 48, "velocity": 100}, {"time": 744, "pitch": 58, "duration": 48, "velocity": 100}, {"time": 792, "pitch": 78, "duration": 48, "velocity": 100}, {"time": 792, "pitch": 81, "duration": 48, "velocity": 100}, {"time": 792, "pitch": 85, "duration": 48, "velocity": 100}, {"time": 840, "pitch": 114, "duration": 24, "velocity": 100}, {"time": 840, "pitch": 117, "duration": 24, "velocity": 100}, {"time": 840, "pitch": 121, "duration": 24, "velocity": 100}, {"time": 864, "pitch": 23, "duration": 24, "velocity": 100}, {"time": 864, "pitch": 27, "duration": 24, "velocity": 100}, {"time": 864, "pitch": 30, "duration": 24, "velocity": 100}, {"time": 888, "pitch": 113, "duration": 24, "velocity": 100}, {"time": 888, "pitch": 117, "duration": 24, "velocity": 100}, {"time": 888, "pitch": 120, "duration": 24, "velocity": 100}, {"time": 912, "pitch": 12, "duration": 48, "velocity": 100}, {"time": 912, "pitch": 16, "duration": 48, "velocity": 100}, {"time": 912, "pitch": 19, "duration": 48, "velocity": 100}, {"time": 960, "pitch": 26, "duration": 48, "velocity": 100}, {"time": 960, "pitch": 29, "duration": 48, "velocity": 100}, {"time": 960, "pitch": 33, "duration": 48, "velocity": 100}, {"time": 1008, "pitch": 55, "duration": 24, "velocity": 100}, {"time": 1008, "pitch": 59, "duration": 24, "velocity": 100}, {"time": 1008, "pitch": 62, "duration": 24, "velocity": 100}, {"time": 1032, "pitch": 28, "duration": 24, "velocity": 100}, {"time": 1032, "pitch": 32, "duration": 24, "velocity": 100}, {"time": 1032, "pitch": 35, "duration": 24, "velocity": 100}, {"time": 1056, "pitch": 79, "duration": 48, "velocity": 100}, {"time": 1056, "pitch": 82, "duration": 48, "velocity": 100}, {"time": 1056, "pitch": 86, "duration": 48, "velocity": 100}, {"time": 1104, "pitch": 26, "duration": 48, "velocity": 100}, {"time": 1104, "pitch": 30, "duration": 48, "velocity": 100}, {"time": 1104, "pitch": 33, "duration": 48, "velocity": 100}, {"time": 1152, "pitch": 15, "duration": 48, "velocity": 100}, {"time": 1152, "pitch": 19, "duration": 48, "velocity": 100}, {"time": 1152, "pitch": 22, "duration": 48, "velocity": 100}, {"time": 1200, "pitch": 60, "duration": 24, "velocity": 100}, {"time": 1200, "pitch": 63, "duration": 24, "velocity": 100}, {"time": 1200, "pitch": 67, "duration": 24, "velocity": 100}, {"time": 1224, "pitch": 40, "duration": 48, "velocity": 100}, {"time": 1224, "pitch": 44, "duration": 48, "velocity": 100}, {"time": 1224, "pitch": 47, "duration": 48, "velocity": 100}, {"time": 1272, "pitch": 54, "duration": 24, "velocity": 100}, {"time": 1272, "pitch": 58, "duration": 24, "velocity": 100}, {"time": 1272, "pitch": 61, "duration": 24, "velocity": 100}, {"time": 1296, "pitch": 26, "duration": 48, "velocity": 100}, {"time": 1296, "pitch": 29, "duration": 48, "velocity": 100}, {"time": 1296, "pitch": 33, "duration": 48, "velocity": 100}, {"time": 1344, "pitch": 69, "duration": 24, "velocity": 100}, {"time": 1344, "pitch": 73, "duration": 24, "velocity": 100}, {"time": 1344, "pitch": 76, "duration": 24, "velocity": 100}, {"time": 1368, "pitch": 109, "duration": 24, "velocity": 100}, {"time": 1368, "pitch": 112, "duration": 24, "velocity": 100}, {"time": 1368, "pitch": 116, "duration": 24, "velocity": 100}, {"time": 1392, "pitch": 19, "duration": 24, "velocity": 100}, {"time": 1392, "pitch": 22, "duration": 24, "velocity": 100}, {"time": 1392, "pitch": 26, "duration": 24, "velocity": 100}, {"time": 1416, "pitch": 103, "duration": 24, "velocity": 100}, {"time": 1416, "pitch": 106, "duration": 24, "velocity": 100}, {"time": 1416, "pitch": 110, "duration": 24, "velocity": 100}, {"time": 1440, "pitch": 43, "duration": 48, "velocity": 100}, {"time": 1440, "pitch": 46, "duration": 48, "velocity": 100}, {"time": 1440, "pitch": 50, "duration": 48, "velocity": 100}, {"time": 1488, "pitch": 113, "duration": 24, "velocity": 100}, {"time": 1488, "pitch": 117, "duration": 24, "velocity": 100}, {"time": 1488, "pitch": 120, "duration": 24, "velocity": 100}, {"time": 1512, "pitch": 57, "duration": 24, "velocity": 100}, {"time": 1512, "pitch": 61, "duration": 24, "velocity": 100}, {"time": 1512, "pitch": 64, "duration": 24, "velocity": 100}]}]}