{"metadata": {"schema_version": "0.2", "title": "None", "source_filename": "baseline18.mid", "source_format": "midi"}, "resolution": 12, "tempos": [{"time": 0, "qpm": 100.0}], "tracks": [{"program": 0, "is_drum": false, "name": "track", "notes": [{"time": 0, "pitch": 32, "duration": 48, "velocity": 100}, {"time": 0, "pitch": 36, "duration": 48, "velocity": 100}, {"time": 0, "pitch": 39, "duration": 48, "velocity": 100}, {"time": 48, "pitch": 27, "duration": 24, "velocity": 100}, {"time": 48, "pitch": 31, "duration": 24, "velocity": 100}, {"time": 48, "pitch": 34, "duration": 24, "velocity": 100}, {"time": 72, "pitch": 102, "duration": 24, "velocity": 100}, {"time": 72, "pitch": 106, "duration": 24, "velocity": 100}, {"time": 72, "pitch": 109, "duration": 24, "velocity": 100}, {"time": 96, "pitch": 69, "duration": 24, "velocity": 100}, {"time": 96, "pitch": 72, "duration": 24, "velocity": 100}, {"time": 96, "pitch": 76, "duration": 24, "velocity": 100}, {"time": 120, "pitch": 122, "duration": 24, "velocity": 100}, {"time": 120, "pitch": 125, "duration": 24, "velocity": 100}, {"time": 144, "pitch": 124, "duration": 24, "velocity": 100}, {"time": 168, "pitch": 43, "duration": 48, "velocity": 100}, {"time": 168, "pitch": 47, "duration": 48, "velocity": 100}, {"time": 168, "pitch": 50, "duration": 48, "velocity": 100}, {"time": 216, "pitch": 11, "duration": 48, "velocity": 100}, {"time": 216, "pitch": 15, "duration": 48, "velocity": 100}, {"time": 216, "pitch": 18, "duration": 48, "velocity": 100}, {"time": 264, "pitch": 74, "duration": 24, "velocity": 100}, {"time": 264, "pitch": 78, "duration": 24, "velocity": 100}, {"time": 264, "pitch": 81, "duration": 24, "velocity": 100}, {"time": 288, "pitch": 27, "duration": 48, "velocity": 100}, {"time": 288, "pitch": 30, "duration": 48, "velocity": 100}, {"time": 288, "pitch": 34, "duration": 48, "velocity": 100}, {"time": 336, "pitch": 92, "duration": 24, "velocity": 100}, {"time": 336, "pitch": 96, "duration": 24, "velocity": 100}, {"time": 336, "pitch": 99, "duration": 24, "velocity": 100}, {"time": 360, "pitch": 103, "duration": 48, "velocity": 100}, {"time": 360, "pitch": 106, "duration": 48, "velocity": 100}, {"time": 360, "pitch": 110, "duration": 48, "velocity": 100}, {"time": 408, "pitch": 78, "duration": 48, "velocity": 100}, {"time": 408, "pitch": 82, "duration": 48, "velocity": 100}, {"time": 408, "pitch": 85, "duration": 48, "velocity": 100}, {"time": 456, "pitch": 62, "duration": 24, "velocity": 100}, {"time": 456, "pitch": 65, "duration": 24, "velocity": 100}, {"time": 456, "pitch": 69, "duration": 24, "velocity": 100}, {"time": 480, "pitch": 112, "duration": 48, "velocity": 100}, {"time": 480, "pitch": 116, "duration": 48, "velocity": 100}, {"time": 480, "pitch": 119, "duration": 48, "velocity": 100}, {"time": 528, "pitch": 88, "duration": 24, "velocity": 100}, {"time": 528, "pitch": 91, "duration": 24, "velocity": 100}, {"time": 528, "pitch": 95, "duration": 24, "velocity": 100}, {"time": 552, "pitch": 49, "duration": 24, "velocity": 100}, {"time": 552, "pitch": 52, "duration": 24, "velocity": 100}, {"time": 552, "pitch": 56, "duration": 24, "velocity": 100}, {"time": 576, "pitch": 0, "duration": 24, "velocity": 100}, {"time": 576, "pitch": 4, "duration": 24, "velocity": 100}, {"time": 576, "pitch": 7, "duration": 24, "velocity": 100}, {"time": 600, "pitch": 75, "duration": 24, "velocity": 100}, {"time": 600, "pitch": 78, "duration": 24, "velocity": 100}, {"time": 600, "pitch": 82, "duration": 24, "velocity": 100}, {"time": 624, "pitch": 43, "duration": 24, "velocity": 100}, {"time": 624, "pitch": 46, "duration": 24, "velocity": 100}, {"time": 624, "pitch": 50, "duration": 24, "velocity": 100}, {"time": 648, "pitch": 49, "duration": 24, "velocity": 100}, {"time": 648, "pitch": 52, "duration": 24, "velocity": 100}, {"time": 648, "pitch": 56, "duration": 24, "velocity": 100}, {"time": 672, "pitch": 5, "duration": 48, "velocity": 100}, {"time": 672, "pitch": 8, "duration": 48, "velocity": 100}, {"time": 672, "pitch": 12, "duration": 48, "velocity": 100}, {"time": 720, "pitch": 18, "duration": 24, "velocity": 100}, {"time": 720, "pitch": 21, "duration": 24, "velocity": 100}, {"time": 720, "pitch": 25, "duration": 24, "velocity": 100}, {"time": 744, "pitch": 13, "duration": 24, "velocity": 100}, {"time": 744, "pitch": 17, "duration": 24, "velocity": 100}, {"time": 744, "pitch": 20, "duration": 24, "velocity": 100}, {"time": 768, "pitch": 2, "duration": 24, "velocity": 100}, {"time": 768, "pitch": 5, "duration": 24, "velocity": 100}, {"time": 768, "pitch": 9, "duration": 24, "velocity": 100}, {"time": 792, "pitch": 8, "duration": 24, "velocity": 100}, {"time": 792, "pitch": 11, "duration": 24, "velocity": 100}, {"time": 792, "pitch": 15, "duration": 24, "velocity": 100}, {"time": 816, "pitch": 70, "duration": 48, "velocity": 100}, {"time": 816, "pitch": 74, "duration": 48, "velocity": 100}, {"time": 816, "pitch": 77, "duration": 48, "velocity": 100}, {"time": 864, "pitch": 1, "duration": 48, "velocity": 100}, {"time": 864, "pitch": 4, "duration": 48, "velocity": 100}, {"time": 864, "pitch": 8, "duration": 48, "velocity": 100}, {"time": 912, "pitch": 24, "duration": 48, "velocity": 100}, {"time": 912, "pitch": 27, "duration": 48, "velocity": 100}, {"time": 912, "pitch": 31, "duration": 48, "velocity": 100}, {"time": 960, "pitch": 119, "duration": 24, "velocity": 100}, {"time": 960, "pitch": 123, "duration": 24, "velocity": 100}, {"time": 960, "pitch": 126, "duration": 24, "velocity": 100}, {"time": 984, "pitch": 38, "duration": 48, "velocity": 100}, {"time": 984, "pitch": 42, "duration": 48, "velocity": 100}, {"time": 984, "pitch": 45, "duration": 48, "velocity": 100}, {"time": 1032, "pitch": 65, "duration": 24, "velocity": 100}, {"time": 1032, "pitch": 69, "duration": 24, "velocity": 100}, {"time": 1032, "pitch": 72, "duration": 24, "velocity": 100}, {"time": 1056, "pitch": 81, "duration": 24, "velocity": 100}, {"time": 1056, "pitch": 85, "duration": 24, "velocity": 100}, {"time": 1056, "pitch": 88, "duration": 24, "velocity": 100}, {"time": 1080, "pitch": 44, "duration": 48, "velocity": 100}, {"time": 1080, "pitch": 48, "duration": 48, "velocity": 100}, {"time": 1080, "pitch": 51, "duration": 48, "velocity": 100}, {"time": 1128, "pitch": 117, "duration": 48, "velocity": 100}, {"time": 1128, "pitch": 121, "duration": 48, "velocity": 100}, {"time": 1128, "pitch": 124, "duration": 48, "velocity": 100}, {"time": 1176, "pitch": 94, "duration": 24, "velocity": 100}, {"time": 1176, "pitch": 97, "duration": 24, "velocity": 100}, {"time": 1176, "pitch": 101, "duration": 24, "velocity": 100}, {"time": 1200, "pitch": 110, "duration": 48, "velocity": 100}, {"time": 1200, "pitch": 114, "duration": 48, "velocity": 100}, {"time": 1200, "pitch": 117, "duration": 48, "velocity": 100}, {"time": 1248, "pitch": 104, "duration": 24, "velocity": 100}, {"time": 1248, "pitch": 108, "duration": 24, "velocity": 100}, {"time": 1248, "pitch": 111, "duration": 24, "velocity": 100}, {"time": 1272, "pitch": 78, "duration": 48, "velocity": 100}, {"time": 1272, "pitch": 81, "duration": 48, "velocity": 100}, {"time": 1272, "pitch": 85, "duration": 48, "velocity": 100}, {"time": 1320, "pitch": 33, "duration": 24, "velocity": 100}, {"time": 1320, "pitch": 37, "duration": 24, "velocity": 100}, {"time": 1320, "pitch": 40, "duration": 24, "velocity": 100}, {"time": 1344, "pitch": 126, "duration": 24, "velocity": 100}, {"time": 1368, "pitch": 66, "duration": 48, "velocity": 100}, {"time": 1368, "pitch": 70, "duration": 48, "velocity": 100}, {"time": 1368, "pitch": 73, "duration": 48, "velocity": 100}, {"time": 1416, "pitch": 35, "duration": 48, "velocity": 100}, {"time": 1416, "pitch": 38, "duration": 48, "velocity": 100}, {"time": 1416, "pitch": 42, "duration": 48, "velocity": 100}, {"time": 1464, "pitch": 24, "duration": 24, "velocity": 100}, {"time": 1464, "pitch": 28, "duration": 24, "velocity": 100}, {"time": 1464, "pitch": 31, "duration": 24, "velocity": 100}, {"time": 1488, "pitch": 92, "duration": 24, "velocity": 100}, {"time": 1488, "pitch": 96, "duration": 24, "velocity": 100}, {"time": 1488, "pitch": 99, "duration": 24, "velocity": 100}, {"time": 1512, "pitch": 50, "duration": 24, "velocity": 100}, {"time": 1512, "pitch": 53, "duration": 24, "velocity": 100}, {"time": 1512, "pitch": 57, "duration": 24, "velocity": 100}]}]}