{"metadata": {"schema_version": "0.2", "title": "None", "source_filename": "baseline20.mid", "source_format": "midi"}, "resolution": 12, "tempos": [{"time": 0, "qpm": 100.0}], "tracks": [{"program": 0, "is_drum": false, "name": "track", "notes": [{"time": 0, "pitch": 3, "duration": 24, "velocity": 100}, {"time": 0, "pitch": 7, "duration": 24, "velocity": 100}, {"time": 0, "pitch": 10, "duration": 24, "velocity": 100}, {"time": 24, "pitch": 20, "duration": 24, "velocity": 100}, {"time": 24, "pitch": 24, "duration": 24, "velocity": 100}, {"time": 24, "pitch": 27, "duration": 24, "velocity": 100}, {"time": 48, "pitch": 39, "duration": 24, "velocity": 100}, {"time": 48, "pitch": 42, "duration": 24, "velocity": 100}, {"time": 48, "pitch": 46, "duration": 24, "velocity": 100}, {"time": 72, "pitch": 47, "duration": 48, "velocity": 100}, {"time": 72, "pitch": 51, "duration": 48, "velocity": 100}, {"time": 72, "pitch": 54, "duration": 48, "velocity": 100}, {"time": 120, "pitch": 123, "duration": 48, "velocity": 100}, {"time": 120, "pitch": 126, "duration": 48, "velocity": 100}, {"time": 168, "pitch": 65, "duration": 48, "velocity": 100}, {"time": 168, "pitch": 68, "duration": 48, "velocity": 100}, {"time": 168, "pitch": 72, "duration": 48, "velocity": 100}, {"time": 216, "pitch": 46, "duration": 48, "velocity": 100}, {"time": 216, "pitch": 49, "duration": 48, "velocity": 100}, {"time": 216, "pitch": 53, "duration": 48, "velocity": 100}, {"time": 264, "pitch": 22, "duration": 24, "velocity": 100}, {"time": 264, "pitch": 26, "duration": 24, "velocity": 100}, {"time": 264, "pitch": 29, "duration": 24, "velocity": 100}, {"time": 288, "pitch": 8, "duration": 24, "velocity": 100}, {"time": 288, "pitch": 11, "duration": 24, "velocity": 100}, {"time": 288, "pitch": 15, "duration": 24, "velocity": 100}, {"time": 312, "pitch": 43, "duration": 48, "velocity": 100}, {"time": 312, "pitch": 46, "duration": 48, "velocity": 100}, {"time": 312, "pitch": 50, "duration": 48, "velocity": 100}, {"time": 360, "pitch": 55, "duration": 48, "velocity": 100}, {"time": 360, "pitch": 58, "duration": 48, "velocity": 100}, {"time": 360, "pitch": 62, "duration": 48, "velocity": 100}, {"time": 408, "pitch": 39, "duration": 24, "velocity": 100}, {"time": 408, "pitch": 42, "duration": 24, "velocity": 100}, {"time": 408, "pitch": 46, "duration": 24, "velocity": 100}, {"time": 432, "pitch": 62, "duration": 24, "velocity": 100}, {"time": 432, "pitch": 65, "duration": 24, "velocity": 100}, {"time": 432, "pitch": 69, "duration": 24, "velocity": 100}, {"time": 456, "pitch": 85, "duration": 24, "velocity": 100}, {"time": 456, "pitch": 88, "duration": 24, "velocity": 100}, {"time": 456, "pitch": 92, "duration": 24, "velocity": 100}, {"time": 480, "pitch": 11, "duration": 48, "velocity": 100}, {"time": 480, "pitch": 14, "duration": 48, "velocity": 100}, {"time": 480, "pitch": 18, "duration": 48, "velocity": 100}, {"time": 528, "pitch": 5, "duration": 24, "velocity": 100}, {"time": 528, "pitch": 8, "duration": 24, "velocity": 100}, {"time": 528, "pitch": 12, "duration": 24, "velocity": 100}, {"time": 552, "pitch": 55, "duration": 48, "velocity": 100}, {"time": 552, "pitch": 58, "duration": 48, "velocity": 100}, {"time": 552, "pitch": 62, "duration": 48, "velocity": 100}, {"time": 600, "pitch": 124, "duration": 48, "velocity": 100}, {"time": 648, "pitch": 69, "duration": 48, "velocity": 100}, {"time": 648, "pitch": 72, "duration": 48, "velocity": 100}, {"time": 648, "pitch": 76, "duration": 48, "velocity": 100}, {"time": 696, "pitch": 20, "duration": 48, "velocity": 100}, {"time": 696, "pitch": 23, "duration": 48, "velocity": 100}, {"time": 696, "pitch": 27, "duration": 48, "velocity": 100}, {"time": 744, "pitch": 112, "duration": 24, "velocity": 100}, {"time": 744, "pitch": 116, "duration": 24, "velocity": 100}, {"time": 744, "pitch": 119, "duration": 24, "velocity": 100}, {"time": 768, "pitch": 64, "duration": 24, "velocity": 100}, {"time": 768, "pitch": 68, "duration": 24, "velocity": 100}, {"time": 768, "pitch": 71, "duration": 24, "velocity": 100}, {"time": 792, "pitch": 101, "duration": 24, "velocity": 100}, {"time": 792, "pitch": 105, "duration": 24, "velocity": 100}, {"time": 792, "pitch": 108, "duration": 24, "velocity": 100}, {"time": 816, "pitch": 39, "duration": 48, "velocity": 100}, {"time": 816, "pitch": 43, "duration": 48, "velocity": 100}, {"time": 816, "pitch": 46, "duration": 48, "velocity": 100}, {"time": 864, "pitch": 52, "duration": 24, "velocity": 100}, {"time": 864, "pitch": 55, "duration": 24, "velocity": 100}, {"time": 864, "pitch": 59, "duration": 24, "velocity": 100}, {"time": 888, "pitch": 38, "duration": 24, "velocity": 100}, {"time": 888, "pitch": 42, "duration": 24, "velocity": 100}, {"time": 888, "pitch": 45, "duration": 24, "velocity": 100}, {"time": 912, "pitch": 45, "duration": 24, "velocity": 100}, {"time": 912, "pitch": 48, "duration": 24, "velocity": 100}, {"time": 912, "pitch": 52, "duration": 24, "velocity": 100}, {"time": 936, "pitch": 76, "duration": 24, "velocity": 100}, {"time": 936, "pitch": 80, "duration": 24, "velocity": 100}, {"time": 936, "pitch": 83, "duration": 24, "velocity": 100}, {"time": 960, "pitch": 119, "duration": 24, "velocity": 100}, {"time": 960, "pitch": 122, "duration": 24, "velocity": 100}, {"time": 960, "pitch": 126, "duration": 24, "velocity": 100}, {"time": 984, "pitch": 13, "duration": 24, "velocity": 100}, {"time": 984, "pitch": 16, "duration": 24, "velocity": 100}, {"time": 984, "pitch": 20, "duration": 24, "velocity": 100}, {"time": 1008, "pitch": 4, "duration": 48, "velocity": 100}, {"time": 1008, "pitch": 7, "duration": 48, "velocity": 100}, {"time": 1008, "pitch": 11, "duration": 48, "velocity": 100}, {"time": 1056, "pitch": 83, "duration": 24, "velocity": 100}, {"time": 1056, "pitch": 86, "duration": 24, "velocity": 100}, {"time": 1056, "pitch": 90, "duration": 24, "velocity": 100}, {"time": 1080, "pitch": 50, "duration": 48, "velocity": 100}, {"time": 1080, "pitch": 54, "duration": 48, "velocity": 100}, {"time": 1080, "pitch": 57, "duration": 48, "velocity": 100}, {"time": 1128, "pitch": 16, "duration": 24, "velocity": 100}, {"time": 1128, "pitch": 19, "duration": 24, "velocity": 100}, {"time": 1128, "pitch": 23, "duration": 24, "velocity": 100}, {"time": 1152, "pitch": 119, "duration": 48, "velocity": 100}, {"time": 1152, "pitch": 123, "duration": 48, "velocity": 100}, {"time": 1152, "pitch": 126, "duration": 48, "velocity": 100}, {"time": 1200, "pitch": 90, "duration": 24, "velocity": 100}, {"time": 1200, "pitch": 94, "duration": 24, "velocity": 100}, {"time": 1200, "pitch": 97, "duration": 24, "velocity": 100}, {"time": 1224, "pitch": 70, "duration": 24, "velocity": 100}, {"time": 1224, "pitch": 73, "duration": 24, "velocity": 100}, {"time": 1224, "pitch": 77, "duration": 24, "velocity": 100}, {"time": 1248, "pitch": 114, "duration": 24, "velocity": 100}, {"time": 1248, "pitch": 117, "duration": 24, "velocity": 100}, {"time": 1248, "pitch": 121, "duration": 24, "velocity": 100}, {"time": 1272, "pitch": 28, "duration": 24, "velocity": 100}, {"time": 1272, "pitch": 31, "duration": 24, "velocity": 100}, {"time": 1272, "pitch": 35, "duration": 24, "velocity": 100}, {"time": 1296, "pitch": 58, "duration": 24, "velocity": 100}, {"time": 1296, "pitch": 61, "duration": 24, "velocity": 100}, {"time": 1296, "pitch": 65, "duration": 24, "velocity": 100}, {"time": 1320, "pitch": 85, "duration": 48, "velocity": 100}, {"time": 1320, "pitch": 89, "duration": 48, "velocity": 100}, {"time": 1320, "pitch": 92, "duration": 48, "velocity": 100}, {"time": 1368, "pitch": 79, "duration": 24, "velocity": 100}, {"time": 1368, "pitch": 82, "duration": 24, "velocity": 100}, {"time": 1368, "pitch": 86, "duration": 24, "velocity": 100}, {"time": 1392, "pitch": 67, "duration": 24, "velocity": 100}, {"time": 1392, "pitch": 70, "duration": 24, "velocity": 100}, {"time": 1392, "pitch": 74, "duration": 24, "velocity": 100}, {"time": 1416, "pitch": 115, "duration": 24, "velocity": 100}, {"time": 1416, "pitch": 118, "duration": 24, "velocity": 100}, {"time": 1416, "pitch": 122, "duration": 24, "velocity": 100}, {"time": 1440, "pitch": 97, "duration": 24, "velocity": 100}, {"time": 1440, "pitch": 101, "duration": 24, "velocity": 100}, {"time": 1440, "pitch": 104, "duration": 24, "velocity": 100}, {"time": 1464, "pitch": 54, "duration": 24, "velocity": 100}, {"time": 1464, "pitch": 58, "duration": 24, "velocity": 100}, {"time": 1464, "pitch": 61, "duration": 24, "velocity": 100}, {"time": 1488, "pitch": 23, "duration": 24, "velocity": 100}, {"time": 1488, "pitch": 27, "duration": 24, "velocity": 100}, {"time": 1488, "pitch": 30, "duration": 24, "velocity": 100}, {"time": 1512, "pitch": 2, "duration": 24, "velocity": 100}, {"time": 1512, "pitch": 5, "duration": 24, "velocity": 100}, {"time": 1512, "pitch": 9, "duration": 24, "velocity": 100}]}]}