{"metadata": {"schema_version": "0.2", "title": "None", "source_filename": "baseline32.mid", "source_format": "midi"}, "resolution": 12, "tempos": [{"time": 0, "qpm": 100.0}], "tracks": [{"program": 0, "is_drum": false, "name": "track", "notes": [{"time": 0, "pitch": 47, "duration": 24, "velocity": 100}, {"time": 0, "pitch": 51, "duration": 24, "velocity": 100}, {"time": 0, "pitch": 54, "duration": 24, "velocity": 100}, {"time": 24, "pitch": 124, "duration": 24, "velocity": 100}, {"time": 24, "pitch": 127, "duration": 24, "velocity": 100}, {"time": 48, "pitch": 62, "duration": 24, "velocity": 100}, {"time": 48, "pitch": 65, "duration": 24, "velocity": 100}, {"time": 48, "pitch": 69, "duration": 24, "velocity": 100}, {"time": 72, "pitch": 16, "duration": 48, "velocity": 100}, {"time": 72, "pitch": 19, "duration": 48, "velocity": 100}, {"time": 72, "pitch": 23, "duration": 48, "velocity": 100}, {"time": 120, "pitch": 12, "duration": 48, "velocity": 100}, {"time": 120, "pitch": 15, "duration": 48, "velocity": 100}, {"time": 120, "pitch": 19, "duration": 48, "velocity": 100}, {"time": 168, "pitch": 58, "duration": 48, "velocity": 100}, {"time": 168, "pitch": 61, "duration": 48, "velocity": 100}, {"time": 168, "pitch": 65, "duration": 48, "velocity": 100}, {"time": 216, "pitch": 39, "duration": 48, "velocity": 100}, {"time": 216, "pitch": 42, "duration": 48, "velocity": 100}, {"time": 216, "pitch": 46, "duration": 48, "velocity": 100}, {"time": 264, "pitch": 56, "duration": 48, "velocity": 100}, {"time": 264, "pitch": 60, "duration": 48, "velocity": 100}, {"time": 264, "pitch": 63, "duration": 48, "velocity": 100}, {"time": 312, "pitch": 13, "duration": 48, "velocity": 100}, {"time": 312, "pitch": 17, "duration": 48, "velocity": 100}, {"time": 312, "pitch": 20, "duration": 48, "velocity": 100}, {"time": 360, "pitch": 10, "duration": 24, "velocity": 100}, {"time": 360, "pitch": 13, "duration": 24, "velocity": 100}, {"time": 360, "pitch": 17, "duration": 24, "velocity": 100}, {"time": 384, "pitch": 65, "duration": 24, "velocity": 100}, {"time": 384, "pitch": 69, "duration": 24, "velocity": 100}, {"time": 384, "pitch": 72, "duration": 24, "velocity": 100}, {"time": 408, "pitch": 37, "duration": 48, "velocity": 100}, {"time": 408, "pitch": 41, "duration": 48, "velocity": 100}, {"time": 408, "pitch": 44, "duration": 48, "velocity": 100}, {"time": 456, "pitch": 75, "duration": 48, "velocity": 100}, {"time": 456, "pitch": 78, "duration": 48, "velocity": 100}, {"time": 456, "pitch": 82, "duration": 48, "velocity": 100}, {"time": 504, "pitch": 68, "duration": 48, "velocity": 100}, {"time": 504, "pitch": 72, "duration": 48, "velocity": 100}, {"time": 504, "pitch": 75, "duration": 48, "velocity": 100}, {"time": 552, "pitch": 65, "duration": 48, "velocity": 100}, {"time": 552, "pitch": 68, "duration": 48, "velocity": 100}, {"time": 552, "pitch": 72, "duration": 48, "velocity": 100}, {"time": 600, "pitch": 90, "duration": 24, "velocity": 100}, {"time": 600, "pitch": 93, "duration": 24, "velocity": 100}, {"time": 600, "pitch": 97, "duration": 24, "velocity": 100}, {"time": 624, "pitch": 98, "duration": 24, "velocity": 100}, {"time": 624, "pitch": 102, "duration": 24, "velocity": 100}, {"time": 624, "pitch": 105, "duration": 24, "velocity": 100}, {"time": 648, "pitch": 84, "duration": 24, "velocity": 100}, {"time": 648, "pitch": 88, "duration": 24, "velocity": 100}, {"time": 648, "pitch": 91, "duration": 24, "velocity": 100}, {"time": 672, "pitch": 31, "duration": 48, "velocity": 100}, {"time": 672, "pitch": 35, "duration": 48, "velocity": 100}, {"time": 672, "pitch": 38, "duration": 48, "velocity": 100}, {"time": 720, "pitch": 114, "duration": 24, "velocity": 100}, {"time": 720, "pitch": 117, "duration": 24, "velocity": 100}, {"time": 720, "pitch": 121, "duration": 24, "velocity": 100}, {"time": 744, "pitch": 57, "duration": 24, "velocity": 100}, {"time": 744, "pitch": 60, "duration": 24, "velocity": 100}, {"time": 744, "pitch": 64, "duration": 24, "velocity": 100}, {"time": 768, "pitch": 14, "duration": 48, "velocity": 100}, {"time": 768, "pitch": 17, "duration": 48, "velocity": 100}, {"time": 768, "pitch": 21, "duration": 48, "velocity": 100}, {"time": 816, "pitch": 126, "duration": 48, "velocity": 100}, {"time": 864, "pitch": 75, "duration": 24, "velocity": 100}, {"time": 864, "pitch": 79, "duration": 24, "velocity": 100}, {"time": 864, "pitch": 82, "duration": 24, "velocity": 100}, {"time": 888, "pitch": 127, "duration": 24, "velocity": 100}, {"time": 912, "pitch": 104, "duration": 24, "velocity": 100}, {"time": 912, "pitch": 108, "duration": 24, "velocity": 100}, {"time": 912, "pitch": 111, "duration": 24, "velocity": 100}, {"time": 936, "pitch": 5, "duration": 48, "velocity": 100}, {"time": 936, "pitch": 9, "duration": 48, "velocity": 100}, {"time": 936, "pitch": 12, "duration": 48, "velocity": 100}, {"time": 984, "pitch": 33, "duration": 48, "velocity": 100}, {"time": 984, "pitch": 36, "duration": 48, "velocity": 100}, {"time": 984, "pitch": 40, "duration": 48, "velocity": 100}, {"time": 1032, "pitch": 113, "duration": 24, "velocity": 100}, {"time": 1032, "pitch": 116, "duration": 24, "velocity": 100}, {"time": 1032, "pitch": 120, "duration": 24, "velocity": 100}, {"time": 1056, "pitch": 62, "duration": 24, "velocity": 100}, {"time": 1056, "pitch": 65, "duration": 24, "velocity": 100}, {"time": 1056, "pitch": 69, "duration": 24, "velocity": 100}, {"time": 1080, "pitch": 91, "duration": 24, "velocity": 100}, {"time": 1080, "pitch": 95, "duration": 24, "velocity": 100}, {"time": 1080, "pitch": 98, "duration": 24, "velocity": 100}, {"time": 1104, "pitch": 103, "duration": 48, "velocity": 100}, {"time": 1104, "pitch": 106, "duration": 48, "velocity": 100}, {"time": 1104, "pitch": 110, "duration": 48, "velocity": 100}, {"time": 1152, "pitch": 53, "duration": 48, "velocity": 100}, {"time": 1152, "pitch": 57, "duration": 48, "velocity": 100}, {"time": 1152, "pitch": 60, "duration": 48, "velocity": 100}, {"time": 1200, "pitch": 44, "duration": 24, "velocity": 100}, {"time": 1200, "pitch": 48, "duration": 24, "velocity": 100}, {"time": 1200, "pitch": 51, "duration": 24, "velocity": 100}, {"time": 1224, "pitch": 41, "duration": 48, "velocity": 100}, {"time": 1224, "pitch": 45, "duration": 48, "velocity": 100}, {"time": 1224, "pitch": 48, "duration": 48, "velocity": 100}, {"time": 1272, "pitch": 60, "duration": 48, "velocity": 100}, {"time": 1272, "pitch": 63, "duration": 48, "velocity": 100}, {"time": 1272, "pitch": 67, "duration": 48, "velocity": 100}, {"time": 1320, "pitch": 24, "duration": 48, "velocity": 100}, {"time": 1320, "pitch": 28, "duration": 48, "velocity": 100}, {"time": 1320, "pitch": 31, "duration": 48, "velocity": 100}, {"time": 1368, "pitch": 56, "duration": 48, "velocity": 100}, {"time": 1368, "pitch": 59, "duration": 48, "velocity": 100}, {"time": 1368, "pitch": 63, "duration": 48, "velocity": 100}, {"time": 1416, "pitch": 26, "duration": 48, "velocity": 100}, {"time": 1416, "pitch": 29, "duration": 48, "velocity": 100}, {"time": 1416, "pitch": 33, "duration": 48, "velocity": 100}, {"time": 1464, "pitch": 34, "duration": 24, "velocity": 100}, {"time": 1464, "pitch": 37, "duration": 24, "velocity": 100}, {"time": 1464, "pitch": 41, "duration": 24, "velocity": 100}, {"time": 1488, "pitch": 54, "duration": 24, "velocity": 100}, {"time": 1488, "pitch": 58, "duration": 24, "velocity": 100}, {"time": 1488, "pitch": 61, "duration": 24, "velocity": 100}, {"time": 1512, "pitch": 89, "duration": 24, "velocity": 100}, {"time": 1512, "pitch": 93, "duration": 24, "velocity": 100}, {"time": 1512, "pitch": 96, "duration": 24, "velocity": 100}]}]}