{"metadata": {"schema_version": "0.2", "title": "None", "source_filename": "baseline15.mid", "source_format": "midi"}, "resolution": 12, "tempos": [{"time": 0, "qpm": 100.0}], "tracks": [{"program": 0, "is_drum": false, "name": "track", "notes": [{"time": 0, "pitch": 114, "duration": 24, "velocity": 100}, {"time": 0, "pitch": 118, "duration": 24, "velocity": 100}, {"time": 0, "pitch": 121, "duration": 24, "velocity": 100}, {"time": 24, "pitch": 59, "duration": 48, "velocity": 100}, {"time": 24, "pitch": 62, "duration": 48, "velocity": 100}, {"time": 24, "pitch": 66, "duration": 48, "velocity": 100}, {"time": 72, "pitch": 36, "duration": 24, "velocity": 100}, {"time": 72, "pitch": 40, "duration": 24, "velocity": 100}, {"time": 72, "pitch": 43, "duration": 24, "velocity": 100}, {"time": 96, "pitch": 69, "duration": 48, "velocity": 100}, {"time": 96, "pitch": 73, "duration": 48, "velocity": 100}, {"time": 96, "pitch": 76, "duration": 48, "velocity": 100}, {"time": 144, "pitch": 30, "duration": 48, "velocity": 100}, {"time": 144, "pitch": 34, "duration": 48, "velocity": 100}, {"time": 144, "pitch": 37, "duration": 48, "velocity": 100}, {"time": 192, "pitch": 57, "duration": 24, "velocity": 100}, {"time": 192, "pitch": 61, "duration": 24, "velocity": 100}, {"time": 192, "pitch": 64, "duration": 24, "velocity": 100}, {"time": 216, "pitch": 39, "duration": 48, "velocity": 100}, {"time": 216, "pitch": 43, "duration": 48, "velocity": 100}, {"time": 216, "pitch": 46, "duration": 48, "velocity": 100}, {"time": 264, "pitch": 41, "duration": 24, "velocity": 100}, {"time": 264, "pitch": 44, "duration": 24, "velocity": 100}, {"time": 264, "pitch": 48, "duration": 24, "velocity": 100}, {"time": 288, "pitch": 106, "duration": 24, "velocity": 100}, {"time": 288, "pitch": 110, "duration": 24, "velocity": 100}, {"time": 288, "pitch": 113, "duration": 24, "velocity": 100}, {"time": 312, "pitch": 36, "duration": 24, "velocity": 100}, {"time": 312, "pitch": 40, "duration": 24, "velocity": 100}, {"time": 312, "pitch": 43, "duration": 24, "velocity": 100}, {"time": 336, "pitch": 56, "duration": 48, "velocity": 100}, {"time": 336, "pitch": 60, "duration": 48, "velocity": 100}, {"time": 336, "pitch": 63, "duration": 48, "velocity": 100}, {"time": 384, "pitch": 6, "duration": 48, "velocity": 100}, {"time": 384, "pitch": 10, "duration": 48, "velocity": 100}, {"time": 384, "pitch": 13, "duration": 48, "velocity": 100}, {"time": 432, "pitch": 123, "duration": 48, "velocity": 100}, {"time": 432, "pitch": 127, "duration": 48, "velocity": 100}, {"time": 480, "pitch": 93, "duration": 24, "velocity": 100}, {"time": 480, "pitch": 96, "duration": 24, "velocity": 100}, {"time": 480, "pitch": 100, "duration": 24, "velocity": 100}, {"time": 504, "pitch": 13, "duration": 48, "velocity": 100}, {"time": 504, "pitch": 17, "duration": 48, "velocity": 100}, {"time": 504, "pitch": 20, "duration": 48, "velocity": 100}, {"time": 552, "pitch": 58, "duration": 24, "velocity": 100}, {"time": 552, "pitch": 62, "duration": 24, "velocity": 100}, {"time": 552, "pitch": 65, "duration": 24, "velocity": 100}, {"time": 576, "pitch": 20, "duration": 24, "velocity": 100}, {"time": 576, "pitch": 24, "duration": 24, "velocity": 100}, {"time": 576, "pitch": 27, "duration": 24, "velocity": 100}, {"time": 600, "pitch": 54, "duration": 48, "velocity": 100}, {"time": 600, "pitch": 57, "duration": 48, "velocity": 100}, {"time": 600, "pitch": 61, "duration": 48, "velocity": 100}, {"time": 648, "pitch": 113, "duration": 24, "velocity": 100}, {"time": 648, "pitch": 116, "duration": 24, "velocity": 100}, {"time": 648, "pitch": 120, "duration": 24, "velocity": 100}, {"time": 672, "pitch": 97, "duration": 24, "velocity": 100}, {"time": 672, "pitch": 100, "duration": 24, "velocity": 100}, {"time": 672, "pitch": 104, "duration": 24, "velocity": 100}, {"time": 696, "pitch": 17, "duration": 24, "velocity": 100}, {"time": 696, "pitch": 20, "duration": 24, "velocity": 100}, {"time": 696, "pitch": 24, "duration": 24, "velocity": 100}, {"time": 720, "pitch": 95, "duration": 24, "velocity": 100}, {"time": 720, "pitch": 99, "duration": 24, "velocity": 100}, {"time": 720, "pitch": 102, "duration": 24, "velocity": 100}, {"time": 744, "pitch": 103, "duration": 24, "velocity": 100}, {"time": 744, "pitch": 106, "duration": 24, "velocity": 100}, {"time": 744, "pitch": 110, "duration": 24, "velocity": 100}, {"time": 768, "pitch": 1, "duration": 24, "velocity": 100}, {"time": 768, "pitch": 5, "duration": 24, "velocity": 100}, {"time": 768, "pitch": 8, "duration": 24, "velocity": 100}, {"time": 792, "pitch": 11, "duration": 48, "velocity": 100}, {"time": 792, "pitch": 14, "duration": 48, "velocity": 100}, {"time": 792, "pitch": 18, "duration": 48, "velocity": 100}, {"time": 840, "pitch": 31, "duration": 24, "velocity": 100}, {"time": 840, "pitch": 35, "duration": 24, "velocity": 100}, {"time": 840, "pitch": 38, "duration": 24, "velocity": 100}, {"time": 864, "pitch": 75, "duration": 48, "velocity": 100}, {"time": 864, "pitch": 79, "duration": 48, "velocity": 100}, {"time": 864, "pitch": 82, "duration": 48, "velocity": 100}, {"time": 912, "pitch": 12, "duration": 48, "velocity": 100}, {"time": 912, "pitch": 16, "duration": 48, "velocity": 100}, {"time": 912, "pitch": 19, "duration": 48, "velocity": 100}, {"time": 960, "pitch": 117, "duration": 48, "velocity": 100}, {"time": 960, "pitch": 121, "duration": 48, "velocity": 100}, {"time": 960, "pitch": 124, "duration": 48, "velocity": 100}, {"time": 1008, "pitch": 28, "duration": 48, "velocity": 100}, {"time": 1008, "pitch": 31, "duration": 48, "velocity": 100}, {"time": 1008, "pitch": 35, "duration": 48, "velocity": 100}, {"time": 1056, "pitch": 43, "duration": 24, "velocity": 100}, {"time": 1056, "pitch": 47, "duration": 24, "velocity": 100}, {"time": 1056, "pitch": 50, "duration": 24, "velocity": 100}, {"time": 1080, "pitch": 83, "duration": 24, "velocity": 100}, {"time": 1080, "pitch": 86, "duration": 24, "velocity": 100}, {"time": 1080, "pitch": 90, "duration": 24, "velocity": 100}, {"time": 1104, "pitch": 90, "duration": 48, "velocity": 100}, {"time": 1104, "pitch": 93, "duration": 48, "velocity": 100}, {"time": 1104, "pitch": 97, "duration": 48, "velocity": 100}, {"time": 1152, "pitch": 81, "duration": 24, "velocity": 100}, {"time": 1152, "pitch": 85, "duration": 24, "velocity": 100}, {"time": 1152, "pitch": 88, "duration": 24, "velocity": 100}, {"time": 1176, "pitch": 80, "duration": 48, "velocity": 100}, {"time": 1176, "pitch": 83, "duration": 48, "velocity": 100}, {"time": 1176, "pitch": 87, "duration": 48, "velocity": 100}, {"time": 1224, "pitch": 99, "duration": 24, "velocity": 100}, {"time": 1224, "pitch": 102, "duration": 24, "velocity": 100}, {"time": 1224, "pitch": 106, "duration": 24, "velocity": 100}, {"time": 1248, "pitch": 10, "duration": 48, "velocity": 100}, {"time": 1248, "pitch": 14, "duration": 48, "velocity": 100}, {"time": 1248, "pitch": 17, "duration": 48, "velocity": 100}, {"time": 1296, "pitch": 41, "duration": 24, "velocity": 100}, {"time": 1296, "pitch": 45, "duration": 24, "velocity": 100}, {"time": 1296, "pitch": 48, "duration": 24, "velocity": 100}, {"time": 1320, "pitch": 102, "duration": 24, "velocity": 100}, {"time": 1320, "pitch": 105, "duration": 24, "velocity": 100}, {"time": 1320, "pitch": 109, "duration": 24, "velocity": 100}, {"time": 1344, "pitch": 104, "duration": 24, "velocity": 100}, {"time": 1344, "pitch": 107, "duration": 24, "velocity": 100}, {"time": 1344, "pitch": 111, "duration": 24, "velocity": 100}, {"time": 1368, "pitch": 29, "duration": 48, "velocity": 100}, {"time": 1368, "pitch": 32, "duration": 48, "velocity": 100}, {"time": 1368, "pitch": 36, "duration": 48, "velocity": 100}, {"time": 1416, "pitch": 41, "duration": 48, "velocity": 100}, {"time": 1416, "pitch": 44, "duration": 48, "velocity": 100}, {"time": 1416, "pitch": 48, "duration": 48, "velocity": 100}, {"time": 1464, "pitch": 71, "duration": 24, "velocity": 100}, {"time": 1464, "pitch": 75, "duration": 24, "velocity": 100}, {"time": 1464, "pitch": 78, "duration": 24, "velocity": 100}, {"time": 1488, "pitch": 52, "duration": 24, "velocity": 100}, {"time": 1488, "pitch": 55, "duration": 24, "velocity": 100}, {"time": 1488, "pitch": 59, "duration": 24, "velocity": 100}, {"time": 1512, "pitch": 88, "duration": 24, "velocity": 100}, {"time": 1512, "pitch": 91, "duration": 24, "velocity": 100}, {"time": 1512, "pitch": 95, "duration": 24, "velocity": 100}]}]}