{"metadata": {"schema_version": "0.2", "title": "None", "source_filename": "baseline27.mid", "source_format": "midi"}, "resolution": 12, "tempos": [{"time": 0, "qpm": 100.0}], "tracks": [{"program": 0, "is_drum": false, "name": "track", "notes": [{"time": 0, "pitch": 91, "duration": 24, "velocity": 100}, {"time": 0, "pitch": 94, "duration": 24, "velocity": 100}, {"time": 0, "pitch": 98, "duration": 24, "velocity": 100}, {"time": 24, "pitch": 8, "duration": 48, "velocity": 100}, {"time": 24, "pitch": 11, "duration": 48, "velocity": 100}, {"time": 24, "pitch": 15, "duration": 48, "velocity": 100}, {"time": 72, "pitch": 76, "duration": 24, "velocity": 100}, {"time": 72, "pitch": 79, "duration": 24, "velocity": 100}, {"time": 72, "pitch": 83, "duration": 24, "velocity": 100}, {"time": 96, "pitch": 114, "duration": 24, "velocity": 100}, {"time": 96, "pitch": 118, "duration": 24, "velocity": 100}, {"time": 96, "pitch": 121, "duration": 24, "velocity": 100}, {"time": 120, "pitch": 43, "duration": 48, "velocity": 100}, {"time": 120, "pitch": 46, "duration": 48, "velocity": 100}, {"time": 120, "pitch": 50, "duration": 48, "velocity": 100}, {"time": 168, "pitch": 93, "duration": 24, "velocity": 100}, {"time": 168, "pitch": 97, "duration": 24, "velocity": 100}, {"time": 168, "pitch": 100, "duration": 24, "velocity": 100}, {"time": 192, "pitch": 44, "duration": 24, "velocity": 100}, {"time": 192, "pitch": 47, "duration": 24, "velocity": 100}, {"time": 192, "pitch": 51, "duration": 24, "velocity": 100}, {"time": 216, "pitch": 58, "duration": 48, "velocity": 100}, {"time": 216, "pitch": 62, "duration": 48, "velocity": 100}, {"time": 216, "pitch": 65, "duration": 48, "velocity": 100}, {"time": 264, "pitch": 40, "duration": 24, "velocity": 100}, {"time": 264, "pitch": 44, "duration": 24, "velocity": 100}, {"time": 264, "pitch": 47, "duration": 24, "velocity": 100}, {"time": 288, "pitch": 42, "duration": 24, "velocity": 100}, {"time": 288, "pitch": 46, "duration": 24, "velocity": 100}, {"time": 288, "pitch": 49, "duration": 24, "velocity": 100}, {"time": 312, "pitch": 66, "duration": 48, "velocity": 100}, {"time": 312, "pitch": 70, "duration": 48, "velocity": 100}, {"time": 312, "pitch": 73, "duration": 48, "velocity": 100}, {"time": 360, "pitch": 83, "duration": 48, "velocity": 100}, {"time": 360, "pitch": 86, "duration": 48, "velocity": 100}, {"time": 360, "pitch": 90, "duration": 48, "velocity": 100}, {"time": 408, "pitch": 73, "duration": 48, "velocity": 100}, {"time": 408, "pitch": 77, "duration": 48, "velocity": 100}, {"time": 408, "pitch": 80, "duration": 48, "velocity": 100}, {"time": 456, "pitch": 68, "duration": 48, "velocity": 100}, {"time": 456, "pitch": 72, "duration": 48, "velocity": 100}, {"time": 456, "pitch": 75, "duration": 48, "velocity": 100}, {"time": 504, "pitch": 82, "duration": 48, "velocity": 100}, {"time": 504, "pitch": 86, "duration": 48, "velocity": 100}, {"time": 504, "pitch": 89, "duration": 48, "velocity": 100}, {"time": 552, "pitch": 116, "duration": 48, "velocity": 100}, {"time": 552, "pitch": 119, "duration": 48, "velocity": 100}, {"time": 552, "pitch": 123, "duration": 48, "velocity": 100}, {"time": 600, "pitch": 98, "duration": 48, "velocity": 100}, {"time": 600, "pitch": 102, "duration": 48, "velocity": 100}, {"time": 600, "pitch": 105, "duration": 48, "velocity": 100}, {"time": 648, "pitch": 68, "duration": 48, "velocity": 100}, {"time": 648, "pitch": 72, "duration": 48, "velocity": 100}, {"time": 648, "pitch": 75, "duration": 48, "velocity": 100}, {"time": 696, "pitch": 33, "duration": 24, "velocity": 100}, {"time": 696, "pitch": 37, "duration": 24, "velocity": 100}, {"time": 696, "pitch": 40, "duration": 24, "velocity": 100}, {"time": 720, "pitch": 81, "duration": 48, "velocity": 100}, {"time": 720, "pitch": 84, "duration": 48, "velocity": 100}, {"time": 720, "pitch": 88, "duration": 48, "velocity": 100}, {"time": 768, "pitch": 37, "duration": 24, "velocity": 100}, {"time": 768, "pitch": 40, "duration": 24, "velocity": 100}, {"time": 768, "pitch": 44, "duration": 24, "velocity": 100}, {"time": 792, "pitch": 87, "duration": 24, "velocity": 100}, {"time": 792, "pitch": 90, "duration": 24, "velocity": 100}, {"time": 792, "pitch": 94, "duration": 24, "velocity": 100}, {"time": 816, "pitch": 67, "duration": 24, "velocity": 100}, {"time": 816, "pitch": 71, "duration": 24, "velocity": 100}, {"time": 816, "pitch": 74, "duration": 24, "velocity": 100}, {"time": 840, "pitch": 44, "duration": 48, "velocity": 100}, {"time": 840, "pitch": 48, "duration": 48, "velocity": 100}, {"time": 840, "pitch": 51, "duration": 48, "velocity": 100}, {"time": 888, "pitch": 115, "duration": 24, "velocity": 100}, {"time": 888, "pitch": 119, "duration": 24, "velocity": 100}, {"time": 888, "pitch": 122, "duration": 24, "velocity": 100}, {"time": 912, "pitch": 40, "duration": 24, "velocity": 100}, {"time": 912, "pitch": 43, "duration": 24, "velocity": 100}, {"time": 912, "pitch": 47, "duration": 24, "velocity": 100}, {"time": 936, "pitch": 79, "duration": 24, "velocity": 100}, {"time": 936, "pitch": 83, "duration": 24, "velocity": 100}, {"time": 936, "pitch": 86, "duration": 24, "velocity": 100}, {"time": 960, "pitch": 121, "duration": 24, "velocity": 100}, {"time": 960, "pitch": 124, "duration": 24, "velocity": 100}, {"time": 984, "pitch": 108, "duration": 24, "velocity": 100}, {"time": 984, "pitch": 111, "duration": 24, "velocity": 100}, {"time": 984, "pitch": 115, "duration": 24, "velocity": 100}, {"time": 1008, "pitch": 117, "duration": 48, "velocity": 100}, {"time": 1008, "pitch": 120, "duration": 48, "velocity": 100}, {"time": 1008, "pitch": 124, "duration": 48, "velocity": 100}, {"time": 1056, "pitch": 108, "duration": 48, "velocity": 100}, {"time": 1056, "pitch": 111, "duration": 48, "velocity": 100}, {"time": 1056, "pitch": 115, "duration": 48, "velocity": 100}, {"time": 1104, "pitch": 117, "duration": 24, "velocity": 100}, {"time": 1104, "pitch": 120, "duration": 24, "velocity": 100}, {"time": 1104, "pitch": 124, "duration": 24, "velocity": 100}, {"time": 1128, "pitch": 93, "duration": 24, "velocity": 100}, {"time": 1128, "pitch": 97, "duration": 24, "velocity": 100}, {"time": 1128, "pitch": 100, "duration": 24, "velocity": 100}, {"time": 1152, "pitch": 122, "duration": 48, "velocity": 100}, {"time": 1152, "pitch": 125, "duration": 48, "velocity": 100}, {"time": 1200, "pitch": 98, "duration": 48, "velocity": 100}, {"time": 1200, "pitch": 101, "duration": 48, "velocity": 100}, {"time": 1200, "pitch": 105, "duration": 48, "velocity": 100}, {"time": 1248, "pitch": 38, "duration": 48, "velocity": 100}, {"time": 1248, "pitch": 42, "duration": 48, "velocity": 100}, {"time": 1248, "pitch": 45, "duration": 48, "velocity": 100}, {"time": 1296, "pitch": 48, "duration": 24, "velocity": 100}, {"time": 1296, "pitch": 52, "duration": 24, "velocity": 100}, {"time": 1296, "pitch": 55, "duration": 24, "velocity": 100}, {"time": 1320, "pitch": 71, "duration": 48, "velocity": 100}, {"time": 1320, "pitch": 75, "duration": 48, "velocity": 100}, {"time": 1320, "pitch": 78, "duration": 48, "velocity": 100}, {"time": 1368, "pitch": 118, "duration": 48, "velocity": 100}, {"time": 1368, "pitch": 122, "duration": 48, "velocity": 100}, {"time": 1368, "pitch": 125, "duration": 48, "velocity": 100}, {"time": 1416, "pitch": 112, "duration": 24, "velocity": 100}, {"time": 1416, "pitch": 115, "duration": 24, "velocity": 100}, {"time": 1416, "pitch": 119, "duration": 24, "velocity": 100}, {"time": 1440, "pitch": 120, "duration": 48, "velocity": 100}, {"time": 1440, "pitch": 124, "duration": 48, "velocity": 100}, {"time": 1440, "pitch": 127, "duration": 48, "velocity": 100}, {"time": 1488, "pitch": 107, "duration": 48, "velocity": 100}, {"time": 1488, "pitch": 110, "duration": 48, "velocity": 100}, {"time": 1488, "pitch": 114, "duration": 48, "velocity": 100}]}]}