{"metadata": {"schema_version": "0.2", "title": "None", "source_filename": "baseline26.mid", "source_format": "midi"}, "resolution": 12, "tempos": [{"time": 0, "qpm": 100.0}], "tracks": [{"program": 0, "is_drum": false, "name": "track", "notes": [{"time": 0, "pitch": 57, "duration": 24, "velocity": 100}, {"time": 0, "pitch": 60, "duration": 24, "velocity": 100}, {"time": 0, "pitch": 64, "duration": 24, "velocity": 100}, {"time": 24, "pitch": 83, "duration": 48, "velocity": 100}, {"time": 24, "pitch": 87, "duration": 48, "velocity": 100}, {"time": 24, "pitch": 90, "duration": 48, "velocity": 100}, {"time": 72, "pitch": 12, "duration": 48, "velocity": 100}, {"time": 72, "pitch": 16, "duration": 48, "velocity": 100}, {"time": 72, "pitch": 19, "duration": 48, "velocity": 100}, {"time": 120, "pitch": 55, "duration": 24, "velocity": 100}, {"time": 120, "pitch": 59, "duration": 24, "velocity": 100}, {"time": 120, "pitch": 62, "duration": 24, "velocity": 100}, {"time": 144, "pitch": 48, "duration": 48, "velocity": 100}, {"time": 144, "pitch": 51, "duration": 48, "velocity": 100}, {"time": 144, "pitch": 55, "duration": 48, "velocity": 100}, {"time": 192, "pitch": 111, "duration": 48, "velocity": 100}, {"time": 192, "pitch": 114, "duration": 48, "velocity": 100}, {"time": 192, "pitch": 118, "duration": 48, "velocity": 100}, {"time": 240, "pitch": 78, "duration": 24, "velocity": 100}, {"time": 240, "pitch": 82, "duration": 24, "velocity": 100}, {"time": 240, "pitch": 85, "duration": 24, "velocity": 100}, {"time": 264, "pitch": 108, "duration": 48, "velocity": 100}, {"time": 264, "pitch": 112, "duration": 48, "velocity": 100}, {"time": 264, "pitch": 115, "duration": 48, "velocity": 100}, {"time": 312, "pitch": 81, "duration": 48, "velocity": 100}, {"time": 312, "pitch": 85, "duration": 48, "velocity": 100}, {"time": 312, "pitch": 88, "duration": 48, "velocity": 100}, {"time": 360, "pitch": 90, "duration": 48, "velocity": 100}, {"time": 360, "pitch": 94, "duration": 48, "velocity": 100}, {"time": 360, "pitch": 97, "duration": 48, "velocity": 100}, {"time": 408, "pitch": 48, "duration": 48, "velocity": 100}, {"time": 408, "pitch": 51, "duration": 48, "velocity": 100}, {"time": 408, "pitch": 55, "duration": 48, "velocity": 100}, {"time": 456, "pitch": 106, "duration": 24, "velocity": 100}, {"time": 456, "pitch": 110, "duration": 24, "velocity": 100}, {"time": 456, "pitch": 113, "duration": 24, "velocity": 100}, {"time": 480, "pitch": 113, "duration": 48, "velocity": 100}, {"time": 480, "pitch": 117, "duration": 48, "velocity": 100}, {"time": 480, "pitch": 120, "duration": 48, "velocity": 100}, {"time": 528, "pitch": 59, "duration": 24, "velocity": 100}, {"time": 528, "pitch": 62, "duration": 24, "velocity": 100}, {"time": 528, "pitch": 66, "duration": 24, "velocity": 100}, {"time": 552, "pitch": 86, "duration": 24, "velocity": 100}, {"time": 552, "pitch": 90, "duration": 24, "velocity": 100}, {"time": 552, "pitch": 93, "duration": 24, "velocity": 100}, {"time": 576, "pitch": 3, "duration": 48, "velocity": 100}, {"time": 576, "pitch": 6, "duration": 48, "velocity": 100}, {"time": 576, "pitch": 10, "duration": 48, "velocity": 100}, {"time": 624, "pitch": 64, "duration": 48, "velocity": 100}, {"time": 624, "pitch": 67, "duration": 48, "velocity": 100}, {"time": 624, "pitch": 71, "duration": 48, "velocity": 100}, {"time": 672, "pitch": 107, "duration": 24, "velocity": 100}, {"time": 672, "pitch": 111, "duration": 24, "velocity": 100}, {"time": 672, "pitch": 114, "duration": 24, "velocity": 100}, {"time": 696, "pitch": 70, "duration": 48, "velocity": 100}, {"time": 696, "pitch": 73, "duration": 48, "velocity": 100}, {"time": 696, "pitch": 77, "duration": 48, "velocity": 100}, {"time": 744, "pitch": 25, "duration": 24, "velocity": 100}, {"time": 744, "pitch": 29, "duration": 24, "velocity": 100}, {"time": 744, "pitch": 32, "duration": 24, "velocity": 100}, {"time": 768, "pitch": 2, "duration": 48, "velocity": 100}, {"time": 768, "pitch": 5, "duration": 48, "velocity": 100}, {"time": 768, "pitch": 9, "duration": 48, "velocity": 100}, {"time": 816, "pitch": 122, "duration": 24, "velocity": 100}, {"time": 816, "pitch": 126, "duration": 24, "velocity": 100}, {"time": 840, "pitch": 12, "duration": 24, "velocity": 100}, {"time": 840, "pitch": 15, "duration": 24, "velocity": 100}, {"time": 840, "pitch": 19, "duration": 24, "velocity": 100}, {"time": 864, "pitch": 110, "duration": 48, "velocity": 100}, {"time": 864, "pitch": 113, "duration": 48, "velocity": 100}, {"time": 864, "pitch": 117, "duration": 48, "velocity": 100}, {"time": 912, "pitch": 28, "duration": 24, "velocity": 100}, {"time": 912, "pitch": 31, "duration": 24, "velocity": 100}, {"time": 912, "pitch": 35, "duration": 24, "velocity": 100}, {"time": 936, "pitch": 16, "duration": 48, "velocity": 100}, {"time": 936, "pitch": 19, "duration": 48, "velocity": 100}, {"time": 936, "pitch": 23, "duration": 48, "velocity": 100}, {"time": 984, "pitch": 105, "duration": 24, "velocity": 100}, {"time": 984, "pitch": 108, "duration": 24, "velocity": 100}, {"time": 984, "pitch": 112, "duration": 24, "velocity": 100}, {"time": 1008, "pitch": 4, "duration": 24, "velocity": 100}, {"time": 1008, "pitch": 7, "duration": 24, "velocity": 100}, {"time": 1008, "pitch": 11, "duration": 24, "velocity": 100}, {"time": 1032, "pitch": 71, "duration": 48, "velocity": 100}, {"time": 1032, "pitch": 74, "duration": 48, "velocity": 100}, {"time": 1032, "pitch": 78, "duration": 48, "velocity": 100}, {"time": 1080, "pitch": 20, "duration": 48, "velocity": 100}, {"time": 1080, "pitch": 24, "duration": 48, "velocity": 100}, {"time": 1080, "pitch": 27, "duration": 48, "velocity": 100}, {"time": 1128, "pitch": 88, "duration": 48, "velocity": 100}, {"time": 1128, "pitch": 92, "duration": 48, "velocity": 100}, {"time": 1128, "pitch": 95, "duration": 48, "velocity": 100}, {"time": 1176, "pitch": 4, "duration": 24, "velocity": 100}, {"time": 1176, "pitch": 7, "duration": 24, "velocity": 100}, {"time": 1176, "pitch": 11, "duration": 24, "velocity": 100}, {"time": 1200, "pitch": 79, "duration": 48, "velocity": 100}, {"time": 1200, "pitch": 83, "duration": 48, "velocity": 100}, {"time": 1200, "pitch": 86, "duration": 48, "velocity": 100}, {"time": 1248, "pitch": 71, "duration": 24, "velocity": 100}, {"time": 1248, "pitch": 75, "duration": 24, "velocity": 100}, {"time": 1248, "pitch": 78, "duration": 24, "velocity": 100}, {"time": 1272, "pitch": 33, "duration": 48, "velocity": 100}, {"time": 1272, "pitch": 37, "duration": 48, "velocity": 100}, {"time": 1272, "pitch": 40, "duration": 48, "velocity": 100}, {"time": 1320, "pitch": 70, "duration": 48, "velocity": 100}, {"time": 1320, "pitch": 74, "duration": 48, "velocity": 100}, {"time": 1320, "pitch": 77, "duration": 48, "velocity": 100}, {"time": 1368, "pitch": 1, "duration": 48, "velocity": 100}, {"time": 1368, "pitch": 4, "duration": 48, "velocity": 100}, {"time": 1368, "pitch": 8, "duration": 48, "velocity": 100}, {"time": 1416, "pitch": 20, "duration": 48, "velocity": 100}, {"time": 1416, "pitch": 23, "duration": 48, "velocity": 100}, {"time": 1416, "pitch": 27, "duration": 48, "velocity": 100}, {"time": 1464, "pitch": 11, "duration": 24, "velocity": 100}, {"time": 1464, "pitch": 14, "duration": 24, "velocity": 100}, {"time": 1464, "pitch": 18, "duration": 24, "velocity": 100}, {"time": 1488, "pitch": 102, "duration": 24, "velocity": 100}, {"time": 1488, "pitch": 106, "duration": 24, "velocity": 100}, {"time": 1488, "pitch": 109, "duration": 24, "velocity": 100}, {"time": 1512, "pitch": 94, "duration": 24, "velocity": 100}, {"time": 1512, "pitch": 98, "duration": 24, "velocity": 100}, {"time": 1512, "pitch": 101, "duration": 24, "velocity": 100}]}]}