{"metadata": {"schema_version": "0.2", "title": "None", "source_filename": "baseline21.mid", "source_format": "midi"}, "resolution": 12, "tempos": [{"time": 0, "qpm": 100.0}], "tracks": [{"program": 0, "is_drum": false, "name": "track", "notes": [{"time": 0, "pitch": 80, "duration": 24, "velocity": 100}, {"time": 0, "pitch": 83, "duration": 24, "velocity": 100}, {"time": 0, "pitch": 87, "duration": 24, "velocity": 100}, {"time": 24, "pitch": 121, "duration": 24, "velocity": 100}, {"time": 24, "pitch": 125, "duration": 24, "velocity": 100}, {"time": 48, "pitch": 115, "duration": 48, "velocity": 100}, {"time": 48, "pitch": 118, "duration": 48, "velocity": 100}, {"time": 48, "pitch": 122, "duration": 48, "velocity": 100}, {"time": 96, "pitch": 114, "duration": 48, "velocity": 100}, {"time": 96, "pitch": 118, "duration": 48, "velocity": 100}, {"time": 96, "pitch": 121, "duration": 48, "velocity": 100}, {"time": 144, "pitch": 111, "duration": 24, "velocity": 100}, {"time": 144, "pitch": 115, "duration": 24, "velocity": 100}, {"time": 144, "pitch": 118, "duration": 24, "velocity": 100}, {"time": 168, "pitch": 14, "duration": 24, "velocity": 100}, {"time": 168, "pitch": 17, "duration": 24, "velocity": 100}, {"time": 168, "pitch": 21, "duration": 24, "velocity": 100}, {"time": 192, "pitch": 54, "duration": 48, "velocity": 100}, {"time": 192, "pitch": 58, "duration": 48, "velocity": 100}, {"time": 192, "pitch": 61, "duration": 48, "velocity": 100}, {"time": 240, "pitch": 30, "duration": 24, "velocity": 100}, {"time": 240, "pitch": 34, "duration": 24, "velocity": 100}, {"time": 240, "pitch": 37, "duration": 24, "velocity": 100}, {"time": 264, "pitch": 22, "duration": 48, "velocity": 100}, {"time": 264, "pitch": 25, "duration": 48, "velocity": 100}, {"time": 264, "pitch": 29, "duration": 48, "velocity": 100}, {"time": 312, "pitch": 54, "duration": 48, "velocity": 100}, {"time": 312, "pitch": 57, "duration": 48, "velocity": 100}, {"time": 312, "pitch": 61, "duration": 48, "velocity": 100}, {"time": 360, "pitch": 84, "duration": 48, "velocity": 100}, {"time": 360, "pitch": 87, "duration": 48, "velocity": 100}, {"time": 360, "pitch": 91, "duration": 48, "velocity": 100}, {"time": 408, "pitch": 86, "duration": 48, "velocity": 100}, {"time": 408, "pitch": 90, "duration": 48, "velocity": 100}, {"time": 408, "pitch": 93, "duration": 48, "velocity": 100}, {"time": 456, "pitch": 8, "duration": 48, "velocity": 100}, {"time": 456, "pitch": 11, "duration": 48, "velocity": 100}, {"time": 456, "pitch": 15, "duration": 48, "velocity": 100}, {"time": 504, "pitch": 103, "duration": 48, "velocity": 100}, {"time": 504, "pitch": 106, "duration": 48, "velocity": 100}, {"time": 504, "pitch": 110, "duration": 48, "velocity": 100}, {"time": 552, "pitch": 93, "duration": 48, "velocity": 100}, {"time": 552, "pitch": 96, "duration": 48, "velocity": 100}, {"time": 552, "pitch": 100, "duration": 48, "velocity": 100}, {"time": 600, "pitch": 41, "duration": 24, "velocity": 100}, {"time": 600, "pitch": 45, "duration": 24, "velocity": 100}, {"time": 600, "pitch": 48, "duration": 24, "velocity": 100}, {"time": 624, "pitch": 87, "duration": 48, "velocity": 100}, {"time": 624, "pitch": 91, "duration": 48, "velocity": 100}, {"time": 624, "pitch": 94, "duration": 48, "velocity": 100}, {"time": 672, "pitch": 30, "duration": 24, "velocity": 100}, {"time": 672, "pitch": 33, "duration": 24, "velocity": 100}, {"time": 672, "pitch": 37, "duration": 24, "velocity": 100}, {"time": 696, "pitch": 85, "duration": 48, "velocity": 100}, {"time": 696, "pitch": 88, "duration": 48, "velocity": 100}, {"time": 696, "pitch": 92, "duration": 48, "velocity": 100}, {"time": 744, "pitch": 54, "duration": 48, "velocity": 100}, {"time": 744, "pitch": 57, "duration": 48, "velocity": 100}, {"time": 744, "pitch": 61, "duration": 48, "velocity": 100}, {"time": 792, "pitch": 100, "duration": 24, "velocity": 100}, {"time": 792, "pitch": 104, "duration": 24, "velocity": 100}, {"time": 792, "pitch": 107, "duration": 24, "velocity": 100}, {"time": 816, "pitch": 72, "duration": 24, "velocity": 100}, {"time": 816, "pitch": 76, "duration": 24, "velocity": 100}, {"time": 816, "pitch": 79, "duration": 24, "velocity": 100}, {"time": 840, "pitch": 69, "duration": 48, "velocity": 100}, {"time": 840, "pitch": 72, "duration": 48, "velocity": 100}, {"time": 840, "pitch": 76, "duration": 48, "velocity": 100}, {"time": 888, "pitch": 56, "duration": 48, "velocity": 100}, {"time": 888, "pitch": 60, "duration": 48, "velocity": 100}, {"time": 888, "pitch": 63, "duration": 48, "velocity": 100}, {"time": 936, "pitch": 77, "duration": 48, "velocity": 100}, {"time": 936, "pitch": 81, "duration": 48, "velocity": 100}, {"time": 936, "pitch": 84, "duration": 48, "velocity": 100}, {"time": 984, "pitch": 101, "duration": 48, "velocity": 100}, {"time": 984, "pitch": 105, "duration": 48, "velocity": 100}, {"time": 984, "pitch": 108, "duration": 48, "velocity": 100}, {"time": 1032, "pitch": 60, "duration": 24, "velocity": 100}, {"time": 1032, "pitch": 64, "duration": 24, "velocity": 100}, {"time": 1032, "pitch": 67, "duration": 24, "velocity": 100}, {"time": 1056, "pitch": 113, "duration": 24, "velocity": 100}, {"time": 1056, "pitch": 116, "duration": 24, "velocity": 100}, {"time": 1056, "pitch": 120, "duration": 24, "velocity": 100}, {"time": 1080, "pitch": 122, "duration": 24, "velocity": 100}, {"time": 1080, "pitch": 126, "duration": 24, "velocity": 100}, {"time": 1104, "pitch": 81, "duration": 24, "velocity": 100}, {"time": 1104, "pitch": 84, "duration": 24, "velocity": 100}, {"time": 1104, "pitch": 88, "duration": 24, "velocity": 100}, {"time": 1128, "pitch": 79, "duration": 24, "velocity": 100}, {"time": 1128, "pitch": 82, "duration": 24, "velocity": 100}, {"time": 1128, "pitch": 86, "duration": 24, "velocity": 100}, {"time": 1152, "pitch": 50, "duration": 48, "velocity": 100}, {"time": 1152, "pitch": 53, "duration": 48, "velocity": 100}, {"time": 1152, "pitch": 57, "duration": 48, "velocity": 100}, {"time": 1200, "pitch": 114, "duration": 24, "velocity": 100}, {"time": 1200, "pitch": 117, "duration": 24, "velocity": 100}, {"time": 1200, "pitch": 121, "duration": 24, "velocity": 100}, {"time": 1224, "pitch": 125, "duration": 24, "velocity": 100}, {"time": 1248, "pitch": 44, "duration": 24, "velocity": 100}, {"time": 1248, "pitch": 48, "duration": 24, "velocity": 100}, {"time": 1248, "pitch": 51, "duration": 24, "velocity": 100}, {"time": 1272, "pitch": 1, "duration": 24, "velocity": 100}, {"time": 1272, "pitch": 4, "duration": 24, "velocity": 100}, {"time": 1272, "pitch": 8, "duration": 24, "velocity": 100}, {"time": 1296, "pitch": 81, "duration": 48, "velocity": 100}, {"time": 1296, "pitch": 85, "duration": 48, "velocity": 100}, {"time": 1296, "pitch": 88, "duration": 48, "velocity": 100}, {"time": 1344, "pitch": 119, "duration": 48, "velocity": 100}, {"time": 1344, "pitch": 122, "duration": 48, "velocity": 100}, {"time": 1344, "pitch": 126, "duration": 48, "velocity": 100}, {"time": 1392, "pitch": 37, "duration": 24, "velocity": 100}, {"time": 1392, "pitch": 40, "duration": 24, "velocity": 100}, {"time": 1392, "pitch": 44, "duration": 24, "velocity": 100}, {"time": 1416, "pitch": 30, "duration": 24, "velocity": 100}, {"time": 1416, "pitch": 34, "duration": 24, "velocity": 100}, {"time": 1416, "pitch": 37, "duration": 24, "velocity": 100}, {"time": 1440, "pitch": 47, "duration": 24, "velocity": 100}, {"time": 1440, "pitch": 50, "duration": 24, "velocity": 100}, {"time": 1440, "pitch": 54, "duration": 24, "velocity": 100}, {"time": 1464, "pitch": 38, "duration": 24, "velocity": 100}, {"time": 1464, "pitch": 41, "duration": 24, "velocity": 100}, {"time": 1464, "pitch": 45, "duration": 24, "velocity": 100}, {"time": 1488, "pitch": 53, "duration": 48, "velocity": 100}, {"time": 1488, "pitch": 56, "duration": 48, "velocity": 100}, {"time": 1488, "pitch": 60, "duration": 48, "velocity": 100}]}]}