{"metadata": {"schema_version": "0.2", "title": "None", "source_filename": "baseline16.mid", "source_format": "midi"}, "resolution": 12, "tempos": [{"time": 0, "qpm": 100.0}], "tracks": [{"program": 0, "is_drum": false, "name": "track", "notes": [{"time": 0, "pitch": 125, "duration": 48, "velocity": 100}, {"time": 48, "pitch": 34, "duration": 48, "velocity": 100}, {"time": 48, "pitch": 37, "duration": 48, "velocity": 100}, {"time": 48, "pitch": 41, "duration": 48, "velocity": 100}, {"time": 96, "pitch": 126, "duration": 48, "velocity": 100}, {"time": 144, "pitch": 71, "duration": 24, "velocity": 100}, {"time": 144, "pitch": 74, "duration": 24, "velocity": 100}, {"time": 144, "pitch": 78, "duration": 24, "velocity": 100}, {"time": 168, "pitch": 34, "duration": 48, "velocity": 100}, {"time": 168, "pitch": 37, "duration": 48, "velocity": 100}, {"time": 168, "pitch": 41, "duration": 48, "velocity": 100}, {"time": 216, "pitch": 33, "duration": 48, "velocity": 100}, {"time": 216, "pitch": 36, "duration": 48, "velocity": 100}, {"time": 216, "pitch": 40, "duration": 48, "velocity": 100}, {"time": 264, "pitch": 105, "duration": 24, "velocity": 100}, {"time": 264, "pitch": 108, "duration": 24, "velocity": 100}, {"time": 264, "pitch": 112, "duration": 24, "velocity": 100}, {"time": 288, "pitch": 106, "duration": 48, "velocity": 100}, {"time": 288, "pitch": 110, "duration": 48, "velocity": 100}, {"time": 288, "pitch": 113, "duration": 48, "velocity": 100}, {"time": 336, "pitch": 54, "duration": 24, "velocity": 100}, {"time": 336, "pitch": 58, "duration": 24, "velocity": 100}, {"time": 336, "pitch": 61, "duration": 24, "velocity": 100}, {"time": 360, "pitch": 89, "duration": 48, "velocity": 100}, {"time": 360, "pitch": 93, "duration": 48, "velocity": 100}, {"time": 360, "pitch": 96, "duration": 48, "velocity": 100}, {"time": 408, "pitch": 18, "duration": 48, "velocity": 100}, {"time": 408, "pitch": 22, "duration": 48, "velocity": 100}, {"time": 408, "pitch": 25, "duration": 48, "velocity": 100}, {"time": 456, "pitch": 89, "duration": 48, "velocity": 100}, {"time": 456, "pitch": 92, "duration": 48, "velocity": 100}, {"time": 456, "pitch": 96, "duration": 48, "velocity": 100}, {"time": 504, "pitch": 120, "duration": 48, "velocity": 100}, {"time": 504, "pitch": 124, "duration": 48, "velocity": 100}, {"time": 504, "pitch": 127, "duration": 48, "velocity": 100}, {"time": 552, "pitch": 29, "duration": 48, "velocity": 100}, {"time": 552, "pitch": 32, "duration": 48, "velocity": 100}, {"time": 552, "pitch": 36, "duration": 48, "velocity": 100}, {"time": 600, "pitch": 56, "duration": 24, "velocity": 100}, {"time": 600, "pitch": 59, "duration": 24, "velocity": 100}, {"time": 600, "pitch": 63, "duration": 24, "velocity": 100}, {"time": 624, "pitch": 53, "duration": 24, "velocity": 100}, {"time": 624, "pitch": 57, "duration": 24, "velocity": 100}, {"time": 624, "pitch": 60, "duration": 24, "velocity": 100}, {"time": 648, "pitch": 35, "duration": 48, "velocity": 100}, {"time": 648, "pitch": 39, "duration": 48, "velocity": 100}, {"time": 648, "pitch": 42, "duration": 48, "velocity": 100}, {"time": 696, "pitch": 93, "duration": 24, "velocity": 100}, {"time": 696, "pitch": 96, "duration": 24, "velocity": 100}, {"time": 696, "pitch": 100, "duration": 24, "velocity": 100}, {"time": 720, "pitch": 71, "duration": 48, "velocity": 100}, {"time": 720, "pitch": 75, "duration": 48, "velocity": 100}, {"time": 720, "pitch": 78, "duration": 48, "velocity": 100}, {"time": 768, "pitch": 48, "duration": 24, "velocity": 100}, {"time": 768, "pitch": 52, "duration": 24, "velocity": 100}, {"time": 768, "pitch": 55, "duration": 24, "velocity": 100}, {"time": 792, "pitch": 92, "duration": 24, "velocity": 100}, {"time": 792, "pitch": 96, "duration": 24, "velocity": 100}, {"time": 792, "pitch": 99, "duration": 24, "velocity": 100}, {"time": 816, "pitch": 52, "duration": 48, "velocity": 100}, {"time": 816, "pitch": 56, "duration": 48, "velocity": 100}, {"time": 816, "pitch": 59, "duration": 48, "velocity": 100}, {"time": 864, "pitch": 2, "duration": 48, "velocity": 100}, {"time": 864, "pitch": 6, "duration": 48, "velocity": 100}, {"time": 864, "pitch": 9, "duration": 48, "velocity": 100}, {"time": 912, "pitch": 82, "duration": 24, "velocity": 100}, {"time": 912, "pitch": 85, "duration": 24, "velocity": 100}, {"time": 912, "pitch": 89, "duration": 24, "velocity": 100}, {"time": 936, "pitch": 117, "duration": 48, "velocity": 100}, {"time": 936, "pitch": 121, "duration": 48, "velocity": 100}, {"time": 936, "pitch": 124, "duration": 48, "velocity": 100}, {"time": 984, "pitch": 78, "duration": 24, "velocity": 100}, {"time": 984, "pitch": 81, "duration": 24, "velocity": 100}, {"time": 984, "pitch": 85, "duration": 24, "velocity": 100}, {"time": 1008, "pitch": 110, "duration": 24, "velocity": 100}, {"time": 1008, "pitch": 114, "duration": 24, "velocity": 100}, {"time": 1008, "pitch": 117, "duration": 24, "velocity": 100}, {"time": 1032, "pitch": 78, "duration": 24, "velocity": 100}, {"time": 1032, "pitch": 81, "duration": 24, "velocity": 100}, {"time": 1032, "pitch": 85, "duration": 24, "velocity": 100}, {"time": 1056, "pitch": 46, "duration": 24, "velocity": 100}, {"time": 1056, "pitch": 50, "duration": 24, "velocity": 100}, {"time": 1056, "pitch": 53, "duration": 24, "velocity": 100}, {"time": 1080, "pitch": 56, "duration": 24, "velocity": 100}, {"time": 1080, "pitch": 60, "duration": 24, "velocity": 100}, {"time": 1080, "pitch": 63, "duration": 24, "velocity": 100}, {"time": 1104, "pitch": 88, "duration": 48, "velocity": 100}, {"time": 1104, "pitch": 91, "duration": 48, "velocity": 100}, {"time": 1104, "pitch": 95, "duration": 48, "velocity": 100}, {"time": 1152, "pitch": 28, "duration": 48, "velocity": 100}, {"time": 1152, "pitch": 32, "duration": 48, "velocity": 100}, {"time": 1152, "pitch": 35, "duration": 48, "velocity": 100}, {"time": 1200, "pitch": 24, "duration": 48, "velocity": 100}, {"time": 1200, "pitch": 28, "duration": 48, "velocity": 100}, {"time": 1200, "pitch": 31, "duration": 48, "velocity": 100}, {"time": 1248, "pitch": 6, "duration": 24, "velocity": 100}, {"time": 1248, "pitch": 10, "duration": 24, "velocity": 100}, {"time": 1248, "pitch": 13, "duration": 24, "velocity": 100}, {"time": 1272, "pitch": 124, "duration": 48, "velocity": 100}, {"time": 1272, "pitch": 127, "duration": 48, "velocity": 100}, {"time": 1320, "pitch": 31, "duration": 48, "velocity": 100}, {"time": 1320, "pitch": 35, "duration": 48, "velocity": 100}, {"time": 1320, "pitch": 38, "duration": 48, "velocity": 100}, {"time": 1368, "pitch": 120, "duration": 48, "velocity": 100}, {"time": 1368, "pitch": 124, "duration": 48, "velocity": 100}, {"time": 1368, "pitch": 127, "duration": 48, "velocity": 100}, {"time": 1416, "pitch": 24, "duration": 24, "velocity": 100}, {"time": 1416, "pitch": 27, "duration": 24, "velocity": 100}, {"time": 1416, "pitch": 31, "duration": 24, "velocity": 100}, {"time": 1440, "pitch": 2, "duration": 48, "velocity": 100}, {"time": 1440, "pitch": 6, "duration": 48, "velocity": 100}, {"time": 1440, "pitch": 9, "duration": 48, "velocity": 100}, {"time": 1488, "pitch": 54, "duration": 48, "velocity": 100}, {"time": 1488, "pitch": 58, "duration": 48, "velocity": 100}, {"time": 1488, "pitch": 61, "duration": 48, "velocity": 100}]}]}