{"metadata": {"schema_version": "0.2", "title": "None", "source_filename": "baseline9.mid", "source_format": "midi"}, "resolution": 12, "tempos": [{"time": 0, "qpm": 100.0}], "tracks": [{"program": 0, "is_drum": false, "name": "track", "notes": [{"time": 0, "pitch": 76, "duration": 24, "velocity": 100}, {"time": 0, "pitch": 80, "duration": 24, "velocity": 100}, {"time": 0, "pitch": 83, "duration": 24, "velocity": 100}, {"time": 24, "pitch": 12, "duration": 24, "velocity": 100}, {"time": 24, "pitch": 15, "duration": 24, "velocity": 100}, {"time": 24, "pitch": 19, "duration": 24, "velocity": 100}, {"time": 48, "pitch": 50, "duration": 48, "velocity": 100}, {"time": 48, "pitch": 54, "duration": 48, "velocity": 100}, {"time": 48, "pitch": 57, "duration": 48, "velocity": 100}, {"time": 96, "pitch": 84, "duration": 24, "velocity": 100}, {"time": 96, "pitch": 88, "duration": 24, "velocity": 100}, {"time": 96, "pitch": 91, "duration": 24, "velocity": 100}, {"time": 120, "pitch": 109, "duration": 48, "velocity": 100}, {"time": 120, "pitch": 113, "duration": 48, "velocity": 100}, {"time": 120, "pitch": 116, "duration": 48, "velocity": 100}, {"time": 168, "pitch": 32, "duration": 48, "velocity": 100}, {"time": 168, "pitch": 36, "duration": 48, "velocity": 100}, {"time": 168, "pitch": 39, "duration": 48, "velocity": 100}, {"time": 216, "pitch": 55, "duration": 48, "velocity": 100}, {"time": 216, "pitch": 59, "duration": 48, "velocity": 100}, {"time": 216, "pitch": 62, "duration": 48, "velocity": 100}, {"time": 264, "pitch": 45, "duration": 48, "velocity": 100}, {"time": 264, "pitch": 48, "duration": 48, "velocity": 100}, {"time": 264, "pitch": 52, "duration": 48, "velocity": 100}, {"time": 312, "pitch": 33, "duration": 48, "velocity": 100}, {"time": 312, "pitch": 36, "duration": 48, "velocity": 100}, {"time": 312, "pitch": 40, "duration": 48, "velocity": 100}, {"time": 360, "pitch": 11, "duration": 24, "velocity": 100}, {"time": 360, "pitch": 14, "duration": 24, "velocity": 100}, {"time": 360, "pitch": 18, "duration": 24, "velocity": 100}, {"time": 384, "pitch": 35, "duration": 48, "velocity": 100}, {"time": 384, "pitch": 38, "duration": 48, "velocity": 100}, {"time": 384, "pitch": 42, "duration": 48, "velocity": 100}, {"time": 432, "pitch": 91, "duration": 48, "velocity": 100}, {"time": 432, "pitch": 95, "duration": 48, "velocity": 100}, {"time": 432, "pitch": 98, "duration": 48, "velocity": 100}, {"time": 480, "pitch": 90, "duration": 48, "velocity": 100}, {"time": 480, "pitch": 93, "duration": 48, "velocity": 100}, {"time": 480, "pitch": 97, "duration": 48, "velocity": 100}, {"time": 528, "pitch": 89, "duration": 48, "velocity": 100}, {"time": 528, "pitch": 93, "duration": 48, "velocity": 100}, {"time": 528, "pitch": 96, "duration": 48, "velocity": 100}, {"time": 576, "pitch": 22, "duration": 48, "velocity": 100}, {"time": 576, "pitch": 26, "duration": 48, "velocity": 100}, {"time": 576, "pitch": 29, "duration": 48, "velocity": 100}, {"time": 624, "pitch": 110, "duration": 24, "velocity": 100}, {"time": 624, "pitch": 113, "duration": 24, "velocity": 100}, {"time": 624, "pitch": 117, "duration": 24, "velocity": 100}, {"time": 648, "pitch": 24, "duration": 24, "velocity": 100}, {"time": 648, "pitch": 28, "duration": 24, "velocity": 100}, {"time": 648, "pitch": 31, "duration": 24, "velocity": 100}, {"time": 672, "pitch": 110, "duration": 48, "velocity": 100}, {"time": 672, "pitch": 114, "duration": 48, "velocity": 100}, {"time": 672, "pitch": 117, "duration": 48, "velocity": 100}, {"time": 720, "pitch": 52, "duration": 24, "velocity": 100}, {"time": 720, "pitch": 55, "duration": 24, "velocity": 100}, {"time": 720, "pitch": 59, "duration": 24, "velocity": 100}, {"time": 744, "pitch": 59, "duration": 24, "velocity": 100}, {"time": 744, "pitch": 62, "duration": 24, "velocity": 100}, {"time": 744, "pitch": 66, "duration": 24, "velocity": 100}, {"time": 768, "pitch": 103, "duration": 48, "velocity": 100}, {"time": 768, "pitch": 106, "duration": 48, "velocity": 100}, {"time": 768, "pitch": 110, "duration": 48, "velocity": 100}, {"time": 816, "pitch": 34, "duration": 24, "velocity": 100}, {"time": 816, "pitch": 37, "duration": 24, "velocity": 100}, {"time": 816, "pitch": 41, "duration": 24, "velocity": 100}, {"time": 840, "pitch": 0, "duration": 24, "velocity": 100}, {"time": 840, "pitch": 3, "duration": 24, "velocity": 100}, {"time": 840, "pitch": 7, "duration": 24, "velocity": 100}, {"time": 864, "pitch": 60, "duration": 24, "velocity": 100}, {"time": 864, "pitch": 63, "duration": 24, "velocity": 100}, {"time": 864, "pitch": 67, "duration": 24, "velocity": 100}, {"time": 888, "pitch": 42, "duration": 48, "velocity": 100}, {"time": 888, "pitch": 46, "duration": 48, "velocity": 100}, {"time": 888, "pitch": 49, "duration": 48, "velocity": 100}, {"time": 936, "pitch": 28, "duration": 24, "velocity": 100}, {"time": 936, "pitch": 31, "duration": 24, "velocity": 100}, {"time": 936, "pitch": 35, "duration": 24, "velocity": 100}, {"time": 960, "pitch": 104, "duration": 48, "velocity": 100}, {"time": 960, "pitch": 107, "duration": 48, "velocity": 100}, {"time": 960, "pitch": 111, "duration": 48, "velocity": 100}, {"time": 1008, "pitch": 66, "duration": 24, "velocity": 100}, {"time": 1008, "pitch": 69, "duration": 24, "velocity": 100}, {"time": 1008, "pitch": 73, "duration": 24, "velocity": 100}, {"time": 1032, "pitch": 47, "duration": 24, "velocity": 100}, {"time": 1032, "pitch": 51, "duration": 24, "velocity": 100}, {"time": 1032, "pitch": 54, "duration": 24, "velocity": 100}, {"time": 1056, "pitch": 66, "duration": 48, "velocity": 100}, {"time": 1056, "pitch": 69, "duration": 48, "velocity": 100}, {"time": 1056, "pitch": 73, "duration": 48, "velocity": 100}, {"time": 1104, "pitch": 97, "duration": 48, "velocity": 100}, {"time": 1104, "pitch": 100, "duration": 48, "velocity": 100}, {"time": 1104, "pitch": 104, "duration": 48, "velocity": 100}, {"time": 1152, "pitch": 27, "duration": 48, "velocity": 100}, {"time": 1152, "pitch": 31, "duration": 48, "velocity": 100}, {"time": 1152, "pitch": 34, "duration": 48, "velocity": 100}, {"time": 1200, "pitch": 4, "duration": 48, "velocity": 100}, {"time": 1200, "pitch": 8, "duration": 48, "velocity": 100}, {"time": 1200, "pitch": 11, "duration": 48, "velocity": 100}, {"time": 1248, "pitch": 58, "duration": 24, "velocity": 100}, {"time": 1248, "pitch": 61, "duration": 24, "velocity": 100}, {"time": 1248, "pitch": 65, "duration": 24, "velocity": 100}, {"time": 1272, "pitch": 9, "duration": 48, "velocity": 100}, {"time": 1272, "pitch": 13, "duration": 48, "velocity": 100}, {"time": 1272, "pitch": 16, "duration": 48, "velocity": 100}, {"time": 1320, "pitch": 23, "duration": 24, "velocity": 100}, {"time": 1320, "pitch": 27, "duration": 24, "velocity": 100}, {"time": 1320, "pitch": 30, "duration": 24, "velocity": 100}, {"time": 1344, "pitch": 109, "duration": 24, "velocity": 100}, {"time": 1344, "pitch": 112, "duration": 24, "velocity": 100}, {"time": 1344, "pitch": 116, "duration": 24, "velocity": 100}, {"time": 1368, "pitch": 98, "duration": 48, "velocity": 100}, {"time": 1368, "pitch": 101, "duration": 48, "velocity": 100}, {"time": 1368, "pitch": 105, "duration": 48, "velocity": 100}, {"time": 1416, "pitch": 45, "duration": 24, "velocity": 100}, {"time": 1416, "pitch": 48, "duration": 24, "velocity": 100}, {"time": 1416, "pitch": 52, "duration": 24, "velocity": 100}, {"time": 1440, "pitch": 86, "duration": 48, "velocity": 100}, {"time": 1440, "pitch": 90, "duration": 48, "velocity": 100}, {"time": 1440, "pitch": 93, "duration": 48, "velocity": 100}, {"time": 1488, "pitch": 13, "duration": 24, "velocity": 100}, {"time": 1488, "pitch": 17, "duration": 24, "velocity": 100}, {"time": 1488, "pitch": 20, "duration": 24, "velocity": 100}, {"time": 1512, "pitch": 54, "duration": 24, "velocity": 100}, {"time": 1512, "pitch": 57, "duration": 24, "velocity": 100}, {"time": 1512, "pitch": 61, "duration": 24, "velocity": 100}]}]}