{"metadata": {"schema_version": "0.2", "title": "None", "source_filename": "baseline19.mid", "source_format": "midi"}, "resolution": 12, "tempos": [{"time": 0, "qpm": 100.0}], "tracks": [{"program": 0, "is_drum": false, "name": "track", "notes": [{"time": 0, "pitch": 65, "duration": 48, "velocity": 100}, {"time": 0, "pitch": 69, "duration": 48, "velocity": 100}, {"time": 0, "pitch": 72, "duration": 48, "velocity": 100}, {"time": 48, "pitch": 92, "duration": 48, "velocity": 100}, {"time": 48, "pitch": 96, "duration": 48, "velocity": 100}, {"time": 48, "pitch": 99, "duration": 48, "velocity": 100}, {"time": 96, "pitch": 12, "duration": 48, "velocity": 100}, {"time": 96, "pitch": 15, "duration": 48, "velocity": 100}, {"time": 96, "pitch": 19, "duration": 48, "velocity": 100}, {"time": 144, "pitch": 60, "duration": 48, "velocity": 100}, {"time": 144, "pitch": 64, "duration": 48, "velocity": 100}, {"time": 144, "pitch": 67, "duration": 48, "velocity": 100}, {"time": 192, "pitch": 82, "duration": 48, "velocity": 100}, {"time": 192, "pitch": 85, "duration": 48, "velocity": 100}, {"time": 192, "pitch": 89, "duration": 48, "velocity": 100}, {"time": 240, "pitch": 32, "duration": 48, "velocity": 100}, {"time": 240, "pitch": 35, "duration": 48, "velocity": 100}, {"time": 240, "pitch": 39, "duration": 48, "velocity": 100}, {"time": 288, "pitch": 88, "duration": 48, "velocity": 100}, {"time": 288, "pitch": 91, "duration": 48, "velocity": 100}, {"time": 288, "pitch": 95, "duration": 48, "velocity": 100}, {"time": 336, "pitch": 27, "duration": 24, "velocity": 100}, {"time": 336, "pitch": 31, "duration": 24, "velocity": 100}, {"time": 336, "pitch": 34, "duration": 24, "velocity": 100}, {"time": 360, "pitch": 107, "duration": 24, "velocity": 100}, {"time": 360, "pitch": 110, "duration": 24, "velocity": 100}, {"time": 360, "pitch": 114, "duration": 24, "velocity": 100}, {"time": 384, "pitch": 56, "duration": 24, "velocity": 100}, {"time": 384, "pitch": 59, "duration": 24, "velocity": 100}, {"time": 384, "pitch": 63, "duration": 24, "velocity": 100}, {"time": 408, "pitch": 69, "duration": 48, "velocity": 100}, {"time": 408, "pitch": 72, "duration": 48, "velocity": 100}, {"time": 408, "pitch": 76, "duration": 48, "velocity": 100}, {"time": 456, "pitch": 26, "duration": 24, "velocity": 100}, {"time": 456, "pitch": 30, "duration": 24, "velocity": 100}, {"time": 456, "pitch": 33, "duration": 24, "velocity": 100}, {"time": 480, "pitch": 5, "duration": 24, "velocity": 100}, {"time": 480, "pitch": 9, "duration": 24, "velocity": 100}, {"time": 480, "pitch": 12, "duration": 24, "velocity": 100}, {"time": 504, "pitch": 99, "duration": 24, "velocity": 100}, {"time": 504, "pitch": 103, "duration": 24, "velocity": 100}, {"time": 504, "pitch": 106, "duration": 24, "velocity": 100}, {"time": 528, "pitch": 87, "duration": 24, "velocity": 100}, {"time": 528, "pitch": 91, "duration": 24, "velocity": 100}, {"time": 528, "pitch": 94, "duration": 24, "velocity": 100}, {"time": 552, "pitch": 109, "duration": 24, "velocity": 100}, {"time": 552, "pitch": 112, "duration": 24, "velocity": 100}, {"time": 552, "pitch": 116, "duration": 24, "velocity": 100}, {"time": 576, "pitch": 9, "duration": 48, "velocity": 100}, {"time": 576, "pitch": 13, "duration": 48, "velocity": 100}, {"time": 576, "pitch": 16, "duration": 48, "velocity": 100}, {"time": 624, "pitch": 65, "duration": 48, "velocity": 100}, {"time": 624, "pitch": 68, "duration": 48, "velocity": 100}, {"time": 624, "pitch": 72, "duration": 48, "velocity": 100}, {"time": 672, "pitch": 28, "duration": 48, "velocity": 100}, {"time": 672, "pitch": 31, "duration": 48, "velocity": 100}, {"time": 672, "pitch": 35, "duration": 48, "velocity": 100}, {"time": 720, "pitch": 12, "duration": 48, "velocity": 100}, {"time": 720, "pitch": 16, "duration": 48, "velocity": 100}, {"time": 720, "pitch": 19, "duration": 48, "velocity": 100}, {"time": 768, "pitch": 103, "duration": 48, "velocity": 100}, {"time": 768, "pitch": 106, "duration": 48, "velocity": 100}, {"time": 768, "pitch": 110, "duration": 48, "velocity": 100}, {"time": 816, "pitch": 36, "duration": 48, "velocity": 100}, {"time": 816, "pitch": 39, "duration": 48, "velocity": 100}, {"time": 816, "pitch": 43, "duration": 48, "velocity": 100}, {"time": 864, "pitch": 69, "duration": 24, "velocity": 100}, {"time": 864, "pitch": 73, "duration": 24, "velocity": 100}, {"time": 864, "pitch": 76, "duration": 24, "velocity": 100}, {"time": 888, "pitch": 110, "duration": 48, "velocity": 100}, {"time": 888, "pitch": 114, "duration": 48, "velocity": 100}, {"time": 888, "pitch": 117, "duration": 48, "velocity": 100}, {"time": 936, "pitch": 116, "duration": 48, "velocity": 100}, {"time": 936, "pitch": 119, "duration": 48, "velocity": 100}, {"time": 936, "pitch": 123, "duration": 48, "velocity": 100}, {"time": 984, "pitch": 15, "duration": 24, "velocity": 100}, {"time": 984, "pitch": 18, "duration": 24, "velocity": 100}, {"time": 984, "pitch": 22, "duration": 24, "velocity": 100}, {"time": 1008, "pitch": 95, "duration": 48, "velocity": 100}, {"time": 1008, "pitch": 99, "duration": 48, "velocity": 100}, {"time": 1008, "pitch": 102, "duration": 48, "velocity": 100}, {"time": 1056, "pitch": 122, "duration": 24, "velocity": 100}, {"time": 1056, "pitch": 125, "duration": 24, "velocity": 100}, {"time": 1080, "pitch": 41, "duration": 24, "velocity": 100}, {"time": 1080, "pitch": 45, "duration": 24, "velocity": 100}, {"time": 1080, "pitch": 48, "duration": 24, "velocity": 100}, {"time": 1104, "pitch": 6, "duration": 48, "velocity": 100}, {"time": 1104, "pitch": 9, "duration": 48, "velocity": 100}, {"time": 1104, "pitch": 13, "duration": 48, "velocity": 100}, {"time": 1152, "pitch": 66, "duration": 48, "velocity": 100}, {"time": 1152, "pitch": 70, "duration": 48, "velocity": 100}, {"time": 1152, "pitch": 73, "duration": 48, "velocity": 100}, {"time": 1200, "pitch": 21, "duration": 48, "velocity": 100}, {"time": 1200, "pitch": 24, "duration": 48, "velocity": 100}, {"time": 1200, "pitch": 28, "duration": 48, "velocity": 100}, {"time": 1248, "pitch": 72, "duration": 24, "velocity": 100}, {"time": 1248, "pitch": 75, "duration": 24, "velocity": 100}, {"time": 1248, "pitch": 79, "duration": 24, "velocity": 100}, {"time": 1272, "pitch": 0, "duration": 24, "velocity": 100}, {"time": 1272, "pitch": 3, "duration": 24, "velocity": 100}, {"time": 1272, "pitch": 7, "duration": 24, "velocity": 100}, {"time": 1296, "pitch": 45, "duration": 48, "velocity": 100}, {"time": 1296, "pitch": 49, "duration": 48, "velocity": 100}, {"time": 1296, "pitch": 52, "duration": 48, "velocity": 100}, {"time": 1344, "pitch": 127, "duration": 24, "velocity": 100}, {"time": 1368, "pitch": 21, "duration": 48, "velocity": 100}, {"time": 1368, "pitch": 25, "duration": 48, "velocity": 100}, {"time": 1368, "pitch": 28, "duration": 48, "velocity": 100}, {"time": 1416, "pitch": 126, "duration": 24, "velocity": 100}, {"time": 1440, "pitch": 105, "duration": 24, "velocity": 100}, {"time": 1440, "pitch": 109, "duration": 24, "velocity": 100}, {"time": 1440, "pitch": 112, "duration": 24, "velocity": 100}, {"time": 1464, "pitch": 49, "duration": 24, "velocity": 100}, {"time": 1464, "pitch": 53, "duration": 24, "velocity": 100}, {"time": 1464, "pitch": 56, "duration": 24, "velocity": 100}, {"time": 1488, "pitch": 86, "duration": 48, "velocity": 100}, {"time": 1488, "pitch": 89, "duration": 48, "velocity": 100}, {"time": 1488, "pitch": 93, "duration": 48, "velocity": 100}]}]}