{"metadata": {"schema_version": "0.2", "title": "None", "source_filename": "baseline45.mid", "source_format": "midi"}, "resolution": 12, "tempos": [{"time": 0, "qpm": 100.0}], "tracks": [{"program": 0, "is_drum": false, "name": "track", "notes": [{"time": 0, "pitch": 25, "duration": 24, "velocity": 100}, {"time": 0, "pitch": 28, "duration": 24, "velocity": 100}, {"time": 0, "pitch": 32, "duration": 24, "velocity": 100}, {"time": 24, "pitch": 114, "duration": 24, "velocity": 100}, {"time": 24, "pitch": 117, "duration": 24, "velocity": 100}, {"time": 24, "pitch": 121, "duration": 24, "velocity": 100}, {"time": 48, "pitch": 27, "duration": 48, "velocity": 100}, {"time": 48, "pitch": 30, "duration": 48, "velocity": 100}, {"time": 48, "pitch": 34, "duration": 48, "velocity": 100}, {"time": 96, "pitch": 105, "duration": 48, "velocity": 100}, {"time": 96, "pitch": 108, "duration": 48, "velocity": 100}, {"time": 96, "pitch": 112, "duration": 48, "velocity": 100}, {"time": 144, "pitch": 71, "duration": 48, "velocity": 100}, {"time": 144, "pitch": 75, "duration": 48, "velocity": 100}, {"time": 144, "pitch": 78, "duration": 48, "velocity": 100}, {"time": 192, "pitch": 70, "duration": 48, "velocity": 100}, {"time": 192, "pitch": 74, "duration": 48, "velocity": 100}, {"time": 192, "pitch": 77, "duration": 48, "velocity": 100}, {"time": 240, "pitch": 116, "duration": 48, "velocity": 100}, {"time": 240, "pitch": 119, "duration": 48, "velocity": 100}, {"time": 240, "pitch": 123, "duration": 48, "velocity": 100}, {"time": 288, "pitch": 61, "duration": 24, "velocity": 100}, {"time": 288, "pitch": 65, "duration": 24, "velocity": 100}, {"time": 288, "pitch": 68, "duration": 24, "velocity": 100}, {"time": 312, "pitch": 95, "duration": 48, "velocity": 100}, {"time": 312, "pitch": 99, "duration": 48, "velocity": 100}, {"time": 312, "pitch": 102, "duration": 48, "velocity": 100}, {"time": 360, "pitch": 77, "duration": 24, "velocity": 100}, {"time": 360, "pitch": 80, "duration": 24, "velocity": 100}, {"time": 360, "pitch": 84, "duration": 24, "velocity": 100}, {"time": 384, "pitch": 107, "duration": 24, "velocity": 100}, {"time": 384, "pitch": 110, "duration": 24, "velocity": 100}, {"time": 384, "pitch": 114, "duration": 24, "velocity": 100}, {"time": 408, "pitch": 59, "duration": 24, "velocity": 100}, {"time": 408, "pitch": 62, "duration": 24, "velocity": 100}, {"time": 408, "pitch": 66, "duration": 24, "velocity": 100}, {"time": 432, "pitch": 124, "duration": 24, "velocity": 100}, {"time": 432, "pitch": 127, "duration": 24, "velocity": 100}, {"time": 456, "pitch": 9, "duration": 48, "velocity": 100}, {"time": 456, "pitch": 13, "duration": 48, "velocity": 100}, {"time": 456, "pitch": 16, "duration": 48, "velocity": 100}, {"time": 504, "pitch": 73, "duration": 24, "velocity": 100}, {"time": 504, "pitch": 76, "duration": 24, "velocity": 100}, {"time": 504, "pitch": 80, "duration": 24, "velocity": 100}, {"time": 528, "pitch": 78, "duration": 24, "velocity": 100}, {"time": 528, "pitch": 82, "duration": 24, "velocity": 100}, {"time": 528, "pitch": 85, "duration": 24, "velocity": 100}, {"time": 552, "pitch": 107, "duration": 48, "velocity": 100}, {"time": 552, "pitch": 110, "duration": 48, "velocity": 100}, {"time": 552, "pitch": 114, "duration": 48, "velocity": 100}, {"time": 600, "pitch": 43, "duration": 24, "velocity": 100}, {"time": 600, "pitch": 47, "duration": 24, "velocity": 100}, {"time": 600, "pitch": 50, "duration": 24, "velocity": 100}, {"time": 624, "pitch": 89, "duration": 24, "velocity": 100}, {"time": 624, "pitch": 93, "duration": 24, "velocity": 100}, {"time": 624, "pitch": 96, "duration": 24, "velocity": 100}, {"time": 648, "pitch": 82, "duration": 48, "velocity": 100}, {"time": 648, "pitch": 85, "duration": 48, "velocity": 100}, {"time": 648, "pitch": 89, "duration": 48, "velocity": 100}, {"time": 696, "pitch": 20, "duration": 48, "velocity": 100}, {"time": 696, "pitch": 24, "duration": 48, "velocity": 100}, {"time": 696, "pitch": 27, "duration": 48, "velocity": 100}, {"time": 744, "pitch": 74, "duration": 24, "velocity": 100}, {"time": 744, "pitch": 78, "duration": 24, "velocity": 100}, {"time": 744, "pitch": 81, "duration": 24, "velocity": 100}, {"time": 768, "pitch": 122, "duration": 24, "velocity": 100}, {"time": 768, "pitch": 126, "duration": 24, "velocity": 100}, {"time": 792, "pitch": 34, "duration": 24, "velocity": 100}, {"time": 792, "pitch": 37, "duration": 24, "velocity": 100}, {"time": 792, "pitch": 41, "duration": 24, "velocity": 100}, {"time": 816, "pitch": 9, "duration": 48, "velocity": 100}, {"time": 816, "pitch": 13, "duration": 48, "velocity": 100}, {"time": 816, "pitch": 16, "duration": 48, "velocity": 100}, {"time": 864, "pitch": 10, "duration": 24, "velocity": 100}, {"time": 864, "pitch": 13, "duration": 24, "velocity": 100}, {"time": 864, "pitch": 17, "duration": 24, "velocity": 100}, {"time": 888, "pitch": 52, "duration": 24, "velocity": 100}, {"time": 888, "pitch": 55, "duration": 24, "velocity": 100}, {"time": 888, "pitch": 59, "duration": 24, "velocity": 100}, {"time": 912, "pitch": 105, "duration": 48, "velocity": 100}, {"time": 912, "pitch": 109, "duration": 48, "velocity": 100}, {"time": 912, "pitch": 112, "duration": 48, "velocity": 100}, {"time": 960, "pitch": 63, "duration": 48, "velocity": 100}, {"time": 960, "pitch": 67, "duration": 48, "velocity": 100}, {"time": 960, "pitch": 70, "duration": 48, "velocity": 100}, {"time": 1008, "pitch": 106, "duration": 48, "velocity": 100}, {"time": 1008, "pitch": 110, "duration": 48, "velocity": 100}, {"time": 1008, "pitch": 113, "duration": 48, "velocity": 100}, {"time": 1056, "pitch": 37, "duration": 48, "velocity": 100}, {"time": 1056, "pitch": 40, "duration": 48, "velocity": 100}, {"time": 1056, "pitch": 44, "duration": 48, "velocity": 100}, {"time": 1104, "pitch": 7, "duration": 24, "velocity": 100}, {"time": 1104, "pitch": 11, "duration": 24, "velocity": 100}, {"time": 1104, "pitch": 14, "duration": 24, "velocity": 100}, {"time": 1128, "pitch": 104, "duration": 48, "velocity": 100}, {"time": 1128, "pitch": 107, "duration": 48, "velocity": 100}, {"time": 1128, "pitch": 111, "duration": 48, "velocity": 100}, {"time": 1176, "pitch": 43, "duration": 24, "velocity": 100}, {"time": 1176, "pitch": 46, "duration": 24, "velocity": 100}, {"time": 1176, "pitch": 50, "duration": 24, "velocity": 100}, {"time": 1200, "pitch": 28, "duration": 24, "velocity": 100}, {"time": 1200, "pitch": 32, "duration": 24, "velocity": 100}, {"time": 1200, "pitch": 35, "duration": 24, "velocity": 100}, {"time": 1224, "pitch": 22, "duration": 48, "velocity": 100}, {"time": 1224, "pitch": 26, "duration": 48, "velocity": 100}, {"time": 1224, "pitch": 29, "duration": 48, "velocity": 100}, {"time": 1272, "pitch": 120, "duration": 48, "velocity": 100}, {"time": 1272, "pitch": 123, "duration": 48, "velocity": 100}, {"time": 1272, "pitch": 127, "duration": 48, "velocity": 100}, {"time": 1320, "pitch": 121, "duration": 48, "velocity": 100}, {"time": 1320, "pitch": 124, "duration": 48, "velocity": 100}, {"time": 1368, "pitch": 56, "duration": 48, "velocity": 100}, {"time": 1368, "pitch": 60, "duration": 48, "velocity": 100}, {"time": 1368, "pitch": 63, "duration": 48, "velocity": 100}, {"time": 1416, "pitch": 74, "duration": 48, "velocity": 100}, {"time": 1416, "pitch": 78, "duration": 48, "velocity": 100}, {"time": 1416, "pitch": 81, "duration": 48, "velocity": 100}, {"time": 1464, "pitch": 7, "duration": 48, "velocity": 100}, {"time": 1464, "pitch": 11, "duration": 48, "velocity": 100}, {"time": 1464, "pitch": 14, "duration": 48, "velocity": 100}, {"time": 1512, "pitch": 9, "duration": 24, "velocity": 100}, {"time": 1512, "pitch": 13, "duration": 24, "velocity": 100}, {"time": 1512, "pitch": 16, "duration": 24, "velocity": 100}]}]}