{"metadata": {"schema_version": "0.2", "title": "None", "source_filename": "baseline5.mid", "source_format": "midi"}, "resolution": 12, "tempos": [{"time": 0, "qpm": 100.0}], "tracks": [{"program": 0, "is_drum": false, "name": "track", "notes": [{"time": 0, "pitch": 92, "duration": 48, "velocity": 100}, {"time": 0, "pitch": 96, "duration": 48, "velocity": 100}, {"time": 0, "pitch": 99, "duration": 48, "velocity": 100}, {"time": 48, "pitch": 61, "duration": 24, "velocity": 100}, {"time": 48, "pitch": 65, "duration": 24, "velocity": 100}, {"time": 48, "pitch": 68, "duration": 24, "velocity": 100}, {"time": 72, "pitch": 77, "duration": 24, "velocity": 100}, {"time": 72, "pitch": 81, "duration": 24, "velocity": 100}, {"time": 72, "pitch": 84, "duration": 24, "velocity": 100}, {"time": 96, "pitch": 17, "duration": 48, "velocity": 100}, {"time": 96, "pitch": 20, "duration": 48, "velocity": 100}, {"time": 96, "pitch": 24, "duration": 48, "velocity": 100}, {"time": 144, "pitch": 125, "duration": 24, "velocity": 100}, {"time": 168, "pitch": 25, "duration": 48, "velocity": 100}, {"time": 168, "pitch": 29, "duration": 48, "velocity": 100}, {"time": 168, "pitch": 32, "duration": 48, "velocity": 100}, {"time": 216, "pitch": 39, "duration": 48, "velocity": 100}, {"time": 216, "pitch": 43, "duration": 48, "velocity": 100}, {"time": 216, "pitch": 46, "duration": 48, "velocity": 100}, {"time": 264, "pitch": 47, "duration": 48, "velocity": 100}, {"time": 264, "pitch": 51, "duration": 48, "velocity": 100}, {"time": 264, "pitch": 54, "duration": 48, "velocity": 100}, {"time": 312, "pitch": 38, "duration": 48, "velocity": 100}, {"time": 312, "pitch": 41, "duration": 48, "velocity": 100}, {"time": 312, "pitch": 45, "duration": 48, "velocity": 100}, {"time": 360, "pitch": 93, "duration": 48, "velocity": 100}, {"time": 360, "pitch": 97, "duration": 48, "velocity": 100}, {"time": 360, "pitch": 100, "duration": 48, "velocity": 100}, {"time": 408, "pitch": 55, "duration": 24, "velocity": 100}, {"time": 408, "pitch": 58, "duration": 24, "velocity": 100}, {"time": 408, "pitch": 62, "duration": 24, "velocity": 100}, {"time": 432, "pitch": 35, "duration": 24, "velocity": 100}, {"time": 432, "pitch": 38, "duration": 24, "velocity": 100}, {"time": 432, "pitch": 42, "duration": 24, "velocity": 100}, {"time": 456, "pitch": 81, "duration": 48, "velocity": 100}, {"time": 456, "pitch": 84, "duration": 48, "velocity": 100}, {"time": 456, "pitch": 88, "duration": 48, "velocity": 100}, {"time": 504, "pitch": 5, "duration": 24, "velocity": 100}, {"time": 504, "pitch": 9, "duration": 24, "velocity": 100}, {"time": 504, "pitch": 12, "duration": 24, "velocity": 100}, {"time": 528, "pitch": 6, "duration": 24, "velocity": 100}, {"time": 528, "pitch": 9, "duration": 24, "velocity": 100}, {"time": 528, "pitch": 13, "duration": 24, "velocity": 100}, {"time": 552, "pitch": 28, "duration": 48, "velocity": 100}, {"time": 552, "pitch": 32, "duration": 48, "velocity": 100}, {"time": 552, "pitch": 35, "duration": 48, "velocity": 100}, {"time": 600, "pitch": 25, "duration": 24, "velocity": 100}, {"time": 600, "pitch": 29, "duration": 24, "velocity": 100}, {"time": 600, "pitch": 32, "duration": 24, "velocity": 100}, {"time": 624, "pitch": 42, "duration": 24, "velocity": 100}, {"time": 624, "pitch": 45, "duration": 24, "velocity": 100}, {"time": 624, "pitch": 49, "duration": 24, "velocity": 100}, {"time": 648, "pitch": 22, "duration": 24, "velocity": 100}, {"time": 648, "pitch": 25, "duration": 24, "velocity": 100}, {"time": 648, "pitch": 29, "duration": 24, "velocity": 100}, {"time": 672, "pitch": 98, "duration": 48, "velocity": 100}, {"time": 672, "pitch": 101, "duration": 48, "velocity": 100}, {"time": 672, "pitch": 105, "duration": 48, "velocity": 100}, {"time": 720, "pitch": 32, "duration": 24, "velocity": 100}, {"time": 720, "pitch": 35, "duration": 24, "velocity": 100}, {"time": 720, "pitch": 39, "duration": 24, "velocity": 100}, {"time": 744, "pitch": 36, "duration": 24, "velocity": 100}, {"time": 744, "pitch": 40, "duration": 24, "velocity": 100}, {"time": 744, "pitch": 43, "duration": 24, "velocity": 100}, {"time": 768, "pitch": 6, "duration": 24, "velocity": 100}, {"time": 768, "pitch": 9, "duration": 24, "velocity": 100}, {"time": 768, "pitch": 13, "duration": 24, "velocity": 100}, {"time": 792, "pitch": 68, "duration": 48, "velocity": 100}, {"time": 792, "pitch": 72, "duration": 48, "velocity": 100}, {"time": 792, "pitch": 75, "duration": 48, "velocity": 100}, {"time": 840, "pitch": 23, "duration": 48, "velocity": 100}, {"time": 840, "pitch": 26, "duration": 48, "velocity": 100}, {"time": 840, "pitch": 30, "duration": 48, "velocity": 100}, {"time": 888, "pitch": 86, "duration": 48, "velocity": 100}, {"time": 888, "pitch": 89, "duration": 48, "velocity": 100}, {"time": 888, "pitch": 93, "duration": 48, "velocity": 100}, {"time": 936, "pitch": 60, "duration": 24, "velocity": 100}, {"time": 936, "pitch": 63, "duration": 24, "velocity": 100}, {"time": 936, "pitch": 67, "duration": 24, "velocity": 100}, {"time": 960, "pitch": 38, "duration": 48, "velocity": 100}, {"time": 960, "pitch": 41, "duration": 48, "velocity": 100}, {"time": 960, "pitch": 45, "duration": 48, "velocity": 100}, {"time": 1008, "pitch": 95, "duration": 24, "velocity": 100}, {"time": 1008, "pitch": 99, "duration": 24, "velocity": 100}, {"time": 1008, "pitch": 102, "duration": 24, "velocity": 100}, {"time": 1032, "pitch": 15, "duration": 48, "velocity": 100}, {"time": 1032, "pitch": 18, "duration": 48, "velocity": 100}, {"time": 1032, "pitch": 22, "duration": 48, "velocity": 100}, {"time": 1080, "pitch": 108, "duration": 24, "velocity": 100}, {"time": 1080, "pitch": 111, "duration": 24, "velocity": 100}, {"time": 1080, "pitch": 115, "duration": 24, "velocity": 100}, {"time": 1104, "pitch": 115, "duration": 48, "velocity": 100}, {"time": 1104, "pitch": 119, "duration": 48, "velocity": 100}, {"time": 1104, "pitch": 122, "duration": 48, "velocity": 100}, {"time": 1152, "pitch": 106, "duration": 24, "velocity": 100}, {"time": 1152, "pitch": 109, "duration": 24, "velocity": 100}, {"time": 1152, "pitch": 113, "duration": 24, "velocity": 100}, {"time": 1176, "pitch": 23, "duration": 24, "velocity": 100}, {"time": 1176, "pitch": 27, "duration": 24, "velocity": 100}, {"time": 1176, "pitch": 30, "duration": 24, "velocity": 100}, {"time": 1200, "pitch": 116, "duration": 48, "velocity": 100}, {"time": 1200, "pitch": 120, "duration": 48, "velocity": 100}, {"time": 1200, "pitch": 123, "duration": 48, "velocity": 100}, {"time": 1248, "pitch": 33, "duration": 24, "velocity": 100}, {"time": 1248, "pitch": 37, "duration": 24, "velocity": 100}, {"time": 1248, "pitch": 40, "duration": 24, "velocity": 100}, {"time": 1272, "pitch": 74, "duration": 48, "velocity": 100}, {"time": 1272, "pitch": 77, "duration": 48, "velocity": 100}, {"time": 1272, "pitch": 81, "duration": 48, "velocity": 100}, {"time": 1320, "pitch": 29, "duration": 48, "velocity": 100}, {"time": 1320, "pitch": 33, "duration": 48, "velocity": 100}, {"time": 1320, "pitch": 36, "duration": 48, "velocity": 100}, {"time": 1368, "pitch": 111, "duration": 24, "velocity": 100}, {"time": 1368, "pitch": 115, "duration": 24, "velocity": 100}, {"time": 1368, "pitch": 118, "duration": 24, "velocity": 100}, {"time": 1392, "pitch": 86, "duration": 24, "velocity": 100}, {"time": 1392, "pitch": 89, "duration": 24, "velocity": 100}, {"time": 1392, "pitch": 93, "duration": 24, "velocity": 100}, {"time": 1416, "pitch": 11, "duration": 48, "velocity": 100}, {"time": 1416, "pitch": 15, "duration": 48, "velocity": 100}, {"time": 1416, "pitch": 18, "duration": 48, "velocity": 100}, {"time": 1464, "pitch": 112, "duration": 48, "velocity": 100}, {"time": 1464, "pitch": 115, "duration": 48, "velocity": 100}, {"time": 1464, "pitch": 119, "duration": 48, "velocity": 100}, {"time": 1512, "pitch": 17, "duration": 24, "velocity": 100}, {"time": 1512, "pitch": 21, "duration": 24, "velocity": 100}, {"time": 1512, "pitch": 24, "duration": 24, "velocity": 100}]}]}