{"metadata": {"schema_version": "0.2", "title": "None", "source_filename": "baseline1.mid", "source_format": "midi"}, "resolution": 12, "tempos": [{"time": 0, "qpm": 100.0}], "tracks": [{"program": 0, "is_drum": false, "name": "track", "notes": [{"time": 0, "pitch": 112, "duration": 24, "velocity": 100}, {"time": 0, "pitch": 115, "duration": 24, "velocity": 100}, {"time": 0, "pitch": 119, "duration": 24, "velocity": 100}, {"time": 24, "pitch": 71, "duration": 48, "velocity": 100}, {"time": 24, "pitch": 75, "duration": 48, "velocity": 100}, {"time": 24, "pitch": 78, "duration": 48, "velocity": 100}, {"time": 72, "pitch": 89, "duration": 48, "velocity": 100}, {"time": 72, "pitch": 93, "duration": 48, "velocity": 100}, {"time": 72, "pitch": 96, "duration": 48, "velocity": 100}, {"time": 120, "pitch": 82, "duration": 48, "velocity": 100}, {"time": 120, "pitch": 86, "duration": 48, "velocity": 100}, {"time": 120, "pitch": 89, "duration": 48, "velocity": 100}, {"time": 168, "pitch": 72, "duration": 24, "velocity": 100}, {"time": 168, "pitch": 76, "duration": 24, "velocity": 100}, {"time": 168, "pitch": 79, "duration": 24, "velocity": 100}, {"time": 192, "pitch": 88, "duration": 24, "velocity": 100}, {"time": 192, "pitch": 92, "duration": 24, "velocity": 100}, {"time": 192, "pitch": 95, "duration": 24, "velocity": 100}, {"time": 216, "pitch": 40, "duration": 24, "velocity": 100}, {"time": 216, "pitch": 43, "duration": 24, "velocity": 100}, {"time": 216, "pitch": 47, "duration": 24, "velocity": 100}, {"time": 240, "pitch": 126, "duration": 24, "velocity": 100}, {"time": 264, "pitch": 99, "duration": 48, "velocity": 100}, {"time": 264, "pitch": 102, "duration": 48, "velocity": 100}, {"time": 264, "pitch": 106, "duration": 48, "velocity": 100}, {"time": 312, "pitch": 3, "duration": 48, "velocity": 100}, {"time": 312, "pitch": 7, "duration": 48, "velocity": 100}, {"time": 312, "pitch": 10, "duration": 48, "velocity": 100}, {"time": 360, "pitch": 114, "duration": 48, "velocity": 100}, {"time": 360, "pitch": 117, "duration": 48, "velocity": 100}, {"time": 360, "pitch": 121, "duration": 48, "velocity": 100}, {"time": 408, "pitch": 114, "duration": 24, "velocity": 100}, {"time": 408, "pitch": 118, "duration": 24, "velocity": 100}, {"time": 408, "pitch": 121, "duration": 24, "velocity": 100}, {"time": 432, "pitch": 18, "duration": 48, "velocity": 100}, {"time": 432, "pitch": 22, "duration": 48, "velocity": 100}, {"time": 432, "pitch": 25, "duration": 48, "velocity": 100}, {"time": 480, "pitch": 101, "duration": 24, "velocity": 100}, {"time": 480, "pitch": 104, "duration": 24, "velocity": 100}, {"time": 480, "pitch": 108, "duration": 24, "velocity": 100}, {"time": 504, "pitch": 118, "duration": 48, "velocity": 100}, {"time": 504, "pitch": 122, "duration": 48, "velocity": 100}, {"time": 504, "pitch": 125, "duration": 48, "velocity": 100}, {"time": 552, "pitch": 79, "duration": 48, "velocity": 100}, {"time": 552, "pitch": 83, "duration": 48, "velocity": 100}, {"time": 552, "pitch": 86, "duration": 48, "velocity": 100}, {"time": 600, "pitch": 17, "duration": 48, "velocity": 100}, {"time": 600, "pitch": 20, "duration": 48, "velocity": 100}, {"time": 600, "pitch": 24, "duration": 48, "velocity": 100}, {"time": 648, "pitch": 86, "duration": 24, "velocity": 100}, {"time": 648, "pitch": 90, "duration": 24, "velocity": 100}, {"time": 648, "pitch": 93, "duration": 24, "velocity": 100}, {"time": 672, "pitch": 86, "duration": 48, "velocity": 100}, {"time": 672, "pitch": 90, "duration": 48, "velocity": 100}, {"time": 672, "pitch": 93, "duration": 48, "velocity": 100}, {"time": 720, "pitch": 94, "duration": 24, "velocity": 100}, {"time": 720, "pitch": 97, "duration": 24, "velocity": 100}, {"time": 720, "pitch": 101, "duration": 24, "velocity": 100}, {"time": 744, "pitch": 65, "duration": 48, "velocity": 100}, {"time": 744, "pitch": 69, "duration": 48, "velocity": 100}, {"time": 744, "pitch": 72, "duration": 48, "velocity": 100}, {"time": 792, "pitch": 57, "duration": 48, "velocity": 100}, {"time": 792, "pitch": 61, "duration": 48, "velocity": 100}, {"time": 792, "pitch": 64, "duration": 48, "velocity": 100}, {"time": 840, "pitch": 97, "duration": 48, "velocity": 100}, {"time": 840, "pitch": 100, "duration": 48, "velocity": 100}, {"time": 840, "pitch": 104, "duration": 48, "velocity": 100}, {"time": 888, "pitch": 84, "duration": 48, "velocity": 100}, {"time": 888, "pitch": 87, "duration": 48, "velocity": 100}, {"time": 888, "pitch": 91, "duration": 48, "velocity": 100}, {"time": 936, "pitch": 89, "duration": 48, "velocity": 100}, {"time": 936, "pitch": 92, "duration": 48, "velocity": 100}, {"time": 936, "pitch": 96, "duration": 48, "velocity": 100}, {"time": 984, "pitch": 116, "duration": 24, "velocity": 100}, {"time": 984, "pitch": 119, "duration": 24, "velocity": 100}, {"time": 984, "pitch": 123, "duration": 24, "velocity": 100}, {"time": 1008, "pitch": 12, "duration": 24, "velocity": 100}, {"time": 1008, "pitch": 15, "duration": 24, "velocity": 100}, {"time": 1008, "pitch": 19, "duration": 24, "velocity": 100}, {"time": 1032, "pitch": 61, "duration": 48, "velocity": 100}, {"time": 1032, "pitch": 64, "duration": 48, "velocity": 100}, {"time": 1032, "pitch": 68, "duration": 48, "velocity": 100}, {"time": 1080, "pitch": 127, "duration": 48, "velocity": 100}, {"time": 1128, "pitch": 66, "duration": 48, "velocity": 100}, {"time": 1128, "pitch": 69, "duration": 48, "velocity": 100}, {"time": 1128, "pitch": 73, "duration": 48, "velocity": 100}, {"time": 1176, "pitch": 18, "duration": 48, "velocity": 100}, {"time": 1176, "pitch": 21, "duration": 48, "velocity": 100}, {"time": 1176, "pitch": 25, "duration": 48, "velocity": 100}, {"time": 1224, "pitch": 79, "duration": 48, "velocity": 100}, {"time": 1224, "pitch": 82, "duration": 48, "velocity": 100}, {"time": 1224, "pitch": 86, "duration": 48, "velocity": 100}, {"time": 1272, "pitch": 7, "duration": 24, "velocity": 100}, {"time": 1272, "pitch": 11, "duration": 24, "velocity": 100}, {"time": 1272, "pitch": 14, "duration": 24, "velocity": 100}, {"time": 1296, "pitch": 117, "duration": 24, "velocity": 100}, {"time": 1296, "pitch": 120, "duration": 24, "velocity": 100}, {"time": 1296, "pitch": 124, "duration": 24, "velocity": 100}, {"time": 1320, "pitch": 35, "duration": 24, "velocity": 100}, {"time": 1320, "pitch": 38, "duration": 24, "velocity": 100}, {"time": 1320, "pitch": 42, "duration": 24, "velocity": 100}, {"time": 1344, "pitch": 0, "duration": 24, "velocity": 100}, {"time": 1344, "pitch": 4, "duration": 24, "velocity": 100}, {"time": 1344, "pitch": 7, "duration": 24, "velocity": 100}, {"time": 1368, "pitch": 68, "duration": 48, "velocity": 100}, {"time": 1368, "pitch": 71, "duration": 48, "velocity": 100}, {"time": 1368, "pitch": 75, "duration": 48, "velocity": 100}, {"time": 1416, "pitch": 64, "duration": 24, "velocity": 100}, {"time": 1416, "pitch": 68, "duration": 24, "velocity": 100}, {"time": 1416, "pitch": 71, "duration": 24, "velocity": 100}, {"time": 1440, "pitch": 45, "duration": 24, "velocity": 100}, {"time": 1440, "pitch": 48, "duration": 24, "velocity": 100}, {"time": 1440, "pitch": 52, "duration": 24, "velocity": 100}, {"time": 1464, "pitch": 85, "duration": 24, "velocity": 100}, {"time": 1464, "pitch": 89, "duration": 24, "velocity": 100}, {"time": 1464, "pitch": 92, "duration": 24, "velocity": 100}, {"time": 1488, "pitch": 69, "duration": 48, "velocity": 100}, {"time": 1488, "pitch": 72, "duration": 48, "velocity": 100}, {"time": 1488, "pitch": 76, "duration": 48, "velocity": 100}]}]}