{"metadata": {"schema_version": "0.2", "title": "None", "source_filename": "baseline8.mid", "source_format": "midi"}, "resolution": 12, "tempos": [{"time": 0, "qpm": 100.0}], "tracks": [{"program": 0, "is_drum": false, "name": "track", "notes": [{"time": 0, "pitch": 78, "duration": 48, "velocity": 100}, {"time": 0, "pitch": 82, "duration": 48, "velocity": 100}, {"time": 0, "pitch": 85, "duration": 48, "velocity": 100}, {"time": 48, "pitch": 8, "duration": 24, "velocity": 100}, {"time": 48, "pitch": 11, "duration": 24, "velocity": 100}, {"time": 48, "pitch": 15, "duration": 24, "velocity": 100}, {"time": 72, "pitch": 55, "duration": 24, "velocity": 100}, {"time": 72, "pitch": 58, "duration": 24, "velocity": 100}, {"time": 72, "pitch": 62, "duration": 24, "velocity": 100}, {"time": 96, "pitch": 18, "duration": 24, "velocity": 100}, {"time": 96, "pitch": 21, "duration": 24, "velocity": 100}, {"time": 96, "pitch": 25, "duration": 24, "velocity": 100}, {"time": 120, "pitch": 109, "duration": 24, "velocity": 100}, {"time": 120, "pitch": 113, "duration": 24, "velocity": 100}, {"time": 120, "pitch": 116, "duration": 24, "velocity": 100}, {"time": 144, "pitch": 114, "duration": 24, "velocity": 100}, {"time": 144, "pitch": 118, "duration": 24, "velocity": 100}, {"time": 144, "pitch": 121, "duration": 24, "velocity": 100}, {"time": 168, "pitch": 32, "duration": 48, "velocity": 100}, {"time": 168, "pitch": 35, "duration": 48, "velocity": 100}, {"time": 168, "pitch": 39, "duration": 48, "velocity": 100}, {"time": 216, "pitch": 125, "duration": 48, "velocity": 100}, {"time": 264, "pitch": 27, "duration": 24, "velocity": 100}, {"time": 264, "pitch": 31, "duration": 24, "velocity": 100}, {"time": 264, "pitch": 34, "duration": 24, "velocity": 100}, {"time": 288, "pitch": 3, "duration": 24, "velocity": 100}, {"time": 288, "pitch": 7, "duration": 24, "velocity": 100}, {"time": 288, "pitch": 10, "duration": 24, "velocity": 100}, {"time": 312, "pitch": 115, "duration": 48, "velocity": 100}, {"time": 312, "pitch": 119, "duration": 48, "velocity": 100}, {"time": 312, "pitch": 122, "duration": 48, "velocity": 100}, {"time": 360, "pitch": 48, "duration": 24, "velocity": 100}, {"time": 360, "pitch": 51, "duration": 24, "velocity": 100}, {"time": 360, "pitch": 55, "duration": 24, "velocity": 100}, {"time": 384, "pitch": 70, "duration": 48, "velocity": 100}, {"time": 384, "pitch": 74, "duration": 48, "velocity": 100}, {"time": 384, "pitch": 77, "duration": 48, "velocity": 100}, {"time": 432, "pitch": 22, "duration": 24, "velocity": 100}, {"time": 432, "pitch": 25, "duration": 24, "velocity": 100}, {"time": 432, "pitch": 29, "duration": 24, "velocity": 100}, {"time": 456, "pitch": 22, "duration": 48, "velocity": 100}, {"time": 456, "pitch": 26, "duration": 48, "velocity": 100}, {"time": 456, "pitch": 29, "duration": 48, "velocity": 100}, {"time": 504, "pitch": 65, "duration": 48, "velocity": 100}, {"time": 504, "pitch": 68, "duration": 48, "velocity": 100}, {"time": 504, "pitch": 72, "duration": 48, "velocity": 100}, {"time": 552, "pitch": 12, "duration": 48, "velocity": 100}, {"time": 552, "pitch": 15, "duration": 48, "velocity": 100}, {"time": 552, "pitch": 19, "duration": 48, "velocity": 100}, {"time": 600, "pitch": 78, "duration": 48, "velocity": 100}, {"time": 600, "pitch": 82, "duration": 48, "velocity": 100}, {"time": 600, "pitch": 85, "duration": 48, "velocity": 100}, {"time": 648, "pitch": 52, "duration": 48, "velocity": 100}, {"time": 648, "pitch": 56, "duration": 48, "velocity": 100}, {"time": 648, "pitch": 59, "duration": 48, "velocity": 100}, {"time": 696, "pitch": 123, "duration": 48, "velocity": 100}, {"time": 696, "pitch": 126, "duration": 48, "velocity": 100}, {"time": 744, "pitch": 3, "duration": 48, "velocity": 100}, {"time": 744, "pitch": 6, "duration": 48, "velocity": 100}, {"time": 744, "pitch": 10, "duration": 48, "velocity": 100}, {"time": 792, "pitch": 58, "duration": 24, "velocity": 100}, {"time": 792, "pitch": 62, "duration": 24, "velocity": 100}, {"time": 792, "pitch": 65, "duration": 24, "velocity": 100}, {"time": 816, "pitch": 3, "duration": 24, "velocity": 100}, {"time": 816, "pitch": 7, "duration": 24, "velocity": 100}, {"time": 816, "pitch": 10, "duration": 24, "velocity": 100}, {"time": 840, "pitch": 16, "duration": 48, "velocity": 100}, {"time": 840, "pitch": 19, "duration": 48, "velocity": 100}, {"time": 840, "pitch": 23, "duration": 48, "velocity": 100}, {"time": 888, "pitch": 97, "duration": 24, "velocity": 100}, {"time": 888, "pitch": 100, "duration": 24, "velocity": 100}, {"time": 888, "pitch": 104, "duration": 24, "velocity": 100}, {"time": 912, "pitch": 20, "duration": 24, "velocity": 100}, {"time": 912, "pitch": 23, "duration": 24, "velocity": 100}, {"time": 912, "pitch": 27, "duration": 24, "velocity": 100}, {"time": 936, "pitch": 105, "duration": 48, "velocity": 100}, {"time": 936, "pitch": 108, "duration": 48, "velocity": 100}, {"time": 936, "pitch": 112, "duration": 48, "velocity": 100}, {"time": 984, "pitch": 26, "duration": 24, "velocity": 100}, {"time": 984, "pitch": 29, "duration": 24, "velocity": 100}, {"time": 984, "pitch": 33, "duration": 24, "velocity": 100}, {"time": 1008, "pitch": 70, "duration": 48, "velocity": 100}, {"time": 1008, "pitch": 74, "duration": 48, "velocity": 100}, {"time": 1008, "pitch": 77, "duration": 48, "velocity": 100}, {"time": 1056, "pitch": 2, "duration": 24, "velocity": 100}, {"time": 1056, "pitch": 6, "duration": 24, "velocity": 100}, {"time": 1056, "pitch": 9, "duration": 24, "velocity": 100}, {"time": 1080, "pitch": 23, "duration": 48, "velocity": 100}, {"time": 1080, "pitch": 26, "duration": 48, "velocity": 100}, {"time": 1080, "pitch": 30, "duration": 48, "velocity": 100}, {"time": 1128, "pitch": 90, "duration": 48, "velocity": 100}, {"time": 1128, "pitch": 93, "duration": 48, "velocity": 100}, {"time": 1128, "pitch": 97, "duration": 48, "velocity": 100}, {"time": 1176, "pitch": 58, "duration": 48, "velocity": 100}, {"time": 1176, "pitch": 62, "duration": 48, "velocity": 100}, {"time": 1176, "pitch": 65, "duration": 48, "velocity": 100}, {"time": 1224, "pitch": 122, "duration": 48, "velocity": 100}, {"time": 1224, "pitch": 125, "duration": 48, "velocity": 100}, {"time": 1272, "pitch": 49, "duration": 24, "velocity": 100}, {"time": 1272, "pitch": 53, "duration": 24, "velocity": 100}, {"time": 1272, "pitch": 56, "duration": 24, "velocity": 100}, {"time": 1296, "pitch": 4, "duration": 48, "velocity": 100}, {"time": 1296, "pitch": 7, "duration": 48, "velocity": 100}, {"time": 1296, "pitch": 11, "duration": 48, "velocity": 100}, {"time": 1344, "pitch": 115, "duration": 48, "velocity": 100}, {"time": 1344, "pitch": 119, "duration": 48, "velocity": 100}, {"time": 1344, "pitch": 122, "duration": 48, "velocity": 100}, {"time": 1392, "pitch": 116, "duration": 48, "velocity": 100}, {"time": 1392, "pitch": 120, "duration": 48, "velocity": 100}, {"time": 1392, "pitch": 123, "duration": 48, "velocity": 100}, {"time": 1440, "pitch": 21, "duration": 48, "velocity": 100}, {"time": 1440, "pitch": 24, "duration": 48, "velocity": 100}, {"time": 1440, "pitch": 28, "duration": 48, "velocity": 100}, {"time": 1488, "pitch": 63, "duration": 24, "velocity": 100}, {"time": 1488, "pitch": 67, "duration": 24, "velocity": 100}, {"time": 1488, "pitch": 70, "duration": 24, "velocity": 100}, {"time": 1512, "pitch": 116, "duration": 24, "velocity": 100}, {"time": 1512, "pitch": 119, "duration": 24, "velocity": 100}, {"time": 1512, "pitch": 123, "duration": 24, "velocity": 100}]}]}