{"metadata": {"schema_version": "0.2", "title": "None", "source_filename": "baseline40.mid", "source_format": "midi"}, "resolution": 12, "tempos": [{"time": 0, "qpm": 100.0}], "tracks": [{"program": 0, "is_drum": false, "name": "track", "notes": [{"time": 0, "pitch": 98, "duration": 24, "velocity": 100}, {"time": 0, "pitch": 101, "duration": 24, "velocity": 100}, {"time": 0, "pitch": 105, "duration": 24, "velocity": 100}, {"time": 24, "pitch": 62, "duration": 24, "velocity": 100}, {"time": 24, "pitch": 66, "duration": 24, "velocity": 100}, {"time": 24, "pitch": 69, "duration": 24, "velocity": 100}, {"time": 48, "pitch": 108, "duration": 24, "velocity": 100}, {"time": 48, "pitch": 112, "duration": 24, "velocity": 100}, {"time": 48, "pitch": 115, "duration": 24, "velocity": 100}, {"time": 72, "pitch": 25, "duration": 48, "velocity": 100}, {"time": 72, "pitch": 28, "duration": 48, "velocity": 100}, {"time": 72, "pitch": 32, "duration": 48, "velocity": 100}, {"time": 120, "pitch": 46, "duration": 48, "velocity": 100}, {"time": 120, "pitch": 50, "duration": 48, "velocity": 100}, {"time": 120, "pitch": 53, "duration": 48, "velocity": 100}, {"time": 168, "pitch": 121, "duration": 48, "velocity": 100}, {"time": 168, "pitch": 124, "duration": 48, "velocity": 100}, {"time": 216, "pitch": 74, "duration": 48, "velocity": 100}, {"time": 216, "pitch": 78, "duration": 48, "velocity": 100}, {"time": 216, "pitch": 81, "duration": 48, "velocity": 100}, {"time": 264, "pitch": 16, "duration": 48, "velocity": 100}, {"time": 264, "pitch": 20, "duration": 48, "velocity": 100}, {"time": 264, "pitch": 23, "duration": 48, "velocity": 100}, {"time": 312, "pitch": 87, "duration": 24, "velocity": 100}, {"time": 312, "pitch": 90, "duration": 24, "velocity": 100}, {"time": 312, "pitch": 94, "duration": 24, "velocity": 100}, {"time": 336, "pitch": 89, "duration": 48, "velocity": 100}, {"time": 336, "pitch": 93, "duration": 48, "velocity": 100}, {"time": 336, "pitch": 96, "duration": 48, "velocity": 100}, {"time": 384, "pitch": 30, "duration": 24, "velocity": 100}, {"time": 384, "pitch": 33, "duration": 24, "velocity": 100}, {"time": 384, "pitch": 37, "duration": 24, "velocity": 100}, {"time": 408, "pitch": 80, "duration": 48, "velocity": 100}, {"time": 408, "pitch": 84, "duration": 48, "velocity": 100}, {"time": 408, "pitch": 87, "duration": 48, "velocity": 100}, {"time": 456, "pitch": 62, "duration": 24, "velocity": 100}, {"time": 456, "pitch": 65, "duration": 24, "velocity": 100}, {"time": 456, "pitch": 69, "duration": 24, "velocity": 100}, {"time": 480, "pitch": 108, "duration": 24, "velocity": 100}, {"time": 480, "pitch": 112, "duration": 24, "velocity": 100}, {"time": 480, "pitch": 115, "duration": 24, "velocity": 100}, {"time": 504, "pitch": 72, "duration": 24, "velocity": 100}, {"time": 504, "pitch": 75, "duration": 24, "velocity": 100}, {"time": 504, "pitch": 79, "duration": 24, "velocity": 100}, {"time": 528, "pitch": 83, "duration": 48, "velocity": 100}, {"time": 528, "pitch": 87, "duration": 48, "velocity": 100}, {"time": 528, "pitch": 90, "duration": 48, "velocity": 100}, {"time": 576, "pitch": 50, "duration": 48, "velocity": 100}, {"time": 576, "pitch": 54, "duration": 48, "velocity": 100}, {"time": 576, "pitch": 57, "duration": 48, "velocity": 100}, {"time": 624, "pitch": 92, "duration": 24, "velocity": 100}, {"time": 624, "pitch": 96, "duration": 24, "velocity": 100}, {"time": 624, "pitch": 99, "duration": 24, "velocity": 100}, {"time": 648, "pitch": 63, "duration": 48, "velocity": 100}, {"time": 648, "pitch": 66, "duration": 48, "velocity": 100}, {"time": 648, "pitch": 70, "duration": 48, "velocity": 100}, {"time": 696, "pitch": 13, "duration": 24, "velocity": 100}, {"time": 696, "pitch": 17, "duration": 24, "velocity": 100}, {"time": 696, "pitch": 20, "duration": 24, "velocity": 100}, {"time": 720, "pitch": 10, "duration": 24, "velocity": 100}, {"time": 720, "pitch": 13, "duration": 24, "velocity": 100}, {"time": 720, "pitch": 17, "duration": 24, "velocity": 100}, {"time": 744, "pitch": 65, "duration": 48, "velocity": 100}, {"time": 744, "pitch": 69, "duration": 48, "velocity": 100}, {"time": 744, "pitch": 72, "duration": 48, "velocity": 100}, {"time": 792, "pitch": 31, "duration": 24, "velocity": 100}, {"time": 792, "pitch": 35, "duration": 24, "velocity": 100}, {"time": 792, "pitch": 38, "duration": 24, "velocity": 100}, {"time": 816, "pitch": 36, "duration": 24, "velocity": 100}, {"time": 816, "pitch": 40, "duration": 24, "velocity": 100}, {"time": 816, "pitch": 43, "duration": 24, "velocity": 100}, {"time": 840, "pitch": 95, "duration": 48, "velocity": 100}, {"time": 840, "pitch": 99, "duration": 48, "velocity": 100}, {"time": 840, "pitch": 102, "duration": 48, "velocity": 100}, {"time": 888, "pitch": 50, "duration": 24, "velocity": 100}, {"time": 888, "pitch": 53, "duration": 24, "velocity": 100}, {"time": 888, "pitch": 57, "duration": 24, "velocity": 100}, {"time": 912, "pitch": 56, "duration": 24, "velocity": 100}, {"time": 912, "pitch": 59, "duration": 24, "velocity": 100}, {"time": 912, "pitch": 63, "duration": 24, "velocity": 100}, {"time": 936, "pitch": 92, "duration": 24, "velocity": 100}, {"time": 936, "pitch": 95, "duration": 24, "velocity": 100}, {"time": 936, "pitch": 99, "duration": 24, "velocity": 100}, {"time": 960, "pitch": 86, "duration": 48, "velocity": 100}, {"time": 960, "pitch": 89, "duration": 48, "velocity": 100}, {"time": 960, "pitch": 93, "duration": 48, "velocity": 100}, {"time": 1008, "pitch": 49, "duration": 24, "velocity": 100}, {"time": 1008, "pitch": 53, "duration": 24, "velocity": 100}, {"time": 1008, "pitch": 56, "duration": 24, "velocity": 100}, {"time": 1032, "pitch": 85, "duration": 48, "velocity": 100}, {"time": 1032, "pitch": 89, "duration": 48, "velocity": 100}, {"time": 1032, "pitch": 92, "duration": 48, "velocity": 100}, {"time": 1080, "pitch": 41, "duration": 48, "velocity": 100}, {"time": 1080, "pitch": 45, "duration": 48, "velocity": 100}, {"time": 1080, "pitch": 48, "duration": 48, "velocity": 100}, {"time": 1128, "pitch": 125, "duration": 48, "velocity": 100}, {"time": 1176, "pitch": 67, "duration": 48, "velocity": 100}, {"time": 1176, "pitch": 71, "duration": 48, "velocity": 100}, {"time": 1176, "pitch": 74, "duration": 48, "velocity": 100}, {"time": 1224, "pitch": 73, "duration": 48, "velocity": 100}, {"time": 1224, "pitch": 77, "duration": 48, "velocity": 100}, {"time": 1224, "pitch": 80, "duration": 48, "velocity": 100}, {"time": 1272, "pitch": 18, "duration": 48, "velocity": 100}, {"time": 1272, "pitch": 21, "duration": 48, "velocity": 100}, {"time": 1272, "pitch": 25, "duration": 48, "velocity": 100}, {"time": 1320, "pitch": 61, "duration": 24, "velocity": 100}, {"time": 1320, "pitch": 64, "duration": 24, "velocity": 100}, {"time": 1320, "pitch": 68, "duration": 24, "velocity": 100}, {"time": 1344, "pitch": 2, "duration": 48, "velocity": 100}, {"time": 1344, "pitch": 5, "duration": 48, "velocity": 100}, {"time": 1344, "pitch": 9, "duration": 48, "velocity": 100}, {"time": 1392, "pitch": 82, "duration": 24, "velocity": 100}, {"time": 1392, "pitch": 86, "duration": 24, "velocity": 100}, {"time": 1392, "pitch": 89, "duration": 24, "velocity": 100}, {"time": 1416, "pitch": 126, "duration": 24, "velocity": 100}, {"time": 1440, "pitch": 4, "duration": 48, "velocity": 100}, {"time": 1440, "pitch": 8, "duration": 48, "velocity": 100}, {"time": 1440, "pitch": 11, "duration": 48, "velocity": 100}, {"time": 1488, "pitch": 31, "duration": 24, "velocity": 100}, {"time": 1488, "pitch": 34, "duration": 24, "velocity": 100}, {"time": 1488, "pitch": 38, "duration": 24, "velocity": 100}, {"time": 1512, "pitch": 119, "duration": 24, "velocity": 100}, {"time": 1512, "pitch": 122, "duration": 24, "velocity": 100}, {"time": 1512, "pitch": 126, "duration": 24, "velocity": 100}]}]}