{"metadata": {"schema_version": "0.2", "title": "None", "source_filename": "baseline34.mid", "source_format": "midi"}, "resolution": 12, "tempos": [{"time": 0, "qpm": 100.0}], "tracks": [{"program": 0, "is_drum": false, "name": "track", "notes": [{"time": 0, "pitch": 116, "duration": 48, "velocity": 100}, {"time": 0, "pitch": 120, "duration": 48, "velocity": 100}, {"time": 0, "pitch": 123, "duration": 48, "velocity": 100}, {"time": 48, "pitch": 26, "duration": 24, "velocity": 100}, {"time": 48, "pitch": 30, "duration": 24, "velocity": 100}, {"time": 48, "pitch": 33, "duration": 24, "velocity": 100}, {"time": 72, "pitch": 44, "duration": 48, "velocity": 100}, {"time": 72, "pitch": 47, "duration": 48, "velocity": 100}, {"time": 72, "pitch": 51, "duration": 48, "velocity": 100}, {"time": 120, "pitch": 52, "duration": 48, "velocity": 100}, {"time": 120, "pitch": 56, "duration": 48, "velocity": 100}, {"time": 120, "pitch": 59, "duration": 48, "velocity": 100}, {"time": 168, "pitch": 5, "duration": 24, "velocity": 100}, {"time": 168, "pitch": 8, "duration": 24, "velocity": 100}, {"time": 168, "pitch": 12, "duration": 24, "velocity": 100}, {"time": 192, "pitch": 64, "duration": 24, "velocity": 100}, {"time": 192, "pitch": 68, "duration": 24, "velocity": 100}, {"time": 192, "pitch": 71, "duration": 24, "velocity": 100}, {"time": 216, "pitch": 1, "duration": 24, "velocity": 100}, {"time": 216, "pitch": 4, "duration": 24, "velocity": 100}, {"time": 216, "pitch": 8, "duration": 24, "velocity": 100}, {"time": 240, "pitch": 43, "duration": 24, "velocity": 100}, {"time": 240, "pitch": 47, "duration": 24, "velocity": 100}, {"time": 240, "pitch": 50, "duration": 24, "velocity": 100}, {"time": 264, "pitch": 92, "duration": 48, "velocity": 100}, {"time": 264, "pitch": 95, "duration": 48, "velocity": 100}, {"time": 264, "pitch": 99, "duration": 48, "velocity": 100}, {"time": 312, "pitch": 20, "duration": 48, "velocity": 100}, {"time": 312, "pitch": 23, "duration": 48, "velocity": 100}, {"time": 312, "pitch": 27, "duration": 48, "velocity": 100}, {"time": 360, "pitch": 45, "duration": 24, "velocity": 100}, {"time": 360, "pitch": 49, "duration": 24, "velocity": 100}, {"time": 360, "pitch": 52, "duration": 24, "velocity": 100}, {"time": 384, "pitch": 89, "duration": 48, "velocity": 100}, {"time": 384, "pitch": 93, "duration": 48, "velocity": 100}, {"time": 384, "pitch": 96, "duration": 48, "velocity": 100}, {"time": 432, "pitch": 50, "duration": 48, "velocity": 100}, {"time": 432, "pitch": 54, "duration": 48, "velocity": 100}, {"time": 432, "pitch": 57, "duration": 48, "velocity": 100}, {"time": 480, "pitch": 79, "duration": 24, "velocity": 100}, {"time": 480, "pitch": 83, "duration": 24, "velocity": 100}, {"time": 480, "pitch": 86, "duration": 24, "velocity": 100}, {"time": 504, "pitch": 36, "duration": 48, "velocity": 100}, {"time": 504, "pitch": 40, "duration": 48, "velocity": 100}, {"time": 504, "pitch": 43, "duration": 48, "velocity": 100}, {"time": 552, "pitch": 73, "duration": 24, "velocity": 100}, {"time": 552, "pitch": 77, "duration": 24, "velocity": 100}, {"time": 552, "pitch": 80, "duration": 24, "velocity": 100}, {"time": 576, "pitch": 25, "duration": 48, "velocity": 100}, {"time": 576, "pitch": 28, "duration": 48, "velocity": 100}, {"time": 576, "pitch": 32, "duration": 48, "velocity": 100}, {"time": 624, "pitch": 41, "duration": 24, "velocity": 100}, {"time": 624, "pitch": 45, "duration": 24, "velocity": 100}, {"time": 624, "pitch": 48, "duration": 24, "velocity": 100}, {"time": 648, "pitch": 59, "duration": 48, "velocity": 100}, {"time": 648, "pitch": 62, "duration": 48, "velocity": 100}, {"time": 648, "pitch": 66, "duration": 48, "velocity": 100}, {"time": 696, "pitch": 96, "duration": 48, "velocity": 100}, {"time": 696, "pitch": 100, "duration": 48, "velocity": 100}, {"time": 696, "pitch": 103, "duration": 48, "velocity": 100}, {"time": 744, "pitch": 116, "duration": 48, "velocity": 100}, {"time": 744, "pitch": 120, "duration": 48, "velocity": 100}, {"time": 744, "pitch": 123, "duration": 48, "velocity": 100}, {"time": 792, "pitch": 71, "duration": 24, "velocity": 100}, {"time": 792, "pitch": 75, "duration": 24, "velocity": 100}, {"time": 792, "pitch": 78, "duration": 24, "velocity": 100}, {"time": 816, "pitch": 46, "duration": 24, "velocity": 100}, {"time": 816, "pitch": 50, "duration": 24, "velocity": 100}, {"time": 816, "pitch": 53, "duration": 24, "velocity": 100}, {"time": 840, "pitch": 56, "duration": 24, "velocity": 100}, {"time": 840, "pitch": 59, "duration": 24, "velocity": 100}, {"time": 840, "pitch": 63, "duration": 24, "velocity": 100}, {"time": 864, "pitch": 53, "duration": 48, "velocity": 100}, {"time": 864, "pitch": 56, "duration": 48, "velocity": 100}, {"time": 864, "pitch": 60, "duration": 48, "velocity": 100}, {"time": 912, "pitch": 117, "duration": 24, "velocity": 100}, {"time": 912, "pitch": 120, "duration": 24, "velocity": 100}, {"time": 912, "pitch": 124, "duration": 24, "velocity": 100}, {"time": 936, "pitch": 53, "duration": 48, "velocity": 100}, {"time": 936, "pitch": 56, "duration": 48, "velocity": 100}, {"time": 936, "pitch": 60, "duration": 48, "velocity": 100}, {"time": 984, "pitch": 74, "duration": 48, "velocity": 100}, {"time": 984, "pitch": 78, "duration": 48, "velocity": 100}, {"time": 984, "pitch": 81, "duration": 48, "velocity": 100}, {"time": 1032, "pitch": 17, "duration": 24, "velocity": 100}, {"time": 1032, "pitch": 20, "duration": 24, "velocity": 100}, {"time": 1032, "pitch": 24, "duration": 24, "velocity": 100}, {"time": 1056, "pitch": 9, "duration": 48, "velocity": 100}, {"time": 1056, "pitch": 12, "duration": 48, "velocity": 100}, {"time": 1056, "pitch": 16, "duration": 48, "velocity": 100}, {"time": 1104, "pitch": 67, "duration": 24, "velocity": 100}, {"time": 1104, "pitch": 71, "duration": 24, "velocity": 100}, {"time": 1104, "pitch": 74, "duration": 24, "velocity": 100}, {"time": 1128, "pitch": 50, "duration": 24, "velocity": 100}, {"time": 1128, "pitch": 53, "duration": 24, "velocity": 100}, {"time": 1128, "pitch": 57, "duration": 24, "velocity": 100}, {"time": 1152, "pitch": 94, "duration": 48, "velocity": 100}, {"time": 1152, "pitch": 98, "duration": 48, "velocity": 100}, {"time": 1152, "pitch": 101, "duration": 48, "velocity": 100}, {"time": 1200, "pitch": 80, "duration": 48, "velocity": 100}, {"time": 1200, "pitch": 84, "duration": 48, "velocity": 100}, {"time": 1200, "pitch": 87, "duration": 48, "velocity": 100}, {"time": 1248, "pitch": 9, "duration": 24, "velocity": 100}, {"time": 1248, "pitch": 12, "duration": 24, "velocity": 100}, {"time": 1248, "pitch": 16, "duration": 24, "velocity": 100}, {"time": 1272, "pitch": 122, "duration": 48, "velocity": 100}, {"time": 1272, "pitch": 125, "duration": 48, "velocity": 100}, {"time": 1320, "pitch": 48, "duration": 48, "velocity": 100}, {"time": 1320, "pitch": 51, "duration": 48, "velocity": 100}, {"time": 1320, "pitch": 55, "duration": 48, "velocity": 100}, {"time": 1368, "pitch": 74, "duration": 48, "velocity": 100}, {"time": 1368, "pitch": 77, "duration": 48, "velocity": 100}, {"time": 1368, "pitch": 81, "duration": 48, "velocity": 100}, {"time": 1416, "pitch": 83, "duration": 24, "velocity": 100}, {"time": 1416, "pitch": 87, "duration": 24, "velocity": 100}, {"time": 1416, "pitch": 90, "duration": 24, "velocity": 100}, {"time": 1440, "pitch": 104, "duration": 48, "velocity": 100}, {"time": 1440, "pitch": 108, "duration": 48, "velocity": 100}, {"time": 1440, "pitch": 111, "duration": 48, "velocity": 100}, {"time": 1488, "pitch": 3, "duration": 48, "velocity": 100}, {"time": 1488, "pitch": 7, "duration": 48, "velocity": 100}, {"time": 1488, "pitch": 10, "duration": 48, "velocity": 100}]}]}