{"metadata": {"schema_version": "0.2", "title": "None", "source_filename": "baseline48.mid", "source_format": "midi"}, "resolution": 12, "tempos": [{"time": 0, "qpm": 100.0}], "tracks": [{"program": 0, "is_drum": false, "name": "track", "notes": [{"time": 0, "pitch": 90, "duration": 48, "velocity": 100}, {"time": 0, "pitch": 94, "duration": 48, "velocity": 100}, {"time": 0, "pitch": 97, "duration": 48, "velocity": 100}, {"time": 48, "pitch": 67, "duration": 24, "velocity": 100}, {"time": 48, "pitch": 70, "duration": 24, "velocity": 100}, {"time": 48, "pitch": 74, "duration": 24, "velocity": 100}, {"time": 72, "pitch": 118, "duration": 48, "velocity": 100}, {"time": 72, "pitch": 121, "duration": 48, "velocity": 100}, {"time": 72, "pitch": 125, "duration": 48, "velocity": 100}, {"time": 120, "pitch": 34, "duration": 48, "velocity": 100}, {"time": 120, "pitch": 38, "duration": 48, "velocity": 100}, {"time": 120, "pitch": 41, "duration": 48, "velocity": 100}, {"time": 168, "pitch": 63, "duration": 48, "velocity": 100}, {"time": 168, "pitch": 67, "duration": 48, "velocity": 100}, {"time": 168, "pitch": 70, "duration": 48, "velocity": 100}, {"time": 216, "pitch": 103, "duration": 24, "velocity": 100}, {"time": 216, "pitch": 107, "duration": 24, "velocity": 100}, {"time": 216, "pitch": 110, "duration": 24, "velocity": 100}, {"time": 240, "pitch": 85, "duration": 24, "velocity": 100}, {"time": 240, "pitch": 88, "duration": 24, "velocity": 100}, {"time": 240, "pitch": 92, "duration": 24, "velocity": 100}, {"time": 264, "pitch": 34, "duration": 24, "velocity": 100}, {"time": 264, "pitch": 37, "duration": 24, "velocity": 100}, {"time": 264, "pitch": 41, "duration": 24, "velocity": 100}, {"time": 288, "pitch": 24, "duration": 24, "velocity": 100}, {"time": 288, "pitch": 27, "duration": 24, "velocity": 100}, {"time": 288, "pitch": 31, "duration": 24, "velocity": 100}, {"time": 312, "pitch": 60, "duration": 24, "velocity": 100}, {"time": 312, "pitch": 63, "duration": 24, "velocity": 100}, {"time": 312, "pitch": 67, "duration": 24, "velocity": 100}, {"time": 336, "pitch": 1, "duration": 48, "velocity": 100}, {"time": 336, "pitch": 4, "duration": 48, "velocity": 100}, {"time": 336, "pitch": 8, "duration": 48, "velocity": 100}, {"time": 384, "pitch": 67, "duration": 24, "velocity": 100}, {"time": 384, "pitch": 70, "duration": 24, "velocity": 100}, {"time": 384, "pitch": 74, "duration": 24, "velocity": 100}, {"time": 408, "pitch": 68, "duration": 24, "velocity": 100}, {"time": 408, "pitch": 72, "duration": 24, "velocity": 100}, {"time": 408, "pitch": 75, "duration": 24, "velocity": 100}, {"time": 432, "pitch": 55, "duration": 48, "velocity": 100}, {"time": 432, "pitch": 59, "duration": 48, "velocity": 100}, {"time": 432, "pitch": 62, "duration": 48, "velocity": 100}, {"time": 480, "pitch": 122, "duration": 24, "velocity": 100}, {"time": 480, "pitch": 126, "duration": 24, "velocity": 100}, {"time": 504, "pitch": 72, "duration": 48, "velocity": 100}, {"time": 504, "pitch": 75, "duration": 48, "velocity": 100}, {"time": 504, "pitch": 79, "duration": 48, "velocity": 100}, {"time": 552, "pitch": 19, "duration": 24, "velocity": 100}, {"time": 552, "pitch": 23, "duration": 24, "velocity": 100}, {"time": 552, "pitch": 26, "duration": 24, "velocity": 100}, {"time": 576, "pitch": 89, "duration": 48, "velocity": 100}, {"time": 576, "pitch": 93, "duration": 48, "velocity": 100}, {"time": 576, "pitch": 96, "duration": 48, "velocity": 100}, {"time": 624, "pitch": 82, "duration": 48, "velocity": 100}, {"time": 624, "pitch": 86, "duration": 48, "velocity": 100}, {"time": 624, "pitch": 89, "duration": 48, "velocity": 100}, {"time": 672, "pitch": 122, "duration": 24, "velocity": 100}, {"time": 672, "pitch": 125, "duration": 24, "velocity": 100}, {"time": 696, "pitch": 127, "duration": 24, "velocity": 100}, {"time": 720, "pitch": 63, "duration": 24, "velocity": 100}, {"time": 720, "pitch": 67, "duration": 24, "velocity": 100}, {"time": 720, "pitch": 70, "duration": 24, "velocity": 100}, {"time": 744, "pitch": 38, "duration": 48, "velocity": 100}, {"time": 744, "pitch": 41, "duration": 48, "velocity": 100}, {"time": 744, "pitch": 45, "duration": 48, "velocity": 100}, {"time": 792, "pitch": 29, "duration": 48, "velocity": 100}, {"time": 792, "pitch": 32, "duration": 48, "velocity": 100}, {"time": 792, "pitch": 36, "duration": 48, "velocity": 100}, {"time": 840, "pitch": 43, "duration": 48, "velocity": 100}, {"time": 840, "pitch": 46, "duration": 48, "velocity": 100}, {"time": 840, "pitch": 50, "duration": 48, "velocity": 100}, {"time": 888, "pitch": 65, "duration": 48, "velocity": 100}, {"time": 888, "pitch": 68, "duration": 48, "velocity": 100}, {"time": 888, "pitch": 72, "duration": 48, "velocity": 100}, {"time": 936, "pitch": 62, "duration": 24, "velocity": 100}, {"time": 936, "pitch": 66, "duration": 24, "velocity": 100}, {"time": 936, "pitch": 69, "duration": 24, "velocity": 100}, {"time": 960, "pitch": 54, "duration": 48, "velocity": 100}, {"time": 960, "pitch": 58, "duration": 48, "velocity": 100}, {"time": 960, "pitch": 61, "duration": 48, "velocity": 100}, {"time": 1008, "pitch": 3, "duration": 24, "velocity": 100}, {"time": 1008, "pitch": 6, "duration": 24, "velocity": 100}, {"time": 1008, "pitch": 10, "duration": 24, "velocity": 100}, {"time": 1032, "pitch": 116, "duration": 24, "velocity": 100}, {"time": 1032, "pitch": 120, "duration": 24, "velocity": 100}, {"time": 1032, "pitch": 123, "duration": 24, "velocity": 100}, {"time": 1056, "pitch": 90, "duration": 48, "velocity": 100}, {"time": 1056, "pitch": 94, "duration": 48, "velocity": 100}, {"time": 1056, "pitch": 97, "duration": 48, "velocity": 100}, {"time": 1104, "pitch": 117, "duration": 48, "velocity": 100}, {"time": 1104, "pitch": 120, "duration": 48, "velocity": 100}, {"time": 1104, "pitch": 124, "duration": 48, "velocity": 100}, {"time": 1152, "pitch": 97, "duration": 24, "velocity": 100}, {"time": 1152, "pitch": 101, "duration": 24, "velocity": 100}, {"time": 1152, "pitch": 104, "duration": 24, "velocity": 100}, {"time": 1176, "pitch": 122, "duration": 24, "velocity": 100}, {"time": 1176, "pitch": 125, "duration": 24, "velocity": 100}, {"time": 1200, "pitch": 26, "duration": 48, "velocity": 100}, {"time": 1200, "pitch": 29, "duration": 48, "velocity": 100}, {"time": 1200, "pitch": 33, "duration": 48, "velocity": 100}, {"time": 1248, "pitch": 30, "duration": 48, "velocity": 100}, {"time": 1248, "pitch": 34, "duration": 48, "velocity": 100}, {"time": 1248, "pitch": 37, "duration": 48, "velocity": 100}, {"time": 1296, "pitch": 122, "duration": 48, "velocity": 100}, {"time": 1296, "pitch": 125, "duration": 48, "velocity": 100}, {"time": 1344, "pitch": 79, "duration": 24, "velocity": 100}, {"time": 1344, "pitch": 82, "duration": 24, "velocity": 100}, {"time": 1344, "pitch": 86, "duration": 24, "velocity": 100}, {"time": 1368, "pitch": 49, "duration": 24, "velocity": 100}, {"time": 1368, "pitch": 52, "duration": 24, "velocity": 100}, {"time": 1368, "pitch": 56, "duration": 24, "velocity": 100}, {"time": 1392, "pitch": 68, "duration": 48, "velocity": 100}, {"time": 1392, "pitch": 71, "duration": 48, "velocity": 100}, {"time": 1392, "pitch": 75, "duration": 48, "velocity": 100}, {"time": 1440, "pitch": 101, "duration": 48, "velocity": 100}, {"time": 1440, "pitch": 104, "duration": 48, "velocity": 100}, {"time": 1440, "pitch": 108, "duration": 48, "velocity": 100}, {"time": 1488, "pitch": 57, "duration": 48, "velocity": 100}, {"time": 1488, "pitch": 61, "duration": 48, "velocity": 100}, {"time": 1488, "pitch": 64, "duration": 48, "velocity": 100}]}]}