{"metadata": {"schema_version": "0.2", "title": "None", "source_filename": "baseline41.mid", "source_format": "midi"}, "resolution": 12, "tempos": [{"time": 0, "qpm": 100.0}], "tracks": [{"program": 0, "is_drum": false, "name": "track", "notes": [{"time": 0, "pitch": 26, "duration": 24, "velocity": 100}, {"time": 0, "pitch": 29, "duration": 24, "velocity": 100}, {"time": 0, "pitch": 33, "duration": 24, "velocity": 100}, {"time": 24, "pitch": 30, "duration": 24, "velocity": 100}, {"time": 24, "pitch": 34, "duration": 24, "velocity": 100}, {"time": 24, "pitch": 37, "duration": 24, "velocity": 100}, {"time": 48, "pitch": 92, "duration": 24, "velocity": 100}, {"time": 48, "pitch": 96, "duration": 24, "velocity": 100}, {"time": 48, "pitch": 99, "duration": 24, "velocity": 100}, {"time": 72, "pitch": 89, "duration": 24, "velocity": 100}, {"time": 72, "pitch": 93, "duration": 24, "velocity": 100}, {"time": 72, "pitch": 96, "duration": 24, "velocity": 100}, {"time": 96, "pitch": 26, "duration": 24, "velocity": 100}, {"time": 96, "pitch": 29, "duration": 24, "velocity": 100}, {"time": 96, "pitch": 33, "duration": 24, "velocity": 100}, {"time": 120, "pitch": 1, "duration": 24, "velocity": 100}, {"time": 120, "pitch": 4, "duration": 24, "velocity": 100}, {"time": 120, "pitch": 8, "duration": 24, "velocity": 100}, {"time": 144, "pitch": 61, "duration": 48, "velocity": 100}, {"time": 144, "pitch": 64, "duration": 48, "velocity": 100}, {"time": 144, "pitch": 68, "duration": 48, "velocity": 100}, {"time": 192, "pitch": 77, "duration": 24, "velocity": 100}, {"time": 192, "pitch": 81, "duration": 24, "velocity": 100}, {"time": 192, "pitch": 84, "duration": 24, "velocity": 100}, {"time": 216, "pitch": 31, "duration": 48, "velocity": 100}, {"time": 216, "pitch": 34, "duration": 48, "velocity": 100}, {"time": 216, "pitch": 38, "duration": 48, "velocity": 100}, {"time": 264, "pitch": 30, "duration": 24, "velocity": 100}, {"time": 264, "pitch": 33, "duration": 24, "velocity": 100}, {"time": 264, "pitch": 37, "duration": 24, "velocity": 100}, {"time": 288, "pitch": 78, "duration": 24, "velocity": 100}, {"time": 288, "pitch": 81, "duration": 24, "velocity": 100}, {"time": 288, "pitch": 85, "duration": 24, "velocity": 100}, {"time": 312, "pitch": 23, "duration": 24, "velocity": 100}, {"time": 312, "pitch": 26, "duration": 24, "velocity": 100}, {"time": 312, "pitch": 30, "duration": 24, "velocity": 100}, {"time": 336, "pitch": 92, "duration": 48, "velocity": 100}, {"time": 336, "pitch": 95, "duration": 48, "velocity": 100}, {"time": 336, "pitch": 99, "duration": 48, "velocity": 100}, {"time": 384, "pitch": 33, "duration": 48, "velocity": 100}, {"time": 384, "pitch": 36, "duration": 48, "velocity": 100}, {"time": 384, "pitch": 40, "duration": 48, "velocity": 100}, {"time": 432, "pitch": 85, "duration": 24, "velocity": 100}, {"time": 432, "pitch": 88, "duration": 24, "velocity": 100}, {"time": 432, "pitch": 92, "duration": 24, "velocity": 100}, {"time": 456, "pitch": 4, "duration": 24, "velocity": 100}, {"time": 456, "pitch": 7, "duration": 24, "velocity": 100}, {"time": 456, "pitch": 11, "duration": 24, "velocity": 100}, {"time": 480, "pitch": 121, "duration": 24, "velocity": 100}, {"time": 480, "pitch": 125, "duration": 24, "velocity": 100}, {"time": 504, "pitch": 6, "duration": 48, "velocity": 100}, {"time": 504, "pitch": 10, "duration": 48, "velocity": 100}, {"time": 504, "pitch": 13, "duration": 48, "velocity": 100}, {"time": 552, "pitch": 54, "duration": 48, "velocity": 100}, {"time": 552, "pitch": 57, "duration": 48, "velocity": 100}, {"time": 552, "pitch": 61, "duration": 48, "velocity": 100}, {"time": 600, "pitch": 104, "duration": 24, "velocity": 100}, {"time": 600, "pitch": 107, "duration": 24, "velocity": 100}, {"time": 600, "pitch": 111, "duration": 24, "velocity": 100}, {"time": 624, "pitch": 127, "duration": 48, "velocity": 100}, {"time": 672, "pitch": 87, "duration": 48, "velocity": 100}, {"time": 672, "pitch": 90, "duration": 48, "velocity": 100}, {"time": 672, "pitch": 94, "duration": 48, "velocity": 100}, {"time": 720, "pitch": 25, "duration": 48, "velocity": 100}, {"time": 720, "pitch": 28, "duration": 48, "velocity": 100}, {"time": 720, "pitch": 32, "duration": 48, "velocity": 100}, {"time": 768, "pitch": 32, "duration": 48, "velocity": 100}, {"time": 768, "pitch": 35, "duration": 48, "velocity": 100}, {"time": 768, "pitch": 39, "duration": 48, "velocity": 100}, {"time": 816, "pitch": 66, "duration": 48, "velocity": 100}, {"time": 816, "pitch": 70, "duration": 48, "velocity": 100}, {"time": 816, "pitch": 73, "duration": 48, "velocity": 100}, {"time": 864, "pitch": 31, "duration": 48, "velocity": 100}, {"time": 864, "pitch": 34, "duration": 48, "velocity": 100}, {"time": 864, "pitch": 38, "duration": 48, "velocity": 100}, {"time": 912, "pitch": 38, "duration": 24, "velocity": 100}, {"time": 912, "pitch": 41, "duration": 24, "velocity": 100}, {"time": 912, "pitch": 45, "duration": 24, "velocity": 100}, {"time": 936, "pitch": 87, "duration": 24, "velocity": 100}, {"time": 936, "pitch": 90, "duration": 24, "velocity": 100}, {"time": 936, "pitch": 94, "duration": 24, "velocity": 100}, {"time": 960, "pitch": 12, "duration": 24, "velocity": 100}, {"time": 960, "pitch": 16, "duration": 24, "velocity": 100}, {"time": 960, "pitch": 19, "duration": 24, "velocity": 100}, {"time": 984, "pitch": 11, "duration": 24, "velocity": 100}, {"time": 984, "pitch": 15, "duration": 24, "velocity": 100}, {"time": 984, "pitch": 18, "duration": 24, "velocity": 100}, {"time": 1008, "pitch": 41, "duration": 24, "velocity": 100}, {"time": 1008, "pitch": 44, "duration": 24, "velocity": 100}, {"time": 1008, "pitch": 48, "duration": 24, "velocity": 100}, {"time": 1032, "pitch": 48, "duration": 24, "velocity": 100}, {"time": 1032, "pitch": 52, "duration": 24, "velocity": 100}, {"time": 1032, "pitch": 55, "duration": 24, "velocity": 100}, {"time": 1056, "pitch": 76, "duration": 48, "velocity": 100}, {"time": 1056, "pitch": 79, "duration": 48, "velocity": 100}, {"time": 1056, "pitch": 83, "duration": 48, "velocity": 100}, {"time": 1104, "pitch": 96, "duration": 24, "velocity": 100}, {"time": 1104, "pitch": 100, "duration": 24, "velocity": 100}, {"time": 1104, "pitch": 103, "duration": 24, "velocity": 100}, {"time": 1128, "pitch": 77, "duration": 24, "velocity": 100}, {"time": 1128, "pitch": 81, "duration": 24, "velocity": 100}, {"time": 1128, "pitch": 84, "duration": 24, "velocity": 100}, {"time": 1152, "pitch": 114, "duration": 24, "velocity": 100}, {"time": 1152, "pitch": 118, "duration": 24, "velocity": 100}, {"time": 1152, "pitch": 121, "duration": 24, "velocity": 100}, {"time": 1176, "pitch": 14, "duration": 24, "velocity": 100}, {"time": 1176, "pitch": 18, "duration": 24, "velocity": 100}, {"time": 1176, "pitch": 21, "duration": 24, "velocity": 100}, {"time": 1200, "pitch": 114, "duration": 48, "velocity": 100}, {"time": 1200, "pitch": 117, "duration": 48, "velocity": 100}, {"time": 1200, "pitch": 121, "duration": 48, "velocity": 100}, {"time": 1248, "pitch": 124, "duration": 24, "velocity": 100}, {"time": 1272, "pitch": 82, "duration": 24, "velocity": 100}, {"time": 1272, "pitch": 86, "duration": 24, "velocity": 100}, {"time": 1272, "pitch": 89, "duration": 24, "velocity": 100}, {"time": 1296, "pitch": 126, "duration": 48, "velocity": 100}, {"time": 1344, "pitch": 49, "duration": 48, "velocity": 100}, {"time": 1344, "pitch": 52, "duration": 48, "velocity": 100}, {"time": 1344, "pitch": 56, "duration": 48, "velocity": 100}, {"time": 1392, "pitch": 0, "duration": 48, "velocity": 100}, {"time": 1392, "pitch": 3, "duration": 48, "velocity": 100}, {"time": 1392, "pitch": 7, "duration": 48, "velocity": 100}, {"time": 1440, "pitch": 77, "duration": 24, "velocity": 100}, {"time": 1440, "pitch": 81, "duration": 24, "velocity": 100}, {"time": 1440, "pitch": 84, "duration": 24, "velocity": 100}, {"time": 1464, "pitch": 86, "duration": 48, "velocity": 100}, {"time": 1464, "pitch": 90, "duration": 48, "velocity": 100}, {"time": 1464, "pitch": 93, "duration": 48, "velocity": 100}, {"time": 1512, "pitch": 44, "duration": 24, "velocity": 100}, {"time": 1512, "pitch": 47, "duration": 24, "velocity": 100}, {"time": 1512, "pitch": 51, "duration": 24, "velocity": 100}]}]}