{"metadata": {"schema_version": "0.2", "title": "None", "source_filename": "baseline37.mid", "source_format": "midi"}, "resolution": 12, "tempos": [{"time": 0, "qpm": 100.0}], "tracks": [{"program": 0, "is_drum": false, "name": "track", "notes": [{"time": 0, "pitch": 96, "duration": 24, "velocity": 100}, {"time": 0, "pitch": 99, "duration": 24, "velocity": 100}, {"time": 0, "pitch": 103, "duration": 24, "velocity": 100}, {"time": 24, "pitch": 110, "duration": 48, "velocity": 100}, {"time": 24, "pitch": 113, "duration": 48, "velocity": 100}, {"time": 24, "pitch": 117, "duration": 48, "velocity": 100}, {"time": 72, "pitch": 122, "duration": 24, "velocity": 100}, {"time": 72, "pitch": 125, "duration": 24, "velocity": 100}, {"time": 96, "pitch": 31, "duration": 48, "velocity": 100}, {"time": 96, "pitch": 35, "duration": 48, "velocity": 100}, {"time": 96, "pitch": 38, "duration": 48, "velocity": 100}, {"time": 144, "pitch": 98, "duration": 48, "velocity": 100}, {"time": 144, "pitch": 101, "duration": 48, "velocity": 100}, {"time": 144, "pitch": 105, "duration": 48, "velocity": 100}, {"time": 192, "pitch": 92, "duration": 48, "velocity": 100}, {"time": 192, "pitch": 96, "duration": 48, "velocity": 100}, {"time": 192, "pitch": 99, "duration": 48, "velocity": 100}, {"time": 240, "pitch": 118, "duration": 24, "velocity": 100}, {"time": 240, "pitch": 122, "duration": 24, "velocity": 100}, {"time": 240, "pitch": 125, "duration": 24, "velocity": 100}, {"time": 264, "pitch": 15, "duration": 24, "velocity": 100}, {"time": 264, "pitch": 18, "duration": 24, "velocity": 100}, {"time": 264, "pitch": 22, "duration": 24, "velocity": 100}, {"time": 288, "pitch": 36, "duration": 48, "velocity": 100}, {"time": 288, "pitch": 39, "duration": 48, "velocity": 100}, {"time": 288, "pitch": 43, "duration": 48, "velocity": 100}, {"time": 336, "pitch": 75, "duration": 24, "velocity": 100}, {"time": 336, "pitch": 78, "duration": 24, "velocity": 100}, {"time": 336, "pitch": 82, "duration": 24, "velocity": 100}, {"time": 360, "pitch": 103, "duration": 48, "velocity": 100}, {"time": 360, "pitch": 107, "duration": 48, "velocity": 100}, {"time": 360, "pitch": 110, "duration": 48, "velocity": 100}, {"time": 408, "pitch": 60, "duration": 48, "velocity": 100}, {"time": 408, "pitch": 64, "duration": 48, "velocity": 100}, {"time": 408, "pitch": 67, "duration": 48, "velocity": 100}, {"time": 456, "pitch": 51, "duration": 24, "velocity": 100}, {"time": 456, "pitch": 54, "duration": 24, "velocity": 100}, {"time": 456, "pitch": 58, "duration": 24, "velocity": 100}, {"time": 480, "pitch": 117, "duration": 48, "velocity": 100}, {"time": 480, "pitch": 120, "duration": 48, "velocity": 100}, {"time": 480, "pitch": 124, "duration": 48, "velocity": 100}, {"time": 528, "pitch": 109, "duration": 24, "velocity": 100}, {"time": 528, "pitch": 113, "duration": 24, "velocity": 100}, {"time": 528, "pitch": 116, "duration": 24, "velocity": 100}, {"time": 552, "pitch": 97, "duration": 48, "velocity": 100}, {"time": 552, "pitch": 100, "duration": 48, "velocity": 100}, {"time": 552, "pitch": 104, "duration": 48, "velocity": 100}, {"time": 600, "pitch": 105, "duration": 48, "velocity": 100}, {"time": 600, "pitch": 108, "duration": 48, "velocity": 100}, {"time": 600, "pitch": 112, "duration": 48, "velocity": 100}, {"time": 648, "pitch": 62, "duration": 24, "velocity": 100}, {"time": 648, "pitch": 66, "duration": 24, "velocity": 100}, {"time": 648, "pitch": 69, "duration": 24, "velocity": 100}, {"time": 672, "pitch": 75, "duration": 48, "velocity": 100}, {"time": 672, "pitch": 79, "duration": 48, "velocity": 100}, {"time": 672, "pitch": 82, "duration": 48, "velocity": 100}, {"time": 720, "pitch": 82, "duration": 24, "velocity": 100}, {"time": 720, "pitch": 85, "duration": 24, "velocity": 100}, {"time": 720, "pitch": 89, "duration": 24, "velocity": 100}, {"time": 744, "pitch": 12, "duration": 24, "velocity": 100}, {"time": 744, "pitch": 16, "duration": 24, "velocity": 100}, {"time": 744, "pitch": 19, "duration": 24, "velocity": 100}, {"time": 768, "pitch": 72, "duration": 48, "velocity": 100}, {"time": 768, "pitch": 75, "duration": 48, "velocity": 100}, {"time": 768, "pitch": 79, "duration": 48, "velocity": 100}, {"time": 816, "pitch": 85, "duration": 48, "velocity": 100}, {"time": 816, "pitch": 88, "duration": 48, "velocity": 100}, {"time": 816, "pitch": 92, "duration": 48, "velocity": 100}, {"time": 864, "pitch": 49, "duration": 24, "velocity": 100}, {"time": 864, "pitch": 52, "duration": 24, "velocity": 100}, {"time": 864, "pitch": 56, "duration": 24, "velocity": 100}, {"time": 888, "pitch": 59, "duration": 24, "velocity": 100}, {"time": 888, "pitch": 62, "duration": 24, "velocity": 100}, {"time": 888, "pitch": 66, "duration": 24, "velocity": 100}, {"time": 912, "pitch": 52, "duration": 24, "velocity": 100}, {"time": 912, "pitch": 55, "duration": 24, "velocity": 100}, {"time": 912, "pitch": 59, "duration": 24, "velocity": 100}, {"time": 936, "pitch": 75, "duration": 24, "velocity": 100}, {"time": 936, "pitch": 79, "duration": 24, "velocity": 100}, {"time": 936, "pitch": 82, "duration": 24, "velocity": 100}, {"time": 960, "pitch": 99, "duration": 48, "velocity": 100}, {"time": 960, "pitch": 102, "duration": 48, "velocity": 100}, {"time": 960, "pitch": 106, "duration": 48, "velocity": 100}, {"time": 1008, "pitch": 21, "duration": 24, "velocity": 100}, {"time": 1008, "pitch": 24, "duration": 24, "velocity": 100}, {"time": 1008, "pitch": 28, "duration": 24, "velocity": 100}, {"time": 1032, "pitch": 111, "duration": 48, "velocity": 100}, {"time": 1032, "pitch": 115, "duration": 48, "velocity": 100}, {"time": 1032, "pitch": 118, "duration": 48, "velocity": 100}, {"time": 1080, "pitch": 44, "duration": 24, "velocity": 100}, {"time": 1080, "pitch": 48, "duration": 24, "velocity": 100}, {"time": 1080, "pitch": 51, "duration": 24, "velocity": 100}, {"time": 1104, "pitch": 99, "duration": 24, "velocity": 100}, {"time": 1104, "pitch": 103, "duration": 24, "velocity": 100}, {"time": 1104, "pitch": 106, "duration": 24, "velocity": 100}, {"time": 1128, "pitch": 2, "duration": 24, "velocity": 100}, {"time": 1128, "pitch": 6, "duration": 24, "velocity": 100}, {"time": 1128, "pitch": 9, "duration": 24, "velocity": 100}, {"time": 1152, "pitch": 61, "duration": 48, "velocity": 100}, {"time": 1152, "pitch": 64, "duration": 48, "velocity": 100}, {"time": 1152, "pitch": 68, "duration": 48, "velocity": 100}, {"time": 1200, "pitch": 105, "duration": 48, "velocity": 100}, {"time": 1200, "pitch": 109, "duration": 48, "velocity": 100}, {"time": 1200, "pitch": 112, "duration": 48, "velocity": 100}, {"time": 1248, "pitch": 110, "duration": 48, "velocity": 100}, {"time": 1248, "pitch": 114, "duration": 48, "velocity": 100}, {"time": 1248, "pitch": 117, "duration": 48, "velocity": 100}, {"time": 1296, "pitch": 34, "duration": 24, "velocity": 100}, {"time": 1296, "pitch": 38, "duration": 24, "velocity": 100}, {"time": 1296, "pitch": 41, "duration": 24, "velocity": 100}, {"time": 1320, "pitch": 49, "duration": 24, "velocity": 100}, {"time": 1320, "pitch": 52, "duration": 24, "velocity": 100}, {"time": 1320, "pitch": 56, "duration": 24, "velocity": 100}, {"time": 1344, "pitch": 57, "duration": 24, "velocity": 100}, {"time": 1344, "pitch": 61, "duration": 24, "velocity": 100}, {"time": 1344, "pitch": 64, "duration": 24, "velocity": 100}, {"time": 1368, "pitch": 114, "duration": 24, "velocity": 100}, {"time": 1368, "pitch": 117, "duration": 24, "velocity": 100}, {"time": 1368, "pitch": 121, "duration": 24, "velocity": 100}, {"time": 1392, "pitch": 1, "duration": 48, "velocity": 100}, {"time": 1392, "pitch": 4, "duration": 48, "velocity": 100}, {"time": 1392, "pitch": 8, "duration": 48, "velocity": 100}, {"time": 1440, "pitch": 13, "duration": 48, "velocity": 100}, {"time": 1440, "pitch": 16, "duration": 48, "velocity": 100}, {"time": 1440, "pitch": 20, "duration": 48, "velocity": 100}, {"time": 1488, "pitch": 121, "duration": 48, "velocity": 100}, {"time": 1488, "pitch": 124, "duration": 48, "velocity": 100}]}]}