{"metadata": {"schema_version": "0.2", "title": "None", "source_filename": "baseline0.mid", "source_format": "midi"}, "resolution": 12, "tempos": [{"time": 0, "qpm": 100.0}], "tracks": [{"program": 0, "is_drum": false, "name": "track", "notes": [{"time": 0, "pitch": 5, "duration": 48, "velocity": 100}, {"time": 0, "pitch": 8, "duration": 48, "velocity": 100}, {"time": 0, "pitch": 12, "duration": 48, "velocity": 100}, {"time": 48, "pitch": 17, "duration": 48, "velocity": 100}, {"time": 48, "pitch": 20, "duration": 48, "velocity": 100}, {"time": 48, "pitch": 24, "duration": 48, "velocity": 100}, {"time": 96, "pitch": 100, "duration": 48, "velocity": 100}, {"time": 96, "pitch": 103, "duration": 48, "velocity": 100}, {"time": 96, "pitch": 107, "duration": 48, "velocity": 100}, {"time": 144, "pitch": 65, "duration": 24, "velocity": 100}, {"time": 144, "pitch": 68, "duration": 24, "velocity": 100}, {"time": 144, "pitch": 72, "duration": 24, "velocity": 100}, {"time": 168, "pitch": 50, "duration": 48, "velocity": 100}, {"time": 168, "pitch": 53, "duration": 48, "velocity": 100}, {"time": 168, "pitch": 57, "duration": 48, "velocity": 100}, {"time": 216, "pitch": 3, "duration": 24, "velocity": 100}, {"time": 216, "pitch": 6, "duration": 24, "velocity": 100}, {"time": 216, "pitch": 10, "duration": 24, "velocity": 100}, {"time": 240, "pitch": 117, "duration": 24, "velocity": 100}, {"time": 240, "pitch": 120, "duration": 24, "velocity": 100}, {"time": 240, "pitch": 124, "duration": 24, "velocity": 100}, {"time": 264, "pitch": 48, "duration": 24, "velocity": 100}, {"time": 264, "pitch": 51, "duration": 24, "velocity": 100}, {"time": 264, "pitch": 55, "duration": 24, "velocity": 100}, {"time": 288, "pitch": 13, "duration": 24, "velocity": 100}, {"time": 288, "pitch": 17, "duration": 24, "velocity": 100}, {"time": 288, "pitch": 20, "duration": 24, "velocity": 100}, {"time": 312, "pitch": 96, "duration": 48, "velocity": 100}, {"time": 312, "pitch": 99, "duration": 48, "velocity": 100}, {"time": 312, "pitch": 103, "duration": 48, "velocity": 100}, {"time": 360, "pitch": 80, "duration": 48, "velocity": 100}, {"time": 360, "pitch": 84, "duration": 48, "velocity": 100}, {"time": 360, "pitch": 87, "duration": 48, "velocity": 100}, {"time": 408, "pitch": 6, "duration": 48, "velocity": 100}, {"time": 408, "pitch": 9, "duration": 48, "velocity": 100}, {"time": 408, "pitch": 13, "duration": 48, "velocity": 100}, {"time": 456, "pitch": 21, "duration": 24, "velocity": 100}, {"time": 456, "pitch": 25, "duration": 24, "velocity": 100}, {"time": 456, "pitch": 28, "duration": 24, "velocity": 100}, {"time": 480, "pitch": 85, "duration": 24, "velocity": 100}, {"time": 480, "pitch": 89, "duration": 24, "velocity": 100}, {"time": 480, "pitch": 92, "duration": 24, "velocity": 100}, {"time": 504, "pitch": 9, "duration": 48, "velocity": 100}, {"time": 504, "pitch": 13, "duration": 48, "velocity": 100}, {"time": 504, "pitch": 16, "duration": 48, "velocity": 100}, {"time": 552, "pitch": 88, "duration": 48, "velocity": 100}, {"time": 552, "pitch": 91, "duration": 48, "velocity": 100}, {"time": 552, "pitch": 95, "duration": 48, "velocity": 100}, {"time": 600, "pitch": 21, "duration": 48, "velocity": 100}, {"time": 600, "pitch": 24, "duration": 48, "velocity": 100}, {"time": 600, "pitch": 28, "duration": 48, "velocity": 100}, {"time": 648, "pitch": 51, "duration": 24, "velocity": 100}, {"time": 648, "pitch": 55, "duration": 24, "velocity": 100}, {"time": 648, "pitch": 58, "duration": 24, "velocity": 100}, {"time": 672, "pitch": 85, "duration": 24, "velocity": 100}, {"time": 672, "pitch": 89, "duration": 24, "velocity": 100}, {"time": 672, "pitch": 92, "duration": 24, "velocity": 100}, {"time": 696, "pitch": 115, "duration": 48, "velocity": 100}, {"time": 696, "pitch": 118, "duration": 48, "velocity": 100}, {"time": 696, "pitch": 122, "duration": 48, "velocity": 100}, {"time": 744, "pitch": 110, "duration": 48, "velocity": 100}, {"time": 744, "pitch": 113, "duration": 48, "velocity": 100}, {"time": 744, "pitch": 117, "duration": 48, "velocity": 100}, {"time": 792, "pitch": 79, "duration": 24, "velocity": 100}, {"time": 792, "pitch": 83, "duration": 24, "velocity": 100}, {"time": 792, "pitch": 86, "duration": 24, "velocity": 100}, {"time": 816, "pitch": 116, "duration": 24, "velocity": 100}, {"time": 816, "pitch": 119, "duration": 24, "velocity": 100}, {"time": 816, "pitch": 123, "duration": 24, "velocity": 100}, {"time": 840, "pitch": 89, "duration": 24, "velocity": 100}, {"time": 840, "pitch": 93, "duration": 24, "velocity": 100}, {"time": 840, "pitch": 96, "duration": 24, "velocity": 100}, {"time": 864, "pitch": 45, "duration": 24, "velocity": 100}, {"time": 864, "pitch": 48, "duration": 24, "velocity": 100}, {"time": 864, "pitch": 52, "duration": 24, "velocity": 100}, {"time": 888, "pitch": 125, "duration": 48, "velocity": 100}, {"time": 936, "pitch": 92, "duration": 48, "velocity": 100}, {"time": 936, "pitch": 95, "duration": 48, "velocity": 100}, {"time": 936, "pitch": 99, "duration": 48, "velocity": 100}, {"time": 984, "pitch": 38, "duration": 48, "velocity": 100}, {"time": 984, "pitch": 41, "duration": 48, "velocity": 100}, {"time": 984, "pitch": 45, "duration": 48, "velocity": 100}, {"time": 1032, "pitch": 84, "duration": 24, "velocity": 100}, {"time": 1032, "pitch": 87, "duration": 24, "velocity": 100}, {"time": 1032, "pitch": 91, "duration": 24, "velocity": 100}, {"time": 1056, "pitch": 73, "duration": 48, "velocity": 100}, {"time": 1056, "pitch": 77, "duration": 48, "velocity": 100}, {"time": 1056, "pitch": 80, "duration": 48, "velocity": 100}, {"time": 1104, "pitch": 3, "duration": 24, "velocity": 100}, {"time": 1104, "pitch": 7, "duration": 24, "velocity": 100}, {"time": 1104, "pitch": 10, "duration": 24, "velocity": 100}, {"time": 1128, "pitch": 21, "duration": 24, "velocity": 100}, {"time": 1128, "pitch": 24, "duration": 24, "velocity": 100}, {"time": 1128, "pitch": 28, "duration": 24, "velocity": 100}, {"time": 1152, "pitch": 85, "duration": 48, "velocity": 100}, {"time": 1152, "pitch": 88, "duration": 48, "velocity": 100}, {"time": 1152, "pitch": 92, "duration": 48, "velocity": 100}, {"time": 1200, "pitch": 64, "duration": 48, "velocity": 100}, {"time": 1200, "pitch": 67, "duration": 48, "velocity": 100}, {"time": 1200, "pitch": 71, "duration": 48, "velocity": 100}, {"time": 1248, "pitch": 100, "duration": 24, "velocity": 100}, {"time": 1248, "pitch": 103, "duration": 24, "velocity": 100}, {"time": 1248, "pitch": 107, "duration": 24, "velocity": 100}, {"time": 1272, "pitch": 90, "duration": 48, "velocity": 100}, {"time": 1272, "pitch": 93, "duration": 48, "velocity": 100}, {"time": 1272, "pitch": 97, "duration": 48, "velocity": 100}, {"time": 1320, "pitch": 56, "duration": 48, "velocity": 100}, {"time": 1320, "pitch": 59, "duration": 48, "velocity": 100}, {"time": 1320, "pitch": 63, "duration": 48, "velocity": 100}, {"time": 1368, "pitch": 9, "duration": 48, "velocity": 100}, {"time": 1368, "pitch": 12, "duration": 48, "velocity": 100}, {"time": 1368, "pitch": 16, "duration": 48, "velocity": 100}, {"time": 1416, "pitch": 72, "duration": 48, "velocity": 100}, {"time": 1416, "pitch": 76, "duration": 48, "velocity": 100}, {"time": 1416, "pitch": 79, "duration": 48, "velocity": 100}, {"time": 1464, "pitch": 19, "duration": 48, "velocity": 100}, {"time": 1464, "pitch": 23, "duration": 48, "velocity": 100}, {"time": 1464, "pitch": 26, "duration": 48, "velocity": 100}, {"time": 1512, "pitch": 76, "duration": 24, "velocity": 100}, {"time": 1512, "pitch": 79, "duration": 24, "velocity": 100}, {"time": 1512, "pitch": 83, "duration": 24, "velocity": 100}]}]}