{"metadata": {"schema_version": "0.2", "title": "None", "source_filename": "baseline30.mid", "source_format": "midi"}, "resolution": 12, "tempos": [{"time": 0, "qpm": 100.0}], "tracks": [{"program": 0, "is_drum": false, "name": "track", "notes": [{"time": 0, "pitch": 0, "duration": 24, "velocity": 100}, {"time": 0, "pitch": 3, "duration": 24, "velocity": 100}, {"time": 0, "pitch": 7, "duration": 24, "velocity": 100}, {"time": 24, "pitch": 7, "duration": 24, "velocity": 100}, {"time": 24, "pitch": 10, "duration": 24, "velocity": 100}, {"time": 24, "pitch": 14, "duration": 24, "velocity": 100}, {"time": 48, "pitch": 13, "duration": 48, "velocity": 100}, {"time": 48, "pitch": 16, "duration": 48, "velocity": 100}, {"time": 48, "pitch": 20, "duration": 48, "velocity": 100}, {"time": 96, "pitch": 20, "duration": 48, "velocity": 100}, {"time": 96, "pitch": 24, "duration": 48, "velocity": 100}, {"time": 96, "pitch": 27, "duration": 48, "velocity": 100}, {"time": 144, "pitch": 52, "duration": 24, "velocity": 100}, {"time": 144, "pitch": 55, "duration": 24, "velocity": 100}, {"time": 144, "pitch": 59, "duration": 24, "velocity": 100}, {"time": 168, "pitch": 81, "duration": 48, "velocity": 100}, {"time": 168, "pitch": 84, "duration": 48, "velocity": 100}, {"time": 168, "pitch": 88, "duration": 48, "velocity": 100}, {"time": 216, "pitch": 99, "duration": 48, "velocity": 100}, {"time": 216, "pitch": 103, "duration": 48, "velocity": 100}, {"time": 216, "pitch": 106, "duration": 48, "velocity": 100}, {"time": 264, "pitch": 127, "duration": 24, "velocity": 100}, {"time": 288, "pitch": 115, "duration": 24, "velocity": 100}, {"time": 288, "pitch": 119, "duration": 24, "velocity": 100}, {"time": 288, "pitch": 122, "duration": 24, "velocity": 100}, {"time": 312, "pitch": 102, "duration": 24, "velocity": 100}, {"time": 312, "pitch": 105, "duration": 24, "velocity": 100}, {"time": 312, "pitch": 109, "duration": 24, "velocity": 100}, {"time": 336, "pitch": 8, "duration": 48, "velocity": 100}, {"time": 336, "pitch": 12, "duration": 48, "velocity": 100}, {"time": 336, "pitch": 15, "duration": 48, "velocity": 100}, {"time": 384, "pitch": 39, "duration": 24, "velocity": 100}, {"time": 384, "pitch": 43, "duration": 24, "velocity": 100}, {"time": 384, "pitch": 46, "duration": 24, "velocity": 100}, {"time": 408, "pitch": 56, "duration": 24, "velocity": 100}, {"time": 408, "pitch": 60, "duration": 24, "velocity": 100}, {"time": 408, "pitch": 63, "duration": 24, "velocity": 100}, {"time": 432, "pitch": 55, "duration": 24, "velocity": 100}, {"time": 432, "pitch": 58, "duration": 24, "velocity": 100}, {"time": 432, "pitch": 62, "duration": 24, "velocity": 100}, {"time": 456, "pitch": 14, "duration": 48, "velocity": 100}, {"time": 456, "pitch": 17, "duration": 48, "velocity": 100}, {"time": 456, "pitch": 21, "duration": 48, "velocity": 100}, {"time": 504, "pitch": 6, "duration": 48, "velocity": 100}, {"time": 504, "pitch": 10, "duration": 48, "velocity": 100}, {"time": 504, "pitch": 13, "duration": 48, "velocity": 100}, {"time": 552, "pitch": 126, "duration": 48, "velocity": 100}, {"time": 600, "pitch": 104, "duration": 48, "velocity": 100}, {"time": 600, "pitch": 107, "duration": 48, "velocity": 100}, {"time": 600, "pitch": 111, "duration": 48, "velocity": 100}, {"time": 648, "pitch": 21, "duration": 48, "velocity": 100}, {"time": 648, "pitch": 24, "duration": 48, "velocity": 100}, {"time": 648, "pitch": 28, "duration": 48, "velocity": 100}, {"time": 696, "pitch": 106, "duration": 48, "velocity": 100}, {"time": 696, "pitch": 109, "duration": 48, "velocity": 100}, {"time": 696, "pitch": 113, "duration": 48, "velocity": 100}, {"time": 744, "pitch": 22, "duration": 48, "velocity": 100}, {"time": 744, "pitch": 26, "duration": 48, "velocity": 100}, {"time": 744, "pitch": 29, "duration": 48, "velocity": 100}, {"time": 792, "pitch": 56, "duration": 48, "velocity": 100}, {"time": 792, "pitch": 60, "duration": 48, "velocity": 100}, {"time": 792, "pitch": 63, "duration": 48, "velocity": 100}, {"time": 840, "pitch": 121, "duration": 48, "velocity": 100}, {"time": 840, "pitch": 125, "duration": 48, "velocity": 100}, {"time": 888, "pitch": 97, "duration": 48, "velocity": 100}, {"time": 888, "pitch": 101, "duration": 48, "velocity": 100}, {"time": 888, "pitch": 104, "duration": 48, "velocity": 100}, {"time": 936, "pitch": 112, "duration": 24, "velocity": 100}, {"time": 936, "pitch": 116, "duration": 24, "velocity": 100}, {"time": 936, "pitch": 119, "duration": 24, "velocity": 100}, {"time": 960, "pitch": 112, "duration": 48, "velocity": 100}, {"time": 960, "pitch": 116, "duration": 48, "velocity": 100}, {"time": 960, "pitch": 119, "duration": 48, "velocity": 100}, {"time": 1008, "pitch": 85, "duration": 48, "velocity": 100}, {"time": 1008, "pitch": 88, "duration": 48, "velocity": 100}, {"time": 1008, "pitch": 92, "duration": 48, "velocity": 100}, {"time": 1056, "pitch": 30, "duration": 48, "velocity": 100}, {"time": 1056, "pitch": 34, "duration": 48, "velocity": 100}, {"time": 1056, "pitch": 37, "duration": 48, "velocity": 100}, {"time": 1104, "pitch": 16, "duration": 24, "velocity": 100}, {"time": 1104, "pitch": 19, "duration": 24, "velocity": 100}, {"time": 1104, "pitch": 23, "duration": 24, "velocity": 100}, {"time": 1128, "pitch": 11, "duration": 24, "velocity": 100}, {"time": 1128, "pitch": 14, "duration": 24, "velocity": 100}, {"time": 1128, "pitch": 18, "duration": 24, "velocity": 100}, {"time": 1152, "pitch": 65, "duration": 48, "velocity": 100}, {"time": 1152, "pitch": 69, "duration": 48, "velocity": 100}, {"time": 1152, "pitch": 72, "duration": 48, "velocity": 100}, {"time": 1200, "pitch": 5, "duration": 24, "velocity": 100}, {"time": 1200, "pitch": 9, "duration": 24, "velocity": 100}, {"time": 1200, "pitch": 12, "duration": 24, "velocity": 100}, {"time": 1224, "pitch": 122, "duration": 48, "velocity": 100}, {"time": 1224, "pitch": 125, "duration": 48, "velocity": 100}, {"time": 1272, "pitch": 108, "duration": 48, "velocity": 100}, {"time": 1272, "pitch": 112, "duration": 48, "velocity": 100}, {"time": 1272, "pitch": 115, "duration": 48, "velocity": 100}, {"time": 1320, "pitch": 107, "duration": 48, "velocity": 100}, {"time": 1320, "pitch": 111, "duration": 48, "velocity": 100}, {"time": 1320, "pitch": 114, "duration": 48, "velocity": 100}, {"time": 1368, "pitch": 0, "duration": 24, "velocity": 100}, {"time": 1368, "pitch": 4, "duration": 24, "velocity": 100}, {"time": 1368, "pitch": 7, "duration": 24, "velocity": 100}, {"time": 1392, "pitch": 45, "duration": 48, "velocity": 100}, {"time": 1392, "pitch": 48, "duration": 48, "velocity": 100}, {"time": 1392, "pitch": 52, "duration": 48, "velocity": 100}, {"time": 1440, "pitch": 22, "duration": 24, "velocity": 100}, {"time": 1440, "pitch": 25, "duration": 24, "velocity": 100}, {"time": 1440, "pitch": 29, "duration": 24, "velocity": 100}, {"time": 1464, "pitch": 55, "duration": 24, "velocity": 100}, {"time": 1464, "pitch": 58, "duration": 24, "velocity": 100}, {"time": 1464, "pitch": 62, "duration": 24, "velocity": 100}, {"time": 1488, "pitch": 84, "duration": 24, "velocity": 100}, {"time": 1488, "pitch": 87, "duration": 24, "velocity": 100}, {"time": 1488, "pitch": 91, "duration": 24, "velocity": 100}, {"time": 1512, "pitch": 87, "duration": 24, "velocity": 100}, {"time": 1512, "pitch": 91, "duration": 24, "velocity": 100}, {"time": 1512, "pitch": 94, "duration": 24, "velocity": 100}]}]}