{"metadata": {"schema_version": "0.2", "title": "None", "source_filename": "baseline35.mid", "source_format": "midi"}, "resolution": 12, "tempos": [{"time": 0, "qpm": 100.0}], "tracks": [{"program": 0, "is_drum": false, "name": "track", "notes": [{"time": 0, "pitch": 93, "duration": 48, "velocity": 100}, {"time": 0, "pitch": 96, "duration": 48, "velocity": 100}, {"time": 0, "pitch": 100, "duration": 48, "velocity": 100}, {"time": 48, "pitch": 11, "duration": 48, "velocity": 100}, {"time": 48, "pitch": 14, "duration": 48, "velocity": 100}, {"time": 48, "pitch": 18, "duration": 48, "velocity": 100}, {"time": 96, "pitch": 79, "duration": 24, "velocity": 100}, {"time": 96, "pitch": 82, "duration": 24, "velocity": 100}, {"time": 96, "pitch": 86, "duration": 24, "velocity": 100}, {"time": 120, "pitch": 69, "duration": 24, "velocity": 100}, {"time": 120, "pitch": 73, "duration": 24, "velocity": 100}, {"time": 120, "pitch": 76, "duration": 24, "velocity": 100}, {"time": 144, "pitch": 0, "duration": 24, "velocity": 100}, {"time": 144, "pitch": 3, "duration": 24, "velocity": 100}, {"time": 144, "pitch": 7, "duration": 24, "velocity": 100}, {"time": 168, "pitch": 70, "duration": 48, "velocity": 100}, {"time": 168, "pitch": 74, "duration": 48, "velocity": 100}, {"time": 168, "pitch": 77, "duration": 48, "velocity": 100}, {"time": 216, "pitch": 25, "duration": 24, "velocity": 100}, {"time": 216, "pitch": 29, "duration": 24, "velocity": 100}, {"time": 216, "pitch": 32, "duration": 24, "velocity": 100}, {"time": 240, "pitch": 40, "duration": 24, "velocity": 100}, {"time": 240, "pitch": 44, "duration": 24, "velocity": 100}, {"time": 240, "pitch": 47, "duration": 24, "velocity": 100}, {"time": 264, "pitch": 108, "duration": 48, "velocity": 100}, {"time": 264, "pitch": 111, "duration": 48, "velocity": 100}, {"time": 264, "pitch": 115, "duration": 48, "velocity": 100}, {"time": 312, "pitch": 119, "duration": 24, "velocity": 100}, {"time": 312, "pitch": 122, "duration": 24, "velocity": 100}, {"time": 312, "pitch": 126, "duration": 24, "velocity": 100}, {"time": 336, "pitch": 10, "duration": 48, "velocity": 100}, {"time": 336, "pitch": 14, "duration": 48, "velocity": 100}, {"time": 336, "pitch": 17, "duration": 48, "velocity": 100}, {"time": 384, "pitch": 0, "duration": 24, "velocity": 100}, {"time": 384, "pitch": 4, "duration": 24, "velocity": 100}, {"time": 384, "pitch": 7, "duration": 24, "velocity": 100}, {"time": 408, "pitch": 44, "duration": 48, "velocity": 100}, {"time": 408, "pitch": 48, "duration": 48, "velocity": 100}, {"time": 408, "pitch": 51, "duration": 48, "velocity": 100}, {"time": 456, "pitch": 43, "duration": 24, "velocity": 100}, {"time": 456, "pitch": 46, "duration": 24, "velocity": 100}, {"time": 456, "pitch": 50, "duration": 24, "velocity": 100}, {"time": 480, "pitch": 3, "duration": 24, "velocity": 100}, {"time": 480, "pitch": 7, "duration": 24, "velocity": 100}, {"time": 480, "pitch": 10, "duration": 24, "velocity": 100}, {"time": 504, "pitch": 110, "duration": 48, "velocity": 100}, {"time": 504, "pitch": 113, "duration": 48, "velocity": 100}, {"time": 504, "pitch": 117, "duration": 48, "velocity": 100}, {"time": 552, "pitch": 1, "duration": 48, "velocity": 100}, {"time": 552, "pitch": 5, "duration": 48, "velocity": 100}, {"time": 552, "pitch": 8, "duration": 48, "velocity": 100}, {"time": 600, "pitch": 29, "duration": 24, "velocity": 100}, {"time": 600, "pitch": 33, "duration": 24, "velocity": 100}, {"time": 600, "pitch": 36, "duration": 24, "velocity": 100}, {"time": 624, "pitch": 20, "duration": 48, "velocity": 100}, {"time": 624, "pitch": 24, "duration": 48, "velocity": 100}, {"time": 624, "pitch": 27, "duration": 48, "velocity": 100}, {"time": 672, "pitch": 93, "duration": 24, "velocity": 100}, {"time": 672, "pitch": 96, "duration": 24, "velocity": 100}, {"time": 672, "pitch": 100, "duration": 24, "velocity": 100}, {"time": 696, "pitch": 123, "duration": 24, "velocity": 100}, {"time": 696, "pitch": 127, "duration": 24, "velocity": 100}, {"time": 720, "pitch": 4, "duration": 48, "velocity": 100}, {"time": 720, "pitch": 7, "duration": 48, "velocity": 100}, {"time": 720, "pitch": 11, "duration": 48, "velocity": 100}, {"time": 768, "pitch": 43, "duration": 24, "velocity": 100}, {"time": 768, "pitch": 46, "duration": 24, "velocity": 100}, {"time": 768, "pitch": 50, "duration": 24, "velocity": 100}, {"time": 792, "pitch": 7, "duration": 24, "velocity": 100}, {"time": 792, "pitch": 10, "duration": 24, "velocity": 100}, {"time": 792, "pitch": 14, "duration": 24, "velocity": 100}, {"time": 816, "pitch": 37, "duration": 48, "velocity": 100}, {"time": 816, "pitch": 41, "duration": 48, "velocity": 100}, {"time": 816, "pitch": 44, "duration": 48, "velocity": 100}, {"time": 864, "pitch": 13, "duration": 24, "velocity": 100}, {"time": 864, "pitch": 16, "duration": 24, "velocity": 100}, {"time": 864, "pitch": 20, "duration": 24, "velocity": 100}, {"time": 888, "pitch": 80, "duration": 48, "velocity": 100}, {"time": 888, "pitch": 83, "duration": 48, "velocity": 100}, {"time": 888, "pitch": 87, "duration": 48, "velocity": 100}, {"time": 936, "pitch": 57, "duration": 48, "velocity": 100}, {"time": 936, "pitch": 60, "duration": 48, "velocity": 100}, {"time": 936, "pitch": 64, "duration": 48, "velocity": 100}, {"time": 984, "pitch": 48, "duration": 24, "velocity": 100}, {"time": 984, "pitch": 52, "duration": 24, "velocity": 100}, {"time": 984, "pitch": 55, "duration": 24, "velocity": 100}, {"time": 1008, "pitch": 90, "duration": 24, "velocity": 100}, {"time": 1008, "pitch": 93, "duration": 24, "velocity": 100}, {"time": 1008, "pitch": 97, "duration": 24, "velocity": 100}, {"time": 1032, "pitch": 3, "duration": 48, "velocity": 100}, {"time": 1032, "pitch": 6, "duration": 48, "velocity": 100}, {"time": 1032, "pitch": 10, "duration": 48, "velocity": 100}, {"time": 1080, "pitch": 9, "duration": 48, "velocity": 100}, {"time": 1080, "pitch": 12, "duration": 48, "velocity": 100}, {"time": 1080, "pitch": 16, "duration": 48, "velocity": 100}, {"time": 1128, "pitch": 32, "duration": 48, "velocity": 100}, {"time": 1128, "pitch": 35, "duration": 48, "velocity": 100}, {"time": 1128, "pitch": 39, "duration": 48, "velocity": 100}, {"time": 1176, "pitch": 40, "duration": 24, "velocity": 100}, {"time": 1176, "pitch": 44, "duration": 24, "velocity": 100}, {"time": 1176, "pitch": 47, "duration": 24, "velocity": 100}, {"time": 1200, "pitch": 103, "duration": 48, "velocity": 100}, {"time": 1200, "pitch": 107, "duration": 48, "velocity": 100}, {"time": 1200, "pitch": 110, "duration": 48, "velocity": 100}, {"time": 1248, "pitch": 104, "duration": 48, "velocity": 100}, {"time": 1248, "pitch": 108, "duration": 48, "velocity": 100}, {"time": 1248, "pitch": 111, "duration": 48, "velocity": 100}, {"time": 1296, "pitch": 57, "duration": 24, "velocity": 100}, {"time": 1296, "pitch": 60, "duration": 24, "velocity": 100}, {"time": 1296, "pitch": 64, "duration": 24, "velocity": 100}, {"time": 1320, "pitch": 8, "duration": 24, "velocity": 100}, {"time": 1320, "pitch": 12, "duration": 24, "velocity": 100}, {"time": 1320, "pitch": 15, "duration": 24, "velocity": 100}, {"time": 1344, "pitch": 92, "duration": 48, "velocity": 100}, {"time": 1344, "pitch": 96, "duration": 48, "velocity": 100}, {"time": 1344, "pitch": 99, "duration": 48, "velocity": 100}, {"time": 1392, "pitch": 83, "duration": 48, "velocity": 100}, {"time": 1392, "pitch": 87, "duration": 48, "velocity": 100}, {"time": 1392, "pitch": 90, "duration": 48, "velocity": 100}, {"time": 1440, "pitch": 119, "duration": 24, "velocity": 100}, {"time": 1440, "pitch": 122, "duration": 24, "velocity": 100}, {"time": 1440, "pitch": 126, "duration": 24, "velocity": 100}, {"time": 1464, "pitch": 69, "duration": 48, "velocity": 100}, {"time": 1464, "pitch": 73, "duration": 48, "velocity": 100}, {"time": 1464, "pitch": 76, "duration": 48, "velocity": 100}, {"time": 1512, "pitch": 21, "duration": 24, "velocity": 100}, {"time": 1512, "pitch": 25, "duration": 24, "velocity": 100}, {"time": 1512, "pitch": 28, "duration": 24, "velocity": 100}]}]}