{"metadata": {"schema_version": "0.2", "title": "None", "source_filename": "baseline22.mid", "source_format": "midi"}, "resolution": 12, "tempos": [{"time": 0, "qpm": 100.0}], "tracks": [{"program": 0, "is_drum": false, "name": "track", "notes": [{"time": 0, "pitch": 36, "duration": 24, "velocity": 100}, {"time": 0, "pitch": 40, "duration": 24, "velocity": 100}, {"time": 0, "pitch": 43, "duration": 24, "velocity": 100}, {"time": 24, "pitch": 33, "duration": 24, "velocity": 100}, {"time": 24, "pitch": 36, "duration": 24, "velocity": 100}, {"time": 24, "pitch": 40, "duration": 24, "velocity": 100}, {"time": 48, "pitch": 11, "duration": 24, "velocity": 100}, {"time": 48, "pitch": 15, "duration": 24, "velocity": 100}, {"time": 48, "pitch": 18, "duration": 24, "velocity": 100}, {"time": 72, "pitch": 9, "duration": 24, "velocity": 100}, {"time": 72, "pitch": 13, "duration": 24, "velocity": 100}, {"time": 72, "pitch": 16, "duration": 24, "velocity": 100}, {"time": 96, "pitch": 75, "duration": 24, "velocity": 100}, {"time": 96, "pitch": 79, "duration": 24, "velocity": 100}, {"time": 96, "pitch": 82, "duration": 24, "velocity": 100}, {"time": 120, "pitch": 19, "duration": 48, "velocity": 100}, {"time": 120, "pitch": 23, "duration": 48, "velocity": 100}, {"time": 120, "pitch": 26, "duration": 48, "velocity": 100}, {"time": 168, "pitch": 98, "duration": 48, "velocity": 100}, {"time": 168, "pitch": 101, "duration": 48, "velocity": 100}, {"time": 168, "pitch": 105, "duration": 48, "velocity": 100}, {"time": 216, "pitch": 51, "duration": 48, "velocity": 100}, {"time": 216, "pitch": 55, "duration": 48, "velocity": 100}, {"time": 216, "pitch": 58, "duration": 48, "velocity": 100}, {"time": 264, "pitch": 64, "duration": 24, "velocity": 100}, {"time": 264, "pitch": 67, "duration": 24, "velocity": 100}, {"time": 264, "pitch": 71, "duration": 24, "velocity": 100}, {"time": 288, "pitch": 77, "duration": 48, "velocity": 100}, {"time": 288, "pitch": 81, "duration": 48, "velocity": 100}, {"time": 288, "pitch": 84, "duration": 48, "velocity": 100}, {"time": 336, "pitch": 80, "duration": 24, "velocity": 100}, {"time": 336, "pitch": 83, "duration": 24, "velocity": 100}, {"time": 336, "pitch": 87, "duration": 24, "velocity": 100}, {"time": 360, "pitch": 93, "duration": 48, "velocity": 100}, {"time": 360, "pitch": 97, "duration": 48, "velocity": 100}, {"time": 360, "pitch": 100, "duration": 48, "velocity": 100}, {"time": 408, "pitch": 37, "duration": 24, "velocity": 100}, {"time": 408, "pitch": 40, "duration": 24, "velocity": 100}, {"time": 408, "pitch": 44, "duration": 24, "velocity": 100}, {"time": 432, "pitch": 51, "duration": 48, "velocity": 100}, {"time": 432, "pitch": 54, "duration": 48, "velocity": 100}, {"time": 432, "pitch": 58, "duration": 48, "velocity": 100}, {"time": 480, "pitch": 96, "duration": 48, "velocity": 100}, {"time": 480, "pitch": 100, "duration": 48, "velocity": 100}, {"time": 480, "pitch": 103, "duration": 48, "velocity": 100}, {"time": 528, "pitch": 98, "duration": 24, "velocity": 100}, {"time": 528, "pitch": 101, "duration": 24, "velocity": 100}, {"time": 528, "pitch": 105, "duration": 24, "velocity": 100}, {"time": 552, "pitch": 70, "duration": 24, "velocity": 100}, {"time": 552, "pitch": 74, "duration": 24, "velocity": 100}, {"time": 552, "pitch": 77, "duration": 24, "velocity": 100}, {"time": 576, "pitch": 58, "duration": 48, "velocity": 100}, {"time": 576, "pitch": 61, "duration": 48, "velocity": 100}, {"time": 576, "pitch": 65, "duration": 48, "velocity": 100}, {"time": 624, "pitch": 75, "duration": 48, "velocity": 100}, {"time": 624, "pitch": 79, "duration": 48, "velocity": 100}, {"time": 624, "pitch": 82, "duration": 48, "velocity": 100}, {"time": 672, "pitch": 7, "duration": 48, "velocity": 100}, {"time": 672, "pitch": 11, "duration": 48, "velocity": 100}, {"time": 672, "pitch": 14, "duration": 48, "velocity": 100}, {"time": 720, "pitch": 100, "duration": 48, "velocity": 100}, {"time": 720, "pitch": 103, "duration": 48, "velocity": 100}, {"time": 720, "pitch": 107, "duration": 48, "velocity": 100}, {"time": 768, "pitch": 94, "duration": 24, "velocity": 100}, {"time": 768, "pitch": 98, "duration": 24, "velocity": 100}, {"time": 768, "pitch": 101, "duration": 24, "velocity": 100}, {"time": 792, "pitch": 86, "duration": 24, "velocity": 100}, {"time": 792, "pitch": 89, "duration": 24, "velocity": 100}, {"time": 792, "pitch": 93, "duration": 24, "velocity": 100}, {"time": 816, "pitch": 36, "duration": 24, "velocity": 100}, {"time": 816, "pitch": 40, "duration": 24, "velocity": 100}, {"time": 816, "pitch": 43, "duration": 24, "velocity": 100}, {"time": 840, "pitch": 14, "duration": 48, "velocity": 100}, {"time": 840, "pitch": 17, "duration": 48, "velocity": 100}, {"time": 840, "pitch": 21, "duration": 48, "velocity": 100}, {"time": 888, "pitch": 60, "duration": 48, "velocity": 100}, {"time": 888, "pitch": 63, "duration": 48, "velocity": 100}, {"time": 888, "pitch": 67, "duration": 48, "velocity": 100}, {"time": 936, "pitch": 96, "duration": 24, "velocity": 100}, {"time": 936, "pitch": 100, "duration": 24, "velocity": 100}, {"time": 936, "pitch": 103, "duration": 24, "velocity": 100}, {"time": 960, "pitch": 121, "duration": 24, "velocity": 100}, {"time": 960, "pitch": 125, "duration": 24, "velocity": 100}, {"time": 984, "pitch": 74, "duration": 24, "velocity": 100}, {"time": 984, "pitch": 78, "duration": 24, "velocity": 100}, {"time": 984, "pitch": 81, "duration": 24, "velocity": 100}, {"time": 1008, "pitch": 18, "duration": 48, "velocity": 100}, {"time": 1008, "pitch": 22, "duration": 48, "velocity": 100}, {"time": 1008, "pitch": 25, "duration": 48, "velocity": 100}, {"time": 1056, "pitch": 29, "duration": 24, "velocity": 100}, {"time": 1056, "pitch": 33, "duration": 24, "velocity": 100}, {"time": 1056, "pitch": 36, "duration": 24, "velocity": 100}, {"time": 1080, "pitch": 115, "duration": 24, "velocity": 100}, {"time": 1080, "pitch": 118, "duration": 24, "velocity": 100}, {"time": 1080, "pitch": 122, "duration": 24, "velocity": 100}, {"time": 1104, "pitch": 108, "duration": 24, "velocity": 100}, {"time": 1104, "pitch": 112, "duration": 24, "velocity": 100}, {"time": 1104, "pitch": 115, "duration": 24, "velocity": 100}, {"time": 1128, "pitch": 92, "duration": 24, "velocity": 100}, {"time": 1128, "pitch": 95, "duration": 24, "velocity": 100}, {"time": 1128, "pitch": 99, "duration": 24, "velocity": 100}, {"time": 1152, "pitch": 79, "duration": 48, "velocity": 100}, {"time": 1152, "pitch": 83, "duration": 48, "velocity": 100}, {"time": 1152, "pitch": 86, "duration": 48, "velocity": 100}, {"time": 1200, "pitch": 88, "duration": 48, "velocity": 100}, {"time": 1200, "pitch": 91, "duration": 48, "velocity": 100}, {"time": 1200, "pitch": 95, "duration": 48, "velocity": 100}, {"time": 1248, "pitch": 8, "duration": 48, "velocity": 100}, {"time": 1248, "pitch": 12, "duration": 48, "velocity": 100}, {"time": 1248, "pitch": 15, "duration": 48, "velocity": 100}, {"time": 1296, "pitch": 12, "duration": 24, "velocity": 100}, {"time": 1296, "pitch": 15, "duration": 24, "velocity": 100}, {"time": 1296, "pitch": 19, "duration": 24, "velocity": 100}, {"time": 1320, "pitch": 10, "duration": 48, "velocity": 100}, {"time": 1320, "pitch": 14, "duration": 48, "velocity": 100}, {"time": 1320, "pitch": 17, "duration": 48, "velocity": 100}, {"time": 1368, "pitch": 74, "duration": 24, "velocity": 100}, {"time": 1368, "pitch": 78, "duration": 24, "velocity": 100}, {"time": 1368, "pitch": 81, "duration": 24, "velocity": 100}, {"time": 1392, "pitch": 81, "duration": 48, "velocity": 100}, {"time": 1392, "pitch": 84, "duration": 48, "velocity": 100}, {"time": 1392, "pitch": 88, "duration": 48, "velocity": 100}, {"time": 1440, "pitch": 120, "duration": 24, "velocity": 100}, {"time": 1440, "pitch": 123, "duration": 24, "velocity": 100}, {"time": 1440, "pitch": 127, "duration": 24, "velocity": 100}, {"time": 1464, "pitch": 127, "duration": 24, "velocity": 100}, {"time": 1488, "pitch": 73, "duration": 48, "velocity": 100}, {"time": 1488, "pitch": 76, "duration": 48, "velocity": 100}, {"time": 1488, "pitch": 80, "duration": 48, "velocity": 100}]}]}