{"metadata": {"schema_version": "0.2", "title": "None", "source_filename": "baseline42.mid", "source_format": "midi"}, "resolution": 12, "tempos": [{"time": 0, "qpm": 100.0}], "tracks": [{"program": 0, "is_drum": false, "name": "track", "notes": [{"time": 0, "pitch": 122, "duration": 24, "velocity": 100}, {"time": 0, "pitch": 125, "duration": 24, "velocity": 100}, {"time": 24, "pitch": 2, "duration": 24, "velocity": 100}, {"time": 24, "pitch": 6, "duration": 24, "velocity": 100}, {"time": 24, "pitch": 9, "duration": 24, "velocity": 100}, {"time": 48, "pitch": 2, "duration": 48, "velocity": 100}, {"time": 48, "pitch": 5, "duration": 48, "velocity": 100}, {"time": 48, "pitch": 9, "duration": 48, "velocity": 100}, {"time": 96, "pitch": 127, "duration": 24, "velocity": 100}, {"time": 120, "pitch": 86, "duration": 48, "velocity": 100}, {"time": 120, "pitch": 89, "duration": 48, "velocity": 100}, {"time": 120, "pitch": 93, "duration": 48, "velocity": 100}, {"time": 168, "pitch": 28, "duration": 48, "velocity": 100}, {"time": 168, "pitch": 32, "duration": 48, "velocity": 100}, {"time": 168, "pitch": 35, "duration": 48, "velocity": 100}, {"time": 216, "pitch": 56, "duration": 24, "velocity": 100}, {"time": 216, "pitch": 60, "duration": 24, "velocity": 100}, {"time": 216, "pitch": 63, "duration": 24, "velocity": 100}, {"time": 240, "pitch": 62, "duration": 48, "velocity": 100}, {"time": 240, "pitch": 65, "duration": 48, "velocity": 100}, {"time": 240, "pitch": 69, "duration": 48, "velocity": 100}, {"time": 288, "pitch": 13, "duration": 24, "velocity": 100}, {"time": 288, "pitch": 17, "duration": 24, "velocity": 100}, {"time": 288, "pitch": 20, "duration": 24, "velocity": 100}, {"time": 312, "pitch": 13, "duration": 24, "velocity": 100}, {"time": 312, "pitch": 17, "duration": 24, "velocity": 100}, {"time": 312, "pitch": 20, "duration": 24, "velocity": 100}, {"time": 336, "pitch": 30, "duration": 48, "velocity": 100}, {"time": 336, "pitch": 34, "duration": 48, "velocity": 100}, {"time": 336, "pitch": 37, "duration": 48, "velocity": 100}, {"time": 384, "pitch": 112, "duration": 48, "velocity": 100}, {"time": 384, "pitch": 115, "duration": 48, "velocity": 100}, {"time": 384, "pitch": 119, "duration": 48, "velocity": 100}, {"time": 432, "pitch": 125, "duration": 48, "velocity": 100}, {"time": 480, "pitch": 124, "duration": 48, "velocity": 100}, {"time": 480, "pitch": 127, "duration": 48, "velocity": 100}, {"time": 528, "pitch": 122, "duration": 48, "velocity": 100}, {"time": 528, "pitch": 126, "duration": 48, "velocity": 100}, {"time": 576, "pitch": 94, "duration": 24, "velocity": 100}, {"time": 576, "pitch": 97, "duration": 24, "velocity": 100}, {"time": 576, "pitch": 101, "duration": 24, "velocity": 100}, {"time": 600, "pitch": 32, "duration": 24, "velocity": 100}, {"time": 600, "pitch": 36, "duration": 24, "velocity": 100}, {"time": 600, "pitch": 39, "duration": 24, "velocity": 100}, {"time": 624, "pitch": 65, "duration": 48, "velocity": 100}, {"time": 624, "pitch": 69, "duration": 48, "velocity": 100}, {"time": 624, "pitch": 72, "duration": 48, "velocity": 100}, {"time": 672, "pitch": 58, "duration": 48, "velocity": 100}, {"time": 672, "pitch": 62, "duration": 48, "velocity": 100}, {"time": 672, "pitch": 65, "duration": 48, "velocity": 100}, {"time": 720, "pitch": 23, "duration": 48, "velocity": 100}, {"time": 720, "pitch": 26, "duration": 48, "velocity": 100}, {"time": 720, "pitch": 30, "duration": 48, "velocity": 100}, {"time": 768, "pitch": 110, "duration": 24, "velocity": 100}, {"time": 768, "pitch": 114, "duration": 24, "velocity": 100}, {"time": 768, "pitch": 117, "duration": 24, "velocity": 100}, {"time": 792, "pitch": 38, "duration": 24, "velocity": 100}, {"time": 792, "pitch": 42, "duration": 24, "velocity": 100}, {"time": 792, "pitch": 45, "duration": 24, "velocity": 100}, {"time": 816, "pitch": 22, "duration": 24, "velocity": 100}, {"time": 816, "pitch": 26, "duration": 24, "velocity": 100}, {"time": 816, "pitch": 29, "duration": 24, "velocity": 100}, {"time": 840, "pitch": 113, "duration": 48, "velocity": 100}, {"time": 840, "pitch": 117, "duration": 48, "velocity": 100}, {"time": 840, "pitch": 120, "duration": 48, "velocity": 100}, {"time": 888, "pitch": 8, "duration": 24, "velocity": 100}, {"time": 888, "pitch": 12, "duration": 24, "velocity": 100}, {"time": 888, "pitch": 15, "duration": 24, "velocity": 100}, {"time": 912, "pitch": 111, "duration": 48, "velocity": 100}, {"time": 912, "pitch": 115, "duration": 48, "velocity": 100}, {"time": 912, "pitch": 118, "duration": 48, "velocity": 100}, {"time": 960, "pitch": 85, "duration": 48, "velocity": 100}, {"time": 960, "pitch": 89, "duration": 48, "velocity": 100}, {"time": 960, "pitch": 92, "duration": 48, "velocity": 100}, {"time": 1008, "pitch": 95, "duration": 48, "velocity": 100}, {"time": 1008, "pitch": 99, "duration": 48, "velocity": 100}, {"time": 1008, "pitch": 102, "duration": 48, "velocity": 100}, {"time": 1056, "pitch": 33, "duration": 48, "velocity": 100}, {"time": 1056, "pitch": 36, "duration": 48, "velocity": 100}, {"time": 1056, "pitch": 40, "duration": 48, "velocity": 100}, {"time": 1104, "pitch": 102, "duration": 48, "velocity": 100}, {"time": 1104, "pitch": 105, "duration": 48, "velocity": 100}, {"time": 1104, "pitch": 109, "duration": 48, "velocity": 100}, {"time": 1152, "pitch": 81, "duration": 24, "velocity": 100}, {"time": 1152, "pitch": 84, "duration": 24, "velocity": 100}, {"time": 1152, "pitch": 88, "duration": 24, "velocity": 100}, {"time": 1176, "pitch": 9, "duration": 48, "velocity": 100}, {"time": 1176, "pitch": 13, "duration": 48, "velocity": 100}, {"time": 1176, "pitch": 16, "duration": 48, "velocity": 100}, {"time": 1224, "pitch": 57, "duration": 48, "velocity": 100}, {"time": 1224, "pitch": 60, "duration": 48, "velocity": 100}, {"time": 1224, "pitch": 64, "duration": 48, "velocity": 100}, {"time": 1272, "pitch": 44, "duration": 48, "velocity": 100}, {"time": 1272, "pitch": 47, "duration": 48, "velocity": 100}, {"time": 1272, "pitch": 51, "duration": 48, "velocity": 100}, {"time": 1320, "pitch": 84, "duration": 48, "velocity": 100}, {"time": 1320, "pitch": 87, "duration": 48, "velocity": 100}, {"time": 1320, "pitch": 91, "duration": 48, "velocity": 100}, {"time": 1368, "pitch": 70, "duration": 24, "velocity": 100}, {"time": 1368, "pitch": 73, "duration": 24, "velocity": 100}, {"time": 1368, "pitch": 77, "duration": 24, "velocity": 100}, {"time": 1392, "pitch": 96, "duration": 24, "velocity": 100}, {"time": 1392, "pitch": 100, "duration": 24, "velocity": 100}, {"time": 1392, "pitch": 103, "duration": 24, "velocity": 100}, {"time": 1416, "pitch": 62, "duration": 48, "velocity": 100}, {"time": 1416, "pitch": 66, "duration": 48, "velocity": 100}, {"time": 1416, "pitch": 69, "duration": 48, "velocity": 100}, {"time": 1464, "pitch": 80, "duration": 24, "velocity": 100}, {"time": 1464, "pitch": 84, "duration": 24, "velocity": 100}, {"time": 1464, "pitch": 87, "duration": 24, "velocity": 100}, {"time": 1488, "pitch": 20, "duration": 24, "velocity": 100}, {"time": 1488, "pitch": 23, "duration": 24, "velocity": 100}, {"time": 1488, "pitch": 27, "duration": 24, "velocity": 100}, {"time": 1512, "pitch": 69, "duration": 24, "velocity": 100}, {"time": 1512, "pitch": 72, "duration": 24, "velocity": 100}, {"time": 1512, "pitch": 76, "duration": 24, "velocity": 100}]}]}