{"metadata": {"schema_version": "0.2", "title": "None", "source_filename": "baseline33.mid", "source_format": "midi"}, "resolution": 12, "tempos": [{"time": 0, "qpm": 100.0}], "tracks": [{"program": 0, "is_drum": false, "name": "track", "notes": [{"time": 0, "pitch": 65, "duration": 24, "velocity": 100}, {"time": 0, "pitch": 69, "duration": 24, "velocity": 100}, {"time": 0, "pitch": 72, "duration": 24, "velocity": 100}, {"time": 24, "pitch": 119, "duration": 24, "velocity": 100}, {"time": 24, "pitch": 123, "duration": 24, "velocity": 100}, {"time": 24, "pitch": 126, "duration": 24, "velocity": 100}, {"time": 48, "pitch": 70, "duration": 24, "velocity": 100}, {"time": 48, "pitch": 73, "duration": 24, "velocity": 100}, {"time": 48, "pitch": 77, "duration": 24, "velocity": 100}, {"time": 72, "pitch": 92, "duration": 24, "velocity": 100}, {"time": 72, "pitch": 95, "duration": 24, "velocity": 100}, {"time": 72, "pitch": 99, "duration": 24, "velocity": 100}, {"time": 96, "pitch": 70, "duration": 24, "velocity": 100}, {"time": 96, "pitch": 74, "duration": 24, "velocity": 100}, {"time": 96, "pitch": 77, "duration": 24, "velocity": 100}, {"time": 120, "pitch": 56, "duration": 48, "velocity": 100}, {"time": 120, "pitch": 59, "duration": 48, "velocity": 100}, {"time": 120, "pitch": 63, "duration": 48, "velocity": 100}, {"time": 168, "pitch": 127, "duration": 48, "velocity": 100}, {"time": 216, "pitch": 8, "duration": 48, "velocity": 100}, {"time": 216, "pitch": 11, "duration": 48, "velocity": 100}, {"time": 216, "pitch": 15, "duration": 48, "velocity": 100}, {"time": 264, "pitch": 56, "duration": 24, "velocity": 100}, {"time": 264, "pitch": 60, "duration": 24, "velocity": 100}, {"time": 264, "pitch": 63, "duration": 24, "velocity": 100}, {"time": 288, "pitch": 64, "duration": 24, "velocity": 100}, {"time": 288, "pitch": 67, "duration": 24, "velocity": 100}, {"time": 288, "pitch": 71, "duration": 24, "velocity": 100}, {"time": 312, "pitch": 116, "duration": 24, "velocity": 100}, {"time": 312, "pitch": 119, "duration": 24, "velocity": 100}, {"time": 312, "pitch": 123, "duration": 24, "velocity": 100}, {"time": 336, "pitch": 38, "duration": 48, "velocity": 100}, {"time": 336, "pitch": 41, "duration": 48, "velocity": 100}, {"time": 336, "pitch": 45, "duration": 48, "velocity": 100}, {"time": 384, "pitch": 87, "duration": 24, "velocity": 100}, {"time": 384, "pitch": 90, "duration": 24, "velocity": 100}, {"time": 384, "pitch": 94, "duration": 24, "velocity": 100}, {"time": 408, "pitch": 20, "duration": 24, "velocity": 100}, {"time": 408, "pitch": 24, "duration": 24, "velocity": 100}, {"time": 408, "pitch": 27, "duration": 24, "velocity": 100}, {"time": 432, "pitch": 6, "duration": 48, "velocity": 100}, {"time": 432, "pitch": 10, "duration": 48, "velocity": 100}, {"time": 432, "pitch": 13, "duration": 48, "velocity": 100}, {"time": 480, "pitch": 82, "duration": 48, "velocity": 100}, {"time": 480, "pitch": 85, "duration": 48, "velocity": 100}, {"time": 480, "pitch": 89, "duration": 48, "velocity": 100}, {"time": 528, "pitch": 121, "duration": 24, "velocity": 100}, {"time": 528, "pitch": 125, "duration": 24, "velocity": 100}, {"time": 552, "pitch": 29, "duration": 24, "velocity": 100}, {"time": 552, "pitch": 33, "duration": 24, "velocity": 100}, {"time": 552, "pitch": 36, "duration": 24, "velocity": 100}, {"time": 576, "pitch": 88, "duration": 48, "velocity": 100}, {"time": 576, "pitch": 92, "duration": 48, "velocity": 100}, {"time": 576, "pitch": 95, "duration": 48, "velocity": 100}, {"time": 624, "pitch": 97, "duration": 24, "velocity": 100}, {"time": 624, "pitch": 100, "duration": 24, "velocity": 100}, {"time": 624, "pitch": 104, "duration": 24, "velocity": 100}, {"time": 648, "pitch": 21, "duration": 48, "velocity": 100}, {"time": 648, "pitch": 24, "duration": 48, "velocity": 100}, {"time": 648, "pitch": 28, "duration": 48, "velocity": 100}, {"time": 696, "pitch": 3, "duration": 24, "velocity": 100}, {"time": 696, "pitch": 6, "duration": 24, "velocity": 100}, {"time": 696, "pitch": 10, "duration": 24, "velocity": 100}, {"time": 720, "pitch": 53, "duration": 24, "velocity": 100}, {"time": 720, "pitch": 56, "duration": 24, "velocity": 100}, {"time": 720, "pitch": 60, "duration": 24, "velocity": 100}, {"time": 744, "pitch": 117, "duration": 48, "velocity": 100}, {"time": 744, "pitch": 121, "duration": 48, "velocity": 100}, {"time": 744, "pitch": 124, "duration": 48, "velocity": 100}, {"time": 792, "pitch": 61, "duration": 24, "velocity": 100}, {"time": 792, "pitch": 65, "duration": 24, "velocity": 100}, {"time": 792, "pitch": 68, "duration": 24, "velocity": 100}, {"time": 816, "pitch": 114, "duration": 24, "velocity": 100}, {"time": 816, "pitch": 117, "duration": 24, "velocity": 100}, {"time": 816, "pitch": 121, "duration": 24, "velocity": 100}, {"time": 840, "pitch": 74, "duration": 48, "velocity": 100}, {"time": 840, "pitch": 77, "duration": 48, "velocity": 100}, {"time": 840, "pitch": 81, "duration": 48, "velocity": 100}, {"time": 888, "pitch": 44, "duration": 48, "velocity": 100}, {"time": 888, "pitch": 47, "duration": 48, "velocity": 100}, {"time": 888, "pitch": 51, "duration": 48, "velocity": 100}, {"time": 936, "pitch": 92, "duration": 24, "velocity": 100}, {"time": 936, "pitch": 95, "duration": 24, "velocity": 100}, {"time": 936, "pitch": 99, "duration": 24, "velocity": 100}, {"time": 960, "pitch": 12, "duration": 24, "velocity": 100}, {"time": 960, "pitch": 15, "duration": 24, "velocity": 100}, {"time": 960, "pitch": 19, "duration": 24, "velocity": 100}, {"time": 984, "pitch": 39, "duration": 24, "velocity": 100}, {"time": 984, "pitch": 42, "duration": 24, "velocity": 100}, {"time": 984, "pitch": 46, "duration": 24, "velocity": 100}, {"time": 1008, "pitch": 19, "duration": 24, "velocity": 100}, {"time": 1008, "pitch": 23, "duration": 24, "velocity": 100}, {"time": 1008, "pitch": 26, "duration": 24, "velocity": 100}, {"time": 1032, "pitch": 69, "duration": 48, "velocity": 100}, {"time": 1032, "pitch": 72, "duration": 48, "velocity": 100}, {"time": 1032, "pitch": 76, "duration": 48, "velocity": 100}, {"time": 1080, "pitch": 8, "duration": 24, "velocity": 100}, {"time": 1080, "pitch": 11, "duration": 24, "velocity": 100}, {"time": 1080, "pitch": 15, "duration": 24, "velocity": 100}, {"time": 1104, "pitch": 85, "duration": 48, "velocity": 100}, {"time": 1104, "pitch": 88, "duration": 48, "velocity": 100}, {"time": 1104, "pitch": 92, "duration": 48, "velocity": 100}, {"time": 1152, "pitch": 30, "duration": 24, "velocity": 100}, {"time": 1152, "pitch": 33, "duration": 24, "velocity": 100}, {"time": 1152, "pitch": 37, "duration": 24, "velocity": 100}, {"time": 1176, "pitch": 78, "duration": 48, "velocity": 100}, {"time": 1176, "pitch": 82, "duration": 48, "velocity": 100}, {"time": 1176, "pitch": 85, "duration": 48, "velocity": 100}, {"time": 1224, "pitch": 93, "duration": 48, "velocity": 100}, {"time": 1224, "pitch": 97, "duration": 48, "velocity": 100}, {"time": 1224, "pitch": 100, "duration": 48, "velocity": 100}, {"time": 1272, "pitch": 118, "duration": 24, "velocity": 100}, {"time": 1272, "pitch": 122, "duration": 24, "velocity": 100}, {"time": 1272, "pitch": 125, "duration": 24, "velocity": 100}, {"time": 1296, "pitch": 124, "duration": 48, "velocity": 100}, {"time": 1344, "pitch": 13, "duration": 48, "velocity": 100}, {"time": 1344, "pitch": 16, "duration": 48, "velocity": 100}, {"time": 1344, "pitch": 20, "duration": 48, "velocity": 100}, {"time": 1392, "pitch": 99, "duration": 48, "velocity": 100}, {"time": 1392, "pitch": 102, "duration": 48, "velocity": 100}, {"time": 1392, "pitch": 106, "duration": 48, "velocity": 100}, {"time": 1440, "pitch": 64, "duration": 24, "velocity": 100}, {"time": 1440, "pitch": 67, "duration": 24, "velocity": 100}, {"time": 1440, "pitch": 71, "duration": 24, "velocity": 100}, {"time": 1464, "pitch": 37, "duration": 48, "velocity": 100}, {"time": 1464, "pitch": 41, "duration": 48, "velocity": 100}, {"time": 1464, "pitch": 44, "duration": 48, "velocity": 100}, {"time": 1512, "pitch": 71, "duration": 24, "velocity": 100}, {"time": 1512, "pitch": 74, "duration": 24, "velocity": 100}, {"time": 1512, "pitch": 78, "duration": 24, "velocity": 100}]}]}