{"metadata": {"schema_version": "0.2"}, "resolution": 12, "tempos": [{"time": 0, "qpm": 100.0}], "tracks": [{"program": 0, "is_drum": false, "notes": [{"time": 0, "pitch": 84, "duration": 2, "velocity": 64}, {"time": 1, "pitch": 89, "duration": 4, "velocity": 64}, {"time": 3, "pitch": 91, "duration": 2, "velocity": 64}, {"time": 6, "pitch": 41, "duration": 42, "velocity": 64}, {"time": 6, "pitch": 60, "duration": 15, "velocity": 64}, {"time": 6, "pitch": 65, "duration": 18, "velocity": 64}, {"time": 6, "pitch": 69, "duration": 18, "velocity": 64}, {"time": 6, "pitch": 77, "duration": 36, "velocity": 64}, {"time": 6, "pitch": 93, "duration": 12, "velocity": 64}, {"time": 11, "pitch": 48, "duration": 40, "velocity": 64}, {"time": 11, "pitch": 69, "duration": 8, "velocity": 64}, {"time": 17, "pitch": 53, "duration": 36, "velocity": 64}, {"time": 17, "pitch": 72, "duration": 7, "velocity": 64}, {"time": 17, "pitch": 91, "duration": 8, "velocity": 64}, {"time": 23, "pitch": 60, "duration": 9, "velocity": 64}, {"time": 23, "pitch": 69, "duration": 30, "velocity": 64}, {"time": 29, "pitch": 65, "duration": 12, "velocity": 64}, {"time": 29, "pitch": 69, "duration": 12, "velocity": 64}, {"time": 29, "pitch": 96, "duration": 9, "velocity": 64}, {"time": 40, "pitch": 60, "duration": 9, "velocity": 64}, {"time": 49, "pitch": 64, "duration": 2, "velocity": 64}, {"time": 50, "pitch": 84, "duration": 3, "velocity": 64}, {"time": 51, "pitch": 72, "duration": 21, "velocity": 64}, {"time": 52, "pitch": 88, "duration": 1, "velocity": 64}, {"time": 53, "pitch": 45, "duration": 40, "velocity": 64}, {"time": 53, "pitch": 60, "duration": 15, "velocity": 64}, {"time": 53, "pitch": 64, "duration": 15, "velocity": 64}, {"time": 54, "pitch": 91, "duration": 10, "velocity": 64}, {"time": 59, "pitch": 67, "duration": 7, "velocity": 64}, {"time": 64, "pitch": 57, "duration": 15, "velocity": 64}, {"time": 65, "pitch": 72, "duration": 7, "velocity": 64}, {"time": 65, "pitch": 88, "duration": 9, "velocity": 64}, {"time": 71, "pitch": 60, "duration": 5, "velocity": 64}, {"time": 71, "pitch": 67, "duration": 30, "velocity": 64}, {"time": 77, "pitch": 60, "duration": 15, "velocity": 64}, {"time": 77, "pitch": 64, "duration": 18, "velocity": 64}, {"time": 77, "pitch": 96, "duration": 11, "velocity": 64}, {"time": 88, "pitch": 57, "duration": 30, "velocity": 64}, {"time": 100, "pitch": 77, "duration": 6, "velocity": 64}, {"time": 100, "pitch": 81, "duration": 6, "velocity": 64}, {"time": 101, "pitch": 38, "duration": 36, "velocity": 64}, {"time": 101, "pitch": 62, "duration": 18, "velocity": 64}, {"time": 101, "pitch": 65, "duration": 18, "velocity": 64}, {"time": 101, "pitch": 74, "duration": 36, "velocity": 64}, {"time": 101, "pitch": 86, "duration": 5, "velocity": 64}, {"time": 107, "pitch": 45, "duration": 30, "velocity": 64}, {"time": 107, "pitch": 81, "duration": 11, "velocity": 64}, {"time": 107, "pitch": 84, "duration": 4, "velocity": 64}, {"time": 113, "pitch": 50, "duration": 16, "velocity": 64}, {"time": 113, "pitch": 98, "duration": 5, "velocity": 64}, {"time": 119, "pitch": 57, "duration": 7, "velocity": 64}, {"time": 119, "pitch": 84, "duration": 5, "velocity": 64}, {"time": 125, "pitch": 62, "duration": 15, "velocity": 64}, {"time": 125, "pitch": 65, "duration": 15, "velocity": 64}, {"time": 125, "pitch": 81, "duration": 18, "velocity": 64}, {"time": 125, "pitch": 96, "duration": 5, "velocity": 64}, {"time": 131, "pitch": 50, "duration": 4, "velocity": 64}, {"time": 137, "pitch": 57, "duration": 12, "velocity": 64}, {"time": 137, "pitch": 93, "duration": 9, "velocity": 64}, {"time": 146, "pitch": 84, "duration": 3, "velocity": 64}, {"time": 147, "pitch": 88, "duration": 2, "velocity": 64}, {"time": 148, "pitch": 36, "duration": 48, "velocity": 64}, {"time": 148, "pitch": 60, "duration": 20, "velocity": 64}, {"time": 148, "pitch": 64, "duration": 18, "velocity": 64}, {"time": 149, "pitch": 72, "duration": 42, "velocity": 64}, {"time": 149, "pitch": 91, "duration": 18, "velocity": 64}, {"time": 155, "pitch": 43, "duration": 40, "velocity": 64}, {"time": 160, "pitch": 48, "duration": 36, "velocity": 64}, {"time": 161, "pitch": 76, "duration": 12, "velocity": 64}, {"time": 161, "pitch": 93, "duration": 7, "velocity": 64}, {"time": 166, "pitch": 55, "duration": 8, "velocity": 64}, {"time": 173, "pitch": 60, "duration": 24, "velocity": 64}, {"time": 173, "pitch": 64, "duration": 24, "velocity": 64}, {"time": 173, "pitch": 79, "duration": 18, "velocity": 64}, {"time": 173, "pitch": 96, "duration": 10, "velocity": 64}, {"time": 185, "pitch": 55, "duration": 11, "velocity": 64}, {"time": 197, "pitch": 41, "duration": 18, "velocity": 64}, {"time": 197, "pitch": 72, "duration": 6, "velocity": 64}, {"time": 203, "pitch": 48, "duration": 18, "velocity": 64}, {"time": 206, "pitch": 69, "duration": 4, "velocity": 64}, {"time": 209, "pitch": 60, "duration": 7, "velocity": 64}, {"time": 209, "pitch": 72, "duration": 6, "velocity": 64}, {"time": 215, "pitch": 57, "duration": 16, "velocity": 64}, {"time": 215, "pitch": 69, "duration": 7, "velocity": 64}, {"time": 221, "pitch": 40, "duration": 21, "velocity": 64}, {"time": 221, "pitch": 72, "duration": 8, "velocity": 64}, {"time": 227, "pitch": 48, "duration": 15, "velocity": 64}, {"time": 233, "pitch": 60, "duration": 12, "velocity": 64}, {"time": 233, "pitch": 72, "duration": 5, "velocity": 64}, {"time": 239, "pitch": 55, "duration": 7, "velocity": 64}, {"time": 239, "pitch": 79, "duration": 5, "velocity": 64}, {"time": 245, "pitch": 38, "duration": 18, "velocity": 64}, {"time": 245, "pitch": 77, "duration": 8, "velocity": 64}, {"time": 251, "pitch": 45, "duration": 12, "velocity": 64}, {"time": 254, "pitch": 69, "duration": 2, "velocity": 64}, {"time": 257, "pitch": 53, "duration": 8, "velocity": 64}, {"time": 257, "pitch": 69, "duration": 6, "velocity": 64}, {"time": 263, "pitch": 57, "duration": 6, "velocity": 64}, {"time": 263, "pitch": 74, "duration": 5, "velocity": 64}, {"time": 269, "pitch": 45, "duration": 21, "velocity": 64}, {"time": 269, "pitch": 72, "duration": 18, "velocity": 64}, {"time": 275, "pitch": 52, "duration": 15, "velocity": 64}, {"time": 281, "pitch": 60, "duration": 11, "velocity": 64}, {"time": 293, "pitch": 46, "duration": 18, "velocity": 64}, {"time": 293, "pitch": 74, "duration": 7, "velocity": 64}, {"time": 299, "pitch": 53, "duration": 11, "velocity": 64}, {"time": 302, "pitch": 72, "duration": 2, "velocity": 64}, {"time": 305, "pitch": 58, "duration": 6, "velocity": 64}, {"time": 305, "pitch": 74, "duration": 3, "velocity": 64}, {"time": 311, "pitch": 62, "duration": 7, "velocity": 64}, {"time": 311, "pitch": 74, "duration": 3, "velocity": 64}, {"time": 317, "pitch": 45, "duration": 18, "velocity": 64}, {"time": 317, "pitch": 72, "duration": 5, "velocity": 64}, {"time": 323, "pitch": 52, "duration": 12, "velocity": 64}, {"time": 329, "pitch": 60, "duration": 12, "velocity": 64}, {"time": 329, "pitch": 65, "duration": 7, "velocity": 64}, {"time": 335, "pitch": 64, "duration": 6, "velocity": 64}, {"time": 335, "pitch": 69, "duration": 5, "velocity": 64}, {"time": 341, "pitch": 43, "duration": 20, "velocity": 64}, {"time": 341, "pitch": 67, "duration": 7, "velocity": 64}, {"time": 347, "pitch": 46, "duration": 12, "velocity": 64}, {"time": 350, "pitch": 65, "duration": 5, "velocity": 64}, {"time": 353, "pitch": 62, "duration": 6, "velocity": 64}, {"time": 356, "pitch": 58, "duration": 6, "velocity": 64}, {"time": 359, "pitch": 69, "duration": 6, "velocity": 64}, {"time": 365, "pitch": 48, "duration": 20, "velocity": 64}, {"time": 365, "pitch": 67, "duration": 20, "velocity": 64}, {"time": 371, "pitch": 55, "duration": 12, "velocity": 64}, {"time": 377, "pitch": 60, "duration": 6, "velocity": 64}, {"time": 383, "pitch": 64, "duration": 7, "velocity": 64}, {"time": 389, "pitch": 41, "duration": 18, "velocity": 64}, {"time": 389, "pitch": 72, "duration": 5, "velocity": 64}, {"time": 395, "pitch": 48, "duration": 18, "velocity": 64}, {"time": 398, "pitch": 69, "duration": 2, "velocity": 64}, {"time": 401, "pitch": 57, "duration": 12, "velocity": 64}, {"time": 401, "pitch": 72, "duration": 7, "velocity": 64}, {"time": 407, "pitch": 60, "duration": 7, "velocity": 64}, {"time": 407, "pitch": 69, "duration": 6, "velocity": 64}, {"time": 413, "pitch": 40, "duration": 18, "velocity": 64}, {"time": 413, "pitch": 72, "duration": 7, "velocity": 64}, {"time": 419, "pitch": 48, "duration": 11, "velocity": 64}, {"time": 425, "pitch": 60, "duration": 8, "velocity": 64}, {"time": 425, "pitch": 72, "duration": 5, "velocity": 64}, {"time": 431, "pitch": 55, "duration": 7, "velocity": 64}, {"time": 431, "pitch": 79, "duration": 4, "velocity": 64}, {"time": 437, "pitch": 38, "duration": 16, "velocity": 64}, {"time": 437, "pitch": 77, "duration": 6, "velocity": 64}, {"time": 443, "pitch": 45, "duration": 12, "velocity": 64}, {"time": 446, "pitch": 79, "duration": 2, "velocity": 64}, {"time": 449, "pitch": 53, "duration": 8, "velocity": 64}, {"time": 449, "pitch": 81, "duration": 6, "velocity": 64}, {"time": 455, "pitch": 57, "duration": 4, "velocity": 64}, {"time": 455, "pitch": 69, "duration": 7, "velocity": 64}, {"time": 461, "pitch": 45, "duration": 15, "velocity": 64}, {"time": 461, "pitch": 72, "duration": 11, "velocity": 64}, {"time": 467, "pitch": 52, "duration": 10, "velocity": 64}, {"time": 473, "pitch": 60, "duration": 12, "velocity": 64}, {"time": 473, "pitch": 72, "duration": 7, "velocity": 64}, {"time": 479, "pitch": 65, "duration": 6, "velocity": 64}, {"time": 479, "pitch": 74, "duration": 5, "velocity": 64}, {"time": 485, "pitch": 46, "duration": 21, "velocity": 64}, {"time": 485, "pitch": 77, "duration": 8, "velocity": 64}, {"time": 491, "pitch": 53, "duration": 12, "velocity": 64}, {"time": 494, "pitch": 74, "duration": 4, "velocity": 64}, {"time": 497, "pitch": 58, "duration": 8, "velocity": 64}, {"time": 497, "pitch": 72, "duration": 5, "velocity": 64}, {"time": 503, "pitch": 62, "duration": 5, "velocity": 64}, {"time": 503, "pitch": 74, "duration": 3, "velocity": 64}, {"time": 509, "pitch": 45, "duration": 18, "velocity": 64}, {"time": 509, "pitch": 77, "duration": 12, "velocity": 64}, {"time": 515, "pitch": 52, "duration": 11, "velocity": 64}, {"time": 521, "pitch": 60, "duration": 8, "velocity": 64}, {"time": 521, "pitch": 72, "duration": 8, "velocity": 64}, {"time": 527, "pitch": 64, "duration": 4, "velocity": 64}, {"time": 527, "pitch": 74, "duration": 5, "velocity": 64}, {"time": 533, "pitch": 43, "duration": 12, "velocity": 64}, {"time": 533, "pitch": 58, "duration": 7, "velocity": 64}, {"time": 533, "pitch": 62, "duration": 6, "velocity": 64}, {"time": 533, "pitch": 81, "duration": 7, "velocity": 64}, {"time": 542, "pitch": 79, "duration": 2, "velocity": 64}, {"time": 545, "pitch": 48, "duration": 7, "velocity": 64}, {"time": 545, "pitch": 64, "duration": 7, "velocity": 64}, {"time": 545, "pitch": 67, "duration": 6, "velocity": 64}, {"time": 545, "pitch": 77, "duration": 6, "velocity": 64}, {"time": 551, "pitch": 74, "duration": 3, "velocity": 64}, {"time": 557, "pitch": 41, "duration": 21, "velocity": 64}, {"time": 557, "pitch": 57, "duration": 24, "velocity": 64}, {"time": 557, "pitch": 60, "duration": 24, "velocity": 64}, {"time": 557, "pitch": 77, "duration": 20, "velocity": 64}, {"time": 563, "pitch": 48, "duration": 18, "velocity": 64}, {"time": 569, "pitch": 53, "duration": 7, "velocity": 64}, {"time": 575, "pitch": 65, "duration": 5, "velocity": 64}, {"time": 581, "pitch": 41, "duration": 21, "velocity": 64}, {"time": 581, "pitch": 57, "duration": 16, "velocity": 64}, {"time": 581, "pitch": 60, "duration": 16, "velocity": 64}, {"time": 581, "pitch": 72, "duration": 6, "velocity": 64}, {"time": 587, "pitch": 48, "duration": 16, "velocity": 64}, {"time": 590, "pitch": 69, "duration": 4, "velocity": 64}, {"time": 593, "pitch": 53, "duration": 11, "velocity": 64}, {"time": 593, "pitch": 72, "duration": 6, "velocity": 64}, {"time": 599, "pitch": 57, "duration": 7, "velocity": 64}, {"time": 599, "pitch": 69, "duration": 7, "velocity": 64}, {"time": 605, "pitch": 40, "duration": 18, "velocity": 64}, {"time": 605, "pitch": 72, "duration": 8, "velocity": 64}, {"time": 611, "pitch": 55, "duration": 10, "velocity": 64}, {"time": 617, "pitch": 60, "duration": 10, "velocity": 64}, {"time": 617, "pitch": 72, "duration": 5, "velocity": 64}, {"time": 623, "pitch": 55, "duration": 6, "velocity": 64}, {"time": 623, "pitch": 79, "duration": 5, "velocity": 64}, {"time": 629, "pitch": 50, "duration": 18, "velocity": 64}, {"time": 629, "pitch": 77, "duration": 8, "velocity": 64}, {"time": 635, "pitch": 57, "duration": 12, "velocity": 64}, {"time": 638, "pitch": 69, "duration": 2, "velocity": 64}, {"time": 641, "pitch": 62, "duration": 6, "velocity": 64}, {"time": 641, "pitch": 69, "duration": 6, "velocity": 64}, {"time": 647, "pitch": 65, "duration": 7, "velocity": 64}, {"time": 647, "pitch": 74, "duration": 5, "velocity": 64}, {"time": 653, "pitch": 45, "duration": 18, "velocity": 64}, {"time": 653, "pitch": 72, "duration": 18, "velocity": 64}, {"time": 659, "pitch": 52, "duration": 11, "velocity": 64}, {"time": 665, "pitch": 60, "duration": 10, "velocity": 64}, {"time": 671, "pitch": 64, "duration": 5, "velocity": 64}, {"time": 677, "pitch": 46, "duration": 18, "velocity": 64}, {"time": 677, "pitch": 74, "duration": 7, "velocity": 64}, {"time": 683, "pitch": 53, "duration": 10, "velocity": 64}, {"time": 686, "pitch": 72, "duration": 2, "velocity": 64}, {"time": 689, "pitch": 62, "duration": 11, "velocity": 64}, {"time": 689, "pitch": 74, "duration": 3, "velocity": 64}, {"time": 695, "pitch": 74, "duration": 3, "velocity": 64}, {"time": 696, "pitch": 65, "duration": 5, "velocity": 64}, {"time": 701, "pitch": 41, "duration": 16, "velocity": 64}, {"time": 701, "pitch": 72, "duration": 5, "velocity": 64}, {"time": 707, "pitch": 48, "duration": 12, "velocity": 64}, {"time": 713, "pitch": 57, "duration": 12, "velocity": 64}, {"time": 713, "pitch": 65, "duration": 7, "velocity": 64}, {"time": 719, "pitch": 69, "duration": 5, "velocity": 64}, {"time": 720, "pitch": 65, "duration": 6, "velocity": 64}, {"time": 725, "pitch": 43, "duration": 24, "velocity": 64}, {"time": 725, "pitch": 67, "duration": 7, "velocity": 64}, {"time": 731, "pitch": 50, "duration": 16, "velocity": 64}, {"time": 734, "pitch": 65, "duration": 5, "velocity": 64}, {"time": 737, "pitch": 58, "duration": 7, "velocity": 64}, {"time": 737, "pitch": 62, "duration": 6, "velocity": 64}, {"time": 743, "pitch": 65, "duration": 6, "velocity": 64}, {"time": 743, "pitch": 69, "duration": 6, "velocity": 64}, {"time": 749, "pitch": 48, "duration": 24, "velocity": 64}, {"time": 749, "pitch": 67, "duration": 20, "velocity": 64}, {"time": 755, "pitch": 55, "duration": 16, "velocity": 64}, {"time": 761, "pitch": 60, "duration": 8, "velocity": 64}, {"time": 767, "pitch": 67, "duration": 7, "velocity": 64}, {"time": 773, "pitch": 41, "duration": 18, "velocity": 64}, {"time": 773, "pitch": 72, "duration": 5, "velocity": 64}, {"time": 779, "pitch": 48, "duration": 16, "velocity": 64}, {"time": 779, "pitch": 57, "duration": 7, "velocity": 64}, {"time": 782, "pitch": 69, "duration": 2, "velocity": 64}, {"time": 785, "pitch": 60, "duration": 18, "velocity": 64}, {"time": 785, "pitch": 72, "duration": 7, "velocity": 64}, {"time": 791, "pitch": 57, "duration": 8, "velocity": 64}, {"time": 791, "pitch": 69, "duration": 6, "velocity": 64}, {"time": 797, "pitch": 40, "duration": 18, "velocity": 64}, {"time": 797, "pitch": 72, "duration": 7, "velocity": 64}, {"time": 803, "pitch": 55, "duration": 7, "velocity": 64}, {"time": 809, "pitch": 60, "duration": 11, "velocity": 64}, {"time": 809, "pitch": 72, "duration": 5, "velocity": 64}, {"time": 815, "pitch": 55, "duration": 7, "velocity": 64}, {"time": 815, "pitch": 79, "duration": 4, "velocity": 64}, {"time": 821, "pitch": 38, "duration": 16, "velocity": 64}, {"time": 821, "pitch": 77, "duration": 6, "velocity": 64}, {"time": 827, "pitch": 45, "duration": 12, "velocity": 64}, {"time": 830, "pitch": 79, "duration": 2, "velocity": 64}, {"time": 833, "pitch": 53, "duration": 7, "velocity": 64}, {"time": 833, "pitch": 81, "duration": 6, "velocity": 64}, {"time": 839, "pitch": 57, "duration": 6, "velocity": 64}, {"time": 839, "pitch": 77, "duration": 4, "velocity": 64}, {"time": 845, "pitch": 45, "duration": 16, "velocity": 64}, {"time": 845, "pitch": 76, "duration": 9, "velocity": 64}, {"time": 851, "pitch": 52, "duration": 12, "velocity": 64}, {"time": 857, "pitch": 60, "duration": 12, "velocity": 64}, {"time": 857, "pitch": 77, "duration": 6, "velocity": 64}, {"time": 863, "pitch": 64, "duration": 6, "velocity": 64}, {"time": 866, "pitch": 76, "duration": 3, "velocity": 64}, {"time": 869, "pitch": 46, "duration": 18, "velocity": 64}, {"time": 869, "pitch": 74, "duration": 6, "velocity": 64}, {"time": 875, "pitch": 58, "duration": 12, "velocity": 64}, {"time": 878, "pitch": 72, "duration": 4, "velocity": 64}, {"time": 881, "pitch": 60, "duration": 8, "velocity": 64}, {"time": 881, "pitch": 77, "duration": 6, "velocity": 64}, {"time": 887, "pitch": 65, "duration": 5, "velocity": 64}, {"time": 887, "pitch": 74, "duration": 6, "velocity": 64}, {"time": 893, "pitch": 45, "duration": 18, "velocity": 64}, {"time": 893, "pitch": 72, "duration": 7, "velocity": 64}, {"time": 899, "pitch": 52, "duration": 12, "velocity": 64}, {"time": 905, "pitch": 60, "duration": 7, "velocity": 64}, {"time": 905, "pitch": 77, "duration": 6, "velocity": 64}, {"time": 911, "pitch": 64, "duration": 7, "velocity": 64}, {"time": 911, "pitch": 76, "duration": 5, "velocity": 64}, {"time": 917, "pitch": 43, "duration": 18, "velocity": 64}, {"time": 917, "pitch": 74, "duration": 5, "velocity": 64}, {"time": 923, "pitch": 50, "duration": 12, "velocity": 64}, {"time": 926, "pitch": 72, "duration": 4, "velocity": 64}, {"time": 929, "pitch": 58, "duration": 8, "velocity": 64}, {"time": 929, "pitch": 74, "duration": 4, "velocity": 64}, {"time": 935, "pitch": 65, "duration": 7, "velocity": 64}, {"time": 935, "pitch": 77, "duration": 4, "velocity": 64}, {"time": 941, "pitch": 48, "duration": 16, "velocity": 64}, {"time": 941, "pitch": 64, "duration": 16, "velocity": 64}, {"time": 941, "pitch": 79, "duration": 9, "velocity": 64}, {"time": 947, "pitch": 55, "duration": 9, "velocity": 64}, {"time": 953, "pitch": 67, "duration": 7, "velocity": 64}, {"time": 953, "pitch": 81, "duration": 4, "velocity": 64}, {"time": 956, "pitch": 79, "duration": 4, "velocity": 64}, {"time": 959, "pitch": 64, "duration": 5, "velocity": 64}, {"time": 959, "pitch": 77, "duration": 4, "velocity": 64}, {"time": 962, "pitch": 79, "duration": 2, "velocity": 64}, {"time": 965, "pitch": 41, "duration": 16, "velocity": 64}, {"time": 965, "pitch": 81, "duration": 6, "velocity": 64}, {"time": 971, "pitch": 48, "duration": 10, "velocity": 64}, {"time": 974, "pitch": 79, "duration": 3, "velocity": 64}, {"time": 977, "pitch": 57, "duration": 12, "velocity": 64}, {"time": 977, "pitch": 60, "duration": 24, "velocity": 64}, {"time": 977, "pitch": 77, "duration": 3, "velocity": 64}, {"time": 983, "pitch": 84, "duration": 3, "velocity": 64}, {"time": 989, "pitch": 40, "duration": 18, "velocity": 64}, {"time": 989, "pitch": 79, "duration": 8, "velocity": 64}, {"time": 995, "pitch": 47, "duration": 11, "velocity": 64}, {"time": 1001, "pitch": 55, "duration": 8, "velocity": 64}, {"time": 1001, "pitch": 60, "duration": 7, "velocity": 64}, {"time": 1001, "pitch": 81, "duration": 3, "velocity": 64}, {"time": 1004, "pitch": 79, "duration": 4, "velocity": 64}, {"time": 1007, "pitch": 77, "duration": 2, "velocity": 64}, {"time": 1010, "pitch": 79, "duration": 3, "velocity": 64}, {"time": 1013, "pitch": 38, "duration": 16, "velocity": 64}, {"time": 1013, "pitch": 53, "duration": 10, "velocity": 64}, {"time": 1013, "pitch": 57, "duration": 11, "velocity": 64}, {"time": 1013, "pitch": 77, "duration": 7, "velocity": 64}, {"time": 1019, "pitch": 45, "duration": 12, "velocity": 64}, {"time": 1022, "pitch": 76, "duration": 3, "velocity": 64}, {"time": 1025, "pitch": 53, "duration": 6, "velocity": 64}, {"time": 1025, "pitch": 57, "duration": 6, "velocity": 64}, {"time": 1025, "pitch": 74, "duration": 4, "velocity": 64}, {"time": 1031, "pitch": 50, "duration": 5, "velocity": 64}, {"time": 1031, "pitch": 81, "duration": 4, "velocity": 64}, {"time": 1037, "pitch": 45, "duration": 15, "velocity": 64}, {"time": 1037, "pitch": 60, "duration": 11, "velocity": 64}, {"time": 1037, "pitch": 64, "duration": 11, "velocity": 64}, {"time": 1037, "pitch": 76, "duration": 8, "velocity": 64}, {"time": 1043, "pitch": 52, "duration": 11, "velocity": 64}, {"time": 1049, "pitch": 60, "duration": 6, "velocity": 64}, {"time": 1049, "pitch": 64, "duration": 6, "velocity": 64}, {"time": 1049, "pitch": 77, "duration": 6, "velocity": 64}, {"time": 1058, "pitch": 76, "duration": 4, "velocity": 64}, {"time": 1061, "pitch": 46, "duration": 15, "velocity": 64}, {"time": 1061, "pitch": 62, "duration": 10, "velocity": 64}, {"time": 1061, "pitch": 74, "duration": 7, "velocity": 64}, {"time": 1064, "pitch": 58, "duration": 9, "velocity": 64}, {"time": 1070, "pitch": 72, "duration": 2, "velocity": 64}, {"time": 1073, "pitch": 62, "duration": 9, "velocity": 64}, {"time": 1073, "pitch": 65, "duration": 8, "velocity": 64}, {"time": 1073, "pitch": 86, "duration": 2, "velocity": 64}, {"time": 1079, "pitch": 86, "duration": 3, "velocity": 64}, {"time": 1085, "pitch": 45, "duration": 16, "velocity": 64}, {"time": 1085, "pitch": 60, "duration": 11, "velocity": 64}, {"time": 1085, "pitch": 64, "duration": 11, "velocity": 64}, {"time": 1085, "pitch": 84, "duration": 10, "velocity": 64}, {"time": 1091, "pitch": 52, "duration": 11, "velocity": 64}, {"time": 1097, "pitch": 60, "duration": 5, "velocity": 64}, {"time": 1097, "pitch": 64, "duration": 5, "velocity": 64}, {"time": 1097, "pitch": 81, "duration": 7, "velocity": 64}, {"time": 1103, "pitch": 84, "duration": 7, "velocity": 64}, {"time": 1109, "pitch": 43, "duration": 16, "velocity": 64}, {"time": 1109, "pitch": 58, "duration": 11, "velocity": 64}, {"time": 1109, "pitch": 62, "duration": 11, "velocity": 64}, {"time": 1109, "pitch": 82, "duration": 6, "velocity": 64}, {"time": 1115, "pitch": 46, "duration": 11, "velocity": 64}, {"time": 1118, "pitch": 79, "duration": 3, "velocity": 64}, {"time": 1121, "pitch": 58, "duration": 6, "velocity": 64}, {"time": 1121, "pitch": 62, "duration": 5, "velocity": 64}, {"time": 1121, "pitch": 77, "duration": 3, "velocity": 64}, {"time": 1127, "pitch": 74, "duration": 4, "velocity": 64}, {"time": 1133, "pitch": 36, "duration": 18, "velocity": 64}, {"time": 1133, "pitch": 52, "duration": 11, "velocity": 64}, {"time": 1133, "pitch": 55, "duration": 11, "velocity": 64}, {"time": 1133, "pitch": 79, "duration": 6, "velocity": 64}, {"time": 1139, "pitch": 43, "duration": 12, "velocity": 64}, {"time": 1145, "pitch": 52, "duration": 4, "velocity": 64}, {"time": 1145, "pitch": 55, "duration": 5, "velocity": 64}, {"time": 1145, "pitch": 81, "duration": 4, "velocity": 64}, {"time": 1148, "pitch": 48, "duration": 8, "velocity": 64}, {"time": 1148, "pitch": 79, "duration": 4, "velocity": 64}, {"time": 1151, "pitch": 52, "duration": 3, "velocity": 64}, {"time": 1151, "pitch": 55, "duration": 3, "velocity": 64}, {"time": 1151, "pitch": 77, "duration": 4, "velocity": 64}, {"time": 1154, "pitch": 79, "duration": 2, "velocity": 64}, {"time": 1157, "pitch": 41, "duration": 18, "velocity": 64}, {"time": 1157, "pitch": 57, "duration": 11, "velocity": 64}, {"time": 1157, "pitch": 60, "duration": 11, "velocity": 64}, {"time": 1157, "pitch": 81, "duration": 6, "velocity": 64}, {"time": 1163, "pitch": 48, "duration": 20, "velocity": 64}, {"time": 1166, "pitch": 79, "duration": 3, "velocity": 64}, {"time": 1169, "pitch": 57, "duration": 11, "velocity": 64}, {"time": 1169, "pitch": 60, "duration": 11, "velocity": 64}, {"time": 1169, "pitch": 77, "duration": 3, "velocity": 64}, {"time": 1175, "pitch": 84, "duration": 3, "velocity": 64}, {"time": 1181, "pitch": 40, "duration": 18, "velocity": 64}, {"time": 1181, "pitch": 55, "duration": 10, "velocity": 64}, {"time": 1181, "pitch": 60, "duration": 10, "velocity": 64}, {"time": 1181, "pitch": 79, "duration": 8, "velocity": 64}, {"time": 1187, "pitch": 48, "duration": 10, "velocity": 64}, {"time": 1193, "pitch": 55, "duration": 7, "velocity": 64}, {"time": 1193, "pitch": 60, "duration": 6, "velocity": 64}, {"time": 1193, "pitch": 81, "duration": 3, "velocity": 64}, {"time": 1196, "pitch": 79, "duration": 4, "velocity": 64}, {"time": 1199, "pitch": 77, "duration": 2, "velocity": 64}, {"time": 1202, "pitch": 79, "duration": 3, "velocity": 64}, {"time": 1205, "pitch": 38, "duration": 16, "velocity": 64}, {"time": 1205, "pitch": 53, "duration": 11, "velocity": 64}, {"time": 1205, "pitch": 57, "duration": 11, "velocity": 64}, {"time": 1205, "pitch": 77, "duration": 7, "velocity": 64}, {"time": 1211, "pitch": 45, "duration": 12, "velocity": 64}, {"time": 1214, "pitch": 76, "duration": 3, "velocity": 64}, {"time": 1217, "pitch": 53, "duration": 6, "velocity": 64}, {"time": 1217, "pitch": 57, "duration": 6, "velocity": 64}, {"time": 1217, "pitch": 74, "duration": 4, "velocity": 64}, {"time": 1223, "pitch": 50, "duration": 6, "velocity": 64}, {"time": 1223, "pitch": 77, "duration": 6, "velocity": 64}, {"time": 1229, "pitch": 45, "duration": 18, "velocity": 64}, {"time": 1229, "pitch": 60, "duration": 11, "velocity": 64}, {"time": 1229, "pitch": 64, "duration": 11, "velocity": 64}, {"time": 1229, "pitch": 84, "duration": 5, "velocity": 64}, {"time": 1235, "pitch": 52, "duration": 16, "velocity": 64}, {"time": 1235, "pitch": 81, "duration": 6, "velocity": 64}, {"time": 1241, "pitch": 60, "duration": 11, "velocity": 64}, {"time": 1241, "pitch": 64, "duration": 8, "velocity": 64}, {"time": 1241, "pitch": 81, "duration": 7, "velocity": 64}, {"time": 1247, "pitch": 57, "duration": 2, "velocity": 64}, {"time": 1250, "pitch": 79, "duration": 2, "velocity": 64}, {"time": 1253, "pitch": 46, "duration": 18, "velocity": 64}, {"time": 1253, "pitch": 62, "duration": 10, "velocity": 64}, {"time": 1253, "pitch": 77, "duration": 3, "velocity": 64}, {"time": 1259, "pitch": 74, "duration": 5, "velocity": 64}, {"time": 1265, "pitch": 62, "duration": 7, "velocity": 64}, {"time": 1265, "pitch": 65, "duration": 7, "velocity": 64}, {"time": 1265, "pitch": 81, "duration": 7, "velocity": 64}, {"time": 1274, "pitch": 79, "duration": 2, "velocity": 64}, {"time": 1277, "pitch": 45, "duration": 16, "velocity": 64}, {"time": 1277, "pitch": 60, "duration": 11, "velocity": 64}, {"time": 1277, "pitch": 64, "duration": 11, "velocity": 64}, {"time": 1277, "pitch": 77, "duration": 4, "velocity": 64}, {"time": 1283, "pitch": 52, "duration": 10, "velocity": 64}, {"time": 1283, "pitch": 72, "duration": 8, "velocity": 64}, {"time": 1289, "pitch": 60, "duration": 5, "velocity": 64}, {"time": 1289, "pitch": 64, "duration": 5, "velocity": 64}, {"time": 1295, "pitch": 74, "duration": 4, "velocity": 64}, {"time": 1298, "pitch": 76, "duration": 2, "velocity": 64}, {"time": 1301, "pitch": 43, "duration": 18, "velocity": 64}, {"time": 1301, "pitch": 58, "duration": 11, "velocity": 64}, {"time": 1301, "pitch": 62, "duration": 10, "velocity": 64}, {"time": 1301, "pitch": 77, "duration": 4, "velocity": 64}, {"time": 1307, "pitch": 74, "duration": 7, "velocity": 64}, {"time": 1313, "pitch": 58, "duration": 7, "velocity": 64}, {"time": 1313, "pitch": 62, "duration": 6, "velocity": 64}, {"time": 1313, "pitch": 77, "duration": 5, "velocity": 64}, {"time": 1319, "pitch": 81, "duration": 3, "velocity": 64}, {"time": 1325, "pitch": 48, "duration": 18, "velocity": 64}, {"time": 1325, "pitch": 64, "duration": 11, "velocity": 64}, {"time": 1325, "pitch": 67, "duration": 11, "velocity": 64}, {"time": 1325, "pitch": 84, "duration": 6, "velocity": 64}, {"time": 1331, "pitch": 55, "duration": 12, "velocity": 64}, {"time": 1334, "pitch": 81, "duration": 3, "velocity": 64}, {"time": 1337, "pitch": 60, "duration": 5, "velocity": 64}, {"time": 1337, "pitch": 64, "duration": 7, "velocity": 64}, {"time": 1337, "pitch": 67, "duration": 7, "velocity": 64}, {"time": 1337, "pitch": 77, "duration": 5, "velocity": 64}, {"time": 1343, "pitch": 74, "duration": 4, "velocity": 64}, {"time": 1346, "pitch": 81, "duration": 2, "velocity": 64}, {"time": 1346, "pitch": 84, "duration": 3, "velocity": 64}, {"time": 1348, "pitch": 41, "duration": 40, "velocity": 64}, {"time": 1349, "pitch": 77, "duration": 48, "velocity": 64}, {"time": 1349, "pitch": 89, "duration": 2, "velocity": 64}, {"time": 1355, "pitch": 48, "duration": 36, "velocity": 64}, {"time": 1361, "pitch": 53, "duration": 24, "velocity": 64}, {"time": 1361, "pitch": 55, "duration": 7, "velocity": 64}, {"time": 1367, "pitch": 57, "duration": 18, "velocity": 64}, {"time": 1367, "pitch": 81, "duration": 5, "velocity": 64}, {"time": 1368, "pitch": 57, "duration": 18, "velocity": 64}, {"time": 1370, "pitch": 84, "duration": 3, "velocity": 64}, {"time": 1373, "pitch": 65, "duration": 30, "velocity": 64}, {"time": 1373, "pitch": 69, "duration": 9, "velocity": 64}, {"time": 1373, "pitch": 88, "duration": 12, "velocity": 64}, {"time": 1379, "pitch": 72, "duration": 8, "velocity": 64}, {"time": 1385, "pitch": 60, "duration": 12, "velocity": 64}, {"time": 1385, "pitch": 76, "duration": 7, "velocity": 64}, {"time": 1391, "pitch": 57, "duration": 6, "velocity": 64}, {"time": 1391, "pitch": 77, "duration": 6, "velocity": 64}, {"time": 1391, "pitch": 81, "duration": 3, "velocity": 64}, {"time": 1394, "pitch": 88, "duration": 2, "velocity": 64}, {"time": 1397, "pitch": 47, "duration": 48, "velocity": 64}, {"time": 1397, "pitch": 59, "duration": 8, "velocity": 64}, {"time": 1397, "pitch": 86, "duration": 16, "velocity": 64}, {"time": 1403, "pitch": 67, "duration": 7, "velocity": 64}, {"time": 1404, "pitch": 53, "duration": 40, "velocity": 64}, {"time": 1409, "pitch": 59, "duration": 12, "velocity": 64}, {"time": 1409, "pitch": 71, "duration": 7, "velocity": 64}, {"time": 1415, "pitch": 62, "duration": 30, "velocity": 64}, {"time": 1415, "pitch": 67, "duration": 6, "velocity": 64}, {"time": 1418, "pitch": 81, "duration": 3, "velocity": 64}, {"time": 1419, "pitch": 84, "duration": 3, "velocity": 64}, {"time": 1420, "pitch": 89, "duration": 11, "velocity": 64}, {"time": 1421, "pitch": 65, "duration": 24, "velocity": 64}, {"time": 1421, "pitch": 74, "duration": 9, "velocity": 64}, {"time": 1433, "pitch": 59, "duration": 10, "velocity": 64}, {"time": 1433, "pitch": 79, "duration": 4, "velocity": 64}, {"time": 1436, "pitch": 81, "duration": 3, "velocity": 64}, {"time": 1439, "pitch": 84, "duration": 1, "velocity": 64}, {"time": 1442, "pitch": 86, "duration": 1, "velocity": 64}, {"time": 1445, "pitch": 46, "duration": 16, "velocity": 64}, {"time": 1445, "pitch": 58, "duration": 18, "velocity": 64}, {"time": 1445, "pitch": 62, "duration": 7, "velocity": 64}, {"time": 1445, "pitch": 65, "duration": 12, "velocity": 64}, {"time": 1445, "pitch": 89, "duration": 5, "velocity": 64}, {"time": 1451, "pitch": 58, "duration": 12, "velocity": 64}, {"time": 1451, "pitch": 65, "duration": 6, "velocity": 64}, {"time": 1454, "pitch": 86, "duration": 3, "velocity": 64}, {"time": 1456, "pitch": 62, "duration": 12, "velocity": 64}, {"time": 1457, "pitch": 70, "duration": 6, "velocity": 64}, {"time": 1457, "pitch": 89, "duration": 3, "velocity": 64}, {"time": 1462, "pitch": 65, "duration": 3, "velocity": 64}, {"time": 1463, "pitch": 65, "duration": 6, "velocity": 64}, {"time": 1463, "pitch": 96, "duration": 3, "velocity": 64}, {"time": 1468, "pitch": 48, "duration": 24, "velocity": 64}, {"time": 1468, "pitch": 64, "duration": 15, "velocity": 64}, {"time": 1469, "pitch": 60, "duration": 16, "velocity": 64}, {"time": 1469, "pitch": 67, "duration": 24, "velocity": 64}, {"time": 1469, "pitch": 93, "duration": 5, "velocity": 64}, {"time": 1474, "pitch": 55, "duration": 16, "velocity": 64}, {"time": 1475, "pitch": 67, "duration": 11, "velocity": 64}, {"time": 1475, "pitch": 91, "duration": 4, "velocity": 64}, {"time": 1480, "pitch": 60, "duration": 12, "velocity": 64}, {"time": 1481, "pitch": 72, "duration": 5, "velocity": 64}, {"time": 1481, "pitch": 89, "duration": 3, "velocity": 64}, {"time": 1484, "pitch": 86, "duration": 3, "velocity": 64}, {"time": 1486, "pitch": 64, "duration": 6, "velocity": 64}, {"time": 1493, "pitch": 53, "duration": 30, "velocity": 64}, {"time": 1493, "pitch": 89, "duration": 24, "velocity": 64}, {"time": 1499, "pitch": 60, "duration": 40, "velocity": 64}, {"time": 1505, "pitch": 65, "duration": 36, "velocity": 64}, {"time": 1511, "pitch": 70, "duration": 5, "velocity": 64}, {"time": 1517, "pitch": 69, "duration": 21, "velocity": 64}, {"time": 1541, "pitch": 41, "duration": 21, "velocity": 64}, {"time": 1541, "pitch": 57, "duration": 16, "velocity": 64}, {"time": 1541, "pitch": 60, "duration": 16, "velocity": 64}, {"time": 1541, "pitch": 72, "duration": 6, "velocity": 64}, {"time": 1547, "pitch": 48, "duration": 16, "velocity": 64}, {"time": 1550, "pitch": 69, "duration": 4, "velocity": 64}, {"time": 1553, "pitch": 53, "duration": 11, "velocity": 64}, {"time": 1553, "pitch": 72, "duration": 6, "velocity": 64}, {"time": 1559, "pitch": 57, "duration": 7, "velocity": 64}, {"time": 1559, "pitch": 69, "duration": 7, "velocity": 64}, {"time": 1565, "pitch": 40, "duration": 18, "velocity": 64}, {"time": 1565, "pitch": 72, "duration": 8, "velocity": 64}, {"time": 1571, "pitch": 55, "duration": 10, "velocity": 64}, {"time": 1577, "pitch": 60, "duration": 10, "velocity": 64}, {"time": 1577, "pitch": 72, "duration": 5, "velocity": 64}, {"time": 1583, "pitch": 55, "duration": 6, "velocity": 64}, {"time": 1583, "pitch": 79, "duration": 5, "velocity": 64}, {"time": 1589, "pitch": 50, "duration": 18, "velocity": 64}, {"time": 1589, "pitch": 77, "duration": 8, "velocity": 64}, {"time": 1595, "pitch": 57, "duration": 12, "velocity": 64}, {"time": 1598, "pitch": 69, "duration": 2, "velocity": 64}, {"time": 1601, "pitch": 62, "duration": 6, "velocity": 64}, {"time": 1601, "pitch": 69, "duration": 6, "velocity": 64}, {"time": 1607, "pitch": 65, "duration": 7, "velocity": 64}, {"time": 1607, "pitch": 74, "duration": 5, "velocity": 64}, {"time": 1613, "pitch": 45, "duration": 18, "velocity": 64}, {"time": 1613, "pitch": 72, "duration": 18, "velocity": 64}, {"time": 1619, "pitch": 52, "duration": 11, "velocity": 64}, {"time": 1625, "pitch": 60, "duration": 10, "velocity": 64}, {"time": 1631, "pitch": 64, "duration": 5, "velocity": 64}, {"time": 1637, "pitch": 46, "duration": 18, "velocity": 64}, {"time": 1637, "pitch": 74, "duration": 7, "velocity": 64}, {"time": 1643, "pitch": 53, "duration": 10, "velocity": 64}, {"time": 1646, "pitch": 72, "duration": 2, "velocity": 64}, {"time": 1649, "pitch": 62, "duration": 11, "velocity": 64}, {"time": 1649, "pitch": 74, "duration": 3, "velocity": 64}, {"time": 1655, "pitch": 74, "duration": 3, "velocity": 64}, {"time": 1656, "pitch": 65, "duration": 5, "velocity": 64}, {"time": 1661, "pitch": 41, "duration": 16, "velocity": 64}, {"time": 1661, "pitch": 72, "duration": 5, "velocity": 64}, {"time": 1667, "pitch": 48, "duration": 12, "velocity": 64}, {"time": 1673, "pitch": 57, "duration": 12, "velocity": 64}, {"time": 1673, "pitch": 65, "duration": 7, "velocity": 64}, {"time": 1679, "pitch": 69, "duration": 5, "velocity": 64}, {"time": 1680, "pitch": 65, "duration": 6, "velocity": 64}, {"time": 1685, "pitch": 43, "duration": 24, "velocity": 64}, {"time": 1685, "pitch": 67, "duration": 7, "velocity": 64}, {"time": 1691, "pitch": 50, "duration": 16, "velocity": 64}, {"time": 1694, "pitch": 65, "duration": 5, "velocity": 64}, {"time": 1697, "pitch": 58, "duration": 7, "velocity": 64}, {"time": 1697, "pitch": 62, "duration": 6, "velocity": 64}, {"time": 1703, "pitch": 65, "duration": 6, "velocity": 64}, {"time": 1703, "pitch": 69, "duration": 6, "velocity": 64}, {"time": 1709, "pitch": 48, "duration": 24, "velocity": 64}, {"time": 1709, "pitch": 67, "duration": 20, "velocity": 64}, {"time": 1715, "pitch": 55, "duration": 16, "velocity": 64}, {"time": 1721, "pitch": 60, "duration": 8, "velocity": 64}, {"time": 1727, "pitch": 67, "duration": 7, "velocity": 64}, {"time": 1733, "pitch": 41, "duration": 18, "velocity": 64}, {"time": 1733, "pitch": 72, "duration": 5, "velocity": 64}, {"time": 1739, "pitch": 48, "duration": 16, "velocity": 64}, {"time": 1739, "pitch": 57, "duration": 7, "velocity": 64}, {"time": 1742, "pitch": 69, "duration": 2, "velocity": 64}, {"time": 1745, "pitch": 60, "duration": 18, "velocity": 64}, {"time": 1745, "pitch": 72, "duration": 7, "velocity": 64}, {"time": 1751, "pitch": 57, "duration": 8, "velocity": 64}, {"time": 1751, "pitch": 69, "duration": 6, "velocity": 64}, {"time": 1757, "pitch": 40, "duration": 18, "velocity": 64}, {"time": 1757, "pitch": 72, "duration": 7, "velocity": 64}, {"time": 1763, "pitch": 55, "duration": 7, "velocity": 64}, {"time": 1769, "pitch": 60, "duration": 11, "velocity": 64}, {"time": 1769, "pitch": 72, "duration": 5, "velocity": 64}, {"time": 1775, "pitch": 55, "duration": 7, "velocity": 64}, {"time": 1775, "pitch": 79, "duration": 4, "velocity": 64}, {"time": 1781, "pitch": 38, "duration": 16, "velocity": 64}, {"time": 1781, "pitch": 77, "duration": 6, "velocity": 64}, {"time": 1787, "pitch": 45, "duration": 12, "velocity": 64}, {"time": 1790, "pitch": 79, "duration": 2, "velocity": 64}, {"time": 1793, "pitch": 53, "duration": 7, "velocity": 64}, {"time": 1793, "pitch": 81, "duration": 6, "velocity": 64}, {"time": 1799, "pitch": 57, "duration": 6, "velocity": 64}, {"time": 1799, "pitch": 77, "duration": 4, "velocity": 64}, {"time": 1805, "pitch": 45, "duration": 16, "velocity": 64}, {"time": 1805, "pitch": 76, "duration": 9, "velocity": 64}, {"time": 1811, "pitch": 52, "duration": 12, "velocity": 64}, {"time": 1817, "pitch": 60, "duration": 12, "velocity": 64}, {"time": 1817, "pitch": 77, "duration": 6, "velocity": 64}, {"time": 1823, "pitch": 64, "duration": 6, "velocity": 64}, {"time": 1826, "pitch": 76, "duration": 3, "velocity": 64}, {"time": 1829, "pitch": 46, "duration": 18, "velocity": 64}, {"time": 1829, "pitch": 74, "duration": 6, "velocity": 64}, {"time": 1835, "pitch": 58, "duration": 12, "velocity": 64}, {"time": 1838, "pitch": 72, "duration": 4, "velocity": 64}, {"time": 1841, "pitch": 60, "duration": 8, "velocity": 64}, {"time": 1841, "pitch": 77, "duration": 6, "velocity": 64}, {"time": 1847, "pitch": 65, "duration": 5, "velocity": 64}, {"time": 1847, "pitch": 74, "duration": 6, "velocity": 64}, {"time": 1853, "pitch": 45, "duration": 18, "velocity": 64}, {"time": 1853, "pitch": 72, "duration": 7, "velocity": 64}, {"time": 1859, "pitch": 52, "duration": 12, "velocity": 64}, {"time": 1865, "pitch": 60, "duration": 7, "velocity": 64}, {"time": 1865, "pitch": 77, "duration": 6, "velocity": 64}, {"time": 1871, "pitch": 64, "duration": 7, "velocity": 64}, {"time": 1871, "pitch": 76, "duration": 5, "velocity": 64}, {"time": 1877, "pitch": 43, "duration": 18, "velocity": 64}, {"time": 1877, "pitch": 74, "duration": 5, "velocity": 64}, {"time": 1883, "pitch": 50, "duration": 12, "velocity": 64}, {"time": 1886, "pitch": 72, "duration": 4, "velocity": 64}, {"time": 1889, "pitch": 58, "duration": 8, "velocity": 64}, {"time": 1889, "pitch": 74, "duration": 4, "velocity": 64}, {"time": 1895, "pitch": 65, "duration": 7, "velocity": 64}, {"time": 1895, "pitch": 77, "duration": 4, "velocity": 64}, {"time": 1901, "pitch": 48, "duration": 16, "velocity": 64}, {"time": 1901, "pitch": 64, "duration": 16, "velocity": 64}, {"time": 1901, "pitch": 79, "duration": 9, "velocity": 64}, {"time": 1907, "pitch": 55, "duration": 9, "velocity": 64}, {"time": 1913, "pitch": 67, "duration": 7, "velocity": 64}, {"time": 1913, "pitch": 81, "duration": 4, "velocity": 64}, {"time": 1916, "pitch": 79, "duration": 4, "velocity": 64}, {"time": 1919, "pitch": 64, "duration": 5, "velocity": 64}, {"time": 1919, "pitch": 77, "duration": 4, "velocity": 64}, {"time": 1922, "pitch": 79, "duration": 2, "velocity": 64}, {"time": 1925, "pitch": 41, "duration": 16, "velocity": 64}, {"time": 1925, "pitch": 81, "duration": 6, "velocity": 64}, {"time": 1931, "pitch": 48, "duration": 10, "velocity": 64}, {"time": 1934, "pitch": 79, "duration": 3, "velocity": 64}, {"time": 1937, "pitch": 57, "duration": 12, "velocity": 64}, {"time": 1937, "pitch": 60, "duration": 24, "velocity": 64}, {"time": 1937, "pitch": 77, "duration": 3, "velocity": 64}, {"time": 1943, "pitch": 84, "duration": 3, "velocity": 64}, {"time": 1949, "pitch": 40, "duration": 18, "velocity": 64}, {"time": 1949, "pitch": 79, "duration": 8, "velocity": 64}, {"time": 1955, "pitch": 47, "duration": 11, "velocity": 64}, {"time": 1961, "pitch": 55, "duration": 8, "velocity": 64}, {"time": 1961, "pitch": 60, "duration": 7, "velocity": 64}, {"time": 1961, "pitch": 81, "duration": 3, "velocity": 64}, {"time": 1964, "pitch": 79, "duration": 4, "velocity": 64}, {"time": 1967, "pitch": 77, "duration": 2, "velocity": 64}, {"time": 1970, "pitch": 79, "duration": 3, "velocity": 64}, {"time": 1973, "pitch": 38, "duration": 16, "velocity": 64}, {"time": 1973, "pitch": 53, "duration": 10, "velocity": 64}, {"time": 1973, "pitch": 57, "duration": 11, "velocity": 64}, {"time": 1973, "pitch": 77, "duration": 7, "velocity": 64}, {"time": 1979, "pitch": 45, "duration": 12, "velocity": 64}, {"time": 1982, "pitch": 76, "duration": 3, "velocity": 64}, {"time": 1985, "pitch": 53, "duration": 6, "velocity": 64}, {"time": 1985, "pitch": 57, "duration": 6, "velocity": 64}, {"time": 1985, "pitch": 74, "duration": 4, "velocity": 64}, {"time": 1991, "pitch": 50, "duration": 5, "velocity": 64}, {"time": 1991, "pitch": 81, "duration": 4, "velocity": 64}, {"time": 1997, "pitch": 45, "duration": 15, "velocity": 64}, {"time": 1997, "pitch": 60, "duration": 11, "velocity": 64}, {"time": 1997, "pitch": 64, "duration": 11, "velocity": 64}, {"time": 1997, "pitch": 76, "duration": 8, "velocity": 64}, {"time": 2003, "pitch": 52, "duration": 11, "velocity": 64}, {"time": 2009, "pitch": 60, "duration": 6, "velocity": 64}, {"time": 2009, "pitch": 64, "duration": 6, "velocity": 64}, {"time": 2009, "pitch": 77, "duration": 6, "velocity": 64}, {"time": 2018, "pitch": 76, "duration": 4, "velocity": 64}, {"time": 2021, "pitch": 46, "duration": 15, "velocity": 64}, {"time": 2021, "pitch": 62, "duration": 10, "velocity": 64}, {"time": 2021, "pitch": 74, "duration": 7, "velocity": 64}, {"time": 2024, "pitch": 58, "duration": 9, "velocity": 64}, {"time": 2030, "pitch": 72, "duration": 2, "velocity": 64}, {"time": 2033, "pitch": 62, "duration": 9, "velocity": 64}, {"time": 2033, "pitch": 65, "duration": 8, "velocity": 64}, {"time": 2033, "pitch": 86, "duration": 2, "velocity": 64}, {"time": 2039, "pitch": 86, "duration": 3, "velocity": 64}, {"time": 2045, "pitch": 45, "duration": 16, "velocity": 64}, {"time": 2045, "pitch": 60, "duration": 11, "velocity": 64}, {"time": 2045, "pitch": 64, "duration": 11, "velocity": 64}, {"time": 2045, "pitch": 84, "duration": 10, "velocity": 64}, {"time": 2051, "pitch": 52, "duration": 11, "velocity": 64}, {"time": 2057, "pitch": 60, "duration": 5, "velocity": 64}, {"time": 2057, "pitch": 64, "duration": 5, "velocity": 64}, {"time": 2057, "pitch": 81, "duration": 7, "velocity": 64}, {"time": 2063, "pitch": 84, "duration": 7, "velocity": 64}, {"time": 2069, "pitch": 43, "duration": 16, "velocity": 64}, {"time": 2069, "pitch": 58, "duration": 11, "velocity": 64}, {"time": 2069, "pitch": 62, "duration": 11, "velocity": 64}, {"time": 2069, "pitch": 82, "duration": 6, "velocity": 64}, {"time": 2075, "pitch": 46, "duration": 11, "velocity": 64}, {"time": 2078, "pitch": 79, "duration": 3, "velocity": 64}, {"time": 2081, "pitch": 58, "duration": 6, "velocity": 64}, {"time": 2081, "pitch": 62, "duration": 5, "velocity": 64}, {"time": 2081, "pitch": 77, "duration": 3, "velocity": 64}, {"time": 2087, "pitch": 74, "duration": 4, "velocity": 64}, {"time": 2093, "pitch": 36, "duration": 18, "velocity": 64}, {"time": 2093, "pitch": 52, "duration": 11, "velocity": 64}, {"time": 2093, "pitch": 55, "duration": 11, "velocity": 64}, {"time": 2093, "pitch": 79, "duration": 6, "velocity": 64}, {"time": 2099, "pitch": 43, "duration": 12, "velocity": 64}, {"time": 2105, "pitch": 52, "duration": 4, "velocity": 64}, {"time": 2105, "pitch": 55, "duration": 5, "velocity": 64}, {"time": 2105, "pitch": 81, "duration": 4, "velocity": 64}, {"time": 2108, "pitch": 48, "duration": 8, "velocity": 64}, {"time": 2108, "pitch": 79, "duration": 4, "velocity": 64}, {"time": 2111, "pitch": 52, "duration": 3, "velocity": 64}, {"time": 2111, "pitch": 55, "duration": 3, "velocity": 64}, {"time": 2111, "pitch": 77, "duration": 4, "velocity": 64}, {"time": 2114, "pitch": 79, "duration": 2, "velocity": 64}, {"time": 2117, "pitch": 41, "duration": 18, "velocity": 64}, {"time": 2117, "pitch": 57, "duration": 11, "velocity": 64}, {"time": 2117, "pitch": 60, "duration": 11, "velocity": 64}, {"time": 2117, "pitch": 81, "duration": 6, "velocity": 64}, {"time": 2123, "pitch": 48, "duration": 20, "velocity": 64}, {"time": 2126, "pitch": 79, "duration": 3, "velocity": 64}, {"time": 2129, "pitch": 57, "duration": 11, "velocity": 64}, {"time": 2129, "pitch": 60, "duration": 11, "velocity": 64}, {"time": 2129, "pitch": 77, "duration": 3, "velocity": 64}, {"time": 2135, "pitch": 84, "duration": 3, "velocity": 64}, {"time": 2141, "pitch": 40, "duration": 18, "velocity": 64}, {"time": 2141, "pitch": 55, "duration": 10, "velocity": 64}, {"time": 2141, "pitch": 60, "duration": 10, "velocity": 64}, {"time": 2141, "pitch": 79, "duration": 8, "velocity": 64}, {"time": 2147, "pitch": 48, "duration": 10, "velocity": 64}, {"time": 2153, "pitch": 55, "duration": 7, "velocity": 64}, {"time": 2153, "pitch": 60, "duration": 6, "velocity": 64}, {"time": 2153, "pitch": 81, "duration": 3, "velocity": 64}, {"time": 2156, "pitch": 79, "duration": 4, "velocity": 64}, {"time": 2159, "pitch": 77, "duration": 2, "velocity": 64}, {"time": 2162, "pitch": 79, "duration": 3, "velocity": 64}, {"time": 2165, "pitch": 38, "duration": 16, "velocity": 64}, {"time": 2165, "pitch": 53, "duration": 11, "velocity": 64}, {"time": 2165, "pitch": 57, "duration": 11, "velocity": 64}, {"time": 2165, "pitch": 77, "duration": 7, "velocity": 64}, {"time": 2171, "pitch": 45, "duration": 12, "velocity": 64}, {"time": 2174, "pitch": 76, "duration": 3, "velocity": 64}, {"time": 2177, "pitch": 53, "duration": 6, "velocity": 64}, {"time": 2177, "pitch": 57, "duration": 6, "velocity": 64}, {"time": 2177, "pitch": 74, "duration": 4, "velocity": 64}, {"time": 2183, "pitch": 50, "duration": 6, "velocity": 64}, {"time": 2183, "pitch": 77, "duration": 6, "velocity": 64}, {"time": 2189, "pitch": 45, "duration": 18, "velocity": 64}, {"time": 2189, "pitch": 60, "duration": 11, "velocity": 64}, {"time": 2189, "pitch": 64, "duration": 11, "velocity": 64}, {"time": 2189, "pitch": 84, "duration": 5, "velocity": 64}, {"time": 2195, "pitch": 52, "duration": 16, "velocity": 64}, {"time": 2195, "pitch": 81, "duration": 6, "velocity": 64}, {"time": 2201, "pitch": 60, "duration": 11, "velocity": 64}, {"time": 2201, "pitch": 64, "duration": 8, "velocity": 64}, {"time": 2201, "pitch": 81, "duration": 7, "velocity": 64}, {"time": 2210, "pitch": 79, "duration": 2, "velocity": 64}, {"time": 2213, "pitch": 46, "duration": 18, "velocity": 64}, {"time": 2213, "pitch": 62, "duration": 10, "velocity": 64}, {"time": 2213, "pitch": 77, "duration": 3, "velocity": 64}, {"time": 2219, "pitch": 74, "duration": 5, "velocity": 64}, {"time": 2225, "pitch": 62, "duration": 7, "velocity": 64}, {"time": 2225, "pitch": 65, "duration": 7, "velocity": 64}, {"time": 2225, "pitch": 81, "duration": 7, "velocity": 64}, {"time": 2234, "pitch": 79, "duration": 2, "velocity": 64}, {"time": 2237, "pitch": 45, "duration": 16, "velocity": 64}, {"time": 2237, "pitch": 60, "duration": 11, "velocity": 64}, {"time": 2237, "pitch": 64, "duration": 11, "velocity": 64}, {"time": 2237, "pitch": 77, "duration": 4, "velocity": 64}, {"time": 2243, "pitch": 52, "duration": 10, "velocity": 64}, {"time": 2243, "pitch": 72, "duration": 8, "velocity": 64}, {"time": 2249, "pitch": 60, "duration": 5, "velocity": 64}, {"time": 2249, "pitch": 64, "duration": 5, "velocity": 64}, {"time": 2255, "pitch": 74, "duration": 4, "velocity": 64}, {"time": 2258, "pitch": 76, "duration": 2, "velocity": 64}, {"time": 2261, "pitch": 43, "duration": 18, "velocity": 64}, {"time": 2261, "pitch": 58, "duration": 11, "velocity": 64}, {"time": 2261, "pitch": 62, "duration": 10, "velocity": 64}, {"time": 2261, "pitch": 77, "duration": 4, "velocity": 64}, {"time": 2267, "pitch": 74, "duration": 7, "velocity": 64}, {"time": 2273, "pitch": 58, "duration": 7, "velocity": 64}, {"time": 2273, "pitch": 62, "duration": 6, "velocity": 64}, {"time": 2273, "pitch": 77, "duration": 5, "velocity": 64}, {"time": 2279, "pitch": 81, "duration": 3, "velocity": 64}, {"time": 2285, "pitch": 48, "duration": 20, "velocity": 64}, {"time": 2285, "pitch": 64, "duration": 11, "velocity": 64}, {"time": 2285, "pitch": 67, "duration": 11, "velocity": 64}, {"time": 2285, "pitch": 84, "duration": 6, "velocity": 64}, {"time": 2291, "pitch": 55, "duration": 15, "velocity": 64}, {"time": 2294, "pitch": 81, "duration": 3, "velocity": 64}, {"time": 2297, "pitch": 60, "duration": 5, "velocity": 64}, {"time": 2297, "pitch": 64, "duration": 8, "velocity": 64}, {"time": 2297, "pitch": 67, "duration": 8, "velocity": 64}, {"time": 2297, "pitch": 77, "duration": 5, "velocity": 64}, {"time": 2300, "pitch": 72, "duration": 3, "velocity": 64}, {"time": 2303, "pitch": 74, "duration": 4, "velocity": 64}, {"time": 2303, "pitch": 77, "duration": 4, "velocity": 64}, {"time": 2306, "pitch": 79, "duration": 4, "velocity": 64}, {"time": 2309, "pitch": 41, "duration": 18, "velocity": 64}, {"time": 2309, "pitch": 57, "duration": 16, "velocity": 64}, {"time": 2309, "pitch": 60, "duration": 16, "velocity": 64}, {"time": 2309, "pitch": 77, "duration": 48, "velocity": 64}, {"time": 2309, "pitch": 81, "duration": 15, "velocity": 64}, {"time": 2315, "pitch": 48, "duration": 30, "velocity": 64}, {"time": 2321, "pitch": 53, "duration": 4, "velocity": 64}, {"time": 2327, "pitch": 57, "duration": 2, "velocity": 64}, {"time": 2327, "pitch": 60, "duration": 5, "velocity": 64}, {"time": 2327, "pitch": 84, "duration": 4, "velocity": 64}, {"time": 2333, "pitch": 40, "duration": 18, "velocity": 64}, {"time": 2333, "pitch": 55, "duration": 11, "velocity": 64}, {"time": 2333, "pitch": 60, "duration": 11, "velocity": 64}, {"time": 2333, "pitch": 79, "duration": 11, "velocity": 64}, {"time": 2345, "pitch": 55, "duration": 11, "velocity": 64}, {"time": 2345, "pitch": 60, "duration": 11, "velocity": 64}, {"time": 2357, "pitch": 38, "duration": 20, "velocity": 64}, {"time": 2357, "pitch": 77, "duration": 15, "velocity": 64}, {"time": 2363, "pitch": 45, "duration": 15, "velocity": 64}, {"time": 2369, "pitch": 53, "duration": 9, "velocity": 64}, {"time": 2369, "pitch": 57, "duration": 8, "velocity": 64}, {"time": 2375, "pitch": 50, "duration": 3, "velocity": 64}, {"time": 2375, "pitch": 89, "duration": 4, "velocity": 64}, {"time": 2381, "pitch": 45, "duration": 16, "velocity": 64}, {"time": 2381, "pitch": 88, "duration": 8, "velocity": 64}, {"time": 2387, "pitch": 52, "duration": 12, "velocity": 64}, {"time": 2393, "pitch": 60, "duration": 11, "velocity": 64}, {"time": 2393, "pitch": 64, "duration": 12, "velocity": 64}, {"time": 2393, "pitch": 84, "duration": 9, "velocity": 64}, {"time": 2405, "pitch": 46, "duration": 15, "velocity": 64}, {"time": 2405, "pitch": 53, "duration": 16, "velocity": 64}, {"time": 2405, "pitch": 58, "duration": 5, "velocity": 64}, {"time": 2405, "pitch": 62, "duration": 9, "velocity": 64}, {"time": 2405, "pitch": 65, "duration": 10, "velocity": 64}, {"time": 2405, "pitch": 86, "duration": 15, "velocity": 64}, {"time": 2411, "pitch": 58, "duration": 5, "velocity": 64}, {"time": 2417, "pitch": 62, "duration": 6, "velocity": 64}, {"time": 2417, "pitch": 65, "duration": 6, "velocity": 64}, {"time": 2423, "pitch": 89, "duration": 4, "velocity": 64}, {"time": 2429, "pitch": 45, "duration": 20, "velocity": 64}, {"time": 2429, "pitch": 60, "duration": 10, "velocity": 64}, {"time": 2429, "pitch": 64, "duration": 10, "velocity": 64}, {"time": 2429, "pitch": 84, "duration": 16, "velocity": 64}, {"time": 2435, "pitch": 52, "duration": 15, "velocity": 64}, {"time": 2441, "pitch": 60, "duration": 5, "velocity": 64}, {"time": 2441, "pitch": 64, "duration": 5, "velocity": 64}, {"time": 2441, "pitch": 81, "duration": 10, "velocity": 64}, {"time": 2447, "pitch": 57, "duration": 2, "velocity": 64}, {"time": 2453, "pitch": 43, "duration": 16, "velocity": 64}, {"time": 2453, "pitch": 58, "duration": 10, "velocity": 64}, {"time": 2453, "pitch": 62, "duration": 10, "velocity": 64}, {"time": 2453, "pitch": 79, "duration": 7, "velocity": 64}, {"time": 2459, "pitch": 50, "duration": 12, "velocity": 64}, {"time": 2462, "pitch": 81, "duration": 6, "velocity": 64}, {"time": 2465, "pitch": 58, "duration": 6, "velocity": 64}, {"time": 2465, "pitch": 62, "duration": 6, "velocity": 64}, {"time": 2471, "pitch": 55, "duration": 6, "velocity": 64}, {"time": 2471, "pitch": 82, "duration": 3, "velocity": 64}, {"time": 2477, "pitch": 48, "duration": 15, "velocity": 64}, {"time": 2477, "pitch": 64, "duration": 11, "velocity": 64}, {"time": 2477, "pitch": 67, "duration": 11, "velocity": 64}, {"time": 2477, "pitch": 84, "duration": 12, "velocity": 64}, {"time": 2483, "pitch": 55, "duration": 7, "velocity": 64}, {"time": 2489, "pitch": 64, "duration": 6, "velocity": 64}, {"time": 2489, "pitch": 67, "duration": 6, "velocity": 64}, {"time": 2489, "pitch": 72, "duration": 6, "velocity": 64}, {"time": 2489, "pitch": 81, "duration": 4, "velocity": 64}, {"time": 2492, "pitch": 79, "duration": 4, "velocity": 64}, {"time": 2495, "pitch": 77, "duration": 4, "velocity": 64}, {"time": 2498, "pitch": 79, "duration": 2, "velocity": 64}, {"time": 2501, "pitch": 41, "duration": 16, "velocity": 64}, {"time": 2501, "pitch": 57, "duration": 18, "velocity": 64}, {"time": 2501, "pitch": 60, "duration": 18, "velocity": 64}, {"time": 2501, "pitch": 81, "duration": 6, "velocity": 64}, {"time": 2504, "pitch": 48, "duration": 16, "velocity": 64}, {"time": 2510, "pitch": 79, "duration": 3, "velocity": 64}, {"time": 2513, "pitch": 77, "duration": 3, "velocity": 64}, {"time": 2519, "pitch": 84, "duration": 3, "velocity": 64}, {"time": 2522, "pitch": 55, "duration": 18, "velocity": 64}, {"time": 2525, "pitch": 40, "duration": 18, "velocity": 64}, {"time": 2525, "pitch": 60, "duration": 18, "velocity": 64}, {"time": 2525, "pitch": 79, "duration": 8, "velocity": 64}, {"time": 2528, "pitch": 48, "duration": 15, "velocity": 64}, {"time": 2537, "pitch": 81, "duration": 3, "velocity": 64}, {"time": 2540, "pitch": 79, "duration": 4, "velocity": 64}, {"time": 2543, "pitch": 77, "duration": 2, "velocity": 64}, {"time": 2546, "pitch": 65, "duration": 16, "velocity": 64}, {"time": 2546, "pitch": 79, "duration": 3, "velocity": 64}, {"time": 2549, "pitch": 50, "duration": 15, "velocity": 64}, {"time": 2549, "pitch": 69, "duration": 15, "velocity": 64}, {"time": 2549, "pitch": 77, "duration": 7, "velocity": 64}, {"time": 2552, "pitch": 57, "duration": 11, "velocity": 64}, {"time": 2558, "pitch": 76, "duration": 3, "velocity": 64}, {"time": 2561, "pitch": 74, "duration": 4, "velocity": 64}, {"time": 2567, "pitch": 81, "duration": 4, "velocity": 64}, {"time": 2573, "pitch": 45, "duration": 16, "velocity": 64}, {"time": 2573, "pitch": 60, "duration": 18, "velocity": 64}, {"time": 2573, "pitch": 64, "duration": 16, "velocity": 64}, {"time": 2573, "pitch": 76, "duration": 8, "velocity": 64}, {"time": 2585, "pitch": 77, "duration": 6, "velocity": 64}, {"time": 2594, "pitch": 76, "duration": 4, "velocity": 64}, {"time": 2597, "pitch": 46, "duration": 18, "velocity": 64}, {"time": 2597, "pitch": 74, "duration": 7, "velocity": 64}, {"time": 2603, "pitch": 58, "duration": 11, "velocity": 64}, {"time": 2606, "pitch": 72, "duration": 2, "velocity": 64}, {"time": 2609, "pitch": 62, "duration": 11, "velocity": 64}, {"time": 2609, "pitch": 65, "duration": 11, "velocity": 64}, {"time": 2609, "pitch": 86, "duration": 2, "velocity": 64}, {"time": 2615, "pitch": 86, "duration": 3, "velocity": 64}, {"time": 2621, "pitch": 45, "duration": 18, "velocity": 64}, {"time": 2621, "pitch": 84, "duration": 10, "velocity": 64}, {"time": 2633, "pitch": 60, "duration": 6, "velocity": 64}, {"time": 2633, "pitch": 64, "duration": 6, "velocity": 64}, {"time": 2633, "pitch": 81, "duration": 7, "velocity": 64}, {"time": 2639, "pitch": 84, "duration": 7, "velocity": 64}, {"time": 2645, "pitch": 43, "duration": 16, "velocity": 64}, {"time": 2645, "pitch": 58, "duration": 16, "velocity": 64}, {"time": 2645, "pitch": 62, "duration": 16, "velocity": 64}, {"time": 2645, "pitch": 82, "duration": 6, "velocity": 64}, {"time": 2654, "pitch": 50, "duration": 7, "velocity": 64}, {"time": 2654, "pitch": 79, "duration": 3, "velocity": 64}, {"time": 2657, "pitch": 55, "duration": 8, "velocity": 64}, {"time": 2657, "pitch": 77, "duration": 3, "velocity": 64}, {"time": 2663, "pitch": 74, "duration": 4, "velocity": 64}, {"time": 2669, "pitch": 48, "duration": 21, "velocity": 64}, {"time": 2669, "pitch": 64, "duration": 11, "velocity": 64}, {"time": 2669, "pitch": 67, "duration": 11, "velocity": 64}, {"time": 2669, "pitch": 79, "duration": 6, "velocity": 64}, {"time": 2675, "pitch": 55, "duration": 15, "velocity": 64}, {"time": 2681, "pitch": 64, "duration": 10, "velocity": 64}, {"time": 2681, "pitch": 67, "duration": 10, "velocity": 64}, {"time": 2681, "pitch": 81, "duration": 4, "velocity": 64}, {"time": 2684, "pitch": 79, "duration": 4, "velocity": 64}, {"time": 2687, "pitch": 60, "duration": 2, "velocity": 64}, {"time": 2687, "pitch": 77, "duration": 4, "velocity": 64}, {"time": 2690, "pitch": 79, "duration": 2, "velocity": 64}, {"time": 2693, "pitch": 41, "duration": 18, "velocity": 64}, {"time": 2693, "pitch": 57, "duration": 11, "velocity": 64}, {"time": 2693, "pitch": 60, "duration": 11, "velocity": 64}, {"time": 2693, "pitch": 81, "duration": 6, "velocity": 64}, {"time": 2699, "pitch": 48, "duration": 20, "velocity": 64}, {"time": 2702, "pitch": 79, "duration": 3, "velocity": 64}, {"time": 2705, "pitch": 57, "duration": 11, "velocity": 64}, {"time": 2705, "pitch": 60, "duration": 11, "velocity": 64}, {"time": 2705, "pitch": 77, "duration": 3, "velocity": 64}, {"time": 2711, "pitch": 84, "duration": 3, "velocity": 64}, {"time": 2717, "pitch": 40, "duration": 18, "velocity": 64}, {"time": 2717, "pitch": 55, "duration": 10, "velocity": 64}, {"time": 2717, "pitch": 60, "duration": 10, "velocity": 64}, {"time": 2717, "pitch": 79, "duration": 8, "velocity": 64}, {"time": 2723, "pitch": 48, "duration": 10, "velocity": 64}, {"time": 2729, "pitch": 55, "duration": 7, "velocity": 64}, {"time": 2729, "pitch": 60, "duration": 6, "velocity": 64}, {"time": 2729, "pitch": 81, "duration": 3, "velocity": 64}, {"time": 2732, "pitch": 79, "duration": 4, "velocity": 64}, {"time": 2735, "pitch": 77, "duration": 2, "velocity": 64}, {"time": 2738, "pitch": 79, "duration": 3, "velocity": 64}, {"time": 2741, "pitch": 38, "duration": 16, "velocity": 64}, {"time": 2741, "pitch": 53, "duration": 11, "velocity": 64}, {"time": 2741, "pitch": 57, "duration": 11, "velocity": 64}, {"time": 2741, "pitch": 77, "duration": 7, "velocity": 64}, {"time": 2747, "pitch": 45, "duration": 12, "velocity": 64}, {"time": 2750, "pitch": 76, "duration": 3, "velocity": 64}, {"time": 2753, "pitch": 53, "duration": 6, "velocity": 64}, {"time": 2753, "pitch": 57, "duration": 6, "velocity": 64}, {"time": 2753, "pitch": 74, "duration": 4, "velocity": 64}, {"time": 2759, "pitch": 50, "duration": 6, "velocity": 64}, {"time": 2759, "pitch": 77, "duration": 6, "velocity": 64}, {"time": 2765, "pitch": 45, "duration": 18, "velocity": 64}, {"time": 2765, "pitch": 60, "duration": 11, "velocity": 64}, {"time": 2765, "pitch": 64, "duration": 11, "velocity": 64}, {"time": 2765, "pitch": 84, "duration": 5, "velocity": 64}, {"time": 2771, "pitch": 52, "duration": 16, "velocity": 64}, {"time": 2771, "pitch": 81, "duration": 6, "velocity": 64}, {"time": 2777, "pitch": 60, "duration": 11, "velocity": 64}, {"time": 2777, "pitch": 64, "duration": 8, "velocity": 64}, {"time": 2777, "pitch": 81, "duration": 7, "velocity": 64}, {"time": 2786, "pitch": 79, "duration": 2, "velocity": 64}, {"time": 2789, "pitch": 46, "duration": 18, "velocity": 64}, {"time": 2789, "pitch": 62, "duration": 10, "velocity": 64}, {"time": 2789, "pitch": 77, "duration": 3, "velocity": 64}, {"time": 2795, "pitch": 74, "duration": 5, "velocity": 64}, {"time": 2801, "pitch": 62, "duration": 7, "velocity": 64}, {"time": 2801, "pitch": 65, "duration": 7, "velocity": 64}, {"time": 2801, "pitch": 81, "duration": 7, "velocity": 64}, {"time": 2810, "pitch": 79, "duration": 2, "velocity": 64}, {"time": 2813, "pitch": 45, "duration": 16, "velocity": 64}, {"time": 2813, "pitch": 60, "duration": 11, "velocity": 64}]}]}